<svg id="c_glücklich" xmlns="http://www.w3.org/2000/svg" xmlns:xlink="http://www.w3.org/1999/xlink" width="414.124" height="416.235" viewBox="0 0 414.124 416.235">
  <defs>
    <clipPath id="clip-path">
      <rect id="Rechteck_1632" data-name="Rechteck 1632" width="414.124" height="416.235" fill="#91a031"/>
    </clipPath>
  </defs>
  <g id="Gruppe_9288" data-name="Gruppe 9288" clip-path="url(#clip-path)">
    <path id="Pfad_39997" data-name="Pfad 39997" d="M22.593,85.575,21.223,85l.468-2.715.392.589L6.879,76.53l.772-.254-1.63,2.381-1.369-.571,1.9-4.908,1.188-2.838a7.616,7.616,0,0,1,3.125-4,4.718,4.718,0,0,1,4.222-.024A5.192,5.192,0,0,1,18.014,69.1a7.079,7.079,0,0,1-.03,4.79l-.31-.129a4.751,4.751,0,0,1,1.083-1.471,3.48,3.48,0,0,1,1.326-.7,7.935,7.935,0,0,1,1.7-.261l5.154-.364-.85.584,1.583-1.975,1.369.571-1.477,3.537-6.042.235a11.631,11.631,0,0,0-2.016.22,2.406,2.406,0,0,0-1.233.668,5.332,5.332,0,0,0-.955,1.632l-.653,1.637-.218-.638,6.735,2.812-.729.151,1.79-2.616,1.369.571ZM15.643,77.1l-.865.185.981-2.35a5.652,5.652,0,0,0,.487-3.631,3.362,3.362,0,0,0-2.137-2.212,3.051,3.051,0,0,0-2.642-.028,4.421,4.421,0,0,0-1.922,2.4l-1.3,3.1L7.98,73.9Z" transform="translate(4.023 56.925)" fill="#91a031"/>
    <path id="Pfad_39998" data-name="Pfad 39998" d="M31.639,63.9a4.233,4.233,0,0,1-2.655,1.926,4.773,4.773,0,0,1-3.664-.934l-7.265-4.733.543-.013-1.781,1.71-1.244-.809,2.53-4.194,8.344,5.434a3.273,3.273,0,0,0,2.335.669,2.5,2.5,0,0,0,1.678-1.193,4.849,4.849,0,0,0,.688-2,7.755,7.755,0,0,0-.142-2.68l.362.47-8.2-5.342.589.017-1.781,1.71-1.242-.807,2.506-4.209L34.419,56.2l-.612.069,1.812-1.757,1.242.807-2.156,3.67-2.534-1.182.33-.252a9.319,9.319,0,0,1,.155,3.554A7.2,7.2,0,0,1,31.639,63.9" transform="translate(13.466 42.3)" fill="#91a031"/>
    <path id="Pfad_39999" data-name="Pfad 39999" d="M38.263,53.268,37.189,52.25l1.266-2.191.076.61L30.123,42.7l.636.063-2.12,1.382-1.076-1.02,2.782-3.22,2.219,1.6-.351.168a9.278,9.278,0,0,1,.489-3.524,7.149,7.149,0,0,1,1.5-2.564,4.38,4.38,0,0,1,2.967-1.466A4.567,4.567,0,0,1,40.579,35.7l6.4,6.058-.535-.084,2.04-1.341,1.076,1.018L44.862,46.3l-1.076-1.02,1.192-2.07.093.591L39.081,38.13a3.329,3.329,0,0,0-2.226-1.108,2.565,2.565,0,0,0-1.876.882,4.889,4.889,0,0,0-1.037,1.848,7.725,7.725,0,0,0-.345,2.661l-.231-.489,7.108,6.733-.537-.086,1.943-1.279,1.078,1.02Z" transform="translate(23.834 29.502)" fill="#91a031"/>
    <path id="Pfad_40000" data-name="Pfad 40000" d="M54.59,39.9a4.927,4.927,0,0,1-2.782.986,5.615,5.615,0,0,1-3.08-.863,10.324,10.324,0,0,1-2.984-2.857q-2.35-3.2-1.9-5.993a7.627,7.627,0,0,1,3.332-4.913,11.066,11.066,0,0,1,1.22-.774,14.165,14.165,0,0,1,1.4-.666l-.269.58-3.131-4.261.425.1-2.37.977-.876-1.193L47.491,17.9,59.33,34.022l-.558-.145,2.331-.983.878,1.2L58.67,36.763l-1.738-1.706.313-.093A9.939,9.939,0,0,1,56.3,37.9a5.816,5.816,0,0,1-1.706,2m-.408-2.3A4.166,4.166,0,0,0,55.4,36.112a8.121,8.121,0,0,0,.746-2.318l.237.938L50.2,26.324l.69.324a9.886,9.886,0,0,0-2.579,1.307,4.1,4.1,0,0,0-1.9,3.25,6.631,6.631,0,0,0,1.523,4.035,8.738,8.738,0,0,0,2.144,2.139,4.364,4.364,0,0,0,2.18.794,2.918,2.918,0,0,0,1.919-.578" transform="translate(37.677 15.482)" fill="#91a031"/>
    <path id="Pfad_40001" data-name="Pfad 40001" d="M70.7,28.08a4.237,4.237,0,0,1-3.269.289,4.774,4.774,0,0,1-2.665-2.683L60.962,17.9l.474.267-2.407.554-.649-1.333,4.324-2.3,4.371,8.949A3.269,3.269,0,0,0,68.732,25.8a2.506,2.506,0,0,0,2.053-.162,4.842,4.842,0,0,0,1.62-1.367A7.783,7.783,0,0,0,73.66,21.9l.069.589-4.3-8.8.5.317-2.407.552-.651-1.331,4.313-2.323L77.039,22.9l-.558-.255,2.456-.578.651,1.331-3.733,2.042-1.568-2.316.414-.047a9.33,9.33,0,0,1-1.7,3.131,7.179,7.179,0,0,1-2.3,1.874" transform="translate(50.48 9.434)" fill="#91a031"/>
    <path id="Pfad_40002" data-name="Pfad 40002" d="M91.15,7.588l-.358.177a9.606,9.606,0,0,1,2.282-2.773A6.978,6.978,0,0,1,95.709,3.6a3.969,3.969,0,0,1,3.075.4,4.675,4.675,0,0,1,2,3.1l2.182,8.6-.408-.362L105,15.3l.364,1.436L98.8,18.4l-.365-1.44,2.059-1.1-.235.55-2.029-8a3.52,3.52,0,0,0-1.236-2.139,2.244,2.244,0,0,0-1.895-.3,4.615,4.615,0,0,0-1.816,1.026,7.862,7.862,0,0,0-1.712,2.122l.058-.679c.058.157.11.3.155.434s.08.265.112.39l2.2,8.676-.41-.358,2.253.007.367,1.436L89.936,20.65l-.365-1.436,2.059-1.1-.235.546-2.031-8a3.458,3.458,0,0,0-1.249-2.133,2.241,2.241,0,0,0-1.88-.3,4.72,4.72,0,0,0-1.824.994,7.805,7.805,0,0,0-1.7,2.064l.073-.509,2.4,9.46-.408-.358,2.273-.028.364,1.44-6.56,1.663-.365-1.438,2.241-1.175-.261.559L79.618,9.678l.5.393-2.53.034L77.226,8.67,81.3,7.433l1.02,2.54-.388-.045A9.062,9.062,0,0,1,84.2,7.215a7.233,7.233,0,0,1,2.64-1.363,4.051,4.051,0,0,1,2.391.09A3.746,3.746,0,0,1,91.15,7.588" transform="translate(66.777 2.994)" fill="#91a031"/>
    <path id="Pfad_40003" data-name="Pfad 40003" d="M120.685,23.048a10.36,10.36,0,0,1-4.9-1.281,2.968,2.968,0,0,1-1.458-2.834,3.263,3.263,0,0,1,1.039-2.213,7.093,7.093,0,0,1,2.7-1.481l-.039.558a2.876,2.876,0,0,1-1.462-.537,1.2,1.2,0,0,1-.472-1.083,1.642,1.642,0,0,1,.1-.455,6.374,6.374,0,0,1,.3-.64q.21-.406.591-1.052c.255-.431.582-.986.986-1.669l.022.477a4.625,4.625,0,0,1-1.8-1.906,5.137,5.137,0,0,1-.485-2.711,4.927,4.927,0,0,1,1.934-3.8,6.8,6.8,0,0,1,4.69-1.119,7.98,7.98,0,0,1,3.412.94l-.688-.188,4.477.116-.086,1.65-2.488.3.222-.377a3.511,3.511,0,0,1,.718,1.354,5.042,5.042,0,0,1,.157,1.762,4.9,4.9,0,0,1-1.977,3.83,6.788,6.788,0,0,1-4.621,1.123,8.557,8.557,0,0,1-2.84-.675l.662-.263-.88,3.388-.567-.321,5.5.384a6.846,6.846,0,0,1,4.071,1.348,3.6,3.6,0,0,1,1.2,3.14,3.962,3.962,0,0,1-2.172,3.411,10.865,10.865,0,0,1-5.833.826m.4-2.075a8.008,8.008,0,0,0,3.645-.364,1.977,1.977,0,0,0,1.27-1.76,1.846,1.846,0,0,0-.722-1.7,4.505,4.505,0,0,0-2.445-.733l-4.576-.319.737-.116q-2.067,1.116-2.169,2.568a1.7,1.7,0,0,0,.964,1.665,7.921,7.921,0,0,0,3.295.763m.578-11.091a3.526,3.526,0,0,0,2.614-.7,3.368,3.368,0,0,0,1.083-2.463,3.242,3.242,0,0,0-.681-2.514,3.45,3.45,0,0,0-2.413-.983,3.5,3.5,0,0,0-2.584.675,3.341,3.341,0,0,0-1.052,2.437,3.38,3.38,0,0,0,.664,2.527,3.272,3.272,0,0,0,2.368,1.02" transform="translate(98.849 1.1)" fill="#91a031"/>
    <path id="Pfad_40004" data-name="Pfad 40004" d="M137.03,20.34l-.173-.384L139,21.011l-.326,1.447-6.8-1.527.326-1.447,2.415-.03-.319.272L138.245,2.18l.162.295-2.146-1.027L136.586,0,141.4.882Z" transform="translate(114.033)" fill="#91a031"/>
    <path id="Pfad_40005" data-name="Pfad 40005" d="M149.408,25.675A4.226,4.226,0,0,1,147,23.447a4.756,4.756,0,0,1,.2-3.774l3.215-8.054.119.53L148.5,10.737l.55-1.376,4.608,1.658-3.692,9.249a3.273,3.273,0,0,0-.2,2.42,2.512,2.512,0,0,0,1.5,1.412,4.891,4.891,0,0,0,2.1.282,7.76,7.76,0,0,0,2.6-.664l-.39.448,3.629-9.092.1.582-2.027-1.412.55-1.376,4.621,1.632L157.5,26.889l-.186-.586,2.079,1.43-.55,1.378-4.02-1.395L155.489,25l.311.274a9.368,9.368,0,0,1-3.455.85,7.2,7.2,0,0,1-2.937-.449M154.975,8.41a1.421,1.421,0,0,1-.878-.817,1.853,1.853,0,0,1,.06-1.285,1.669,1.669,0,0,1,.873-.977,1.484,1.484,0,0,1,1.18-.011,1.468,1.468,0,0,1,.873.83,1.725,1.725,0,0,1-.067,1.3,1.609,1.609,0,0,1-.867.964,1.5,1.5,0,0,1-1.173,0m5.352,2.137a1.476,1.476,0,0,1-.893-.822,1.711,1.711,0,0,1,.076-1.279,1.548,1.548,0,0,1,.858-.983,1.528,1.528,0,0,1,1.192-.007,1.459,1.459,0,0,1,.875.832,1.734,1.734,0,0,1-.067,1.3,1.592,1.592,0,0,1-.88.96,1.524,1.524,0,0,1-1.16,0" transform="translate(126.846 4.499)" fill="#91a031"/>
    <path id="Pfad_40006" data-name="Pfad 40006" d="M166.585,31.131a6.14,6.14,0,0,1-2.972-5.913,8.883,8.883,0,0,1,1.406-3.9,9.538,9.538,0,0,1,2.394-2.73,6.719,6.719,0,0,1,2.659-1.216,6.448,6.448,0,0,1,2.7.022,8.122,8.122,0,0,1,2.519,1.031,11.338,11.338,0,0,1,3.435,3.437l-2.053,3.107L175.1,24l.992-2.346.1.321a4.739,4.739,0,0,0-.912-1.024,8.835,8.835,0,0,0-1.059-.785,3.943,3.943,0,0,0-2.348-.647,4.248,4.248,0,0,0-2.279.9,8.128,8.128,0,0,0-2.008,2.292,7.659,7.659,0,0,0-1.139,2.881,4.189,4.189,0,0,0,.28,2.394,3.854,3.854,0,0,0,1.527,1.68,5.982,5.982,0,0,0,1.943.74,9.832,9.832,0,0,0,2.558.17l.054,1.775a11.617,11.617,0,0,1-3.437-.134,8.45,8.45,0,0,1-2.784-1.08" transform="translate(141.453 14.909)" fill="#91a031"/>
    <path id="Pfad_40007" data-name="Pfad 40007" d="M175.947,39.545l.977-1.115,2.258,1.2-.664.162,12.074-13.745-.052.44-1.415-1.95.979-1.113,3.808,3.082-8.546,9.732-.1-.649,2.838,2.491-.748-.209,5.055-1.516-.054.4-1.417-1.691.977-1.113,4.921,4.061-.958,1.093-2.2-1.225.9.159-6.107,1.783.517-.587-1.775,8.082-.08-.628,1.311,1.9-.958,1.093L184.6,47.15l1.926-8.21.229.5-2.752-2.419.544.144-3.931,4.477.116-.643,1.378,1.993-.979,1.113Z" transform="translate(152.14 20.257)" fill="#91a031"/>
    <path id="Pfad_40008" data-name="Pfad 40008" d="M193.147,53.512l.1-.408,1.065,2.137-1.134.953-4.483-5.331,1.136-.955,1.939,1.44-.42.024L205.115,39.8l-.048.334-1.087-2.12,1.136-.953,3.3,3.621Z" transform="translate(163.16 32.045)" fill="#91a031"/>
    <path id="Pfad_40009" data-name="Pfad 40009" d="M201.19,63.163l.147-.392.785,2.284-1.251.792-3.728-5.883,1.253-.794,1.729,1.686-.433-.056,9.523-6.032-.08.349-.792-2.247,1.253-.792,2.745,4.02Zm12.645-9.831a1.729,1.729,0,0,1-.267-1.307,1.8,1.8,0,0,1,.875-1.132,1.752,1.752,0,0,1,1.417-.3,1.963,1.963,0,0,1,1.352,2.139,1.776,1.776,0,0,1-.882,1.139,1.731,1.731,0,0,1-1.425.289,1.847,1.847,0,0,1-1.07-.828" transform="translate(170.469 43.706)" fill="#91a031"/>
    <path id="Pfad_40010" data-name="Pfad 40010" d="M205.571,75.579a6.15,6.15,0,0,1,.908-6.556,8.883,8.883,0,0,1,3.369-2.411,9.5,9.5,0,0,1,3.521-.889,6.736,6.736,0,0,1,2.881.505,6.5,6.5,0,0,1,2.208,1.551,8.132,8.132,0,0,1,1.49,2.279,10.412,10.412,0,0,1,.712,2.42,10.2,10.2,0,0,1,.164,2.357l-3.452,1.395-.74-1.691,2.146-1.371-.1.321a4.7,4.7,0,0,0-.17-1.361,8.611,8.611,0,0,0-.427-1.249,3.921,3.921,0,0,0-1.566-1.863,4.241,4.241,0,0,0-2.383-.556,8.117,8.117,0,0,0-2.956.748,7.639,7.639,0,0,0-2.571,1.725,4.172,4.172,0,0,0-1.126,2.129,3.837,3.837,0,0,0,.3,2.251,6.008,6.008,0,0,0,1.177,1.712,9.985,9.985,0,0,0,2.016,1.591L210,80.109a11.68,11.68,0,0,1-2.752-2.06,8.448,8.448,0,0,1-1.68-2.469" transform="translate(177.271 56.827)" fill="#91a031"/>
    <path id="Pfad_40011" data-name="Pfad 40011" d="M209.984,85.557l1.44-.354,1.165,2.277-.554-.267L229.8,82.838l-.4.5-.026-2.558,1.44-.352,1.361,4.7-9.152,2.254-.013-.63a9.068,9.068,0,0,1,2.7,2.288,7.2,7.2,0,0,1,1.343,2.652,4.735,4.735,0,0,1,.03,2.282,3.68,3.68,0,0,1-1.124,1.874,5.2,5.2,0,0,1-2.411,1.143l-8.581,2.115.36-.407.034,2.469-1.441.354-1.639-6.653,1.441-.354,1.1,2.12-.548-.241,8.011-1.973a3.207,3.207,0,0,0,2.137-1.261,2.607,2.607,0,0,0,.27-2.068,4.947,4.947,0,0,0-.99-1.859A7.531,7.531,0,0,0,221.61,87.5l.571.089-9.506,2.342.362-.407.026,2.327-1.44.354Z" transform="translate(181.572 69.545)" fill="#91a031"/>
    <path id="Pfad_40012" data-name="Pfad 40012" d="M226.365,128.646l-.052-.4a9.618,9.618,0,0,1,1.883,3.056,6.953,6.953,0,0,1,.464,2.942,3.954,3.954,0,0,1-1.374,2.78,4.69,4.69,0,0,1-3.58.888l-8.837-.714.47-.27-.748,2.323-1.477-.119.544-6.746,1.479.121.373,2.3-.446-.4,8.227.664a3.5,3.5,0,0,0,2.422-.477,2.242,2.242,0,0,0,.9-1.7,4.669,4.669,0,0,0-.38-2.051,7.93,7.93,0,0,0-1.456-2.3l.623.274c-.168,0-.323.006-.464,0s-.274-.007-.4-.019l-8.923-.722.47-.27-.733,2.131-1.477-.121.53-6.553,1.477.121.375,2.3-.444-.4,8.225.666a3.477,3.477,0,0,0,2.424-.492,2.253,2.253,0,0,0,.893-1.682,4.756,4.756,0,0,0-.352-2.049,7.824,7.824,0,0,0-1.4-2.273l.459.233-9.73-.785.47-.272-.707,2.159-1.479-.119.546-6.746,1.477.119.388,2.5-.442-.431,11.541.934-.533.351.785-2.407,1.477.119-.147,4.253-2.734.144.17-.351a9.1,9.1,0,0,1,1.833,3.025,7.209,7.209,0,0,1,.434,2.939,4.037,4.037,0,0,1-.854,2.232,3.761,3.761,0,0,1-2.18,1.283" transform="translate(184.279 98.518)" fill="#91a031"/>
    <path id="Pfad_40013" data-name="Pfad 40013" d="M212.159,142.407l.39-.155-1.151,2.122-1.43-.386,1.809-6.726,1.432.386-.069,2.415-.252-.356,10.884,2.929-.308.177,1.115-2.1,1.432.384-1.1,4.744Zm15.8,2.657a1.714,1.714,0,0,1,.783-1.078,1.79,1.79,0,0,1,1.425-.125,1.749,1.749,0,0,1,1.177.839,1.761,1.761,0,0,1-2.094,2.568,1.734,1.734,0,0,1-1.175-.852,1.856,1.856,0,0,1-.116-1.352" transform="translate(181.558 118.689)" fill="#91a031"/>
    <path id="Pfad_40014" data-name="Pfad 40014" d="M205.683,153.945a3.173,3.173,0,0,1,1.9-1.911,4.383,4.383,0,0,1,3.084.362l8.846,3.787-.515.205,1.1-2.57,1.389.593-.66,2.819-.313-.619,3.42,1.462-.662,2.76-3.858-1.65.518-.144-1.7,3.985-1.716-.824,1.671-3.908.227.462-8.486-3.632a2.7,2.7,0,0,0-1.738-.272,1.545,1.545,0,0,0-.99.96,4.043,4.043,0,0,0-.27,1.026,7.941,7.941,0,0,0-.065,1.326l-1.686-.114a8.4,8.4,0,0,1,.507-4.1" transform="translate(177.37 131.336)" fill="#91a031"/>
    <path id="Pfad_40015" data-name="Pfad 40015" d="M198.154,174.342l1.143.944-1.234,2.463-.2-.677,12.706,10.487-.813.019L212,185.771l1.143.945-3.237,4.143-1.96,2.374a7.625,7.625,0,0,1-4.151,2.92,4.722,4.722,0,0,1-4.05-1.2,5.2,5.2,0,0,1-2-3.515,7.084,7.084,0,0,1,1.421-4.576l.257.213a4.716,4.716,0,0,1-1.466,1.095,3.468,3.468,0,0,1-1.471.289,7.938,7.938,0,0,1-1.7-.244l-5.037-1.147.983-.311-2.088,1.43-1.143-.944,2.441-2.956,5.846,1.527a11.64,11.64,0,0,0,2,.375,2.4,2.4,0,0,0,1.372-.28,5.416,5.416,0,0,0,1.387-1.285l1.1-1.378.026.673-5.631-4.647.742.069-2.474,1.984-1.143-.944Zm4.188,10.129.882.075-1.62,1.964a5.65,5.65,0,0,0-1.52,3.334,3.365,3.365,0,0,0,1.4,2.737,3.056,3.056,0,0,0,2.521.791,4.426,4.426,0,0,0,2.536-1.732l2.135-2.588.069.709Z" transform="translate(162.136 150.752)" fill="#91a031"/>
    <path id="Pfad_40016" data-name="Pfad 40016" d="M181.533,190.627a4.235,4.235,0,0,1,3.1-1.076,4.766,4.766,0,0,1,3.237,1.952l5.59,6.629-.524-.144,2.2-1.123.957,1.134-3.636,3.284-6.416-7.614A3.28,3.28,0,0,0,184,192.355a2.515,2.515,0,0,0-1.952.656,4.923,4.923,0,0,0-1.238,1.721,7.765,7.765,0,0,0-.638,2.607l-.213-.556,6.31,7.485-.559-.186,2.2-1.123.957,1.134-3.618,3.3-8.6-10.2.6.112-2.241,1.16-.957-1.134,3.125-2.89,2.083,1.865-.39.145a9.391,9.391,0,0,1,.88-3.448,7.212,7.212,0,0,1,1.781-2.379" transform="translate(150.503 163.894)" fill="#91a031"/>
    <path id="Pfad_40017" data-name="Pfad 40017" d="M172.347,199.506l.737,1.287-1.848,1.732.106-.608,5.745,10.054-.589-.244,2.428-.71.735,1.287-3.593,2.279-1.661-2.174.386-.06a9.411,9.411,0,0,1-1.488,3.235,7.184,7.184,0,0,1-2.18,2.018,4.379,4.379,0,0,1-3.265.546,4.569,4.569,0,0,1-2.806-2.488l-4.373-7.651.49.237-2.342.694-.737-1.287,5.926-3.386.737,1.287-1.74,1.637.08-.593,4.093,7.164a3.335,3.335,0,0,0,1.812,1.7,2.556,2.556,0,0,0,2.051-.3,4.855,4.855,0,0,0,1.527-1.469,7.809,7.809,0,0,0,1.1-2.446l.08.533-4.859-8.5.49.235-2.23.664-.737-1.287Z" transform="translate(136.7 172.511)" fill="#91a031"/>
    <path id="Pfad_40018" data-name="Pfad 40018" d="M150.044,209.021a4.91,4.91,0,0,1,2.948-.132,5.6,5.6,0,0,1,2.7,1.721,10.322,10.322,0,0,1,2.023,3.6q1.317,3.745.078,6.288a7.64,7.64,0,0,1-4.619,3.729,11.077,11.077,0,0,1-1.391.386,13.687,13.687,0,0,1-1.536.229l.425-.477,1.755,4.988-.375-.224,2.553-.246.49,1.4-4.658,1.846L143.8,213.265l.49.3-2.515.265-.494-1.4,3.946-1.6,1.167,2.139-.324,0a9.866,9.866,0,0,1,1.762-2.532,5.828,5.828,0,0,1,2.213-1.417m-.28,2.323a4.188,4.188,0,0,0-1.6,1.065,8.256,8.256,0,0,0-1.387,2l.047-.966,3.461,9.842-.565-.513a9.862,9.862,0,0,0,2.849-.5,4.1,4.1,0,0,0,2.762-2.557,6.63,6.63,0,0,0-.283-4.3,8.715,8.715,0,0,0-1.428-2.67,4.342,4.342,0,0,0-1.855-1.395,2.912,2.912,0,0,0-2-.006" transform="translate(122.164 180.481)" fill="#91a031"/>
    <path id="Pfad_40019" data-name="Pfad 40019" d="M132.924,213.558a4.238,4.238,0,0,1,3.211.679,4.774,4.774,0,0,1,1.764,3.343l1.361,8.565-.373-.4,2.465.175.233,1.464-4.809.934-1.564-9.833a3.278,3.278,0,0,0-1.07-2.18,2.508,2.508,0,0,0-2.012-.446,4.882,4.882,0,0,0-1.949.835,7.69,7.69,0,0,0-1.891,1.9l.1-.584,1.538,9.667-.382-.449,2.465.175.233,1.464-4.8.962-2.1-13.174.461.407-2.519-.164-.233-1.464,4.168-.863.822,2.674-.408-.076a9.343,9.343,0,0,1,2.532-2.5,7.2,7.2,0,0,1,2.754-1.119" transform="translate(106.406 184.604)" fill="#91a031"/>
    <path id="Pfad_40020" data-name="Pfad 40020" d="M110.441,227.578l.4-.067a9.555,9.555,0,0,1-2.987,2,6.929,6.929,0,0,1-2.922.571A3.975,3.975,0,0,1,102.1,228.8a4.691,4.691,0,0,1-1.018-3.545l.393-8.857.289.461-2.351-.664.065-1.481,6.761.3-.065,1.482-2.288.459.384-.459-.365,8.242a3.525,3.525,0,0,0,.565,2.405,2.247,2.247,0,0,0,1.729.832,4.651,4.651,0,0,0,2.034-.455,7.926,7.926,0,0,0,2.253-1.538l-.252.632c-.011-.168-.019-.321-.022-.462s0-.276.006-.4l.4-8.943.287.461-2.154-.654.065-1.481,6.566.289-.065,1.482-2.286.459.384-.459-.365,8.242a3.469,3.469,0,0,0,.578,2.405,2.257,2.257,0,0,0,1.714.834,4.751,4.751,0,0,0,2.034-.429,7.823,7.823,0,0,0,2.221-1.482l-.216.466.433-9.752.287.461-2.184-.628.065-1.482,6.763.3-.065,1.482-2.486.477.412-.459-.513,11.569-.369-.52,2.433.7-.067,1.482-4.255.006-.244-2.726.36.157a9.09,9.09,0,0,1-2.957,1.941,7.231,7.231,0,0,1-2.922.543,4.057,4.057,0,0,1-2.262-.772,3.764,3.764,0,0,1-1.361-2.133" transform="translate(85.96 185.664)" fill="#91a031"/>
    <rect id="Rechteck_1631" data-name="Rechteck 1631" width="2.153" height="8.279" transform="matrix(0.35, -0.937, 0.937, 0.35, 132.701, 396.323)" fill="#91a031"/>
    <path id="Pfad_40021" data-name="Pfad 40021" d="M50.673,209.324a2.329,2.329,0,0,0,.518-1.622,4.356,4.356,0,0,0-.554-1.729,16.192,16.192,0,0,0-1.167-1.822q-.682-.931-1.313-1.932a10.2,10.2,0,0,1-1-2.046,4.677,4.677,0,0,1-.227-2.165,4.907,4.907,0,0,1,1.033-2.3,5.1,5.1,0,0,1,2.782-2,5.969,5.969,0,0,1,3.312.11,10.864,10.864,0,0,1,3.355,1.753,15.054,15.054,0,0,1,2.15,1.982,16.272,16.272,0,0,1,1.816,2.469l-3.026,3.744-1.341-1.009,1.678-3.114-.075.61a9.7,9.7,0,0,0-1.167-1.682,9.241,9.241,0,0,0-1.464-1.38,6.53,6.53,0,0,0-2-1.046,3.7,3.7,0,0,0-1.962-.112,2.71,2.71,0,0,0-1.585,1.083,2.465,2.465,0,0,0-.561,1.678,4.279,4.279,0,0,0,.546,1.74,16.768,16.768,0,0,0,1.154,1.812q.674.926,1.318,1.9a9.435,9.435,0,0,1,1.024,2.012,4.563,4.563,0,0,1,.244,2.143,4.789,4.789,0,0,1-1.007,2.271,5.012,5.012,0,0,1-2.584,1.923,5.422,5.422,0,0,1-3.058-.026,9.508,9.508,0,0,1-3.146-1.611,14.379,14.379,0,0,1-2.092-1.941A15.457,15.457,0,0,1,40.5,206.57l2.941-3.493L44.8,204.1l-1.57,2.879-.073-.509a8.549,8.549,0,0,0,1.052,1.44,9.648,9.648,0,0,0,1.367,1.255,6.907,6.907,0,0,0,1.807.992,3.389,3.389,0,0,0,1.794.175,2.437,2.437,0,0,0,1.5-1.011" transform="translate(35.017 167.335)" fill="#91a031"/>
    <path id="Pfad_40022" data-name="Pfad 40022" d="M42.212,183.984a6.632,6.632,0,0,1,1.706,3.06,5.784,5.784,0,0,1-.265,3.4,9.078,9.078,0,0,1-2.4,3.388,9.725,9.725,0,0,1-3.67,2.282,6.349,6.349,0,0,1-3.666.1,6.969,6.969,0,0,1-3.243-2.038A6.064,6.064,0,0,1,29,191.167a5.029,5.029,0,0,1,.358-2.987,8.375,8.375,0,0,1,2-2.749c.175-.166.36-.324.55-.477s.41-.324.668-.515l7.261,7.724-1.4,1.322L32.9,187.6l.295.069a6.239,6.239,0,0,0-1.337,1.641,3.1,3.1,0,0,0-.4,1.8,3.041,3.041,0,0,0,.906,1.8,3.306,3.306,0,0,0,2.014,1.1,4.185,4.185,0,0,0,2.3-.4,8.721,8.721,0,0,0,2.346-1.628,8.438,8.438,0,0,0,1.844-2.389,4.214,4.214,0,0,0,.461-2.409,3.914,3.914,0,0,0-1.117-2.23,7.058,7.058,0,0,0-1.79-1.331,11.428,11.428,0,0,0-2.534-.979l.451-1.766a12.26,12.26,0,0,1,3.356,1.2,9.889,9.889,0,0,1,2.525,1.908" transform="translate(25.002 156.402)" fill="#91a031"/>
    <path id="Pfad_40023" data-name="Pfad 40023" d="M35.7,174.8l-1.229.828-1.809-1.684.584.013-9.631,6.48.214-.584.873,2.348-1.233.828-2.534-3.418,2.047-1.816.11.364a12.045,12.045,0,0,1-3.075-.914,5.007,5.007,0,0,1-2.064-1.764,7.127,7.127,0,0,1-.83-1.734l3.8-2.32.953,1.415L19.622,174.8l.315-.584a2.893,2.893,0,0,0,.157.382,3.174,3.174,0,0,0,.2.352,3.74,3.74,0,0,0,1.654,1.331,8.174,8.174,0,0,0,2.359.621l-.815.244,8.192-5.512-.192.567L30.3,169.43l1.233-.828Z" transform="translate(14.81 145.789)" fill="#91a031"/>
    <path id="Pfad_40024" data-name="Pfad 40024" d="M10.976,160.19,8.3,154.8l1.348-.615,1.315,1.4-.617-.211,14.147-1.2,1.361,2.978L15.569,166.61l.172-.571.386,1.854-1.35.617-2.838-5.745,1.346-.617,1.471,1.943-.448-.041,9.092-7.966.1.229-11.988,1.354.173-.293.636,2.2Z" transform="translate(7.177 133.309)" fill="#91a031"/>
    <path id="Pfad_40025" data-name="Pfad 40025" d="M4.461,146.7a1.719,1.719,0,0,1-.116,1.328,1.789,1.789,0,0,1-1.16.835,1.743,1.743,0,0,1-1.441-.112,1.794,1.794,0,0,1-.789-1.085,1.79,1.79,0,0,1,.1-1.35,1.781,1.781,0,0,1,1.173-.843,1.737,1.737,0,0,1,1.445.129,1.843,1.843,0,0,1,.791,1.1m14.919-5.831-.255.334-.1-2.413,1.425-.4,1.9,6.7-1.428.406-1.178-2.109.4.175L9.3,146.638l.173-.311.121,2.379-1.426.4-1.49-4.636Z" transform="translate(0.751 119.664)" fill="#91a031"/>
    <path id="Pfad_40026" data-name="Pfad 40026" d="M16.1,127.481a6.149,6.149,0,0,1-2.737,6.025,8.853,8.853,0,0,1-3.918,1.354,9.526,9.526,0,0,1-3.629-.149A6.735,6.735,0,0,1,3.2,133.406a6.467,6.467,0,0,1-1.674-2.116,8.091,8.091,0,0,1-.779-2.607,10.311,10.311,0,0,1,.007-2.525,10.158,10.158,0,0,1,.511-2.3l3.705-.354L5.2,125.33l-2.448.7.188-.278a4.828,4.828,0,0,0-.224,1.354,8.559,8.559,0,0,0,.056,1.318,3.918,3.918,0,0,0,.97,2.232,4.228,4.228,0,0,0,2.128,1.212,8.11,8.11,0,0,0,3.043.123,7.624,7.624,0,0,0,2.957-.921,4.179,4.179,0,0,0,1.688-1.721,3.856,3.856,0,0,0,.351-2.243,6.021,6.021,0,0,0-.643-1.977,9.9,9.9,0,0,0-1.477-2.1l1.35-1.156a11.61,11.61,0,0,1,2.053,2.758,8.5,8.5,0,0,1,.908,2.846" transform="translate(0.58 105.387)" fill="#91a031"/>
    <path id="Pfad_40027" data-name="Pfad 40027" d="M15.361,111.23a6.655,6.655,0,0,1-.981,3.364,5.8,5.8,0,0,1-2.6,2.195,9.061,9.061,0,0,1-4.1.671,9.706,9.706,0,0,1-4.2-1.014A6.333,6.333,0,0,1,.83,113.909a6.95,6.95,0,0,1-.822-3.739,6.06,6.06,0,0,1,.964-3.308,5.05,5.05,0,0,1,2.381-1.842,8.412,8.412,0,0,1,3.362-.5c.242.009.485.03.725.056s.52.067.835.116l-.4,10.593-1.928-.073.306-8.078.158.257a6.368,6.368,0,0,0-2.107.2,3.128,3.128,0,0,0-1.563.977,3.033,3.033,0,0,0-.645,1.906,3.309,3.309,0,0,0,.63,2.208,4.191,4.191,0,0,0,1.893,1.359,8.752,8.752,0,0,0,2.808.528,8.527,8.527,0,0,0,2.995-.362,4.227,4.227,0,0,0,2.038-1.365,3.921,3.921,0,0,0,.8-2.363,7.016,7.016,0,0,0-.308-2.208,11.291,11.291,0,0,0-1.08-2.491l1.574-.921a12.378,12.378,0,0,1,1.5,3.235,9.892,9.892,0,0,1,.414,3.136" transform="translate(0 90.37)" fill="#91a031"/>
    <path id="Pfad_40028" data-name="Pfad 40028" d="M9.44,95.481a1.582,1.582,0,0,1-1.128-.738,1.731,1.731,0,0,1-.235-1.251,1.706,1.706,0,0,1,.686-1.167A1.681,1.681,0,0,1,10.07,92.1a1.581,1.581,0,0,1,1.128.737,1.762,1.762,0,0,1,.231,1.281,1.59,1.59,0,0,1-1.99,1.365" transform="translate(6.957 79.602)" fill="#91a031"/>
  </g>
</svg>
