<svg xmlns="http://www.w3.org/2000/svg" width="415.678" height="420.885" viewBox="0 0 415.678 420.885">
  <path id="c_idee" d="M-6279.061,1420.353l-2.059-.408-.06-1.461,6.867-.28.061,1.461-2.05.578.706,17.267,2.086.39.06,1.461-4.818.389Zm15.8,11.653-.407-4.373,1.668-.231.62,2.341c.053,0,.107,0,.162,0a2.856,2.856,0,0,0,.4-.028,3.682,3.682,0,0,0,1.9-.889,7.936,7.936,0,0,0,1.365-1.509l-1.206-8.738-2.608-.128-.2-1.451,7.3-1.007.2,1.45-1.957.75,1.456,10.555,2.09.208.2,1.451-4.129.766-.609-2.2a11.425,11.425,0,0,1-1.886,1.982,4.939,4.939,0,0,1-2.459,1.064,6.272,6.272,0,0,1-.85.056A7.727,7.727,0,0,1-6263.263,1432.006ZM-6258.4,1418.6Zm-69.384,10.2a14.7,14.7,0,0,1-2.632-.316,5.659,5.659,0,0,1-3.293-1.782,3.874,3.874,0,0,1-.549-3.43l1.885-8.475-1.916-.922.317-1.428,4.137.723-.178,2.387a7.972,7.972,0,0,1,2.727-1.254,6.132,6.132,0,0,1,2.758-.065,3.936,3.936,0,0,1,2.453,1.621,4.059,4.059,0,0,1,.435,3.321,4.012,4.012,0,0,1-1.217,2.288,3.785,3.785,0,0,1-2.166.834,9.876,9.876,0,0,1-2.94-.259l-3.045-.677-.449,2.019a2.533,2.533,0,0,0,.278,2.17,3.157,3.157,0,0,0,1.888,1.057,8.232,8.232,0,0,0,1.445.181,10.86,10.86,0,0,0,1.33-.038l.739-2.074,1.779.394-.583,3.632q-1.285.107-2.4.107C-6327.255,1428.818-6327.521,1428.814-6327.779,1428.8Zm-.227-8.577a4.167,4.167,0,0,0,2.572.006,1.99,1.99,0,0,0,1.034-1.466,2.345,2.345,0,0,0-.184-1.837,2.012,2.012,0,0,0-1.308-.87,4.152,4.152,0,0,0-2.02.13,9.387,9.387,0,0,0-2.141.906l-.566,2.549Zm90.243,6.735a4.944,4.944,0,0,1-2.418-1.722,8.215,8.215,0,0,1-1.434-3.036c-.063-.23-.112-.464-.155-.7s-.084-.51-.13-.823l9.445-2.466a7.957,7.957,0,0,0-1.066-2.273,4.158,4.158,0,0,0-1.872-1.537,3.875,3.875,0,0,0-2.463-.086,6.945,6.945,0,0,0-2,.924,11.2,11.2,0,0,0-2.047,1.731l-1.316-1.226a12.176,12.176,0,0,1,2.627-2.341,9.773,9.773,0,0,1,2.845-1.285,6.58,6.58,0,0,1,3.458-.033,5.723,5.723,0,0,1,2.818,1.832,8.987,8.987,0,0,1,1.8,3.681,9.61,9.61,0,0,1,.241,4.259,6.25,6.25,0,0,1-1.64,3.225,6.876,6.876,0,0,1-3.3,1.845,7.476,7.476,0,0,1-1.879.262A4.828,4.828,0,0,1-6237.763,1426.962Zm-.262-3.355a3.049,3.049,0,0,0,1.368,1.2,3,3,0,0,0,1.986.067,3.283,3.283,0,0,0,1.905-1.225,4.161,4.161,0,0,0,.743-2.178,7.385,7.385,0,0,0-.034-1.389l-6.72,1.755A6.055,6.055,0,0,0-6238.025,1423.607Zm-114.5-1.569,3.372-9.232a3.236,3.236,0,0,0,.127-2.393,2.488,2.488,0,0,0-1.523-1.349,4.782,4.782,0,0,0-2.08-.218,7.419,7.419,0,0,0-2.3.621l-3.044,8.335,1.779,1.162-.5,1.375-4.6-1.477,4.387-12.01-1.76-1.138.5-1.375,4.007,1.259-.478,2.25a9.013,9.013,0,0,1,2.973-.752,7.109,7.109,0,0,1,2.912.358,4.168,4.168,0,0,1,2.44,2.126,4.7,4.7,0,0,1-.084,3.733L-6349.2,1421l1.78,1.163-.5,1.373Zm139.689-2.261-3.686,1.412-.595-1.782,3.608-1.383-3.122-8.147a2.663,2.663,0,0,0-1-1.419,1.525,1.525,0,0,0-1.36-.041,3.97,3.97,0,0,0-.912.513,8.033,8.033,0,0,0-.987.863l-1.078-1.272a8.338,8.338,0,0,1,3.257-2.458,3.12,3.12,0,0,1,2.657.031,4.312,4.312,0,0,1,1.865,2.433l3.261,8.507,2.217-.85.535,1.393-2.067,1.241,1.153,3.011-2.411,1.427Zm-81.4,1.712a1.766,1.766,0,0,1-.793-.226,1.487,1.487,0,0,1-.594-.634,2.2,2.2,0,0,1-.189-1.086,6.376,6.376,0,0,1,.748-2.329,11.938,11.938,0,0,1,2.412-3.117l.989.787a11.687,11.687,0,0,0-1.186,1.9,3.22,3.22,0,0,0-.318,1.025.921.921,0,0,0,.181.6,4.738,4.738,0,0,1,.373.609,1.656,1.656,0,0,1,.158.863,1.51,1.51,0,0,1-.591,1.218,1.812,1.812,0,0,1-1.113.394Zm-89.311-5.465a9.221,9.221,0,0,1-1.289-.788,12.087,12.087,0,0,1-1.285-1.1l1.24-1.476a9.073,9.073,0,0,0,.9.793,5.979,5.979,0,0,0,.937.6,2.9,2.9,0,0,0,2.167.272,3.063,3.063,0,0,0,1.754-1.728l.882-1.749-3.328-1.68.933-1.663,3.251,1.642,4.8-9.519-2-1.559.658-1.306,6.531,3.3-.658,1.3-2.066-.5-4.806,9.528,1.895.959-.683,1.354-2.067-.62-.776,1.537a5.19,5.19,0,0,1-3.058,2.94,4.551,4.551,0,0,1-1.249.173A5.96,5.96,0,0,1-6383.544,1416.025Zm185.033-6.543,1.572-.806,1.173,1.519a8.547,8.547,0,0,0,2.12-.726,3.465,3.465,0,0,0,1.528-1.373,1.64,1.64,0,0,0,.034-1.63,1.54,1.54,0,0,0-1.065-.867,4.55,4.55,0,0,0-1.624-.018q-.926.129-1.959.321a10.65,10.65,0,0,1-2.036.176,4.178,4.178,0,0,1-1.865-.458,3.445,3.445,0,0,1-1.44-1.572,3.893,3.893,0,0,1-.422-2.606,5.118,5.118,0,0,1,1.264-2.4,8.745,8.745,0,0,1,2.557-1.914,14.44,14.44,0,0,1,1.99-.836,18.818,18.818,0,0,1,2.29-.617l1.6,3.552-1.547.793-1.318-1.971a10.148,10.148,0,0,0-1.041.311,9.6,9.6,0,0,0-1.184.5,5.153,5.153,0,0,0-1.324.959,2.905,2.905,0,0,0-.757,1.241,1.752,1.752,0,0,0,.143,1.339,1.639,1.639,0,0,0,1.1.909,4.443,4.443,0,0,0,1.648.039q.926-.137,1.937-.311a10.777,10.777,0,0,1,2.012-.163,4.052,4.052,0,0,1,1.842.451,3.493,3.493,0,0,1,1.437,1.588,3.754,3.754,0,0,1,.433,2.477,4.335,4.335,0,0,1-1.14,2.137,7.82,7.82,0,0,1-2.156,1.6,13.144,13.144,0,0,1-1.991.806,17.917,17.917,0,0,1-2.414.585ZM-6195.55,1410.475Zm20.492-10.682a3.883,3.883,0,0,1-2.87-1.959l-4.857-7.2-1.987.757-.816-1.21,3.367-2.51,1.611,1.768a7.959,7.959,0,0,1,.964-2.838,6.17,6.17,0,0,1,1.849-2.049,3.928,3.928,0,0,1,2.865-.666,4.059,4.059,0,0,1,2.708,1.966,4.013,4.013,0,0,1,.826,2.456,3.769,3.769,0,0,1-.882,2.147,9.834,9.834,0,0,1-2.21,1.956l-2.585,1.745,1.157,1.716a2.535,2.535,0,0,0,1.769,1.288,3.131,3.131,0,0,0,2.065-.643,8.068,8.068,0,0,0,1.124-.925,10.712,10.712,0,0,0,.887-.992l-1-1.962,1.512-1.02,2.236,2.92a27.032,27.032,0,0,1-2.134,2.389,14.5,14.5,0,0,1-2.038,1.691,5.906,5.906,0,0,1-3.264,1.182Q-6174.911,1399.805-6175.058,1399.794ZM-6177.91,1392.927Zm-.155-.229,2.219-1.5a4.162,4.162,0,0,0,1.773-1.862,2,2,0,0,0-.354-1.761,2.344,2.344,0,0,0-1.461-1.127,2,2,0,0,0-1.531.349,4.2,4.2,0,0,0-1.295,1.557,9.365,9.365,0,0,0-.812,2.181Zm-240.537.076,11.821-15.359-1.34-1.654.893-1.16,3.442,2.406-.976,1.813a9.5,9.5,0,0,1,2.706.129,5.754,5.754,0,0,1,2.365,1.07,4.864,4.864,0,0,1,1.7,2.368,5.543,5.543,0,0,1,.026,3.157,10.216,10.216,0,0,1-1.891,3.611q-2.391,3.108-5.163,3.448a7.522,7.522,0,0,1-5.57-1.814,11.1,11.1,0,0,1-1.068-.945q-.332-.333-.655-.71l-2.758,3.586,1.4,1.758-.891,1.158Zm9.3-3.533a4.052,4.052,0,0,0,3.6.909,6.507,6.507,0,0,0,3.409-2.549,8.608,8.608,0,0,0,1.443-2.619,4.283,4.283,0,0,0,.153-2.284,2.864,2.864,0,0,0-1.07-1.661,4.147,4.147,0,0,0-1.743-.748,7.519,7.519,0,0,0-1.919-.11l-5.6,7.275A9.349,9.349,0,0,0-6409.3,1389.241Zm251.479-2.577,1.151-1.542-.816-5.377-6.86-2.5-1.77.9-.944-1.082,2.854-2.485,7.544,2.876,2.066-1.8-3.39-3.894-1.825.932-.962-1.1,5.142-4.478.961,1.1-1.24,1.729,11.355,13.038,1.871-1.005.959,1.1-3.515,3.319-8.124-9.327-2.071,1.8.708,4.442,1.507-.952.961,1.1-4.621,4.279ZM-6427,1375.375a6.9,6.9,0,0,1-3.262-1.907,5.974,5.974,0,0,1-1.754-2.916,4.99,4.99,0,0,1,.257-2.956,8.245,8.245,0,0,1,1.886-2.775c.169-.173.345-.334.528-.49s.4-.332.643-.528l6.918,6.887a8.019,8.019,0,0,0,1.418-2.074,4.2,4.2,0,0,0,.375-2.393,3.849,3.849,0,0,0-1.178-2.165,6.935,6.935,0,0,0-1.808-1.256,11.161,11.161,0,0,0-2.528-.881l.386-1.757a12.1,12.1,0,0,1,3.351,1.075,9.79,9.79,0,0,1,2.55,1.8,6.569,6.569,0,0,1,1.784,2.963,5.732,5.732,0,0,1-.148,3.359,8.978,8.978,0,0,1-2.257,3.42,9.574,9.574,0,0,1-3.549,2.372,6.55,6.55,0,0,1-2.193.391A6.112,6.112,0,0,1-6427,1375.375Zm-2.257-6.751a3.063,3.063,0,0,0-.339,1.787,3,3,0,0,0,.951,1.746,3.279,3.279,0,0,0,2.023,1.021,4.14,4.14,0,0,0,2.252-.464,7.464,7.464,0,0,0,1.181-.736l-4.923-4.9A6.161,6.161,0,0,0-6429.256,1368.624Zm290,.059,2.612-2.849-6.428-5.895a2.669,2.669,0,0,0-1.534-.823,1.518,1.518,0,0,0-1.233.57,3.96,3.96,0,0,0-.586.866,7.545,7.545,0,0,0-.5,1.214l-1.534-.655a8.311,8.311,0,0,1,1.816-3.655,3.12,3.12,0,0,1,2.389-1.16,4.334,4.334,0,0,1,2.758,1.347l6.714,6.155,1.6-1.749,1.1,1.007-1.295,2.034,2.376,2.178-1.518,2.354-2.747-2.518-2.668,2.909Zm-305.954-12.118,1.592-1.609a8.99,8.99,0,0,1-2.947-.958,7.068,7.068,0,0,1-2.269-1.857,4.316,4.316,0,0,1-.976-3.116,4.5,4.5,0,0,1,2.049-3.082l6.591-5.088-.869-1.911,1.158-.9,4.116,5.334-1.157.894-1.549-1.245-6.144,4.742a3.284,3.284,0,0,0-1.42,2,2.538,2.538,0,0,0,.575,1.964,4.845,4.845,0,0,0,1.644,1.293,7.508,7.508,0,0,0,2.274.7l7.111-5.492-.821-1.8,1.16-.894,4.115,5.331-1.158.894-1.633-1.318-8.43,6.506.863,1.916-1.158.894Zm318.139-5.018,1.047-1.422,1.727.839a8.5,8.5,0,0,0,1.576-1.6,3.467,3.467,0,0,0,.756-1.909,1.641,1.641,0,0,0-.7-1.474,1.542,1.542,0,0,0-1.34-.3,4.553,4.553,0,0,0-1.461.707q-.769.53-1.611,1.161a10.487,10.487,0,0,1-1.746,1.062,4.158,4.158,0,0,1-1.87.422,3.454,3.454,0,0,1-1.992-.766,3.894,3.894,0,0,1-1.538-2.147,5.081,5.081,0,0,1,.062-2.714,8.8,8.8,0,0,1,1.435-2.854,14.759,14.759,0,0,1,1.412-1.634,18.786,18.786,0,0,1,1.777-1.572l3.015,2.466-1.029,1.4-2.058-1.179q-.4.332-.794.741a9.409,9.409,0,0,0-.839.976,5.123,5.123,0,0,0-.757,1.446,2.912,2.912,0,0,0-.127,1.45,1.764,1.764,0,0,0,.725,1.137,1.633,1.633,0,0,0,1.391.321,4.438,4.438,0,0,0,1.493-.7q.77-.53,1.595-1.14a10.781,10.781,0,0,1,1.728-1.041,4.133,4.133,0,0,1,1.852-.419,3.5,3.5,0,0,1,1.994.785,3.744,3.744,0,0,1,1.49,2.026,4.3,4.3,0,0,1-.068,2.419,7.849,7.849,0,0,1-1.218,2.394,13.324,13.324,0,0,1-1.423,1.608,18.426,18.426,0,0,1-1.9,1.6Zm9.9-19.931a9.431,9.431,0,0,1-3.187-2.78,6.349,6.349,0,0,1-1.177-3.471,7.23,7.23,0,0,1,1.036-3.8,6.11,6.11,0,0,1,3.994-3.23,7.769,7.769,0,0,1,5.544,1.161,9.9,9.9,0,0,1,3.269,2.8,6.158,6.158,0,0,1,1.2,3.417,7.1,7.1,0,0,1-1.023,3.75,6.282,6.282,0,0,1-4.059,3.288,5.829,5.829,0,0,1-1.338.153A8.732,8.732,0,0,1-6117.173,1331.615Zm.895-10.716a3.26,3.26,0,0,0-2.551,1.795,3.708,3.708,0,0,0-.528,2.284,4.021,4.021,0,0,0,1.031,2.135,9.18,9.18,0,0,0,2.458,1.909,6.962,6.962,0,0,0,4.059,1.15,3.331,3.331,0,0,0,2.6-1.829,3.36,3.36,0,0,0,.174-3.311,7.559,7.559,0,0,0-3.22-2.974,7.677,7.677,0,0,0-3.617-1.18A3.666,3.666,0,0,0-6116.278,1320.9Zm-353.4,2.513a5.383,5.383,0,0,1-2.671-1.412,9.483,9.483,0,0,1-2.024-2.837,14.572,14.572,0,0,1-.955-2.652,15.377,15.377,0,0,1-.456-2.951l4.164-1.728.729,1.516-2.49,1.682a8.767,8.767,0,0,0,.248,1.39,9.381,9.381,0,0,0,.627,1.72,6.783,6.783,0,0,0,1.137,1.691,3.331,3.331,0,0,0,1.49.966,2.394,2.394,0,0,0,1.769-.207,2.3,2.3,0,0,0,1.191-1.187,4.273,4.273,0,0,0,.3-1.766,15.789,15.789,0,0,0-.2-2.127q-.173-1.126-.273-2.288a10,10,0,0,1,.054-2.246,4.641,4.641,0,0,1,.782-2,4.86,4.86,0,0,1,1.95-1.549,5.039,5.039,0,0,1,3.347-.494,5.936,5.936,0,0,1,2.855,1.6,10.77,10.77,0,0,1,2.145,3.057,14.972,14.972,0,0,1,.984,2.714,16.319,16.319,0,0,1,.474,2.989l-4.352,1.911-.717-1.492,2.532-1.73a9.5,9.5,0,0,0-.251-1.743,9.011,9.011,0,0,0-.658-1.876,6.475,6.475,0,0,0-1.275-1.819,3.657,3.657,0,0,0-1.669-.99,2.7,2.7,0,0,0-1.881.231,2.434,2.434,0,0,0-1.251,1.217,4.189,4.189,0,0,0-.311,1.772,16.6,16.6,0,0,0,.189,2.116q.168,1.114.295,2.262a9.6,9.6,0,0,1-.015,2.23,4.569,4.569,0,0,1-.759,1.989,4.726,4.726,0,0,1-1.912,1.534,5.438,5.438,0,0,1-2.352.59A4.113,4.113,0,0,1-6469.679,1323.412Zm369.624-11.421a6.438,6.438,0,0,1-2.733-2,5.65,5.65,0,0,1-1.148-3.161,9.51,9.51,0,0,1,.814-4.181l.694-1.715-4.833-1.957-1.576,2.488-1.358-.549,3-7.395,1.355.549-.363,2.3,14.167,5.737,1.265-1.929,1.357.549-1.8,4.81-1.1,2.714a7.646,7.646,0,0,1-2.036,3.046,4.9,4.9,0,0,1-2.683,1.178,5.45,5.45,0,0,1-.579.031A6.482,6.482,0,0,1-6100.056,1311.991Zm-1.147-8.566a4.771,4.771,0,0,0-.228,3.616,4.047,4.047,0,0,0,2.4,2.269,3.711,3.711,0,0,0,2.925.1,3.982,3.982,0,0,0,2.038-2.347l.953-2.353-7.394-3Zm-372.6-5.657a6.618,6.618,0,0,1-2.785-.752,6.435,6.435,0,0,1-2.036-1.722,8,8,0,0,1-1.26-2.373,10.389,10.389,0,0,1-.484-2.442,10.228,10.228,0,0,1,.047-2.331l3.518-1.064.58,1.728-2.126,1.1a4.723,4.723,0,0,0,.071,1.1,8.321,8.321,0,0,0,.3,1.264,3.885,3.885,0,0,0,1.378,1.971,4.187,4.187,0,0,0,2.291.761,8.046,8.046,0,0,0,2.971-.474,7.49,7.49,0,0,0,2.681-1.466,4.106,4.106,0,0,0,1.3-1.994,3.819,3.819,0,0,0-.093-2.238,5.964,5.964,0,0,0-1.01-1.788,9.729,9.729,0,0,0-1.835-1.745l1.08-1.38a11.529,11.529,0,0,1,2.523,2.269,8.429,8.429,0,0,1,1.434,2.577,6.213,6.213,0,0,1,.2,3.37,6.117,6.117,0,0,1-1.678,2.992,8.732,8.732,0,0,1-3.524,2.073,9.917,9.917,0,0,1-3.118.572Q-6473.594,1297.781-6473.8,1297.768Zm-11.439-25.113,2.147-.767a11.428,11.428,0,0,1-2.115-1.739,4.933,4.933,0,0,1-1.238-2.375,6.9,6.9,0,0,1-.121-1.894l4.333-.723.352,1.647-2.291.788c0,.053,0,.107.007.161a2.9,2.9,0,0,0,.059.4,3.68,3.68,0,0,0,1.021,1.829,8,8,0,0,0,1.606,1.255l8.627-1.836-.06-2.612,1.433-.3,1.531,7.209-1.43.306-.892-1.9-10.419,2.214-.059,2.1-1.43.3Zm395.653-1.839.327-1.736,1.918.005a8.671,8.671,0,0,0,.727-2.121,3.453,3.453,0,0,0-.15-2.049,1.643,1.643,0,0,0-1.267-1.026,1.547,1.547,0,0,0-1.337.311,4.567,4.567,0,0,0-1.01,1.271q-.461.811-.946,1.746a10.6,10.6,0,0,1-1.109,1.715,4.181,4.181,0,0,1-1.5,1.192,3.432,3.432,0,0,1-2.125.177,3.9,3.9,0,0,1-2.319-1.264,5.068,5.068,0,0,1-1.122-2.473,8.7,8.7,0,0,1,.054-3.192,14.325,14.325,0,0,1,.559-2.086,18.23,18.23,0,0,1,.917-2.187l3.789.909-.321,1.71-2.363-.167q-.213.471-.395,1.01a8.994,8.994,0,0,0-.329,1.244,5.133,5.133,0,0,0-.057,1.634,2.96,2.96,0,0,0,.518,1.362,1.738,1.738,0,0,0,1.145.7,1.626,1.626,0,0,0,1.393-.313,4.449,4.449,0,0,0,1.042-1.279c.307-.541.621-1.116.94-1.718a10.793,10.793,0,0,1,1.1-1.687,4.09,4.09,0,0,1,1.487-1.184,3.492,3.492,0,0,1,2.137-.158,3.727,3.727,0,0,1,2.224,1.176,4.328,4.328,0,0,1,.989,2.207,7.868,7.868,0,0,1-.056,2.686,13.23,13.23,0,0,1-.583,2.067,18.591,18.591,0,0,1-1.017,2.267Zm-395.42-17.169a6.272,6.272,0,0,1-2.92-2.135,6.882,6.882,0,0,1-1.293-3.552,5.982,5.982,0,0,1,.513-3.362,4.976,4.976,0,0,1,2.086-2.111,8.335,8.335,0,0,1,3.227-.932c.238-.021.477-.034.716-.041s.52,0,.834.006l.923,9.719a7.973,7.973,0,0,0,2.417-.692,4.182,4.182,0,0,0,1.816-1.6,3.857,3.857,0,0,0,.477-2.414,7.021,7.021,0,0,0-.589-2.122,11.373,11.373,0,0,0-1.383-2.295l1.42-1.1a12.164,12.164,0,0,1,1.891,2.966,9.761,9.761,0,0,1,.812,3.015,6.546,6.546,0,0,1-.52,3.42,5.726,5.726,0,0,1-2.261,2.487,8.958,8.958,0,0,1-3.922,1.191q-.617.059-1.195.059A8.754,8.754,0,0,1-6485.008,1253.648Zm-.347-8.771a3.057,3.057,0,0,0-1.4,1.16,3,3,0,0,0-.383,1.95,3.266,3.266,0,0,0,.9,2.077,4.145,4.145,0,0,0,2.029,1.082,7.451,7.451,0,0,0,1.376.189l-.658-6.915A6.118,6.118,0,0,0-6485.354,1244.877Zm388.45,4,.4-6.724,1.461.088.349,1.956,7.748.466a3.277,3.277,0,0,0,2.384-.575,2.535,2.535,0,0,0,.86-1.855,4.829,4.829,0,0,0-.39-2.056,7.414,7.414,0,0,0-1.254-2.027l-8.965-.539-.57,1.9-1.461-.09.407-6.722,1.459.088.364,2.068,10.628.64.61-2.012,1.461.088-.061,4.2-2.257.167a9.008,9.008,0,0,1,1.589,2.656,7.107,7.107,0,0,1,.492,2.893,4.331,4.331,0,0,1-1.314,2.99,4.515,4.515,0,0,1-3.572.976l-8.309-.5-.606,2.01Zm-385.45-19.2a9.588,9.588,0,0,1-4.158-.959,6.264,6.264,0,0,1-2.635-2.476,6.872,6.872,0,0,1-.849-3.684,5.96,5.96,0,0,1,.92-3.274,4.966,4.966,0,0,1,2.327-1.841,8.349,8.349,0,0,1,3.318-.529c.238.008.478.024.717.051s.515.059.826.1l-.275,9.76a8.029,8.029,0,0,0,2.484-.389,4.2,4.2,0,0,0,2-1.368,3.855,3.855,0,0,0,.769-2.339,6.886,6.886,0,0,0-.326-2.178,11.294,11.294,0,0,0-1.09-2.445l1.544-.925a12.155,12.155,0,0,1,1.513,3.178,9.759,9.759,0,0,1,.438,3.091,6.559,6.559,0,0,1-.937,3.329,5.706,5.706,0,0,1-2.547,2.192,8.644,8.644,0,0,1-3.656.708Q-6482.161,1229.681-6482.354,1229.675Zm-3.427-9.708a3.082,3.082,0,0,0-1.534.979,2.991,2.991,0,0,0-.618,1.888,3.258,3.258,0,0,0,.642,2.173,4.141,4.141,0,0,0,1.883,1.323,7.417,7.417,0,0,0,1.343.356l.2-6.942c-.079,0-.156,0-.233,0A5.972,5.972,0,0,0-6485.781,1219.968Zm389.3-4.249,1.461-.075.591,2.014,10.654-.553.363-2.065,1.461-.075.412,4.789-12.739.66-.387,2.092-1.459.078Zm18.086,3.609a1.808,1.808,0,0,1-.518-1.231,1.674,1.674,0,0,1,.4-1.252,1.768,1.768,0,0,1,1.3-.549,1.718,1.718,0,0,1,1.363.427,1.768,1.768,0,0,1,.52,1.217,1.766,1.766,0,0,1-.391,1.277,1.742,1.742,0,0,1-1.311.552c-.052,0-.1,0-.151,0A1.632,1.632,0,0,1-6078.393,1219.328Zm-397.093-13.009-.16-2.094-10.514-1.679-.8,1.941-1.448-.23.472-4.175,2.265.057a9,9,0,0,1-1.324-2.8,7.039,7.039,0,0,1-.2-2.925,4.314,4.314,0,0,1,1.6-2.849,4.508,4.508,0,0,1,3.649-.62l8.22,1.314.8-1.943,1.444.231-1.06,6.65-1.446-.23-.155-1.982-7.665-1.222a3.276,3.276,0,0,0-2.43.339,2.527,2.527,0,0,0-1.036,1.762,4.8,4.8,0,0,0,.186,2.083,7.38,7.38,0,0,0,1.045,2.14l8.871,1.417.753-1.837,1.445.23-1.062,6.652Zm374.455-15.8a11.919,11.919,0,0,1-3.621-1.554l.513-1.155a11.418,11.418,0,0,0,2.135.673,3.274,3.274,0,0,0,1.068.054.937.937,0,0,0,.54-.327,4.861,4.861,0,0,1,.5-.516,1.66,1.66,0,0,1,.795-.368,1.521,1.521,0,0,1,1.329.266,1.823,1.823,0,0,1,.677,1.054,1.778,1.778,0,0,1-.022.823,1.466,1.466,0,0,1-.463.736,2.181,2.181,0,0,1-1,.456,3.5,3.5,0,0,1-.722.067A8.757,8.757,0,0,1-6101.031,1190.519Zm-368.576-13.592a1.56,1.56,0,0,1-1.049-.818,1.7,1.7,0,0,1-.132-1.251,1.713,1.713,0,0,1,.774-1.091,1.652,1.652,0,0,1,1.3-.114,1.567,1.567,0,0,1,1.05.816,1.761,1.761,0,0,1,.123,1.28,1.667,1.667,0,0,1-.766,1.064,1.489,1.489,0,0,1-.75.194A2.1,2.1,0,0,1-6469.607,1176.927Zm364.325-6.686,1.4-.427,1.074,1.837,16.531-5.045-.15-2.116,1.4-.427,1.6,4.564-18.566,5.666.125,2.1-1.4.427Zm-4.917-12.916,2.04-1.249a7.942,7.942,0,0,1-2.609-1.483,6.19,6.19,0,0,1-1.66-2.2,3.928,3.928,0,0,1-.115-2.938,4.061,4.061,0,0,1,2.446-2.29,4.008,4.008,0,0,1,2.568-.345,3.765,3.765,0,0,1,1.942,1.272,9.989,9.989,0,0,1,1.5,2.539l1.227,2.869,1.9-.814a2.536,2.536,0,0,0,1.6-1.492,3.14,3.14,0,0,0-.241-2.148,8.348,8.348,0,0,0-.7-1.279,11.035,11.035,0,0,0-.808-1.058l-2.116.608-.717-1.674,3.291-1.645a27.132,27.132,0,0,1,1.944,2.549,14.7,14.7,0,0,1,1.275,2.321,5.645,5.645,0,0,1,.476,3.714,3.88,3.88,0,0,1-2.467,2.45l-7.984,3.409.371,2.094-1.349.575Zm1.375-7.673a2.351,2.351,0,0,0-1.384,1.222,2.014,2.014,0,0,0,.054,1.568,4.215,4.215,0,0,0,1.285,1.569,9.491,9.491,0,0,0,1.985,1.208l2.4-1.026-1.052-2.462a4.18,4.18,0,0,0-1.492-2.093,1.712,1.712,0,0,0-.823-.206A2.486,2.486,0,0,0-6108.825,1149.652Zm-372.985,7.183,2.8-7.028,1.351.567-.443,2.4,14.844,1.45-11.221-9.9-1.342,2.039-1.349-.567,2.611-6.569,1.35.567-.341,2.1,13.653,12.388-1.155,2.749-18.229-1.342-1.187,1.715Zm357.945-16.145a10.706,10.706,0,0,1-3.916-4.3,10.218,10.218,0,0,1-1.678-4.712,2.934,2.934,0,0,1,1.5-2.762,3.224,3.224,0,0,1,2.381-.383,6.049,6.049,0,0,1,1.913.825,2.208,2.208,0,0,1-.06-.66,1.2,1.2,0,0,1,.624-.987,1.657,1.657,0,0,1,.427-.169,5.653,5.653,0,0,1,.689-.112c.3-.036.692-.07,1.186-.1l1.524-.1a4.5,4.5,0,0,1,.563-2.268,5.049,5.049,0,0,1,1.943-1.9,4.857,4.857,0,0,1,4.176-.537,6.7,6.7,0,0,1,3.518,3.205,8.114,8.114,0,0,1,1.087,2.93l2.207,3.427-1.391.845-1.325-1.514a3.551,3.551,0,0,1-.581.962,5.034,5.034,0,0,1-1.351,1.109,4.847,4.847,0,0,1-4.225.513,6.712,6.712,0,0,1-3.48-3.145,8.658,8.658,0,0,1-.9-2.134l-2.533.905,2.422,4.151a6.713,6.713,0,0,1,1.16,4.07,3.532,3.532,0,0,1-1.9,2.72,4.126,4.126,0,0,1-2.1.61A4.1,4.1,0,0,1-6123.865,1140.69Zm-2.39-9.952a1.678,1.678,0,0,0-.822,1.709,7.82,7.82,0,0,0,1.208,3.114,7.907,7.907,0,0,0,2.321,2.771,1.957,1.957,0,0,0,2.145.059,1.823,1.823,0,0,0,.987-1.534,4.443,4.443,0,0,0-.759-2.4l-2.046-3.505a4.538,4.538,0,0,0-1.9-.5A2.206,2.206,0,0,0-6126.255,1130.738Zm10.965-5.313a3.341,3.341,0,0,0-1.692,1.948,3.218,3.218,0,0,0,.485,2.5,3.474,3.474,0,0,0,2.024,1.743,3.327,3.327,0,0,0,2.609-.485,3.192,3.192,0,0,0,1.671-1.95,3.4,3.4,0,0,0-.539-2.515,3.444,3.444,0,0,0-1.984-1.733,2.529,2.529,0,0,0-.686-.093A3.785,3.785,0,0,0-6115.29,1125.425Zm-343.791,10.7a9.839,9.839,0,0,1-3.235-2.841,6.136,6.136,0,0,1-1.151-3.43,7.111,7.111,0,0,1,1.072-3.738,6.277,6.277,0,0,1,4.1-3.235,7.723,7.723,0,0,1,5.579,1.2,9.429,9.429,0,0,1,3.151,2.824,6.371,6.371,0,0,1,1.134,3.486,7.252,7.252,0,0,1-1.088,3.792,6.112,6.112,0,0,1-4.035,3.176,5.67,5.67,0,0,1-1.182.122A8.734,8.734,0,0,1-6459.081,1136.121Zm.984-10.672a3.337,3.337,0,0,0-2.626,1.8,3.365,3.365,0,0,0-.215,3.308,7.547,7.547,0,0,0,3.179,3.016,6.984,6.984,0,0,0,4.005,1.21,3.26,3.26,0,0,0,2.575-1.761,3.685,3.685,0,0,0,.557-2.279,3.99,3.99,0,0,0-1-2.148,9.246,9.246,0,0,0-2.432-1.94,7.568,7.568,0,0,0-3.663-1.223A3.745,3.745,0,0,0-6458.1,1125.449Zm16.6-7.246.867-1.912-8.417-6.523-1.638,1.316-1.155-.9,2.416-3.437,1.959,1.137a9.02,9.02,0,0,1,.188-3.092,7.077,7.077,0,0,1,1.225-2.663,4.312,4.312,0,0,1,2.772-1.73,4.507,4.507,0,0,1,3.5,1.21l6.579,5.1,1.635-1.319,1.156.9-4.127,5.323-1.16-.9.817-1.812-6.132-4.755a3.3,3.3,0,0,0-2.3-.87,2.528,2.528,0,0,0-1.754,1.051,4.761,4.761,0,0,0-.839,1.915,7.361,7.361,0,0,0-.109,2.38l7.1,5.5,1.541-1.249,1.156.9-4.124,5.325Zm308.557-2.1a9.836,9.836,0,0,1-2.287-2.126,6.538,6.538,0,0,1-1.372-3.176,5.721,5.721,0,0,1,.594-3.306,8.974,8.974,0,0,1,2.694-3.09,9.581,9.581,0,0,1,3.833-1.876,6.277,6.277,0,0,1,3.607.262,6.876,6.876,0,0,1,2.981,2.326,5.987,5.987,0,0,1,1.349,3.121,4.972,4.972,0,0,1-.65,2.9,8.278,8.278,0,0,1-2.241,2.5c-.19.148-.386.283-.585.417s-.437.275-.71.437l-5.937-7.75a7.945,7.945,0,0,0-1.681,1.866,4.211,4.211,0,0,0-.692,2.321,3.859,3.859,0,0,0,.878,2.3,6.958,6.958,0,0,0,1.624,1.484,11.262,11.262,0,0,0,2.389,1.213l-.616,1.689A12.115,12.115,0,0,1-6132.936,1116.107Zm7.068-4.943a6.159,6.159,0,0,0,1.341-1.379,3.064,3.064,0,0,0,.574-1.726,3.007,3.007,0,0,0-.71-1.857,3.284,3.284,0,0,0-1.868-1.28,4.139,4.139,0,0,0-2.295.16,7.352,7.352,0,0,0-1.267.57Zm-21.893-12.43,2.065-5.595a11.323,11.323,0,0,0,.563-1.922,2.39,2.39,0,0,0-.142-1.376,5.366,5.366,0,0,0-1.13-1.487l-.889-.868-4.432,4.406,1.478,2.268-1.036,1.031-5.45-5.483,1.037-1.031,1.962,1.239,10.832-10.765-1.262-1.938,1.039-1.031,3.756,3.583,2.14,2.153a7.542,7.542,0,0,1,2.466,4.36,4.659,4.659,0,0,1-1.574,3.86,5.139,5.139,0,0,1-3.645,1.621,6.251,6.251,0,0,1-3.5-1.208,3.593,3.593,0,0,1,.311.679,3.492,3.492,0,0,1,.142,1.477,7.967,7.967,0,0,1-.406,1.647l-1.488,4.457.864,1.572-1.037,1.031Zm3.313-11.234a5.586,5.586,0,0,0,3.127,1.816,3.311,3.311,0,0,0,2.823-1.116,3.007,3.007,0,0,0,1.025-2.4,4.378,4.378,0,0,0-1.457-2.66l-1.984-2-4.954,4.924Zm-270.641-1.319a10.177,10.177,0,0,1-3.135-2.6q-2.541-2.988-2.293-5.768a7.517,7.517,0,0,1,2.938-5.069,11.1,11.1,0,0,1,1.145-.847q.4-.257.834-.494l-2.929-3.448-2.011,1-.949-1.114,3.642-3.349,12.548,14.774,1.9-.965.948,1.116-3.074,2.863-1.566-1.333a9.489,9.489,0,0,1-.691,2.62,5.744,5.744,0,0,1-1.541,2.086,4.841,4.841,0,0,1-2.673,1.163,4.675,4.675,0,0,1-.51.028A5.77,5.77,0,0,1-6415.089,1086.181Zm-1.248-11.853a4.052,4.052,0,0,0-1.644,3.333,6.552,6.552,0,0,0,1.782,3.867,8.555,8.555,0,0,0,2.259,1.956,4.287,4.287,0,0,0,2.2.63,2.863,2.863,0,0,0,1.849-.7,4.156,4.156,0,0,0,1.1-1.546,7.7,7.7,0,0,0,.507-1.854l-5.944-7A9.371,9.371,0,0,0-6416.336,1074.328Zm237.769-2.189a8.765,8.765,0,0,1-2.917-1.295,15.164,15.164,0,0,1-1.7-1.332,18.606,18.606,0,0,1-1.655-1.7l2.317-3.132,1.448.963-1.078,2.111a10.287,10.287,0,0,0,.778.756,9.353,9.353,0,0,0,1.015.793,5.127,5.127,0,0,0,1.48.689,2.9,2.9,0,0,0,1.455.054,1.739,1.739,0,0,0,1.1-.775,1.642,1.642,0,0,0,.259-1.407,4.468,4.468,0,0,0-.772-1.458c-.376-.5-.784-1.007-1.215-1.538a10.8,10.8,0,0,1-1.122-1.674,4.093,4.093,0,0,1-.506-1.831,3.481,3.481,0,0,1,.689-2.029,3.737,3.737,0,0,1,1.951-1.586,4.323,4.323,0,0,1,2.417-.047,7.852,7.852,0,0,1,2.451,1.1,13.248,13.248,0,0,1,1.674,1.345,18.12,18.12,0,0,1,1.689,1.823l-1.966,2.7-1.469-.979.753-1.765a8.619,8.619,0,0,0-1.667-1.5,3.471,3.471,0,0,0-1.945-.666,1.648,1.648,0,0,0-1.439.767,1.539,1.539,0,0,0-.236,1.35,4.526,4.526,0,0,0,.773,1.428c.378.5.792,1.015,1.238,1.554a10.541,10.541,0,0,1,1.146,1.691,4.156,4.156,0,0,1,.51,1.85,3.434,3.434,0,0,1-.668,2.025,3.913,3.913,0,0,1-2.07,1.642,4.664,4.664,0,0,1-1.423.216A5.868,5.868,0,0,1-6178.568,1072.139Zm-216.562-1.777a8.957,8.957,0,0,1-2.87-2.924,9.558,9.558,0,0,1-1.575-3.966,6.273,6.273,0,0,1,.539-3.577,6.872,6.872,0,0,1,2.547-2.792,5.975,5.975,0,0,1,3.219-1.1,4.965,4.965,0,0,1,2.837.87,8.327,8.327,0,0,1,2.319,2.429c.13.2.251.4.368.616s.243.456.383.74l-8.187,5.322a7.921,7.921,0,0,0,1.732,1.82,4.193,4.193,0,0,0,2.261.87,3.879,3.879,0,0,0,2.363-.7,7.065,7.065,0,0,0,1.606-1.505,11.367,11.367,0,0,0,1.393-2.288l1.637.746a12.124,12.124,0,0,1-1.754,3.049,9.756,9.756,0,0,1-2.293,2.117,6.551,6.551,0,0,1-3.271,1.124c-.091,0-.183.007-.274.007A5.772,5.772,0,0,1-6395.13,1070.362Zm-.415-11.4a3.266,3.266,0,0,0-1.42,1.762,4.143,4.143,0,0,0-.021,2.3,7.544,7.544,0,0,0,.472,1.3l5.823-3.783a6.089,6.089,0,0,0-1.271-1.447,3.091,3.091,0,0,0-1.676-.705c-.068-.006-.136-.009-.2-.009A3.136,3.136,0,0,0-6395.545,1058.961Zm195.645.849.651-1.311,1.94.443,3.453-6.95a3.272,3.272,0,0,0,.4-2.42,2.513,2.513,0,0,0-1.373-1.515,4.8,4.8,0,0,0-2.042-.446,7.417,7.417,0,0,0-2.354.361l-4,8.046,1.531,1.265-.655,1.311-6.032-3,.65-1.311,2.049.474,4.738-9.535-1.613-1.345.653-1.311,3.84,1.7-.728,2.142a9,9,0,0,1,3.066-.427,7.08,7.08,0,0,1,2.851.679,4.329,4.329,0,0,1,2.245,2.378,4.5,4.5,0,0,1-.5,3.668l-3.705,7.455,1.617,1.34-.653,1.308Zm-174.914.077,1.623-1.331-4.719-9.551-2.048.461-.648-1.311,3.676-2.031,1.271,1.893a11.487,11.487,0,0,1,1.162-2.479,4.954,4.954,0,0,1,2-1.787,6.948,6.948,0,0,1,1.808-.585l1.771,4.021-1.512.746-1.329-2.024c-.051.014-.1.03-.153.047a2.972,2.972,0,0,0-.372.153,3.706,3.706,0,0,0-1.521,1.443,7.987,7.987,0,0,0-.818,1.863l3.907,7.911,2.514-.7.648,1.311-6.608,3.264Zm150.607-10.374.5-1.378,2.086.238,3.628-10.033-1.762-1.132.5-1.376,4.574,1.477-4.338,12,1.779,1.167-.5,1.378Zm-117.721-3.205,2.035-1.114-4.212-14.686-2.308.17-.4-1.407,7.02-2.157.4,1.406-2.015,1.18,4.216,14.7,2.324-.117.4,1.409-7.057,2.025Zm89.015-.546a11.409,11.409,0,0,0,1.446-1.709,3.251,3.251,0,0,0,.462-.966.913.913,0,0,0-.094-.622,5.509,5.509,0,0,1-.284-.656,1.715,1.715,0,0,1-.031-.878,1.516,1.516,0,0,1,.761-1.119,1.816,1.816,0,0,1,1.233-.22,1.808,1.808,0,0,1,.752.339,1.468,1.468,0,0,1,.5.712,2.158,2.158,0,0,1,.031,1.1,6.307,6.307,0,0,1-1.074,2.2,11.916,11.916,0,0,1-2.834,2.74Zm-68.766-3.592a5.519,5.519,0,0,1-2.331-2.127,10.21,10.21,0,0,1-1.36-3.846q-.647-3.868.988-6.127a7.508,7.508,0,0,1,5.12-2.847,10.33,10.33,0,0,1,1.417-.14q.472-.017.968,0l-.751-4.461-2.239-.17-.24-1.445,4.839-1.008,3.21,19.116,2.124.144.241,1.443-4.1.884-.664-1.95a9.469,9.469,0,0,1-1.937,1.9,5.729,5.729,0,0,1-2.39,1,5.3,5.3,0,0,1-.879.075A4.758,4.758,0,0,1-6321.678,1042.17Zm2.67-12.947a4.054,4.054,0,0,0-3.119,2.021,6.551,6.551,0,0,0-.451,4.233,8.66,8.66,0,0,0,.939,2.837,4.291,4.291,0,0,0,1.567,1.67,2.878,2.878,0,0,0,1.947.344,4.151,4.151,0,0,0,1.733-.767,7.573,7.573,0,0,0,1.387-1.33l-1.521-9.054a11.338,11.338,0,0,0-1.135-.06A8.123,8.123,0,0,0-6319.008,1029.223Zm49.523,11.1a6.56,6.56,0,0,1-3.272-1.119,5.735,5.735,0,0,1-2.051-2.666,8.971,8.971,0,0,1-.471-4.072,9.608,9.608,0,0,1,1.184-4.1,6.277,6.277,0,0,1,2.623-2.5,6.881,6.881,0,0,1,3.722-.643,5.99,5.99,0,0,1,3.222,1.1,4.974,4.974,0,0,1,1.705,2.43,8.293,8.293,0,0,1,.347,3.337c-.021.24-.054.477-.091.714s-.088.511-.153.819l-9.727-.818a7.965,7.965,0,0,0,.25,2.5,4.225,4.225,0,0,0,1.252,2.073,3.873,3.873,0,0,0,2.295.9,6.974,6.974,0,0,0,2.189-.2,11.4,11.4,0,0,0,2.506-.953l.834,1.593a12.066,12.066,0,0,1-3.257,1.332,10.14,10.14,0,0,1-2.379.3Q-6269.125,1040.356-6269.485,1040.326Zm4.2-8.816a6.1,6.1,0,0,0-.112-1.921,3.074,3.074,0,0,0-.9-1.585,2.97,2.97,0,0,0-1.849-.723,3.273,3.273,0,0,0-2.205.52,4.133,4.133,0,0,0-1.425,1.806,7.388,7.388,0,0,0-.43,1.321Zm-31.123,7.57a5.713,5.713,0,0,1-2.357-2.394,8.957,8.957,0,0,1-.971-3.984,9.568,9.568,0,0,1,.679-4.212,6.256,6.256,0,0,1,2.295-2.795,6.854,6.854,0,0,1,3.619-1.093,5.973,5.973,0,0,1,3.328.7,4.964,4.964,0,0,1,1.99,2.2,8.3,8.3,0,0,1,.75,3.272c.01.238.01.477,0,.717s-.024.518-.049.832l-9.756.378a8.044,8.044,0,0,0,.555,2.451,4.192,4.192,0,0,0,1.5,1.9,3.85,3.85,0,0,0,2.384.611,6.941,6.941,0,0,0,2.15-.471,11.294,11.294,0,0,0,2.37-1.251l1.024,1.479a12.151,12.151,0,0,1-3.068,1.722,9.848,9.848,0,0,1-3.056.643q-.167.007-.33.007A6.429,6.429,0,0,1-6296.406,1039.08Zm3.124-12.4a3.287,3.287,0,0,0-2.124.788,4.158,4.158,0,0,0-1.2,1.966,7.423,7.423,0,0,0-.264,1.364l6.941-.269a6.11,6.11,0,0,0-.353-1.892,3.045,3.045,0,0,0-1.082-1.463,2.876,2.876,0,0,0-1.74-.5C-6293.158,1026.673-6293.22,1026.674-6293.282,1026.677Zm78.085,7.571a1.683,1.683,0,0,1-1-.86,1.764,1.764,0,0,1,0-1.409,1.72,1.72,0,0,1,.922-1.09,1.77,1.77,0,0,1,1.324-.008,1.776,1.776,0,0,1,1.026.855,1.75,1.75,0,0,1,0,1.425,1.707,1.707,0,0,1-.934,1.086,1.749,1.749,0,0,1-.653.127A2.006,2.006,0,0,1-6215.2,1034.247Z" transform="translate(6490.501 -1019.405)" fill="#7ec7c3" stroke="rgba(0,0,0,0)" stroke-miterlimit="10" stroke-width="1"/>
</svg>
