<svg xmlns="http://www.w3.org/2000/svg" width="423.075" height="418.908" viewBox="0 0 423.075 418.908">
  <path id="c_inhouse" d="M-6281.842,1436.6a4.673,4.673,0,0,1-1.694-3.811,5.147,5.147,0,0,1,1.361-3.749,6.229,6.229,0,0,1,3.3-1.684,3.407,3.407,0,0,1-.7-.25,3.454,3.454,0,0,1-1.165-.92,8.1,8.1,0,0,1-.9-1.433l-2.181-4.162-1.731-.468-.026-1.464,3.785-.06,2.6,5.368a11.29,11.29,0,0,0,.993,1.738,2.369,2.369,0,0,0,1.09.852,5.308,5.308,0,0,0,1.854.218l1.242-.04-.1-6.248-2.66-.506-.022-1.464,7.729-.125.024,1.464-2.255.555.245,15.269,2.272.435.026,1.461-5.189.223-3.036.049-.251,0A7.307,7.307,0,0,1-6281.842,1436.6Zm5.834-7.825a5.569,5.569,0,0,0-3.476.994,3.317,3.317,0,0,0-1.155,2.808,3.008,3.008,0,0,0,1.02,2.4,4.356,4.356,0,0,0,2.927.8l2.813-.046-.113-6.984ZM-6273.709,1420.565Zm-27.318,11.673a5.971,5.971,0,0,1-3.192-1.168,4.982,4.982,0,0,1-1.656-2.464,8.262,8.262,0,0,1-.271-3.349c.023-.236.059-.474.1-.71s.1-.508.169-.813l9.709,1.023a7.994,7.994,0,0,0-.2-2.5,4.172,4.172,0,0,0-1.208-2.1,3.851,3.851,0,0,0-2.273-.948,6.939,6.939,0,0,0-2.194.156,11.153,11.153,0,0,0-2.526.9l-.8-1.613a12.119,12.119,0,0,1,3.287-1.262,9.7,9.7,0,0,1,3.114-.2,6.56,6.56,0,0,1,3.248,1.187,5.748,5.748,0,0,1,1.992,2.71,9.018,9.018,0,0,1,.388,4.078,9.6,9.6,0,0,1-1.277,4.07,6.283,6.283,0,0,1-2.673,2.442,6.574,6.574,0,0,1-2.84.609A8.472,8.472,0,0,1-6301.027,1432.239Zm-2.256-4.4a3.082,3.082,0,0,0,.858,1.6,2.976,2.976,0,0,0,1.834.761,3.257,3.257,0,0,0,2.217-.474,4.157,4.157,0,0,0,1.463-1.772,7.475,7.475,0,0,0,.458-1.312l-6.906-.729A6.161,6.161,0,0,0-6303.283,1427.838Zm-41.477,1.534,5.944-18.478-1.8-1.1.449-1.393,6.544,2.106-.449,1.391-2.121-.164-5.291,16.453,1.823,1.082-.446,1.394Zm100.65.326a4.968,4.968,0,0,1-2.3-1.88,8.3,8.3,0,0,1-1.231-3.124c-.044-.235-.08-.472-.1-.71s-.054-.515-.078-.829l9.591-1.833a7.979,7.979,0,0,0-.916-2.34,4.176,4.176,0,0,0-1.764-1.66,3.885,3.885,0,0,0-2.451-.249,7.006,7.006,0,0,0-2.056.788,11.436,11.436,0,0,0-2.157,1.591l-1.233-1.308a12.216,12.216,0,0,1,2.777-2.163,9.85,9.85,0,0,1,2.925-1.093,6.564,6.564,0,0,1,3.453.2,5.717,5.717,0,0,1,2.691,2.015,8.966,8.966,0,0,1,1.552,3.793,9.548,9.548,0,0,1-.041,4.266,6.252,6.252,0,0,1-1.852,3.109,6.849,6.849,0,0,1-3.412,1.621,7.892,7.892,0,0,1-1.489.152A5.056,5.056,0,0,1-6244.109,1429.7Zm-.04-3.367a3.054,3.054,0,0,0,1.285,1.287,3.007,3.007,0,0,0,1.978.2,3.27,3.27,0,0,0,1.982-1.1,4.142,4.142,0,0,0,.888-2.121,7.476,7.476,0,0,0,.058-1.39l-6.822,1.3A6.083,6.083,0,0,0-6244.149,1426.331Zm29.525-5.382a8.5,8.5,0,0,1-1.678,2.059,7.138,7.138,0,0,1-2.526,1.494,4.679,4.679,0,0,1-2.246.176,3.662,3.662,0,0,1-1.919-.985,5.163,5.163,0,0,1-1.278-2.3l-2.521-7.963-2.122.168-.44-1.4,6.448-2.041.441,1.394-1.7,1.026,2.342,7.4a3.174,3.174,0,0,0,1.38,2.025,2.575,2.575,0,0,0,2.054.134,4.861,4.861,0,0,0,1.767-1.1,7.153,7.153,0,0,0,1.43-1.889l-2.712-8.567-1.98.152-.44-1.4,6.448-2.041.441,1.4-1.827,1.09,5.213,16.464,2.119-.159.443,1.394-4.548,1.645Zm-105.944,7.959a14.508,14.508,0,0,1-2.632-.311,5.652,5.652,0,0,1-3.3-1.774,3.885,3.885,0,0,1-.559-3.432l1.871-8.477-1.918-.919.316-1.428,4.141.717-.175,2.386a7.967,7.967,0,0,1,2.725-1.259,6.153,6.153,0,0,1,2.756-.07,3.939,3.939,0,0,1,2.458,1.616,4.061,4.061,0,0,1,.44,3.321,4.034,4.034,0,0,1-1.212,2.292,3.789,3.789,0,0,1-2.165.836,9.918,9.918,0,0,1-2.942-.252l-3.044-.671-.447,2.022a2.545,2.545,0,0,0,.287,2.168,3.134,3.134,0,0,0,1.888,1.054,7.931,7.931,0,0,0,1.445.176,10.928,10.928,0,0,0,1.33-.039l.734-2.077,1.78.391-.575,3.634q-1.321.112-2.463.112Q-6320.208,1428.92-6320.568,1428.908Zm-.244-8.577a4.185,4.185,0,0,0,2.572,0,2,2,0,0,0,1.033-1.469,2.345,2.345,0,0,0-.19-1.837,2,2,0,0,0-1.3-.868,4.187,4.187,0,0,0-2.023.134,9.356,9.356,0,0,0-2.141.915l-.561,2.547Zm-37.576,3.635a1.759,1.759,0,0,1-.99-.894,1.76,1.76,0,0,1,.059-1.424,1.7,1.7,0,0,1,.981-1.047,1.814,1.814,0,0,1,1.333.054,1.7,1.7,0,0,1,.961.9,1.76,1.76,0,0,1-.054,1.409,1.719,1.719,0,0,1-.966,1.051,1.672,1.672,0,0,1-.586.106A1.952,1.952,0,0,1-6358.388,1423.966Zm1-6.39,4.82-11.814-1.73-1.238.554-1.354,6.363,2.6-.554,1.355-2.073-.321-4.034,9.876,1.715,1.207-.554,1.354Zm156.078-.443-1.393-3.4,1.663-.744,1.3,2.01a4.774,4.774,0,0,0,1.092-.174,8.465,8.465,0,0,0,1.23-.427,3.882,3.882,0,0,0,1.829-1.557,4.186,4.186,0,0,0,.538-2.357,8.076,8.076,0,0,0-.756-2.911,7.572,7.572,0,0,0-1.717-2.529,4.123,4.123,0,0,0-2.109-1.1,3.815,3.815,0,0,0-2.22.311,6.042,6.042,0,0,0-1.685,1.173,9.88,9.88,0,0,0-1.557,2l-1.477-.942a11.408,11.408,0,0,1,2.017-2.73,8.336,8.336,0,0,1,2.428-1.673,6.168,6.168,0,0,1,3.334-.521,6.122,6.122,0,0,1,3.141,1.38,8.775,8.775,0,0,1,2.4,3.313,9.444,9.444,0,0,1,.9,3.469,6.634,6.634,0,0,1-.485,2.845,6.415,6.415,0,0,1-1.517,2.189,7.994,7.994,0,0,1-2.241,1.482,10.344,10.344,0,0,1-2.385.718,11.024,11.024,0,0,1-1.917.187Q-6201.111,1417.144-6201.31,1417.133Zm-171.712-2.78,1.686-3.322-3.522-1.787.924-1.635,3.447,1.749,3.949-7.781a2.683,2.683,0,0,0,.38-1.7,1.53,1.53,0,0,0-.883-1.036,4.025,4.025,0,0,0-.992-.332,7.956,7.956,0,0,0-1.3-.151l.221-1.653a8.365,8.365,0,0,1,4.009.766,3.128,3.128,0,0,1,1.759,1.992,4.32,4.32,0,0,1-.555,3.016l-4.123,8.122,2.116,1.077-.673,1.327-2.306-.7-1.459,2.876Zm195.812-1.419a1.747,1.747,0,0,1-1.077-.932,1.694,1.694,0,0,1-.211-1.417,1.822,1.822,0,0,1,.873-1.011,1.69,1.69,0,0,1,1.3-.192,1.765,1.765,0,0,1,1.072.919,1.734,1.734,0,0,1,.22,1.412,1.759,1.759,0,0,1-.858,1.005,1.891,1.891,0,0,1-.93.265A1.589,1.589,0,0,1-6177.211,1412.934Zm-212.07-4.816a1.452,1.452,0,0,1-.69-.966,1.7,1.7,0,0,1,.3-1.248,1.6,1.6,0,0,1,1.018-.775,1.488,1.488,0,0,1,1.137.217,1.417,1.417,0,0,1,.7.956,1.825,1.825,0,0,1-.3,1.235,1.627,1.627,0,0,1-1.022.785,1.58,1.58,0,0,1-.345.039A1.491,1.491,0,0,1-6389.281,1408.118Zm202.759-11.284-2.044.583-.719-1.275,5.994-3.365.718,1.275-1.544,1.424,5.222,9.3,2.012-.593.715,1.277-4.106,2.5Zm12.581-7.576-1.973.722-.812-1.217,5.722-3.81.81,1.217-1.449,1.557,9.577,14.385,1.985-.753.811,1.218-3.914,2.839Zm-220.133,15.8a1.454,1.454,0,0,1-.694-.966,1.713,1.713,0,0,1,.3-1.248,1.557,1.557,0,0,1,1.029-.767,1.487,1.487,0,0,1,1.125.212,1.445,1.445,0,0,1,.713.959,1.694,1.694,0,0,1-.306,1.228,1.54,1.54,0,0,1-1.015.795,1.67,1.67,0,0,1-.333.035A1.506,1.506,0,0,1-6394.075,1405.061Zm7.734-2.453a14.661,14.661,0,0,1-2.364-1.2,5.663,5.663,0,0,1-2.49-2.8,3.879,3.879,0,0,1,.656-3.414l4.666-7.321-1.488-1.52.789-1.235,3.642,2.093-.981,2.181a7.981,7.981,0,0,1,2.99-.246,6.124,6.124,0,0,1,2.612.881,3.917,3.917,0,0,1,1.754,2.36,4.063,4.063,0,0,1-.725,3.271,4.033,4.033,0,0,1-1.925,1.735,3.781,3.781,0,0,1-2.321.044,9.893,9.893,0,0,1-2.676-1.248l-2.629-1.676-1.112,1.746a2.548,2.548,0,0,0-.479,2.135,3.154,3.154,0,0,0,1.414,1.635,8,8,0,0,0,1.3.663,10.52,10.52,0,0,0,1.262.419l1.4-1.7,1.536.979-1.787,3.214A26.733,26.733,0,0,1-6386.341,1402.608Zm2.718-8.139a4.18,4.18,0,0,0,2.412.886,2.007,2.007,0,0,0,1.476-1.028,2.383,2.383,0,0,0,.453-1.79,2.013,2.013,0,0,0-.93-1.262,4.178,4.178,0,0,0-1.946-.568,9.316,9.316,0,0,0-2.322.123l-1.4,2.2Zm-23.842-2.168,2.3-2.929-3.1-2.442,1.227-1.425,3.038,2.391,5.391-6.857a2.679,2.679,0,0,0,.707-1.588,1.531,1.531,0,0,0-.665-1.189,4.067,4.067,0,0,0-.907-.521,7.941,7.941,0,0,0-1.248-.4l.537-1.578a8.333,8.333,0,0,1,3.782,1.534,3.126,3.126,0,0,1,1.337,2.3,4.319,4.319,0,0,1-1.135,2.849l-5.632,7.161,1.866,1.467-.922,1.173-2.124-1.137-1.994,2.535Zm253.5-2.738a4.5,4.5,0,0,1-3.139-1.961l-5.278-6.439-1.885.923-.928-1.13,5.21-4.272.927,1.132-1.2,1.586,4.92,6a3.29,3.29,0,0,0,2.044,1.36,2.524,2.524,0,0,0,1.945-.63,4.8,4.8,0,0,0,1.246-1.683,7.472,7.472,0,0,0,.636-2.295l-5.694-6.946-1.783.874-.927-1.132,5.21-4.269.927,1.132-1.271,1.671,6.749,8.234,1.889-.917.929,1.132-3.124,2.81-1.655-1.547a8.944,8.944,0,0,1-.87,2.974,7.108,7.108,0,0,1-1.788,2.323,4.361,4.361,0,0,1-2.818,1.077C-6153.78,1389.572-6153.871,1389.569-6153.961,1389.563Zm-263.194-11.312a6.874,6.874,0,0,1-3.3-1.839,6,6,0,0,1-1.813-2.878,4.985,4.985,0,0,1,.2-2.963,8.321,8.321,0,0,1,1.831-2.815c.165-.173.339-.34.517-.5s.391-.34.632-.541l7.057,6.746a8.027,8.027,0,0,0,1.377-2.1,4.175,4.175,0,0,0,.324-2.4,3.85,3.85,0,0,0-1.218-2.14,7.05,7.05,0,0,0-1.832-1.217,11.287,11.287,0,0,0-2.549-.832l.352-1.764a12.167,12.167,0,0,1,3.37,1.007,9.89,9.89,0,0,1,2.588,1.748,6.545,6.545,0,0,1,1.842,2.927,5.727,5.727,0,0,1-.08,3.36,8.992,8.992,0,0,1-2.186,3.466,9.576,9.576,0,0,1-3.5,2.442,6.5,6.5,0,0,1-2.307.438A6.067,6.067,0,0,1-6417.156,1378.251Zm-2.4-6.7a3.069,3.069,0,0,0-.3,1.793,2.983,2.983,0,0,0,.987,1.723,3.262,3.262,0,0,0,2.042.981,4.154,4.154,0,0,0,2.245-.511,7.388,7.388,0,0,0,1.165-.757l-5.021-4.8A6.091,6.091,0,0,0-6419.552,1371.55Zm283.365,1.205a5.169,5.169,0,0,1-2.23-1.4l-6.042-5.766-1.778,1.165-1.059-1.01,4.669-4.894,1.059,1.011-1,1.72,5.615,5.359a3.173,3.173,0,0,0,2.185,1.109,2.565,2.565,0,0,0,1.861-.875,4.822,4.822,0,0,0,1.023-1.81,7.141,7.141,0,0,0,.346-2.341l-6.5-6.205-1.662,1.087-1.057-1.011,4.668-4.893,1.059,1.01-1.076,1.834,12.5,11.924,1.781-1.161,1.059,1.01-3.2,3.629-6.206-5.922a8.51,8.51,0,0,1-.48,2.612,7.165,7.165,0,0,1-1.492,2.526,4.722,4.722,0,0,1-1.886,1.235,3.57,3.57,0,0,1-1.158.194A3.847,3.847,0,0,1-6136.187,1372.756Zm-297.8-10.858,1.538-1.662a9.009,9.009,0,0,1-2.978-.856,7.117,7.117,0,0,1-2.331-1.779,4.326,4.326,0,0,1-1.082-3.085,4.5,4.5,0,0,1,1.946-3.148l6.415-5.3-.932-1.883,1.129-.932,4.293,5.191-1.129.932-1.589-1.192-5.982,4.948a3.285,3.285,0,0,0-1.35,2.049,2.524,2.524,0,0,0,.64,1.942,4.825,4.825,0,0,0,1.686,1.238,7.441,7.441,0,0,0,2.3.625l6.919-5.725-.881-1.777,1.127-.933,4.293,5.189-1.125.933-1.678-1.264-8.207,6.787.926,1.884-1.127.933Zm319.651-4.24a1.568,1.568,0,0,1-.689-1.083,1.52,1.52,0,0,1,.3-1.109,1.446,1.446,0,0,1,1.011-.637,1.687,1.687,0,0,1,1.2.4,1.518,1.518,0,0,1,.712,1.07,1.49,1.49,0,0,1-.3,1.135,1.429,1.429,0,0,1-1.015.619,1.391,1.391,0,0,1-.151.008A1.781,1.781,0,0,1-6114.333,1357.659Zm-10.792-5.026a9.379,9.379,0,0,1-2.8-3.171,6.346,6.346,0,0,1-.72-3.595,7.214,7.214,0,0,1,1.52-3.639,6.121,6.121,0,0,1,4.381-2.684,7.759,7.759,0,0,1,5.342,1.871,9.842,9.842,0,0,1,2.881,3.2,6.139,6.139,0,0,1,.743,3.543,7.1,7.1,0,0,1-1.5,3.585,6.273,6.273,0,0,1-4.45,2.735q-.286.029-.574.028A8.1,8.1,0,0,1-6125.125,1352.632Zm-.486-9.062a3.694,3.694,0,0,0-.819,2.2,3.99,3.99,0,0,0,.744,2.251,9.168,9.168,0,0,0,2.189,2.21,6.946,6.946,0,0,0,3.875,1.668,3.342,3.342,0,0,0,2.818-1.476,3.366,3.366,0,0,0,.6-3.259,7.553,7.553,0,0,0-2.808-3.368,6.971,6.971,0,0,0-3.837-1.671h-.064A3.271,3.271,0,0,0-6125.611,1343.57Zm14.69,9.541a1.592,1.592,0,0,1-.694-1.075,1.486,1.486,0,0,1,.3-1.117,1.4,1.4,0,0,1,1.006-.625,1.819,1.819,0,0,1,1.207.388,1.647,1.647,0,0,1,.708,1.083,1.471,1.471,0,0,1-.295,1.125,1.442,1.442,0,0,1-1.016.619,1.373,1.373,0,0,1-.15.008A1.785,1.785,0,0,1-6110.921,1353.111Zm3.236-14.586.393-1.511-9.473-9.523,1.48-2.619,11.686,3.011-8.477-8.684,1.481-2.617,12.827,3.348,1.059-1.2,1.273.72-2.863,5.453-1.272-.72.632-1.931-10.312-2.894,8.892,8.851-1.282,2.606-12.333-3.327,7.707,7.479,1.2-1.462,1.274.722-2.618,5.022Zm-345.186-5.66a4.32,4.32,0,0,1-2.183-1.042,7.823,7.823,0,0,1-1.7-2.085,13.286,13.286,0,0,1-.889-1.955,17.29,17.29,0,0,1-.692-2.386l2.971-1.534.875,1.534-1.467,1.237a8.661,8.661,0,0,0,.815,2.089,3.486,3.486,0,0,0,1.438,1.466,1.647,1.647,0,0,0,1.632-.037,1.559,1.559,0,0,0,.821-1.1,4.657,4.657,0,0,0-.052-1.622c-.119-.612-.254-1.261-.409-1.945a10.291,10.291,0,0,1-.266-2.025,4.172,4.172,0,0,1,.378-1.881,3.41,3.41,0,0,1,1.5-1.508,3.891,3.891,0,0,1,2.583-.538,5.106,5.106,0,0,1,2.458,1.16,8.737,8.737,0,0,1,2.026,2.469,14.8,14.8,0,0,1,.922,1.953,19,19,0,0,1,.717,2.261l-3.479,1.759-.861-1.511,1.912-1.4a10.216,10.216,0,0,0-.355-1.024,9.127,9.127,0,0,0-.552-1.163,5.088,5.088,0,0,0-1.017-1.282,2.9,2.9,0,0,0-1.272-.7,1.758,1.758,0,0,0-1.332.2,1.626,1.626,0,0,0-.857,1.14,4.438,4.438,0,0,0,.031,1.65q.177.916.395,1.919a10.631,10.631,0,0,1,.25,2,4.1,4.1,0,0,1-.366,1.86,3.514,3.514,0,0,1-1.528,1.505,3.988,3.988,0,0,1-1.974.578A3.134,3.134,0,0,1-6452.87,1332.865Zm-10.087-19.136a6.427,6.427,0,0,1-2.18-1.531,8.009,8.009,0,0,1-1.467-2.251,10.186,10.186,0,0,1-.7-2.391,10.212,10.212,0,0,1-.161-2.324l3.407-1.375.731,1.67-2.016,1.285a4.848,4.848,0,0,0,.166,1.094,8.823,8.823,0,0,0,.42,1.233,3.877,3.877,0,0,0,1.546,1.839,4.182,4.182,0,0,0,2.35.552,8.044,8.044,0,0,0,2.917-.736,7.539,7.539,0,0,0,2.541-1.7,4.127,4.127,0,0,0,1.114-2.1,3.812,3.812,0,0,0-.3-2.22,5.938,5.938,0,0,0-1.162-1.692,9.831,9.831,0,0,0-1.985-1.572l.953-1.472a11.538,11.538,0,0,1,2.717,2.036,8.359,8.359,0,0,1,1.655,2.438,6.145,6.145,0,0,1,.5,3.339,6.1,6.1,0,0,1-1.4,3.131,8.743,8.743,0,0,1-3.329,2.378,9.4,9.4,0,0,1-3.474.876c-.079,0-.156,0-.233,0A6.5,6.5,0,0,1-6462.957,1313.729Zm365.273-4.214c-.223-.091-.44-.191-.655-.3s-.461-.238-.736-.389l3.684-9.041a7.977,7.977,0,0,0-2.464-.507,4.187,4.187,0,0,0-2.351.578,3.856,3.856,0,0,0-1.542,1.919,7.008,7.008,0,0,0-.459,2.153,11.344,11.344,0,0,0,.163,2.674l-1.771.323a12.17,12.17,0,0,1-.3-3.507,9.739,9.739,0,0,1,.676-3.047,6.55,6.55,0,0,1,2.044-2.79,5.748,5.748,0,0,1,3.155-1.16,9.005,9.005,0,0,1,4.028.762,9.543,9.543,0,0,1,3.554,2.358,6.251,6.251,0,0,1,1.6,3.245,6.865,6.865,0,0,1-.5,3.746,5.985,5.985,0,0,1-2.011,2.743,4.989,4.989,0,0,1-2.828.906h-.117A8.409,8.409,0,0,1-6097.684,1309.515Zm3.272-2.036a3.064,3.064,0,0,0,1.778-.378,2.991,2.991,0,0,0,1.243-1.551,3.291,3.291,0,0,0,.162-2.261,4.147,4.147,0,0,0-1.3-1.9,7.5,7.5,0,0,0-1.134-.8l-2.619,6.432A6.11,6.11,0,0,0-6094.412,1307.479Zm-384.975-13.029,8.2-2.535a8.469,8.469,0,0,1-2.049-1.695,7.036,7.036,0,0,1-1.477-2.533,4.67,4.67,0,0,1-.162-2.246,3.661,3.661,0,0,1,1-1.914,5.157,5.157,0,0,1,2.311-1.266l7.98-2.469-.153-2.119,1.4-.433,2,6.461-1.4.433-1.016-1.71-7.413,2.3a3.171,3.171,0,0,0-2.036,1.365,2.574,2.574,0,0,0-.144,2.054,4.9,4.9,0,0,0,1.083,1.775,7.15,7.15,0,0,0,1.879,1.44l8.585-2.657-.141-1.981,1.4-.433,2,6.463-1.4.432-1.079-1.833-16.5,5.107.146,2.122-1.4.433Zm393.593-3.7.172-2a3.573,3.573,0,0,1-1.1.25,4.98,4.98,0,0,1-1.734-.205,4.838,4.838,0,0,1-3.3-2.683,6.7,6.7,0,0,1-.151-4.689,8.683,8.683,0,0,1,.912-2.131l-2.41-1.2-1.309,4.628a6.772,6.772,0,0,1-2.125,3.658,3.534,3.534,0,0,1-3.274.523,3.921,3.921,0,0,1-2.857-2.787,10.7,10.7,0,0,1,.379-5.8,10.223,10.223,0,0,1,2.227-4.478,2.936,2.936,0,0,1,3.035-.834,3.24,3.24,0,0,1,1.928,1.448,6.044,6.044,0,0,1,.733,1.95,2.167,2.167,0,0,1,.433-.5,1.2,1.2,0,0,1,1.144-.236,1.51,1.51,0,0,1,.42.191,6.016,6.016,0,0,1,.557.415c.233.191.531.453.9.783l1.13,1.03a4.49,4.49,0,0,1,2.025-1.17,5.055,5.055,0,0,1,2.713.08,4.851,4.851,0,0,1,3.287,2.635,6.706,6.706,0,0,1,.134,4.758,8.152,8.152,0,0,1-1.353,2.811l-.939,3.971Zm-2.807-10.923a3.223,3.223,0,0,0-1.464,2.082,3.472,3.472,0,0,0,.15,2.668,3.328,3.328,0,0,0,2.16,1.544,3.206,3.206,0,0,0,2.565-.15,3.415,3.415,0,0,0,1.437-2.132,3.443,3.443,0,0,0-.13-2.634,3.287,3.287,0,0,0-2.14-1.51,4.6,4.6,0,0,0-1.244-.189A2.729,2.729,0,0,0-6088.6,1279.826Zm-10.66-3.746a7.837,7.837,0,0,0-1.4,3.033,7.853,7.853,0,0,0-.384,3.593,1.953,1.953,0,0,0,1.445,1.585,1.835,1.835,0,0,0,1.792-.353,4.476,4.476,0,0,0,1.2-2.217l1.1-3.908a3.2,3.2,0,0,0-1.953-2.327,1.753,1.753,0,0,0-.48-.07A1.759,1.759,0,0,0-6099.261,1276.08Zm-379.906-7.432a14.419,14.419,0,0,1-.736-2.546,5.644,5.644,0,0,1,.352-3.728,3.87,3.87,0,0,1,2.942-1.847l8.538-1.575.1-2.125,1.44-.264.951,4.091-2.267.767a7.934,7.934,0,0,1,2.219,2.02,6.172,6.172,0,0,1,1.137,2.513,3.917,3.917,0,0,1-.532,2.891,4.061,4.061,0,0,1-2.888,1.7,4.013,4.013,0,0,1-2.582-.226,3.766,3.766,0,0,1-1.612-1.668,9.821,9.821,0,0,1-.911-2.806l-.567-3.068-2.038.375a2.536,2.536,0,0,0-1.886,1.106,3.149,3.149,0,0,0-.236,2.15,8.234,8.234,0,0,0,.4,1.4,10.95,10.95,0,0,0,.553,1.209l2.2-.13.331,1.79-3.572.884A27.1,27.1,0,0,1-6479.167,1268.647Zm7.807-3.561a4.168,4.168,0,0,0,1,2.37,2,2,0,0,0,1.754.38,2.351,2.351,0,0,0,1.618-.889,2,2,0,0,0,.29-1.541,4.2,4.2,0,0,0-.909-1.811,9.332,9.332,0,0,0-1.672-1.614l-2.565.473Zm388.463,3.792.289-1.66,2.418.119q.028-.075.053-.152a3.158,3.158,0,0,0,.094-.391,3.679,3.679,0,0,0-.269-2.077,7.869,7.869,0,0,0-1.026-1.761l-8.688-1.508-.917,2.448-1.443-.251,1.259-7.263,1.441.251.119,2.093,10.5,1.821.835-1.929,1.44.251-.526,4.166-2.274-.086a11.279,11.279,0,0,1,1.312,2.4,4.93,4.93,0,0,1,.267,2.665,7.094,7.094,0,0,1-.591,1.8Zm-399.176-20.827-1.354.083a5.311,5.311,0,0,1-3.063-.588,4.531,4.531,0,0,1-1.811-1.99,8,8,0,0,1-.72-2.971,13.239,13.239,0,0,1,.208-3.166q.153-.831.391-1.66l-.036-.034a5.346,5.346,0,0,1-1.526-3.657,9.722,9.722,0,0,1,.033-1.521,10.815,10.815,0,0,1,.3-1.651l1.9.3a11.049,11.049,0,0,0-.233,1.192,6.076,6.076,0,0,0-.042,1.122,2.908,2.908,0,0,0,.855,2.008,3.062,3.062,0,0,0,2.376.643l1.958-.12-.226-3.719,1.9-.062.224,3.664,10.641-.649.339-2.51,1.463-.088.443,7.276-1.463.088-.6-2.01-10.651.649.4,6.5,10.65-.65.35-2.234,1.459-.09.427,7.026-1.458.09-.609-2.036-10.651.648.129,2.123-1.515.093Zm-4.844-8.154a9.132,9.132,0,0,0-.165,2.264,3.891,3.891,0,0,0,.893,2.407,2.809,2.809,0,0,0,2.429.821l1.513-.092-.418-6.5-1.712.1a7.169,7.169,0,0,1-2.258-.179Q-6486.805,1239.308-6486.917,1239.9Zm405.3,8.991c-.239-.015-.477-.041-.715-.075s-.512-.081-.821-.138l.66-9.741a8.011,8.011,0,0,0-2.5.291,4.186,4.186,0,0,0-2.051,1.285,3.857,3.857,0,0,0-.863,2.308,6.976,6.976,0,0,0,.24,2.189,11.272,11.272,0,0,0,.994,2.489l-1.58.86a12.026,12.026,0,0,1-1.384-3.235,9.742,9.742,0,0,1-.318-3.1,6.557,6.557,0,0,1,1.068-3.292,5.723,5.723,0,0,1,2.631-2.088,8.932,8.932,0,0,1,4.063-.541,9.546,9.546,0,0,1,4.116,1.122,6.269,6.269,0,0,1,2.536,2.578,6.871,6.871,0,0,1,.7,3.714,5.986,5.986,0,0,1-1.049,3.236,5,5,0,0,1-2.4,1.746,7.869,7.869,0,0,1-2.625.421Q-6081.256,1248.914-6081.616,1248.889Zm2.469-2.959a3.045,3.045,0,0,0,1.57-.917,3.007,3.007,0,0,0,.694-1.862,3.276,3.276,0,0,0-.559-2.2,4.138,4.138,0,0,0-1.826-1.4,7.527,7.527,0,0,0-1.329-.408l-.471,6.93A6.093,6.093,0,0,0-6079.147,1245.929Zm-8.214-18.519a4.5,4.5,0,0,1-1.586-1.925,7.671,7.671,0,0,1-.637-2.8,11.036,11.036,0,0,1,.084-1.925,19.477,19.477,0,0,1,.384-2.025l3.733-.018.083,1.71-2.2.386a6.322,6.322,0,0,0-.187.81,5.284,5.284,0,0,0-.07,1.082,3.855,3.855,0,0,0,.316,1.393,2.216,2.216,0,0,0,.838.984,2.175,2.175,0,0,0,1.326.319,2.16,2.16,0,0,0,1.383-.538,4.39,4.39,0,0,0,.961-1.277c.269-.521.528-1.067.775-1.642a14.92,14.92,0,0,1,.832-1.643,4.092,4.092,0,0,1,1.168-1.288,3.273,3.273,0,0,1,1.782-.557,2.851,2.851,0,0,1,1.632.336,4.038,4.038,0,0,1,1.112.98c.313.4.612.795.888,1.186a4.121,4.121,0,0,0,.961.977,2.123,2.123,0,0,0,1.373.345,2.347,2.347,0,0,0,1.412-.5,2.727,2.727,0,0,0,.835-1.23,4.338,4.338,0,0,0,.235-1.71,4.132,4.132,0,0,0-.959-2.621,3.118,3.118,0,0,0-2.642-.906l-16.1.793-.239-4.824,1.461-.073.59,2.044,10.652-.525-.1-2.123,1.515-.075.486,2.1,1.356-.066a6.1,6.1,0,0,1,2.645.381,4.654,4.654,0,0,1,1.819,1.319,5.8,5.8,0,0,1,1.082,2.034,10.125,10.125,0,0,1,.429,2.494,8.681,8.681,0,0,1-.347,3.057,4.966,4.966,0,0,1-1.358,2.2,3.641,3.641,0,0,1-2.358.919,3.185,3.185,0,0,1-1.759-.342,4.02,4.02,0,0,1-1.153-.992c-.316-.4-.611-.8-.89-1.215a5.1,5.1,0,0,0-.894-1.02,1.636,1.636,0,0,0-1.192-.37,1.7,1.7,0,0,0-1.217.542,4.663,4.663,0,0,0-.821,1.285c-.231.516-.467,1.068-.707,1.652a10.508,10.508,0,0,1-.858,1.66,4.281,4.281,0,0,1-1.277,1.293,3.925,3.925,0,0,1-1.989.567q-.158.008-.311.008A4,4,0,0,1-6087.361,1227.41Zm-388.107-3.583a9.584,9.584,0,0,1-4.126-1.081,6.23,6.23,0,0,1-2.562-2.552,6.87,6.87,0,0,1-.741-3.707,5.985,5.985,0,0,1,1.016-3.246,4.966,4.966,0,0,1,2.385-1.771,8.277,8.277,0,0,1,3.329-.432c.236.015.476.039.713.07s.513.077.822.129l-.563,9.748a7.928,7.928,0,0,0,2.494-.317,4.16,4.16,0,0,0,2.04-1.306,3.862,3.862,0,0,0,.84-2.316,7.075,7.075,0,0,0-.262-2.186,11.337,11.337,0,0,0-1.018-2.477l1.57-.878a12.246,12.246,0,0,1,1.42,3.222,9.832,9.832,0,0,1,.346,3.1,6.564,6.564,0,0,1-1.035,3.3,5.705,5.705,0,0,1-2.611,2.116,8.383,8.383,0,0,1-3.316.6Q-6475.088,1223.849-6475.468,1223.827Zm-3.14-9.8a3.068,3.068,0,0,0-1.561.932,3,3,0,0,0-.673,1.87,3.288,3.288,0,0,0,.577,2.192,4.147,4.147,0,0,0,1.842,1.376,7.421,7.421,0,0,0,1.332.394l.4-6.933q-.224-.014-.441-.014A5.782,5.782,0,0,0-6478.608,1214.023Zm387-14.353,2.187-.713a8.977,8.977,0,0,1-2.136-2.2,7.1,7.1,0,0,1-1.15-2.7,4.187,4.187,0,0,1,.619-3.178,4.719,4.719,0,0,1,3.272-1.795l8.063-1.416.118-2.123,1.44-.254,1,4.73-9.68,1.7a3.24,3.24,0,0,0-2.136,1.091,2.48,2.48,0,0,0-.407,1.99,4.822,4.822,0,0,0,.857,1.911,7.41,7.41,0,0,0,1.685,1.678l8.739-1.536.118-2.123,1.441-.254,1.024,4.727-12.594,2.214-.1,2.092-1.44.252Zm-376.658,3.551-.125-2.1-10.485-1.851-.836,1.928-1.441-.256.539-4.165,2.262.093a9,9,0,0,1-1.275-2.821,7.076,7.076,0,0,1-.155-2.929,4.323,4.323,0,0,1,1.645-2.821,4.518,4.518,0,0,1,3.662-.56l8.2,1.447.829-1.926,1.441.252-1.171,6.636-1.443-.256-.123-1.985-7.64-1.347a3.274,3.274,0,0,0-2.437.3,2.523,2.523,0,0,0-1.065,1.746,4.829,4.829,0,0,0,.148,2.086,7.568,7.568,0,0,0,1.015,2.157l8.844,1.561.785-1.823,1.439.254-1.171,6.632Zm371.736-26.025,2.169-1.014a7.947,7.947,0,0,1-2.428-1.763,6.152,6.152,0,0,1-1.4-2.375,3.926,3.926,0,0,1,.213-2.933,4.049,4.049,0,0,1,2.686-2,4.008,4.008,0,0,1,2.591-.06,3.78,3.78,0,0,1,1.785,1.482,9.928,9.928,0,0,1,1.21,2.691l.9,2.988,1.98-.595a2.548,2.548,0,0,0,1.759-1.306,3.156,3.156,0,0,0,0-2.161,8,8,0,0,0-.547-1.347,11.1,11.1,0,0,0-.684-1.142l-2.173.371-.523-1.748,3.453-1.267a27.071,27.071,0,0,1,1.645,2.749,14.536,14.536,0,0,1,1.011,2.448,5.662,5.662,0,0,1,.057,3.745,3.875,3.875,0,0,1-2.723,2.16l-8.314,2.5.133,2.121-1.4.42Zm2.222-7.473a2.345,2.345,0,0,0-1.51,1.06,2.011,2.011,0,0,0-.124,1.564,4.194,4.194,0,0,0,1.1,1.7,9.349,9.349,0,0,0,1.838,1.423l2.5-.751-.769-2.565a4.178,4.178,0,0,0-1.253-2.246,1.734,1.734,0,0,0-1.014-.309A2.694,2.694,0,0,0-6094.311,1169.724Zm-368.868,7.62a1.555,1.555,0,0,1-1.045-.821,1.706,1.706,0,0,1-.125-1.251,1.705,1.705,0,0,1,.775-1.09,1.648,1.648,0,0,1,1.3-.108,1.547,1.547,0,0,1,1.046.818,1.745,1.745,0,0,1,.121,1.28,1.662,1.662,0,0,1-.767,1.062,1.487,1.487,0,0,1-.745.192A2.109,2.109,0,0,1-6463.179,1177.343Zm5.136-14.685.35-2.294-14.223-5.577-1.267,1.936-1.362-.534,2.552-6.888,1.362.536-.289,2.317,14.236,5.583,1.319-1.916,1.362.534-2.68,6.838Zm5.914-14.488.5-2.037-9.454-4.9-1.372,1.591-1.3-.674,1.759-3.813,2.13.765a8.925,8.925,0,0,1-.374-3.074,7.113,7.113,0,0,1,.725-2.842,4.323,4.323,0,0,1,2.414-2.2,4.519,4.519,0,0,1,3.66.559l7.391,3.829,1.368-1.593,1.3.674-3.1,5.981-1.3-.673.474-1.931-6.891-3.57a3.293,3.293,0,0,0-2.414-.443,2.535,2.535,0,0,0-1.539,1.349,4.834,4.834,0,0,0-.478,2.038,7.411,7.411,0,0,0,.322,2.36l7.978,4.13,1.291-1.506,1.3.671-3.1,5.983Zm344.475-1.464a9.822,9.822,0,0,1-1.852-2.516,6.564,6.564,0,0,1-.751-3.375,5.718,5.718,0,0,1,1.2-3.139,8.983,8.983,0,0,1,3.225-2.531,9.581,9.581,0,0,1,4.114-1.124,6.239,6.239,0,0,1,3.5.932,6.89,6.89,0,0,1,2.494,2.842,6.032,6.032,0,0,1,.743,3.319,4.992,4.992,0,0,1-1.184,2.725,8.329,8.329,0,0,1-2.667,2.036c-.215.107-.437.207-.655.3s-.48.192-.777.3l-4.383-8.724a7.97,7.97,0,0,0-2,1.519,4.194,4.194,0,0,0-1.115,2.15,3.874,3.874,0,0,0,.433,2.425,6.949,6.949,0,0,0,1.314,1.764,11.4,11.4,0,0,0,2.122,1.639l-.925,1.546A12.3,12.3,0,0,1-6107.654,1146.706Zm7.866-3.53a6.115,6.115,0,0,0,1.578-1.1,3.106,3.106,0,0,0,.888-1.59,3.018,3.018,0,0,0-.352-1.956,3.282,3.282,0,0,0-1.595-1.608,4.166,4.166,0,0,0-2.285-.275,7.538,7.538,0,0,0-1.35.324Zm-19.958-17.452,1.24-.774,1.5,1.471,9.042-5.663-.685-1.977,1.238-.779,2.689,3.982-10.812,6.775.683,2.017-1.241.775Zm17.557-5.637a1.828,1.828,0,0,1-1.049-.824,1.668,1.668,0,0,1-.256-1.288,1.769,1.769,0,0,1,.867-1.116,1.722,1.722,0,0,1,1.4-.288,1.79,1.79,0,0,1,1.046.813,1.744,1.744,0,0,1,.278,1.306,1.756,1.756,0,0,1-.875,1.121,1.947,1.947,0,0,1-1.021.332A1.4,1.4,0,0,1-6102.189,1120.087Zm-24.4-3.912,1.41-1.5a9.49,9.49,0,0,1-2.585-.815,5.735,5.735,0,0,1-2.012-1.637,4.864,4.864,0,0,1-1.036-2.725,5.544,5.544,0,0,1,.78-3.059,10.2,10.2,0,0,1,2.751-3.008q3.1-2.394,5.87-2.015a7.512,7.512,0,0,1,4.922,3.176,10.445,10.445,0,0,1,.793,1.186q.238.408.453.854l3.584-2.762-.907-2.057,1.158-.893,3.171,3.8-15.353,11.832.875,1.942-1.158.893ZM-6124.846,1114.726Zm-.483-9.177a8.583,8.583,0,0,0-2.064,2.165,4.288,4.288,0,0,0-.731,2.17,2.862,2.862,0,0,0,.613,1.88,4.158,4.158,0,0,0,1.492,1.168,7.534,7.534,0,0,0,1.826.595l7.27-5.6a9.408,9.408,0,0,0-1.209-2.171,4.051,4.051,0,0,0-3.251-1.8h-.012A6.538,6.538,0,0,0-6125.329,1105.55Zm-309.168,12.418.888-1.934-13.625-10.614-1.657,1.333-1.155-.9,2.816-3.93,6.768,5.272a8.442,8.442,0,0,1,.216-2.646,7.078,7.078,0,0,1,1.235-2.661,4.706,4.706,0,0,1,1.751-1.419,3.64,3.64,0,0,1,2.14-.274,5.139,5.139,0,0,1,2.357,1.171l6.59,5.135,1.651-1.339,1.155.9-4.158,5.336-1.153-.9.82-1.812-6.124-4.77a3.154,3.154,0,0,0-2.282-.884,2.551,2.551,0,0,0-1.766,1.054,4.843,4.843,0,0,0-.837,1.9,7.082,7.082,0,0,0-.109,2.364l7.09,5.524,1.544-1.245,1.155.9-4.158,5.336Zm16.187-19.819a7.765,7.765,0,0,1-5.043-2.577,9.89,9.89,0,0,1-2.42-3.559,6.151,6.151,0,0,1-.254-3.609,7.076,7.076,0,0,1,1.971-3.349,6.271,6.271,0,0,1,4.782-2.106,7.714,7.714,0,0,1,5.1,2.556,9.385,9.385,0,0,1,2.342,3.521,6.365,6.365,0,0,1,.225,3.658,7.179,7.179,0,0,1-2,3.4,6.182,6.182,0,0,1-4.453,2.073C-6418.145,1098.154-6418.227,1098.152-6418.311,1098.149Zm-4.409-11.579a3.349,3.349,0,0,0-1.034,3.148,7.507,7.507,0,0,0,2.322,3.714,6.96,6.96,0,0,0,3.575,2.178,3.252,3.252,0,0,0,2.93-1.06,3.694,3.694,0,0,0,1.113-2.067,4.015,4.015,0,0,0-.434-2.329,9.217,9.217,0,0,0-1.868-2.489,6.955,6.955,0,0,0-3.614-2.176,3.463,3.463,0,0,0-.523-.041A3.405,3.405,0,0,0-6422.72,1086.57Zm274.208,4.311a8.693,8.693,0,0,1-2.679-1.735,15.056,15.056,0,0,1-1.474-1.582,18.6,18.6,0,0,1-1.37-1.935l2.777-2.733,1.282,1.176-1.395,1.918a10.713,10.713,0,0,0,.648.869,9.894,9.894,0,0,0,.88.941,5.206,5.206,0,0,0,1.356.911,2.959,2.959,0,0,0,1.43.283,1.764,1.764,0,0,0,1.206-.6,1.641,1.641,0,0,0,.471-1.35,4.419,4.419,0,0,0-.533-1.56c-.3-.546-.617-1.117-.961-1.707a10.872,10.872,0,0,1-.847-1.832,4.066,4.066,0,0,1-.215-1.886,3.508,3.508,0,0,1,1-1.9,3.756,3.756,0,0,1,2.178-1.262,4.321,4.321,0,0,1,2.4.331,7.893,7.893,0,0,1,2.249,1.469,13.519,13.519,0,0,1,1.443,1.593,18.168,18.168,0,0,1,1.384,2.062l-2.363,2.363-1.3-1.2,1.021-1.623a8.545,8.545,0,0,0-1.415-1.742,3.49,3.49,0,0,0-1.816-.959,1.649,1.649,0,0,0-1.542.533,1.545,1.545,0,0,0-.443,1.3,4.581,4.581,0,0,0,.541,1.529q.445.821.98,1.728a10.58,10.58,0,0,1,.868,1.849,4.178,4.178,0,0,1,.216,1.906,3.473,3.473,0,0,1-.977,1.9,3.908,3.908,0,0,1-2.3,1.295,4.446,4.446,0,0,1-.692.054A5.385,5.385,0,0,1-6148.512,1090.881Zm-252.752-7.862a4.7,4.7,0,0,1-3.14-2.016l-5.1-6.4-1.92.915-.911-1.145,3.675-3.142,6.123,7.688a3.246,3.246,0,0,0,1.979,1.354,2.5,2.5,0,0,0,1.944-.594,4.815,4.815,0,0,0,1.268-1.665,7.43,7.43,0,0,0,.669-2.286l-5.53-6.94-1.919.914-.912-1.143,3.658-3.161,7.968,10,1.887-.91.91,1.145-3.16,2.766-1.671-1.583a8.992,8.992,0,0,1-.908,2.931,7.1,7.1,0,0,1-1.822,2.3,4.226,4.226,0,0,1-2.686,1C-6401,1083.038-6401.129,1083.031-6401.264,1083.019Zm238.755-3.829,1.2-7.985-2.2-1.636-3.084,4.141,1.3,1.587-.873,1.173-5.47-4.072.875-1.174,1.951.846,10.325-13.871-1.381-1.611.873-1.174,3.992,2.728-7.384,9.922,2.2,1.64,4.188-1.636-1.251-1.269.875-1.174,5.165,3.6-.858,1.15-1.748-.795-5.083,1.942-.984,7.233,1.258,1.541-.857,1.15Zm-223.589-11.771,1.471-.925,1.486,1.847a10.826,10.826,0,0,0,1.008-.4,9.16,9.16,0,0,0,1.138-.6,5.218,5.218,0,0,0,1.236-1.07,2.908,2.908,0,0,0,.647-1.3,1.764,1.764,0,0,0-.259-1.321,1.64,1.64,0,0,0-1.178-.81,4.4,4.4,0,0,0-1.645.106c-.606.142-1.241.3-1.9.477a10.645,10.645,0,0,1-1.99.337,4.068,4.068,0,0,1-1.875-.287,3.485,3.485,0,0,1-1.57-1.458,3.755,3.755,0,0,1-.648-2.432,4.335,4.335,0,0,1,.948-2.227,7.854,7.854,0,0,1,2.008-1.784,13.547,13.547,0,0,1,1.914-.976,18.134,18.134,0,0,1,2.355-.795l1.661,2.9-1.5.938-1.3-1.41a8.716,8.716,0,0,0-2.05.906,3.483,3.483,0,0,0-1.4,1.5,1.645,1.645,0,0,0,.111,1.625,1.536,1.536,0,0,0,1.135.77,4.54,4.54,0,0,0,1.621-.122c.6-.142,1.248-.3,1.923-.492a10.363,10.363,0,0,1,2.013-.35,4.144,4.144,0,0,1,1.895.29,3.444,3.444,0,0,1,1.575,1.44,3.9,3.9,0,0,1,.646,2.562,5.081,5.081,0,0,1-1.051,2.5,8.789,8.789,0,0,1-2.378,2.132,15.3,15.3,0,0,1-1.912,1,18.277,18.277,0,0,1-2.227.813Zm206.2-.555a8.337,8.337,0,0,1-2.774-1,6.173,6.173,0,0,1-2.36-2.412,6.135,6.135,0,0,1-.7-3.357,8.728,8.728,0,0,1,1.3-3.878,9.422,9.422,0,0,1,2.3-2.746,6.631,6.631,0,0,1,2.6-1.259,6.357,6.357,0,0,1,2.663-.034,7.978,7.978,0,0,1,2.51.961,10.32,10.32,0,0,1,1.969,1.525,10.265,10.265,0,0,1,1.492,1.792l-1.953,3.108-1.572-.922.88-2.226a4.887,4.887,0,0,0-.776-.788,8.9,8.9,0,0,0-1.062-.752,3.892,3.892,0,0,0-2.333-.585,4.194,4.194,0,0,0-2.228.933,8.038,8.038,0,0,0-1.93,2.306,7.521,7.521,0,0,0-1.062,2.867,4.116,4.116,0,0,0,.331,2.354,3.8,3.8,0,0,0,1.541,1.627,5.986,5.986,0,0,0,1.933.689,9.754,9.754,0,0,0,2.53.107l.091,1.753a13.263,13.263,0,0,1-1.576.1A10.219,10.219,0,0,1-6179.9,1066.863Zm-185.25-7.369a5.735,5.735,0,0,1-3.125-1.24,8.985,8.985,0,0,1-2.5-3.25,9.609,9.609,0,0,1-1.078-4.129,6.25,6.25,0,0,1,.971-3.486,6.866,6.866,0,0,1,2.865-2.461,5.994,5.994,0,0,1,3.329-.705,4.968,4.968,0,0,1,2.71,1.209,8.3,8.3,0,0,1,2.008,2.691c.106.217.2.437.292.656s.184.484.288.783l-8.771,4.287a7.972,7.972,0,0,0,1.5,2.017,4.194,4.194,0,0,0,2.139,1.137,3.866,3.866,0,0,0,2.428-.4,7.04,7.04,0,0,0,1.777-1.3,11.337,11.337,0,0,0,1.661-2.1l1.534.941a12.212,12.212,0,0,1-2.111,2.813,9.784,9.784,0,0,1-2.536,1.824,6.72,6.72,0,0,1-2.969.733Q-6364.945,1059.509-6365.151,1059.494Zm-2.155-12.607a3.254,3.254,0,0,0-1.624,1.577,4.151,4.151,0,0,0-.3,2.282,7.508,7.508,0,0,0,.31,1.354l6.241-3.049a6.155,6.155,0,0,0-1.087-1.59,3.1,3.1,0,0,0-1.578-.9,2.357,2.357,0,0,0-.493-.051A3.345,3.345,0,0,0-6367.306,1046.888Zm166.1,9.03.624-1.323,2.056.428,4.535-9.655-1.648-1.291.622-1.324,4.416,1.893-5.426,11.546,1.665,1.326-.622,1.326Zm-16.974-6.7.5-1.371,2.083.261,3.683-10-1.747-1.167.507-1.373,4,1.269-.5,2.224a11.579,11.579,0,0,1,2.6-.862,4.954,4.954,0,0,1,2.673.222,7.132,7.132,0,0,1,1.666.906l-1.7,4.054-1.58-.583.555-2.356c-.046-.028-.093-.054-.142-.078a2.9,2.9,0,0,0-.37-.168,3.7,3.7,0,0,0-2.088-.107,7.952,7.952,0,0,0-1.918.688l-3.052,8.277,2.242,1.343-.5,1.373Zm-13.954-3.751a6.5,6.5,0,0,1-3.044-1.64,5.694,5.694,0,0,1-1.588-2.963,8.995,8.995,0,0,1,.2-4.095,9.613,9.613,0,0,1,1.84-3.847,6.264,6.264,0,0,1,2.992-2.033,6.865,6.865,0,0,1,3.78-.026,5.979,5.979,0,0,1,3,1.612,5,5,0,0,1,1.29,2.676,8.4,8.4,0,0,1-.21,3.349c-.057.233-.125.463-.2.691s-.174.487-.287.782l-9.463-2.395a7.929,7.929,0,0,0-.162,2.507,4.182,4.182,0,0,0,.9,2.249,3.865,3.865,0,0,0,2.118,1.261,6.876,6.876,0,0,0,2.194.158,11.211,11.211,0,0,0,2.625-.531l.565,1.709a12.206,12.206,0,0,1-3.432.783q-.406.029-.8.029A9.346,9.346,0,0,1-6232.131,1045.464Zm5.588-8.011a6.069,6.069,0,0,0,.2-1.915,3.071,3.071,0,0,0-.622-1.708,3,3,0,0,0-1.708-1.016,3.287,3.287,0,0,0-2.261.155,4.154,4.154,0,0,0-1.7,1.547,7.425,7.425,0,0,0-.64,1.235Zm35.722,4.1a1.688,1.688,0,0,1-.914-.948,1.762,1.762,0,0,1,.127-1.4,1.728,1.728,0,0,1,1.02-1,1.766,1.766,0,0,1,1.317.116,1.761,1.761,0,0,1,.943.946,1.756,1.756,0,0,1-.134,1.417,1.687,1.687,0,0,1-1.029.994,1.745,1.745,0,0,1-.505.076A1.923,1.923,0,0,1-6190.821,1041.55Zm-148.429-2,7.838-2.321.6,2.039-7.837,2.321Zm85.286,1.505-2.355-13.264-1.418-.537.2-1.451,6.289.691-.206,1.45-2.074.166,1.687,11.059,4.946-10.094-1.9-.564.2-1.448,5.9.637-.2,1.448-1.54.291-6.333,12.066ZM-6246.631,1029.15Zm-61.941,10.771,2.2-.756-1.488-15.184-2.3-.244-.143-1.456,5.674-.7,6.4,10.628,4.41-11.548,5.373-.666.144,1.458-2.2.818,1.489,15.193,2.305.311.142,1.455-7.116.7-.142-1.458,2.2-.739-1.307-13.313-4.4,10.818-1.8.288-6.274-9.955,1.314,13.4,2.331.276.142,1.454-6.816.669Zm38.935-2.532a7.937,7.937,0,0,1-2.448,1.737,6.17,6.17,0,0,1-2.7.572,3.92,3.92,0,0,1-2.709-1.142,4.068,4.068,0,0,1-1.042-3.183,4.028,4.028,0,0,1,.775-2.474,3.781,3.781,0,0,1,1.978-1.218,9.836,9.836,0,0,1,2.935-.287l3.118.1.07-2.07a2.542,2.542,0,0,0-.676-2.08,3.135,3.135,0,0,0-2.047-.691,8.2,8.2,0,0,0-1.454.09,10.675,10.675,0,0,0-1.3.281l-.345,2.177-1.822-.062-.095-3.676a26.716,26.716,0,0,1,3.129-.682,14.639,14.639,0,0,1,2.642-.173,5.632,5.632,0,0,1,3.567,1.142,3.88,3.88,0,0,1,1.176,3.271l-.293,8.677,2.055.553-.052,1.463-4.2.052Zm-5.359-3.749a2,2,0,0,0-.743,1.634,2.346,2.346,0,0,0,.518,1.771,2.007,2.007,0,0,0,1.443.616,4.179,4.179,0,0,0,1.966-.5,9.484,9.484,0,0,0,1.935-1.286l.088-2.61-2.676-.091q-.187-.006-.362-.006A3.754,3.754,0,0,0-6275,1033.641Z" transform="translate(6490.499 -1019.44)" fill="#f5b093" stroke="rgba(0,0,0,0)" stroke-miterlimit="10" stroke-width="1"/>
</svg>
