<svg id="Gruppe_9300" data-name="Gruppe 9300" xmlns="http://www.w3.org/2000/svg" xmlns:xlink="http://www.w3.org/1999/xlink" width="400.589" height="405.573" viewBox="0 0 400.589 405.573">
  <defs>
    <clipPath id="clip-path">
      <rect id="Rechteck_1637" data-name="Rechteck 1637" width="400.589" height="405.573" fill="#e16947"/>
    </clipPath>
  </defs>
  <path id="Pfad_40029" data-name="Pfad 40029" d="M9.122,70.54l-.383,2.509-.227-.386,14.079,5.489-.43.13,1.368-2.124,1.013.4-2.341,6-1.011-.4.419-2.466.229.386L7.757,74.592l.475-.168L6.9,76.591l-1.014-.4,2.222-6.05Z" transform="translate(4.738 56.463)" fill="#e16947"/>
  <g id="Gruppe_9299" data-name="Gruppe 9299">
    <g id="Gruppe_9298" data-name="Gruppe 9298" clip-path="url(#clip-path)">
      <path id="Pfad_40030" data-name="Pfad 40030" d="M37.509,62.506a4.471,4.471,0,0,1-1.365,1.383,24.267,24.267,0,0,1-2.525,1.464q-1.595.823-4.081,2.121l.455-.377a7.822,7.822,0,0,1-2.861,2.863A6.963,6.963,0,0,1,23.2,70.8a10.748,10.748,0,0,1-4.713-1.6,11.978,11.978,0,0,1-3.166-2.568,7.9,7.9,0,0,1-1.61-2.949,7.206,7.206,0,0,1-.18-3.121,9.115,9.115,0,0,1,3.15-5.462,6.79,6.79,0,0,1,2.677-1.318,7.76,7.76,0,0,1,3.2-.061,10.961,10.961,0,0,1,3.61,1.41,11.163,11.163,0,0,1,3.53,3.076,7.808,7.808,0,0,1,1.464,3.653,7.654,7.654,0,0,1-.511,3.771l-.182-.137q1.711-1.018,2.834-1.664a17.624,17.624,0,0,0,1.778-1.139,3.679,3.679,0,0,0,.987-1.063,3.309,3.309,0,0,0,.41-1.2,13.225,13.225,0,0,0,.119-1.657l1.495,0A20.7,20.7,0,0,1,38,60.946a3.837,3.837,0,0,1-.489,1.559m-17.968,4.74a10.1,10.1,0,0,0,3.949,1.46,5.139,5.139,0,0,0,3.081-.54A5.536,5.536,0,0,0,28.7,66.047a5.406,5.406,0,0,0-.276-6.1,10.093,10.093,0,0,0-3.281-2.827A9.515,9.515,0,0,0,21.23,55.7a5.323,5.323,0,0,0-3.074.574,5.949,5.949,0,0,0-2.957,5.1,5.407,5.407,0,0,0,1.056,3.049,10.1,10.1,0,0,0,3.285,2.816" transform="translate(10.813 43.135)" fill="#e16947"/>
      <path id="Pfad_40031" data-name="Pfad 40031" d="M36.19,38.553a1.577,1.577,0,0,0,1.258.541,4.206,4.206,0,0,0,1.5-.41q.8-.371,1.67-.819a11.728,11.728,0,0,1,1.747-.736,3.692,3.692,0,0,1,1.754-.146,3.041,3.041,0,0,1,1.679.978,3.47,3.47,0,0,1,1.034,2.128,4.508,4.508,0,0,1-.473,2.368,7.949,7.949,0,0,1-1.686,2.274,12.727,12.727,0,0,1-1.487,1.224,19.118,19.118,0,0,1-1.754,1.094L39.21,44.488l.928-.9,1.9,1.608-.357-.042a12.132,12.132,0,0,0,1.087-.695,8.96,8.96,0,0,0,.98-.805A5.2,5.2,0,0,0,44.773,42.3a3,3,0,0,0,.356-1.431,1.847,1.847,0,0,0-.556-1.271,1.706,1.706,0,0,0-1.285-.587,3.984,3.984,0,0,0-1.518.374q-.812.363-1.659.81a10.342,10.342,0,0,1-1.738.727,3.926,3.926,0,0,1-1.745.157,2.973,2.973,0,0,1-1.679-.978,3.224,3.224,0,0,1-.984-1.984,3.913,3.913,0,0,1,.431-2.1,7,7,0,0,1,1.43-1.922,11.365,11.365,0,0,1,1.487-1.188,15.01,15.01,0,0,1,1.9-1.092L41.1,33.961l-.928.893-1.729-1.245.464.043A8.959,8.959,0,0,0,36.862,35.1a3.782,3.782,0,0,0-1.123,1.8,1.666,1.666,0,0,0,.451,1.652" transform="translate(27.33 25.611)" fill="#e16947"/>
      <path id="Pfad_40032" data-name="Pfad 40032" d="M56.921,35.089a2.688,2.688,0,0,1-2.159.554,3.574,3.574,0,0,1-2.078-1.569l-5.39-7.422.458.072-2.106,1.531-.652-.9,1.9-1.85-.049.534-1.96-2.7,1.442-1.453,2.153,2.964-.417-.1,3.209-2.332.771,1.189L48.9,25.895l.031-.43,5.229,7.2a2.327,2.327,0,0,0,1.242,1,1.471,1.471,0,0,0,1.233-.3,3.542,3.542,0,0,0,.708-.7,8.267,8.267,0,0,0,.67-1.016l1.031.688a6.994,6.994,0,0,1-2.121,2.758" transform="translate(36.133 17.619)" fill="#e16947"/>
      <path id="Pfad_40033" data-name="Pfad 40033" d="M71.492,24.258l-.5-.249,2.269-.684.518.984L70.719,26.1l-1.4-2,.191-.016a7.933,7.933,0,0,1-1.267,2.742,5.787,5.787,0,0,1-1.922,1.717,3.519,3.519,0,0,1-2.626.329,3.672,3.672,0,0,1-2.216-2.031,3.6,3.6,0,0,1-.509-2.318,3.377,3.377,0,0,1,1.016-1.809,9.15,9.15,0,0,1,2.126-1.494l2.926-1.545-.083.33L65.822,17.85a2.421,2.421,0,0,0-1.576-1.411,3.126,3.126,0,0,0-2.063.419,8.214,8.214,0,0,0-1.22.8,10.586,10.586,0,0,0-1.236,1.152l.116-.431.85,2.152-1.184.626L57.868,18.48a20.656,20.656,0,0,1,2.054-1.9,12.4,12.4,0,0,1,1.944-1.3,5.046,5.046,0,0,1,3.222-.688,3.417,3.417,0,0,1,2.357,2ZM63.205,25.72a2.452,2.452,0,0,0,1.375,1.33,2.051,2.051,0,0,0,1.6-.188,4.42,4.42,0,0,0,1.48-1.4,9.116,9.116,0,0,0,1.152-2.28l.114.54-1.581-2.994.309.1-2.661,1.4a4.263,4.263,0,0,0-1.958,1.648,2.02,2.02,0,0,0,.171,1.839" transform="translate(46.581 11.704)" fill="#e16947"/>
      <path id="Pfad_40034" data-name="Pfad 40034" d="M81.733,22.614a2.684,2.684,0,0,1-2.227-.081,3.561,3.561,0,0,1-1.549-2.092L74.89,11.795l.419.2-2.451.87-.372-1.047,2.35-1.236-.2.5L73.522,7.938l1.794-.986L76.542,10.4l-.372-.217,3.74-1.327.4,1.359-3.666,1.3.152-.4L79.771,19.5a2.33,2.33,0,0,0,.908,1.314,1.472,1.472,0,0,0,1.267.06,3.621,3.621,0,0,0,.877-.473,7.85,7.85,0,0,0,.93-.785l.794.951a7,7,0,0,1-2.814,2.045" transform="translate(58.348 5.596)" fill="#e16947"/>
      <path id="Pfad_40035" data-name="Pfad 40035" d="M94.089,19.323a2.673,2.673,0,0,1-2.2-.375,3.566,3.566,0,0,1-1.256-2.278L88.735,7.7l.39.253-2.547.54L86.349,7.4l2.493-.915-.264.467-.689-3.262,1.91-.74.758,3.585-.341-.264L94.1,5.452l.218,1.4-3.8.807.2-.379,1.841,8.7a2.32,2.32,0,0,0,.727,1.422,1.47,1.47,0,0,0,1.249.226,3.671,3.671,0,0,0,.933-.352,8.12,8.12,0,0,0,1.023-.655l.661,1.047a6.987,6.987,0,0,1-3.059,1.655" transform="translate(69.507 2.376)" fill="#e16947"/>
      <path id="Pfad_40036" data-name="Pfad 40036" d="M127.586,17.117l-.606-.462,2.345.634-.06,1.085-6.283-.343.058-1.085,2.274-.383-.121.374L120.5,9.214l.635.44L117.3,9.446l.4-.408-.408,7.518-.3-.5,2.44.689-.058,1.085-6.384-.347.06-1.085,2.5-.37-.327.412.832-15.264.255.444-2.426-.538L113.94,0l6.391.222-.06,1.085-2.476.422.33-.489L117.742,8.3l-.357-.4,3.859.211-.625.345L125.238,1.7l.182.365-2.4-.486L123.075.5l6.139.209-.06,1.085-2.451.422.551-.374L122.176,9.1l.032-.581Z" transform="translate(90.951 0)" fill="#e16947"/>
      <path id="Pfad_40037" data-name="Pfad 40037" d="M140.422,4.278l-2.538.043.343-.291-3.056,14.8-.2-.4,2.325,1-.22,1.063-6.312-1.3.22-1.065h2.5l-.343.292,3.056-14.8.245.439L134.084,3.1l.22-1.065,6.335,1.18Z" transform="translate(105.258 1.637)" fill="#e16947"/>
      <path id="Pfad_40038" data-name="Pfad 40038" d="M143.27,18.648a8.153,8.153,0,0,0,1.485-1.312,3.077,3.077,0,0,0,.507-.787.778.778,0,0,0,0-.52,4.369,4.369,0,0,1-.144-.556,1.37,1.37,0,0,1,.07-.684A1.2,1.2,0,0,1,145.9,14a1.388,1.388,0,0,1,1.52.316,1.212,1.212,0,0,1,.305.6,1.652,1.652,0,0,1-.092.863,5.475,5.475,0,0,1-1.148,1.691,9.815,9.815,0,0,1-2.651,1.957Z" transform="translate(115.325 11.188)" fill="#e16947"/>
      <path id="Pfad_40039" data-name="Pfad 40039" d="M167.883,32.866a4.4,4.4,0,0,1-1.7-2.023,5.127,5.127,0,0,1-.265-2.884,9.09,9.09,0,0,1,1.44-3.42,7.2,7.2,0,0,1,4.4-3.471,6.663,6.663,0,0,1,5.11,1.182,9.874,9.874,0,0,1,1.1.836,12.613,12.613,0,0,1,1.076,1.06l-.464-.029,2.769-4.26.04.357-1.675-1.689.592-.912,3.55,2.1-9.958,15.319-.061-.462,1.659,1.621-.606.931-3.049-1.8.93-1.987.157.222a8.794,8.794,0,0,1-2.807.121,5.359,5.359,0,0,1-2.233-.805m1.433-.906a4.122,4.122,0,0,0,1.791.606,7.628,7.628,0,0,0,2.364-.135l-.583.433,5.218-8.028-.042.576a9.02,9.02,0,0,0-2.078-1.953,4.094,4.094,0,0,0-3.624-.639,6.2,6.2,0,0,0-3.15,2.713,7.908,7.908,0,0,0-1.171,2.66,4.114,4.114,0,0,0,.083,2.238,2.934,2.934,0,0,0,1.191,1.529" transform="translate(133.484 14.177)" fill="#e16947"/>
      <path id="Pfad_40040" data-name="Pfad 40040" d="M181.424,41.628a5.761,5.761,0,0,1-1.7-2.581,5.226,5.226,0,0,1,.009-3.041,8.167,8.167,0,0,1,1.9-3.189,8.756,8.756,0,0,1,3.1-2.3,5.74,5.74,0,0,1,3.245-.386,6.008,6.008,0,0,1,3,1.54,5.27,5.27,0,0,1,1.664,2.511,4.52,4.52,0,0,1-.107,2.679,7.535,7.535,0,0,1-1.6,2.614c-.123.137-.255.269-.39.393s-.309.28-.514.457l-7.218-6.525.967-1.069,5.9,5.339-.269-.042a6.523,6.523,0,0,0,1.2-1.742,3.11,3.11,0,0,0,.264-1.837,3.032,3.032,0,0,0-1.052-1.736,3.45,3.45,0,0,0-2.07-.951,4.024,4.024,0,0,0-2.229.505,8.121,8.121,0,0,0-2.166,1.756,7.7,7.7,0,0,0-1.567,2.449,4.038,4.038,0,0,0-.2,2.318,3.794,3.794,0,0,0,1.235,2,6.577,6.577,0,0,0,1.765,1.1,10.318,10.318,0,0,0,2.46.709l-.22,1.334a11.735,11.735,0,0,1-3.065-.83,8.515,8.515,0,0,1-2.346-1.473" transform="translate(144.487 24.18)" fill="#e16947"/>
      <path id="Pfad_40041" data-name="Pfad 40041" d="M189.6,49.116l.848-.679,1.816,1.46h-.486l8.483-6.79-.1.475-1.047-2.076.848-.679,2.348,2.651-1.76,1.763-.094-.28a8.531,8.531,0,0,1,3.128.879A6.494,6.494,0,0,1,205.69,47.5a3.9,3.9,0,0,1,.93,2.8,4.073,4.073,0,0,1-1.8,2.821l-6.373,5.1.119-.419,1.013,2.036-.847.679-3.678-4.6.846-.679,1.749,1.417h-.486l6.057-4.846a3.214,3.214,0,0,0,1.354-1.989,2.51,2.51,0,0,0-.612-1.939,4.886,4.886,0,0,0-1.666-1.272,7.573,7.573,0,0,0-2.574-.708l.428-.116-7.122,5.7.119-.419.986,1.962-.848.679Z" transform="translate(152.62 32.865)" fill="#e16947"/>
      <path id="Pfad_40042" data-name="Pfad 40042" d="M199.756,62.251l.949-.527,1.549,1.742-.48-.081,9.5-5.281-.184.449-.686-2.22.951-.529,1.874,3.007L211.2,60.257l-.047-.292a8.61,8.61,0,0,1,2.94,1.386,6.48,6.48,0,0,1,1.8,1.991,3.9,3.9,0,0,1,.451,2.917,4.068,4.068,0,0,1-2.249,2.48l-7.133,3.967.186-.393.661,2.177-.948.527-2.863-5.146.949-.527,1.489,1.688-.478-.081,6.778-3.771a3.2,3.2,0,0,0,1.666-1.735,2.51,2.51,0,0,0-.28-2.013,4.912,4.912,0,0,0-1.43-1.532,7.6,7.6,0,0,0-2.42-1.126l.439-.043-7.972,4.435.188-.393.646,2.1-.949.527Z" transform="translate(160.794 44.92)" fill="#e16947"/>
      <path id="Pfad_40043" data-name="Pfad 40043" d="M211.621,92.381a3.821,3.821,0,0,1,.384-2.919,4.209,4.209,0,0,1,2.854-1.78l7.852-1.828-.289.327-.042-2.3,1.058-.247,1.06,3.879-8.835,2.058a3.129,3.129,0,0,0-2.031,1.2,2.512,2.512,0,0,0-.283,2.013,4.841,4.841,0,0,0,.949,1.854,7.7,7.7,0,0,0,2.014,1.736l-.477-.043,8.884-2.07-.338.338-.042-2.3,1.058-.245,1.083,3.872-11.887,2.769.253-.37.1,2.314-1.083.251-.949-3.411,2.366-.863-.034.294a8.321,8.321,0,0,1-2.44-2.117,6.524,6.524,0,0,1-1.182-2.41" transform="translate(170.243 67.321)" fill="#e16947"/>
      <path id="Pfad_40044" data-name="Pfad 40044" d="M214.128,102.75l1.085-.067.644,2.238-.4-.28,10.846-.673-.359.325.336-2.3,1.087-.069.4,3.52-2.455.431.083-.283a8.568,8.568,0,0,1,2.058,2.518,6.5,6.5,0,0,1,.767,2.572,3.9,3.9,0,0,1-.85,2.825,4.071,4.071,0,0,1-3.1,1.269l-8.146.507.338-.274-.341,2.249-1.085.069-.365-5.877,1.083-.067.615,2.164-.4-.28,7.745-.482a3.219,3.219,0,0,0,2.251-.848,2.512,2.512,0,0,0,.612-1.937,4.883,4.883,0,0,0-.63-2,7.536,7.536,0,0,0-1.7-2.058l.415.152-9.1.565.336-.274-.319,2.173-1.085.067Z" transform="translate(172.363 82.046)" fill="#e16947"/>
      <path id="Pfad_40045" data-name="Pfad 40045" d="M224.509,122.938a1.578,1.578,0,0,0-1.307.412,4.2,4.2,0,0,0-.868,1.289q-.368.8-.731,1.709a11.614,11.614,0,0,1-.845,1.7,3.673,3.673,0,0,1-1.235,1.256,3.032,3.032,0,0,1-1.91.354,3.478,3.478,0,0,1-2.171-.939,4.513,4.513,0,0,1-1.188-2.1,7.921,7.921,0,0,1-.206-2.823,12.463,12.463,0,0,1,.33-1.9,18.949,18.949,0,0,1,.615-1.973l3.355.491-.121,1.283-2.487.022.3-.2a11.2,11.2,0,0,0-.37,1.236,8.531,8.531,0,0,0-.218,1.247,5.152,5.152,0,0,0,.108,1.7,3,3,0,0,0,.662,1.318,1.844,1.844,0,0,0,1.253.6,1.7,1.7,0,0,0,1.355-.393,3.925,3.925,0,0,0,.906-1.272q.379-.8.729-1.7a10.426,10.426,0,0,1,.843-1.686,3.946,3.946,0,0,1,1.22-1.256,2.984,2.984,0,0,1,1.913-.354,3.235,3.235,0,0,1,2.038.863,3.933,3.933,0,0,1,1.043,1.875,7.01,7.01,0,0,1,.171,2.388,11.56,11.56,0,0,1-.354,1.87,15.03,15.03,0,0,1-.726,2.065l-2.83-.392.119-1.283,2.123-.182-.379.269a9.046,9.046,0,0,0,.606-2.431,3.787,3.787,0,0,0-.325-2.1,1.672,1.672,0,0,0-1.421-.958" transform="translate(172.266 96.528)" fill="#e16947"/>
      <path id="Pfad_40046" data-name="Pfad 40046" d="M211.465,139.765a5.779,5.779,0,0,1,1.475-2.718,5.227,5.227,0,0,1,2.689-1.424,8.171,8.171,0,0,1,3.706.173,8.758,8.758,0,0,1,3.494,1.655,5.728,5.728,0,0,1,1.868,2.682,6,6,0,0,1,.054,3.373,5.272,5.272,0,0,1-1.431,2.652,4.551,4.551,0,0,1-2.415,1.166,7.5,7.5,0,0,1-3.056-.179c-.179-.045-.356-.1-.532-.161s-.392-.141-.643-.238l2.361-9.436,1.4.348L218.5,145.38l-.09-.256a6.428,6.428,0,0,0,2.1.238,3.1,3.1,0,0,0,1.745-.63,3.058,3.058,0,0,0,1.038-1.747,3.46,3.46,0,0,0-.135-2.274,4.027,4.027,0,0,0-1.5-1.727A8.063,8.063,0,0,0,219.1,137.9a7.708,7.708,0,0,0-2.9-.229,4.032,4.032,0,0,0-2.141.91,3.784,3.784,0,0,0-1.189,2.034,6.656,6.656,0,0,0-.141,2.074,10.256,10.256,0,0,0,.532,2.5l-1.28.435a11.737,11.737,0,0,1-.709-3.1,8.527,8.527,0,0,1,.195-2.763" transform="translate(170.035 109.057)" fill="#e16947"/>
      <path id="Pfad_40047" data-name="Pfad 40047" d="M208.752,150.06l1,.419-.415,2.238-.251-.381,10.05,4.2-.457.11,1.31-1.89,1,.419-1.2,3.334-2.393-.7.2-.218a11.088,11.088,0,0,1,.847,2.763,4.5,4.5,0,0,1-.31,2.446,6.1,6.1,0,0,1-.884,1.466l-3.346-1.563.487-1.166,2.565.744-.507.034a2.266,2.266,0,0,0,.217-.321,3.388,3.388,0,0,0,.179-.363,3.585,3.585,0,0,0,.195-2.041,8.813,8.813,0,0,0-.749-2.269l.48.419L208.31,154.2l.467-.134-1.505,2.355-1-.419Z" transform="translate(166.037 120.791)" fill="#e16947"/>
      <path id="Pfad_40048" data-name="Pfad 40048" d="M200.288,167.042a5.742,5.742,0,0,1,2.206-2.168,5.245,5.245,0,0,1,2.987-.576,8.226,8.226,0,0,1,3.494,1.251,8.744,8.744,0,0,1,2.857,2.606,5.753,5.753,0,0,1,1,3.11,6.013,6.013,0,0,1-.933,3.244,5.3,5.3,0,0,1-2.148,2.115,4.54,4.54,0,0,1-2.651.408,7.505,7.505,0,0,1-2.866-1.065c-.159-.1-.314-.2-.464-.309s-.332-.249-.545-.417l5.021-8.333,1.235.744-4.112,6.819-.011-.274a6.453,6.453,0,0,0,1.94.845,3.1,3.1,0,0,0,1.854-.092,3.026,3.026,0,0,0,1.5-1.366,3.454,3.454,0,0,0,.54-2.215,4.038,4.038,0,0,0-.924-2.09,8.135,8.135,0,0,0-2.139-1.789,7.7,7.7,0,0,0-2.7-1.069,4.058,4.058,0,0,0-2.316.244,3.789,3.789,0,0,0-1.729,1.6,6.636,6.636,0,0,0-.744,1.942,10.434,10.434,0,0,0-.222,2.55l-1.354.042a11.888,11.888,0,0,1,.227-3.168,8.461,8.461,0,0,1,1-2.586" transform="translate(160.22 132.234)" fill="#e16947"/>
      <path id="Pfad_40049" data-name="Pfad 40049" d="M183.7,195.936l-.919.868-2.85-3.007,9.263-8.777.747.789-1.451,2.106-.074-.556,10.5,11.077-.552-.1,2.13-1.39.747.789-2.978,2.994-5.978,5.666-2.747-2.9.917-.868,2.244,1.7-.538.056,5.3-5.023-.016.536-4.866-5.135.536.014-4.9,4.641-1.043-1.1,4.9-4.641.018.572-5.18-5.465.536.014-5.538,5.251.069-.588Z" transform="translate(144.839 148.932)" fill="#e16947"/>
      <path id="Pfad_40050" data-name="Pfad 40050" d="M174.68,195.993l.619.893-1.554,1.662-.007-.457,6.207,8.949-.444-.153,2.121-.888.619.893-2.8,2.162-1.639-1.877.285-.076a11.2,11.2,0,0,1-.776,2.783,4.491,4.491,0,0,1-1.578,1.9,6.158,6.158,0,0,1-1.536.758l-1.976-3.119,1.038-.72,1.762,2.007-.448-.244a2.71,2.71,0,0,0,.356-.153,3.462,3.462,0,0,0,1.61-1.825,8.774,8.774,0,0,0,.59-2.318l.18.614-5.227-7.536.464.137L170,200.56l-.619-.893Z" transform="translate(136.346 157.765)" fill="#e16947"/>
      <path id="Pfad_40051" data-name="Pfad 40051" d="M162.563,203.7l.493.969-1.762,1.437.087-.384,4.928,9.655-.35-.132,2.027-1.034.505.991-1.922,1.35.1-.477.966,1.89a4.1,4.1,0,0,1-1.859,6.142,8.13,8.13,0,0,1-1.245.507,9.507,9.507,0,0,1-1.448.328l-.338-1.388a10.693,10.693,0,0,0,1.115-.258,5.611,5.611,0,0,0,.969-.381,2.751,2.751,0,0,0,1.442-1.532,2.962,2.962,0,0,0-.357-2.341l-1.047-2.049.453.166-3.44,1.758-.6-1.283,3.33-1.7-.1.363-4.92-9.633.354.132-2.583.78-.495-.967Z" transform="translate(126.27 163.969)" fill="#e16947"/>
      <path id="Pfad_40052" data-name="Pfad 40052" d="M143.71,213.287l.457.323-2.346.319-.359-1.052,3.3-1.283,1.07,2.2-.193-.014a7.915,7.915,0,0,1,1.682-2.509,5.747,5.747,0,0,1,2.168-1.393,3.514,3.514,0,0,1,2.646.087A3.665,3.665,0,0,1,154,212.312a3.608,3.608,0,0,1,.141,2.37,3.375,3.375,0,0,1-1.287,1.626,9.159,9.159,0,0,1-2.334,1.143l-3.133,1.067.134-.31.783,2.3a2.417,2.417,0,0,0,1.334,1.641,3.123,3.123,0,0,0,2.1-.092,8.261,8.261,0,0,0,1.33-.6,10.67,10.67,0,0,0,1.4-.944l-.182.408-.5-2.258,1.267-.431,1.2,2.9a21.2,21.2,0,0,1-2.327,1.554,12.529,12.529,0,0,1-2.124.976,5.027,5.027,0,0,1-3.29.175,3.407,3.407,0,0,1-2.012-2.345Zm8.413-.146a2.444,2.444,0,0,0-1.15-1.531,2.066,2.066,0,0,0-1.61-.065,4.418,4.418,0,0,0-1.679,1.146,9.212,9.212,0,0,0-1.5,2.072l-.029-.55,1.094,3.2-.287-.141,2.845-.971A4.261,4.261,0,0,0,152,214.983a2.015,2.015,0,0,0,.119-1.843" transform="translate(113.869 168.764)" fill="#e16947"/>
      <path id="Pfad_40053" data-name="Pfad 40053" d="M139.153,213.673l.182,1.072-2.184.879.235-.424,2.807,16.7-.366-.348,2.352.117.18,1.072-3.933.839-1.415-8.422.464.025a8.3,8.3,0,0,1-2.265,2.3,6.463,6.463,0,0,1-2.478,1.032,4.312,4.312,0,0,1-2.043-.117,3.212,3.212,0,0,1-1.587-1.13,4.923,4.923,0,0,1-.874-2.224l-1.357-8.074.307.307-2.272-.107-.179-1.07,5.807-.976.179,1.072-2.063.834.211-.421,1.287,7.651a3.072,3.072,0,0,0,1.078,2.15,2.6,2.6,0,0,0,2.016.4,4.953,4.953,0,0,0,1.91-.834,7.033,7.033,0,0,0,1.855-1.926l-.1.453-1.513-9,.309.307-2.195-.092-.179-1.072Z" transform="translate(100.398 171.996)" fill="#e16947"/>
      <path id="Pfad_40054" data-name="Pfad 40054" d="M119.812,215.716l.018,1.087-2.216.516.245-.384.179,10.889-.287-.374,2.258.444.018,1.087-3.536.235-.318-2.473.282.1a11.147,11.147,0,0,1-2.195,1.881,4.516,4.516,0,0,1-2.364.695,6.145,6.145,0,0,1-1.7-.226l.092-3.691,1.263-.02.345,2.648-.235-.451a2.641,2.641,0,0,0,.381.07,3.81,3.81,0,0,0,.4.018,3.584,3.584,0,0,0,1.949-.639,8.758,8.758,0,0,0,1.78-1.6l-.191.61-.148-9.171.309.374-2.763-.435-.016-1.087Z" transform="translate(88.705 173.641)" fill="#e16947"/>
      <path id="Pfad_40055" data-name="Pfad 40055" d="M102.065,215.2a3.838,3.838,0,0,1,2.585,1.406,4.214,4.214,0,0,1,.635,3.3l-1.114,7.985-.2-.386,2.161.787-.152,1.076-4-.406,1.253-8.983a3.12,3.12,0,0,0-.388-2.325,2.512,2.512,0,0,0-1.776-.989A4.86,4.86,0,0,0,99,216.89a7.636,7.636,0,0,0-2.345,1.254l.213-.43-1.26,9.036-.195-.435,2.162.785-.15,1.076-4.005-.379,1.688-12.088.255.366-2.193-.74.153-1.1,3.523.339-.043,2.52-.264-.139a8.335,8.335,0,0,1,2.854-1.516,6.523,6.523,0,0,1,2.675-.238" transform="translate(74.995 172.449)" fill="#e16947"/>
      <path id="Pfad_40056" data-name="Pfad 40056" d="M90.98,214.132l-.329,1.036-2.321-.2.4-.269-3.276,10.359-.173-.453,2.023,1.144-.329,1.036-3.426-.9.48-2.446.235.181a8.554,8.554,0,0,1-3.088,1.011,6.534,6.534,0,0,1-2.677-.209,3.9,3.9,0,0,1-2.328-1.81,4.066,4.066,0,0,1-.069-3.348l2.46-7.783.134.415-1.975-1.128.327-1.036,5.615,1.774-.329,1.036-2.24-.206.4-.269-2.339,7.4a3.222,3.222,0,0,0-.018,2.406,2.513,2.513,0,0,0,1.587,1.269,4.9,4.9,0,0,0,2.092.132,7.585,7.585,0,0,0,2.532-.843l-.291.332,2.749-8.7.135.413-1.911-1.081.329-1.034Z" transform="translate(61.006 168.823)" fill="#e16947"/>
      <path id="Pfad_40057" data-name="Pfad 40057" d="M73.182,202.355a8.952,8.952,0,0,1,3.552,2.769A2.72,2.72,0,0,1,76.921,208a3.021,3.021,0,0,1-1.592,1.458,6.235,6.235,0,0,1-2.679.368l.161-.372a2.493,2.493,0,0,1,.948.865.931.931,0,0,1,.013.926,1.675,1.675,0,0,1-.229.339,5.4,5.4,0,0,1-.428.419c-.191.177-.467.4-.827.686s-.828.652-1.4,1.115l.116-.338a4.133,4.133,0,0,1,.771,2.162,4.6,4.6,0,0,1-.551,2.37,4.422,4.422,0,0,1-2.875,2.451,5.83,5.83,0,0,1-4.155-.664,6.653,6.653,0,0,1-2.359-1.881l.437.365-3.617-1.639.527-1.094,2.3.661-.3.19a3.327,3.327,0,0,1-.161-1.469,4.7,4.7,0,0,1,.509-1.614,4.4,4.4,0,0,1,2.92-2.457,5.853,5.853,0,0,1,4.119.648,6.893,6.893,0,0,1,2.1,1.606l-.509,0,2.085-2.653.267.419L68.1,208.618a6.094,6.094,0,0,1-2.861-2.516,3.194,3.194,0,0,1,.1-2.994,3.511,3.511,0,0,1,2.917-2.032,9.229,9.229,0,0,1,4.92,1.28m-5.254,10.4a3.51,3.51,0,0,0-2.646-.366,3.251,3.251,0,0,0-1.928,1.785,3.133,3.133,0,0,0-.319,2.529,3.429,3.429,0,0,0,1.818,1.832,3.48,3.48,0,0,0,2.615.379,3.259,3.259,0,0,0,1.9-1.8,3.214,3.214,0,0,0,.332-2.523,3.3,3.3,0,0,0-1.774-1.837m4.4-9.1A7.162,7.162,0,0,0,69,202.667a2.052,2.052,0,0,0-1.85,1.186,1.907,1.907,0,0,0-.018,1.877,4.478,4.478,0,0,0,1.975,1.639l3.581,1.819-.574-.15q2.374-.211,3.036-1.518a1.743,1.743,0,0,0-.195-1.928,7.329,7.329,0,0,0-2.628-1.944" transform="translate(47.21 161.836)" fill="#e16947"/>
      <path id="Pfad_40058" data-name="Pfad 40058" d="M52.685,187.86a8.971,8.971,0,0,1,2.7,3.608,2.72,2.72,0,0,1-.581,2.819,3.016,3.016,0,0,1-1.919.987,6.228,6.228,0,0,1-2.682-.356l.251-.316a2.485,2.485,0,0,1,.688,1.085.93.93,0,0,1-.235.9,1.563,1.563,0,0,1-.309.265,5.224,5.224,0,0,1-.522.294q-.349.179-.982.44c-.419.175-.969.41-1.646.706l.2-.3a4.116,4.116,0,0,1,.173,2.29,4.624,4.624,0,0,1-1.157,2.139,4.425,4.425,0,0,1-3.42,1.6,5.818,5.818,0,0,1-3.832-1.738,6.641,6.641,0,0,1-1.78-2.437l.325.467L34.9,197.785l.8-.915,2.045,1.244-.334.1a3.259,3.259,0,0,1,.235-1.46,4.668,4.668,0,0,1,.913-1.421,4.4,4.4,0,0,1,3.466-1.6,5.855,5.855,0,0,1,3.8,1.715,6.889,6.889,0,0,1,1.6,2.1l-.489-.139,2.711-2.007.148.475-3.666-3.328a6.1,6.1,0,0,1-2.1-3.182,3.2,3.2,0,0,1,.893-2.861,3.505,3.505,0,0,1,3.35-1.189,9.206,9.206,0,0,1,4.406,2.534m-7.814,8.64a3.5,3.5,0,0,0-2.457-1.054,3.255,3.255,0,0,0-2.33,1.213,3.142,3.142,0,0,0-.976,2.354,4.116,4.116,0,0,0,3.691,3.3,3.847,3.847,0,0,0,3.3-3.574,3.284,3.284,0,0,0-1.226-2.24m6.646-7.619a7.136,7.136,0,0,0-2.949-1.827,2.048,2.048,0,0,0-2.1.657,1.9,1.9,0,0,0-.513,1.8,4.481,4.481,0,0,0,1.469,2.1l2.975,2.7-.514-.3q2.345.425,3.33-.661a1.742,1.742,0,0,0,.319-1.911,7.271,7.271,0,0,0-2.02-2.568" transform="translate(28.092 149.132)" fill="#e16947"/>
      <path id="Pfad_40059" data-name="Pfad 40059" d="M36.928,178.7a5.756,5.756,0,0,1,1.282,2.814,5.224,5.224,0,0,1-.484,3,8.151,8.151,0,0,1-2.37,2.855,8.769,8.769,0,0,1-3.426,1.792,5.749,5.749,0,0,1-3.265-.125,6,6,0,0,1-2.727-1.989,5.276,5.276,0,0,1-1.253-2.74,4.526,4.526,0,0,1,.523-2.63,7.538,7.538,0,0,1,1.982-2.332c.146-.116.3-.226.449-.328s.348-.227.578-.37l6.112,7.57-1.123.9-5-6.193.26.081a6.464,6.464,0,0,0-1.457,1.534,3.117,3.117,0,0,0-.549,1.774,3.036,3.036,0,0,0,.771,1.879,3.439,3.439,0,0,0,1.9,1.262,4,4,0,0,0,2.28-.152,8.069,8.069,0,0,0,2.413-1.4,7.726,7.726,0,0,0,1.931-2.175,4.06,4.06,0,0,0,.563-2.258,3.8,3.8,0,0,0-.91-2.173,6.638,6.638,0,0,0-1.57-1.363,10.354,10.354,0,0,0-2.319-1.083l.424-1.283a11.754,11.754,0,0,1,2.9,1.3,8.474,8.474,0,0,1,2.088,1.821" transform="translate(19.85 141.334)" fill="#e16947"/>
      <path id="Pfad_40060" data-name="Pfad 40060" d="M14.931,166.951,12.3,162.6l.971-.541L14.51,163.4l-.439-.162,12.389-2.947,1.083,1.94-8.815,8.682-.195-.354,12.115-2.767,1.083,1.942-9.045,8.839.116-.413.565,1.684-.951.529-2.812-4.68.971-.542,1.473,1.81-.33-.076,8.231-7.8.161.285L17.889,172.3l-1.2-1.846,9.18-8.855.159.287-11.061,2.787.132-.334.783,2.081Z" transform="translate(9.902 129.022)" fill="#e16947"/>
      <path id="Pfad_40061" data-name="Pfad 40061" d="M7.724,155.246a1.3,1.3,0,0,1-.025,1.031,1.4,1.4,0,0,1-.839.715,1.307,1.307,0,0,1-1.8-.791,1.274,1.274,0,0,1,.857-1.771,1.348,1.348,0,0,1,1.124.016,1.414,1.414,0,0,1,.684.8m13.541-6.227-.182.309-.309-2.227,1.02-.375,2.061,5.6-1.02.375-1.211-1.9.339.117L11.957,154.6l.144-.269.325,2.2L11.4,156.9l-1.522-3.693Z" transform="translate(3.986 118.107)" fill="#e16947"/>
      <path id="Pfad_40062" data-name="Pfad 40062" d="M18.334,144.187l-1.063.222-.962-2.123.433.22L6.109,144.734l.307-.374,0,2.325-1.063.222-.9-3.426,2.366-.78-.042.292a8.592,8.592,0,0,1-2.4-2.195,6.476,6.476,0,0,1-1.13-2.437,3.912,3.912,0,0,1,.433-2.919,4.075,4.075,0,0,1,2.883-1.7l7.991-1.673-.294.318.013-2.274,1.065-.222,1.208,5.761-1.065.224-.921-2.054.433.22L7.4,135.634A3.215,3.215,0,0,0,5.3,136.8a2.508,2.508,0,0,0-.329,2.005,4.891,4.891,0,0,0,.913,1.888,7.532,7.532,0,0,0,1.975,1.792l-.431-.09,8.927-1.87-.294.319.005-2.195,1.063-.224Z" transform="translate(2.532 104.557)" fill="#e16947"/>
      <path id="Pfad_40063" data-name="Pfad 40063" d="M15.005,127.276l-1.087.043-.594-2.253.392.289L2.86,125.78l.366-.318-.392,2.292-1.087.042-.316-3.529,2.466-.374-.09.282a8.577,8.577,0,0,1-2-2.565,6.458,6.458,0,0,1-.708-2.59,3.882,3.882,0,0,1,.915-2.8,4.065,4.065,0,0,1,3.126-1.2L13.3,114.7l-.343.265.392-2.24,1.087-.042.231,5.882-1.087.042-.565-2.177.39.287-7.752.305a3.209,3.209,0,0,0-2.269.8,2.518,2.518,0,0,0-.659,1.924,4.886,4.886,0,0,0,.587,2.013,7.528,7.528,0,0,0,1.65,2.1l-.412-.161,9.115-.359-.345.267.372-2.164,1.085-.042Z" transform="translate(0.884 90.704)" fill="#e16947"/>
      <path id="Pfad_40064" data-name="Pfad 40064" d="M16.893,102.939a2.687,2.687,0,0,1-1.041,1.971,3.564,3.564,0,0,1-2.556.484L4.177,104.4l.361-.292L4.256,106.7l-1.1-.121-.092-2.655.363.4-3.316-.363L0,101.909l3.641.4-.356.242.43-3.944,1.4.229L4.691,102.7l-.3-.312,8.842.964a2.322,2.322,0,0,0,1.578-.245,1.484,1.484,0,0,0,.606-1.117,3.729,3.729,0,0,0-.045-1,8.159,8.159,0,0,0-.305-1.175l1.2-.3a6.989,6.989,0,0,1,.619,3.422" transform="translate(0 79.371)" fill="#e16947"/>
      <path id="Pfad_40065" data-name="Pfad 40065" d="M10.936,90.874a1.209,1.209,0,0,1-.841-.614,1.366,1.366,0,0,1-.132-.991,1.22,1.22,0,0,1,1.579-.978,1.228,1.228,0,0,1,.847.6,1.445,1.445,0,0,1-.435,1.846,1.271,1.271,0,0,1-1.018.137" transform="translate(7.988 71.032)" fill="#e16947"/>
    </g>
  </g>
</svg>
