<svg xmlns="http://www.w3.org/2000/svg" width="411.404" height="412.212" viewBox="0 0 411.404 412.212">
  <path id="c_klicks" d="M-6256.483,1431.211a17.921,17.921,0,0,1-2.476-.2l-.378-3.321,1.746-.274.634,1.81a8.57,8.57,0,0,0,2.242-.021,3.467,3.467,0,0,0,1.883-.827,1.641,1.641,0,0,0,.542-1.536,1.538,1.538,0,0,0-.74-1.156,4.549,4.549,0,0,0-1.534-.528c-.614-.111-1.267-.213-1.963-.309a10.5,10.5,0,0,1-1.987-.471,4.185,4.185,0,0,1-1.625-1.02,3.446,3.446,0,0,1-.876-1.943,3.9,3.9,0,0,1,.417-2.609,5.111,5.111,0,0,1,1.956-1.885,8.738,8.738,0,0,1,3.025-1.015,14.7,14.7,0,0,1,2.153-.169,18.577,18.577,0,0,1,2.37.134l.409,3.876-1.719.269-.631-2.285a10.816,10.816,0,0,0-1.085-.032,9.515,9.515,0,0,0-1.282.1,5.251,5.251,0,0,0-1.561.5,2.921,2.921,0,0,0-1.109.943,1.753,1.753,0,0,0-.284,1.316,1.633,1.633,0,0,0,.761,1.207,4.479,4.479,0,0,0,1.554.554q.918.164,1.935.313a10.681,10.681,0,0,1,1.961.477,4.077,4.077,0,0,1,1.609,1.007,3.485,3.485,0,0,1,.863,1.959,3.741,3.741,0,0,1-.366,2.489,4.321,4.321,0,0,1-1.75,1.67,7.868,7.868,0,0,1-2.551.844,12.592,12.592,0,0,1-1.993.141Zm-74.4-2.868.2-1.977a10.022,10.022,0,0,1-2.581.957,5.857,5.857,0,0,1-2.6-.021,4.741,4.741,0,0,1-2.494-1.485,5.785,5.785,0,0,1-1.308-2.86,9.835,9.835,0,0,1,.244-4.046,9.659,9.659,0,0,1,1.883-4,6.076,6.076,0,0,1,3.042-2,7.555,7.555,0,0,1,3.859.016,9.918,9.918,0,0,1,1.45.479q.576.237,1.173.54l1.05-4.32-2.215-1.062.347-1.422,7,1.7-.345,1.422-2.112.031-4,16.47,1.867.963-.344,1.42Zm-3.593-12.749a6.6,6.6,0,0,0-2.084,3.727,8.314,8.314,0,0,0-.243,2.994,4.437,4.437,0,0,0,.785,2.137,2.821,2.821,0,0,0,1.642,1.082,4.252,4.252,0,0,0,1.909-.02,6.9,6.9,0,0,0,1.82-.71l2.159-8.891a8.823,8.823,0,0,0-2.294-.956,5.624,5.624,0,0,0-1.329-.171A3.656,3.656,0,0,0-6334.473,1415.594ZM-6328.162,1416.106Zm117.064-3.044-2.559,1-.83,4.419,1.741-.388.533,1.362-5.792,2.474-.523-1.339,1.6-1.063,1.043-5.335-5.617-4.668-1.973.255-.523-1.339,3.523-1.378,6.136,5.248,2.553-1-1.881-4.808-2.033.263-.533-1.362,6.351-2.486.532,1.363-1.749,1.209,6.3,16.1,2.1-.319.533,1.363-4.427,1.941Zm-164.333-.419.732-2.158a11.379,11.379,0,0,1-2.675.58,4.961,4.961,0,0,1-2.632-.5,7.021,7.021,0,0,1-1.559-1.08l2.122-3.849,1.508.749-.8,2.284q.064.049.132.094a2.949,2.949,0,0,0,.347.2,3.685,3.685,0,0,0,2.068.332,7.957,7.957,0,0,0,1.98-.482l3.916-7.9-2.086-1.573.65-1.311,6.606,3.272-.65,1.311-2.042-.482-4.731,9.547,1.611,1.349-.648,1.311Zm196.664-14.908,1.508-1.02,1.63,1.752a4.965,4.965,0,0,0,1.045-.361,9.084,9.084,0,0,0,1.137-.635,3.877,3.877,0,0,0,1.529-1.852,4.179,4.179,0,0,0,.121-2.412,8.055,8.055,0,0,0-1.252-2.736,7.588,7.588,0,0,0-2.13-2.192,4.143,4.143,0,0,0-2.267-.717,3.816,3.816,0,0,0-2.132.692,5.935,5.935,0,0,0-1.453,1.45,9.767,9.767,0,0,0-1.187,2.235l-1.621-.671a11.439,11.439,0,0,1,1.511-3.036,8.342,8.342,0,0,1,2.1-2.072,6.192,6.192,0,0,1,3.194-1.093,6.1,6.1,0,0,1,3.331.814,8.729,8.729,0,0,1,2.941,2.845,9.38,9.38,0,0,1,1.487,3.259,6.614,6.614,0,0,1,.018,2.885,6.36,6.36,0,0,1-1.114,2.419,8.041,8.041,0,0,1-1.946,1.852,10.337,10.337,0,0,1-2.225,1.121,10.233,10.233,0,0,1-2.259.578Zm-231.376-7.576a7.1,7.1,0,0,1-3.536-1.612,6.28,6.28,0,0,1-2.591-4.536,7.714,7.714,0,0,1,2.01-5.338,9.382,9.382,0,0,1,3.257-2.7,6.372,6.372,0,0,1,3.618-.606,7.212,7.212,0,0,1,3.587,1.637,6.1,6.1,0,0,1,2.545,4.461,7.769,7.769,0,0,1-2.038,5.282,9.9,9.9,0,0,1-3.287,2.779,6.284,6.284,0,0,1-2.8.68A6.018,6.018,0,0,1-6410.143,1390.159Zm.513-11.9a9.19,9.19,0,0,0-2.281,2.117,6.962,6.962,0,0,0-1.787,3.821,3.326,3.326,0,0,0,1.386,2.862,3.364,3.364,0,0,0,3.24.7,7.582,7.582,0,0,0,3.453-2.7,6.982,6.982,0,0,0,1.792-3.784,3.252,3.252,0,0,0-1.36-2.8,3.692,3.692,0,0,0-2.171-.889l-.129,0A4.051,4.051,0,0,0-6409.63,1378.259Zm271.977-2.113a1.7,1.7,0,0,1-.6-1.3,1.826,1.826,0,0,1,.552-1.218,1.687,1.687,0,0,1,1.194-.551,1.756,1.756,0,0,1,1.285.58,1.719,1.719,0,0,1,.611,1.29,1.776,1.776,0,0,1-.541,1.207,1.754,1.754,0,0,1-1.2.58h-.056A1.778,1.778,0,0,1-6137.653,1376.147Zm-12.174-12.234-1.8,1.137-1.047-1.021,4.8-4.921,1.047,1.024-1.081,1.8,7.634,7.454,1.762-1.136,1.047,1.021-3.238,3.552Zm22.939-27.933-1.542,1.429-1.218-.81,3.8-5.727,1.218.811-.734,2,14.4,9.561,1.538-1.462,1.219.808-2.508,4.132Zm-346.389-14.489,4.4-2.371.8,1.481-2.326,1.851,1.85,3.427,13.426-7.248-.775-2.563,1.287-.694,3.829,7.093-1.289.694-1.712-2.056-13.428,7.249,1.845,3.422,2.827-.923.8,1.482-4.4,2.373ZM-6100,1310.943l.323-1.9-3.179-4.413-7.245.9-1.166,1.614-1.333-.534,1.4-3.512,8.023-.885,1.02-2.544-4.793-1.919-1.2,1.661-1.358-.542,2.533-6.333,1.358.544-.314,2.1,16.052,6.425,1.2-1.747,1.36.542-1.614,4.557-11.484-4.6-1.019,2.55,2.656,3.632.905-1.537,1.36.546-2.158,5.914Zm-381.723-24.209a14.4,14.4,0,0,1-.966-2.466,5.645,5.645,0,0,1,.006-3.745,3.884,3.884,0,0,1,2.763-2.109l8.359-2.35-.1-2.124,1.407-.4,1.321,3.989-2.184.973a7.962,7.962,0,0,1,2.394,1.807,6.183,6.183,0,0,1,1.362,2.4,3.913,3.913,0,0,1-.267,2.929,4.054,4.054,0,0,1-2.719,1.954,4,4,0,0,1-2.593.011,3.779,3.779,0,0,1-1.759-1.513,9.933,9.933,0,0,1-1.163-2.712l-.843-3-1.994.56a2.542,2.542,0,0,0-1.778,1.274,3.145,3.145,0,0,0-.038,2.163,8.191,8.191,0,0,0,.524,1.357,10.6,10.6,0,0,0,.662,1.153l2.179-.331.493,1.753-3.474,1.207A26.748,26.748,0,0,1-6481.725,1286.734Zm7.448-4.258a4.174,4.174,0,0,0,1.21,2.269,2,2,0,0,0,1.782.217,2.36,2.36,0,0,0,1.531-1.033,2.023,2.023,0,0,0,.15-1.562,4.246,4.246,0,0,0-1.072-1.72,9.429,9.429,0,0,0-1.813-1.454l-2.512.707Zm-14.068-38.493a6.714,6.714,0,0,1-1.642-4.465,8.142,8.142,0,0,1,.386-3.1l-.378-4.057,1.625-.109.479,1.953a3.557,3.557,0,0,1,.956-.585,5.031,5.031,0,0,1,1.71-.36,4.842,4.842,0,0,1,3.986,1.49,6.7,6.7,0,0,1,1.637,4.4,8.56,8.56,0,0,1-.184,2.308l2.665.365-.233-4.8a6.736,6.736,0,0,1,.846-4.147,3.54,3.54,0,0,1,2.937-1.539,3.913,3.913,0,0,1,3.6,1.731,10.713,10.713,0,0,1,1.491,5.621,10.223,10.223,0,0,1-.681,4.952,2.942,2.942,0,0,1-2.609,1.761,3.225,3.225,0,0,1-2.29-.759,6.061,6.061,0,0,1-1.317-1.613,2.112,2.112,0,0,1-.253.612,1.188,1.188,0,0,1-1.007.59,1.664,1.664,0,0,1-.458-.047,5.559,5.559,0,0,1-.662-.217c-.282-.1-.648-.257-1.1-.456q-.562-.25-1.4-.616a4.5,4.5,0,0,1-1.545,1.756,5.089,5.089,0,0,1-2.6.79c-.116.006-.23.009-.343.009A4.776,4.776,0,0,1-6488.345,1243.984Zm15.915-.989a1.68,1.68,0,0,0,1.52-1.137,7.841,7.841,0,0,0,.362-3.323,7.929,7.929,0,0,0-.78-3.528,1.955,1.955,0,0,0-1.875-1.039,1.824,1.824,0,0,0-1.586.907,4.441,4.441,0,0,0-.432,2.481l.2,4.059A3.2,3.2,0,0,0-6472.43,1242.995Zm-12.585-6.983a3.2,3.2,0,0,0-2.386.961,3.41,3.41,0,0,0-.681,2.479,3.457,3.457,0,0,0,.964,2.455,3.28,3.28,0,0,0,2.51.746,3.339,3.339,0,0,0,2.4-.946,3.228,3.228,0,0,0,.724-2.44,3.482,3.482,0,0,0-.994-2.481,3.183,3.183,0,0,0-2.264-.781Q-6484.876,1236.005-6485.015,1236.012Zm389.075-7.308a9.746,9.746,0,0,1-.579-3.067,6.54,6.54,0,0,1,.782-3.37,5.709,5.709,0,0,1,2.444-2.306,8.946,8.946,0,0,1,4-.886,9.566,9.566,0,0,1,4.2.767,6.231,6.231,0,0,1,2.748,2.354,6.851,6.851,0,0,1,1.018,3.64,5.953,5.953,0,0,1-.769,3.311,4.974,4.974,0,0,1-2.243,1.946,8.311,8.311,0,0,1-3.288.679q-.357.007-.718-.015c-.238-.013-.517-.037-.829-.067l-.173-9.762a7.972,7.972,0,0,0-2.462.5,4.189,4.189,0,0,0-1.935,1.456,3.861,3.861,0,0,0-.661,2.373,6.9,6.9,0,0,0,.425,2.16,11.16,11.16,0,0,0,1.2,2.394l-1.5.994A12.113,12.113,0,0,1-6095.94,1228.7Zm8.62.222a6.111,6.111,0,0,0,1.9-.312,3.072,3.072,0,0,0,1.487-1.049,2.988,2.988,0,0,0,.533-1.914,3.278,3.278,0,0,0-.743-2.142,4.158,4.158,0,0,0-1.941-1.235,7.473,7.473,0,0,0-1.356-.293Zm-384.521-30.055a1.572,1.572,0,0,1-1.138-.689,1.717,1.717,0,0,1-.275-1.23,1.7,1.7,0,0,1,.638-1.173,1.655,1.655,0,0,1,1.284-.266,1.559,1.559,0,0,1,1.139.687,1.749,1.749,0,0,1,.27,1.256,1.656,1.656,0,0,1-.633,1.147,1.543,1.543,0,0,1-.942.294A2.316,2.316,0,0,1-6471.842,1198.871Zm370.686-12.455,1.892-.813a9.416,9.416,0,0,1-2.039-1.782,5.793,5.793,0,0,1-1.189-2.308,4.87,4.87,0,0,1,.145-2.907,5.526,5.526,0,0,1,1.938-2.49,10.215,10.215,0,0,1,3.728-1.655q3.8-.946,6.186.508a7.522,7.522,0,0,1,3.236,4.883,10.879,10.879,0,0,1,.251,1.4q.053.469.071.965l4.39-1.095,0-2.246,1.419-.353,1.384,4.746-18.809,4.688.021,2.13-1.42.354Zm3.659-1.194Zm1.752-8.035a8.561,8.561,0,0,0-2.756,1.156,4.29,4.29,0,0,0-1.541,1.694,2.855,2.855,0,0,0-.192,1.968,4.134,4.134,0,0,0,.9,1.668,7.531,7.531,0,0,0,1.434,1.278l8.91-2.22a9.467,9.467,0,0,0-.24-2.474,4.058,4.058,0,0,0-2.258-2.95,5.165,5.165,0,0,0-2.1-.41A8.95,8.95,0,0,0-6095.745,1177.187Zm-369.406-14.443.369-2.3-14.093-5.831-1.3,1.911-1.354-.56,1.793-4.694,3.335-8.061,4.21,1.741-.645,1.557-2.467-.535-2.5,6.038,5.893,2.438,2.533-6.124,1.863.77-2.533,6.124,6.276,2.6,2.625-6.348-2.3-1.437.653-1.58,4.378,1.841-5.383,13.009ZM-6460.742,1151.723Zm342.35-11.931,1.31-.653,1.338,1.617,9.534-4.757-.471-2.048,1.31-.653,2.044,3.67-1.886,1.279a11.247,11.247,0,0,1,2.482,1.155,4.92,4.92,0,0,1,1.795,1.987,7.239,7.239,0,0,1,.593,1.8l-4.015,1.788-.752-1.508,2.02-1.336c-.014-.052-.03-.1-.049-.156a2.972,2.972,0,0,0-.154-.37,3.684,3.684,0,0,0-1.448-1.513,7.912,7.912,0,0,0-1.868-.812l-7.894,3.936.713,2.515-1.308.653Zm-326.74-16.228.757-1.958-8.791-6.045-1.542,1.418-1.205-.829,2.586-4.052,10.512,7.229,1.579-1.426,1.207.827-3.9,5.665Zm308.654-11.152,1.625-1.756a7.961,7.961,0,0,1-2.913-.717,6.176,6.176,0,0,1-2.2-1.668,3.933,3.933,0,0,1-.909-2.8,4.049,4.049,0,0,1,1.73-2.867,4.023,4.023,0,0,1,2.376-1.033,3.776,3.776,0,0,1,2.213.7,9.845,9.845,0,0,1,2.139,2.036l1.96,2.426,1.61-1.3a2.532,2.532,0,0,0,1.132-1.872,3.124,3.124,0,0,0-.816-2,8.378,8.378,0,0,0-1.018-1.042,11.194,11.194,0,0,0-1.064-.8l-1.873,1.162-1.142-1.417,2.717-2.479a26.782,26.782,0,0,1,2.564,1.924,14.845,14.845,0,0,1,1.86,1.886,5.67,5.67,0,0,1,1.469,3.445,3.888,3.888,0,0,1-1.708,3.028l-6.756,5.452.925,1.916-1.139.919Zm-.764-7.756a2.342,2.342,0,0,0-1,1.551,2.005,2.005,0,0,0,.479,1.5,4.191,4.191,0,0,0,1.661,1.158,9.35,9.35,0,0,0,2.239.623l2.031-1.64-1.682-2.085a4.167,4.167,0,0,0-2.007-1.606,1.727,1.727,0,0,0-.372-.041A2.15,2.15,0,0,0-6137.241,1104.656Zm-321.624,7.554a1.729,1.729,0,0,1-.821-1.169,1.756,1.756,0,0,1,.328-1.28,1.764,1.764,0,0,1,1.088-.779,1.758,1.758,0,0,1,1.376.363,1.7,1.7,0,0,1,.814,1.178,1.812,1.812,0,0,1-.335,1.293,1.693,1.693,0,0,1-1.084.748,1.45,1.45,0,0,1-.285.028A1.909,1.909,0,0,1-6458.865,1112.21Zm36.221-16.7,1.151-1.758-7.312-7.74-1.82,1.048-1.005-1.062,2.917-3.021,1.76,1.425a9.016,9.016,0,0,1,.659-3.026,7.092,7.092,0,0,1,1.621-2.445,4.317,4.317,0,0,1,3.005-1.282,4.5,4.5,0,0,1,3.271,1.733l5.718,6.051,1.815-1.053,1,1.065-4.9,4.626-1-1.067,1.084-1.662-5.329-5.641a3.29,3.29,0,0,0-2.134-1.214,2.534,2.534,0,0,0-1.9.767,4.839,4.839,0,0,0-1.124,1.766,7.463,7.463,0,0,0-.471,2.333l6.169,6.53,1.714-1,1.007,1.064-4.9,4.626Zm254.61-15.112.929-1.132,1.886.921,6.773-8.243-1.281-1.658.928-1.132,3.818,2.922-8.1,9.858,1.287,1.7-.929,1.13Zm13.6-11.375a1.7,1.7,0,0,1-.652-1.143,1.78,1.78,0,0,1,.468-1.331,1.734,1.734,0,0,1,1.234-.718,1.779,1.779,0,0,1,1.251.437,1.76,1.76,0,0,1,.681,1.148,1.761,1.761,0,0,1-.478,1.342,1.7,1.7,0,0,1-1.244.71h-.074A1.837,1.837,0,0,1-6154.438,1069.023Zm-233.02-3.735a8.945,8.945,0,0,1-2.728-3.06,9.594,9.594,0,0,1-1.376-4.036,6.236,6.236,0,0,1,.708-3.549,6.9,6.9,0,0,1,2.681-2.663,5.98,5.98,0,0,1,3.267-.948,4.977,4.977,0,0,1,2.792,1.01,8.314,8.314,0,0,1,2.2,2.536c.121.207.233.419.337.634s.221.469.345.757l-8.433,4.918a7.913,7.913,0,0,0,1.641,1.9,4.171,4.171,0,0,0,2.217.977,3.836,3.836,0,0,0,2.393-.581,6.852,6.852,0,0,0,1.678-1.424,11.364,11.364,0,0,0,1.5-2.218l1.6.824a12.158,12.158,0,0,1-1.9,2.963,9.779,9.779,0,0,1-2.393,2,6.557,6.557,0,0,1-3.324.961A5.733,5.733,0,0,1-6387.458,1065.288Zm.139-11.41a3.28,3.28,0,0,0-1.507,1.692,4.125,4.125,0,0,0-.128,2.3,7.414,7.414,0,0,0,.4,1.329l6-3.5a6.1,6.1,0,0,0-1.2-1.5,3.047,3.047,0,0,0-1.638-.787,2.318,2.318,0,0,0-.322-.022A3.2,3.2,0,0,0-6387.319,1053.878Zm189.311,7.025.7-1.284,2.053.561,8.29-15.162-1.59-1.412.7-1.282,4.333,2.148-9.312,17.031,1.559,1.413-.7,1.282Zm-32.878-13.429.446-1.391,2.123.164,5.3-16.449-1.826-1.086.45-1.393,4.658,1.3-5.952,18.478,1.794,1.1-.448,1.391Zm-86.2-7.263,2.194-.774-1.609-15.172-2.3-.225-.155-1.456,5.67-.739,6.484,10.573,4.316-11.581,5.369-.708.153,1.456-2.188.836,1.612,15.18,2.306.29.155,1.456-7.11.754-.155-1.455,2.2-.757-1.412-13.3-4.317,10.855-1.8.3-6.355-9.9,1.422,13.4,2.332.256.155,1.454-6.81.722Zm51.416.254.177-1.451,2.089-.234,1.3-10.588-1.972-.715.179-1.451,4.789.422-1.555,12.662,1.995.741-.176,1.451Zm5.383-16.889a1.691,1.691,0,0,1-1.163-.616,1.766,1.766,0,0,1-.319-1.375,1.728,1.728,0,0,1,.658-1.267,1.764,1.764,0,0,1,1.289-.3,1.756,1.756,0,0,1,1.19.6,1.751,1.751,0,0,1,.316,1.388,1.7,1.7,0,0,1-.667,1.267,1.77,1.77,0,0,1-1.03.317A2.256,2.256,0,0,1-6260.287,1023.576Z" transform="translate(6490.523 -1019.5)" fill="#e10086" stroke="rgba(0,0,0,0)" stroke-miterlimit="10" stroke-width="1"/>
</svg>
