<svg xmlns="http://www.w3.org/2000/svg" width="367.432" height="368.6" viewBox="0 0 367.432 368.6">
  <g id="c_screen" transform="translate(0)">
    <path id="Pfad_39464" data-name="Pfad 39464" d="M347.153,125.653l-13.722-.186.538-.369-1.02,1.682-1.013-.356,1.745-5.271,1.013.356-.266,2.162-.416-.4,11.892.444-.1.287-9.351-7.3.462-.03-1.049,1.821-1.013-.357,1.625-4.926,1.013.357-.2,1.97-.2-.606,10.784,8.666Z" transform="translate(-327.083 1.469)" fill="#7ec7c3"/>
    <path id="Pfad_39465" data-name="Pfad 39465" d="M345.937,100.107a4.605,4.605,0,0,1,2.853-2.561,5.668,5.668,0,0,1,4.141.619,6.907,6.907,0,0,1,2.438,1.92,4.681,4.681,0,0,1,.993,2.5,5.293,5.293,0,0,1-.62,2.827,4.489,4.489,0,0,1-2.808,2.515,5.694,5.694,0,0,1-4.1-.646,7.251,7.251,0,0,1-2.5-1.929,4.529,4.529,0,0,1-1-2.46,5.2,5.2,0,0,1,.611-2.787m1.277.752a2.465,2.465,0,0,0,0,2.432,5.544,5.544,0,0,0,2.47,2.061,5.121,5.121,0,0,0,2.99.7,2.387,2.387,0,0,0,1.8-1.409,2.7,2.7,0,0,0,.3-1.695,2.929,2.929,0,0,0-.834-1.526,6.766,6.766,0,0,0-1.872-1.309,5.112,5.112,0,0,0-3.018-.693,2.445,2.445,0,0,0-1.839,1.437" transform="translate(-326.909 1.264)" fill="#7ec7c3"/>
    <path id="Pfad_39466" data-name="Pfad 39466" d="M363.4,91.16l-.891-.6.642-1.717.127.427-6.96-4.679.461-.033L355.432,85.8l-.891-.6,1.6-2.634,1.778.877-.231.162a6.753,6.753,0,0,1-.074-2.576,5.207,5.207,0,0,1,.766-2.012,3.169,3.169,0,0,1,1.944-1.4,3.3,3.3,0,0,1,2.622.713l5.3,3.561-.393,0,1.3-1.2.891.6-2.757,4.1-.891-.6.6-1.622.139.411-4.96-3.335a2.408,2.408,0,0,0-1.723-.524,1.849,1.849,0,0,0-1.234.855,3.526,3.526,0,0,0-.52,1.444,5.648,5.648,0,0,0,.073,1.942l-.223-.32,5.884,3.956-.393,0,1.235-1.147.891.6Z" transform="translate(-326.79 1.007)" fill="#7ec7c3"/>
    <path id="Pfad_39467" data-name="Pfad 39467" d="M388.593,60.268a3.571,3.571,0,0,1-1.9.981,4.055,4.055,0,0,1-2.294-.315,7.476,7.476,0,0,1-2.423-1.757,5.814,5.814,0,0,1-1.957-4.114,5.525,5.525,0,0,1,1.908-3.854,8.021,8.021,0,0,1,.8-.675,9.912,9.912,0,0,1,.94-.616l-.135.442-2.666-2.748.315.033-1.6.935-.748-.771,2.505-2.627,10.083,10.4-.415-.05,1.576-.935.748.771-2.112,2.246L389.8,56.562l.217-.1a7.224,7.224,0,0,1-.393,2.2,4.226,4.226,0,0,1-1.027,1.6m-.52-1.614a3.042,3.042,0,0,0,.727-1.185,5.964,5.964,0,0,0,.307-1.736l.261.649-5.26-5.426.528.165a7.161,7.161,0,0,0-1.723,1.192,2.972,2.972,0,0,0-1.042,2.52,4.8,4.8,0,0,0,1.491,2.744,6.284,6.284,0,0,0,1.748,1.324,3.155,3.155,0,0,0,1.642.356,2.1,2.1,0,0,0,1.321-.6" transform="translate(-326.474 0.587)" fill="#7ec7c3"/>
    <path id="Pfad_39468" data-name="Pfad 39468" d="M405.411,45.7a4.807,4.807,0,0,1-2.338.989,4.2,4.2,0,0,1-2.424-.457,6.6,6.6,0,0,1-2.252-1.993,7.049,7.049,0,0,1-1.354-2.823,4.591,4.591,0,0,1,.213-2.647,5.041,5.041,0,0,1,1.722-2.174,4.386,4.386,0,0,1,2.3-.972,3.652,3.652,0,0,1,2.123.492,6.11,6.11,0,0,1,1.821,1.659q.16.21.3.434c.1.148.2.322.317.521l-6.131,4.623-.841-1.116,4.674-3.524-.072.207a4.519,4.519,0,0,0-1.077-1.091,2.242,2.242,0,0,0-1.263-.431,2.194,2.194,0,0,0-1.367.51,2.407,2.407,0,0,0-.95,1.363,3.037,3.037,0,0,0,.1,1.685,6.312,6.312,0,0,0,.99,1.817,6.107,6.107,0,0,0,1.574,1.515,3.064,3.064,0,0,0,1.7.521,2.839,2.839,0,0,0,1.694-.63,5.1,5.1,0,0,0,1.1-1.184,8.248,8.248,0,0,0,.9-1.746l1.237.463a8.939,8.939,0,0,1-1.128,2.323,7.2,7.2,0,0,1-1.572,1.667" transform="translate(-326.239 0.462)" fill="#7ec7c3"/>
    <path id="Pfad_39469" data-name="Pfad 39469" d="M418.207,36.678l-.543-.926,1.3-1.231-.035.419-4.253-7.252.411.181-1.735.524-.544-.926,2.585-1.68,1.222,1.562-.268.063a8.79,8.79,0,0,1,.8-2.183,3.636,3.636,0,0,1,1.368-1.412A5.152,5.152,0,0,1,419.8,23.3l1.507,2.851-1.067.625-1.314-1.72.408.254a2.163,2.163,0,0,0-.548.228,2.712,2.712,0,0,0-1.037,1.136,5.965,5.965,0,0,0-.555,1.676l-.14-.6,3.617,6.169-.4-.164,2.057-.736.543.926Z" transform="translate(-326.033 0.302)" fill="#7ec7c3"/>
    <path id="Pfad_39470" data-name="Pfad 39470" d="M447.916,8.285l-1.629,1.1.12-.388,3.975,11.08-.345-.242,1.943-.223.363,1.01-5.072,1.82-.363-1.011,1.63-1.037-.1.381L444.462,9.7l.383.228-1.967.276-.363-1.011,5.039-1.916Z" transform="translate(-325.647 0.094)" fill="#7ec7c3"/>
    <path id="Pfad_39471" data-name="Pfad 39471" d="M466.753,16.675a3.57,3.57,0,0,1-2.134-.132,4.055,4.055,0,0,1-1.809-1.447,7.479,7.479,0,0,1-1.18-2.75,5.808,5.808,0,0,1,.427-4.534,5.523,5.523,0,0,1,3.612-2.332,8.1,8.1,0,0,1,1.032-.171,10.107,10.107,0,0,1,1.124-.047l-.344.31-.88-3.727.253.191L465,2.017,464.75.972l3.5-.972,3.33,14.1-.33-.255,1.831,0,.247,1.045-2.963.846-.677-1.631.235.027a7.229,7.229,0,0,1-1.464,1.689,4.229,4.229,0,0,1-1.7.851m.38-1.652a3.045,3.045,0,0,0,1.231-.644,5.958,5.958,0,0,0,1.154-1.334l-.107.691-1.737-7.353.368.412a7.177,7.177,0,0,0-2.091.14,2.971,2.971,0,0,0-2.184,1.63,4.8,4.8,0,0,0-.129,3.121,6.343,6.343,0,0,0,.825,2.033,3.146,3.146,0,0,0,1.229,1.147,2.107,2.107,0,0,0,1.442.158" transform="translate(-325.402)" fill="#7ec7c3"/>
    <path id="Pfad_39472" data-name="Pfad 39472" d="M488.628,12.789a4.8,4.8,0,0,1-2.513-.352,4.2,4.2,0,0,1-1.848-1.635,6.6,6.6,0,0,1-.909-2.867,7.052,7.052,0,0,1,.286-3.118,4.6,4.6,0,0,1,1.541-2.163,5.052,5.052,0,0,1,2.594-.982,4.392,4.392,0,0,1,2.473.345,3.645,3.645,0,0,1,1.567,1.512,6.083,6.083,0,0,1,.713,2.358c.018.174.03.35.036.526s.006.38,0,.612l-7.635.821-.149-1.39,5.822-.626-.168.141a4.585,4.585,0,0,0-.364-1.49,2.248,2.248,0,0,0-.864-1.017A2.207,2.207,0,0,0,487.78,3.2a2.409,2.409,0,0,0-1.515.683,3.052,3.052,0,0,0-.777,1.5,6.378,6.378,0,0,0-.083,2.067,6.171,6.171,0,0,0,.573,2.109,3.066,3.066,0,0,0,1.191,1.318,2.831,2.831,0,0,0,1.777.329,5.114,5.114,0,0,0,1.552-.453,8.311,8.311,0,0,0,1.671-1.035l.825,1.032a8.935,8.935,0,0,1-2.161,1.414,7.186,7.186,0,0,1-2.205.624" transform="translate(-325.118 0.021)" fill="#7ec7c3"/>
    <path id="Pfad_39473" data-name="Pfad 39473" d="M509.082,11.834a4.807,4.807,0,0,1-2.45-.656A4.21,4.21,0,0,1,505,9.326a6.571,6.571,0,0,1-.549-2.957,7.022,7.022,0,0,1,.667-3.058,4.6,4.6,0,0,1,1.794-1.957,5.053,5.053,0,0,1,2.7-.654,4.384,4.384,0,0,1,2.41.646,3.65,3.65,0,0,1,1.372,1.694,6.1,6.1,0,0,1,.416,2.428c0,.176-.013.352-.028.526s-.041.378-.072.608l-7.677-.125.023-1.4,5.854.1-.184.119a4.558,4.558,0,0,0-.177-1.523,2.253,2.253,0,0,0-.731-1.116,2.2,2.2,0,0,0-1.392-.438,2.4,2.4,0,0,0-1.587.49,3.039,3.039,0,0,0-.955,1.393,6.334,6.334,0,0,0-.337,2.041,6.161,6.161,0,0,0,.31,2.164,3.066,3.066,0,0,0,1.02,1.455,2.827,2.827,0,0,0,1.723.544,5.085,5.085,0,0,0,1.594-.258,8.229,8.229,0,0,0,1.787-.822l.69,1.125a8.881,8.881,0,0,1-2.318,1.138,7.163,7.163,0,0,1-2.265.348" transform="translate(-324.844 0.009)" fill="#7ec7c3"/>
    <path id="Pfad_39474" data-name="Pfad 39474" d="M524.742,15.05a8.313,8.313,0,0,0,.969-1.325,2.359,2.359,0,0,0,.289-.731.688.688,0,0,0-.1-.451,3.766,3.766,0,0,1-.243-.466,1.24,1.24,0,0,1-.068-.64,1.117,1.117,0,0,1,.5-.86,1.3,1.3,0,0,1,1.461-.014,1.085,1.085,0,0,1,.4.5,1.607,1.607,0,0,1,.08.8,4.664,4.664,0,0,1-.673,1.665,8.776,8.776,0,0,1-1.933,2.152Z" transform="translate(-324.58 0.134)" fill="#7ec7c3"/>
    <path id="Pfad_39475" data-name="Pfad 39475" d="M556.02,17.656l-.107-.285,1.518.869-.3,1.03-4.84-1.424.3-1.03,1.747.092-.263.176,2.306-7.833.123.227L555,8.635l.3-1.03,3.416.878Zm2.191-11.393a1.244,1.244,0,0,1-.768-.584,1.3,1.3,0,0,1-.065-1.033,1.269,1.269,0,0,1,.627-.84,1.425,1.425,0,0,1,1.759.518,1.286,1.286,0,0,1,.064,1.042,1.247,1.247,0,0,1-.637.837,1.332,1.332,0,0,1-.98.061" transform="translate(-324.223 0.048)" fill="#7ec7c3"/>
    <path id="Pfad_39476" data-name="Pfad 39476" d="M567.24,22.647l.418-.99,1.807.3-.394.207,3.264-7.726.119.447L570.977,13.8l.419-.99,2.891,1.068-.523,1.913-.2-.2a6.807,6.807,0,0,1,2.515-.565,5.224,5.224,0,0,1,2.12.369,3.161,3.161,0,0,1,1.748,1.64,3.3,3.3,0,0,1-.2,2.71l-2.484,5.878-.079-.385,1.429,1.043-.419.989-4.553-1.924.418-.99,1.707.282-.377.215,2.326-5.506a2.408,2.408,0,0,0,.184-1.792,1.852,1.852,0,0,0-1.074-1.047,3.53,3.53,0,0,0-1.518-.234,5.629,5.629,0,0,0-1.892.443l.273-.28-2.759,6.531-.08-.385,1.363.994-.418.989Z" transform="translate(-324.028 0.166)" fill="#7ec7c3"/>
    <path id="Pfad_39477" data-name="Pfad 39477" d="M593.609,26.2a1.131,1.131,0,0,0-.109,1,3.33,3.33,0,0,0,.635,1.009q.448.517.979,1.08a7.677,7.677,0,0,1,.92,1.184,3.074,3.074,0,0,1,.461,1.33,2.526,2.526,0,0,1-.394,1.514,2.869,2.869,0,0,1-1.439,1.3,3.728,3.728,0,0,1-1.984.176,6.4,6.4,0,0,1-2.2-.81,11.023,11.023,0,0,1-1.308-.894,13.812,13.812,0,0,1-1.293-1.167l1.55-2.4,1.106.637-.769,1.779-.055-.311a7.685,7.685,0,0,0,.738.647,7.054,7.054,0,0,0,.78.532,3.773,3.773,0,0,0,1.118.434,2.141,2.141,0,0,0,1.069-.027,1.286,1.286,0,0,0,.767-.621,1.2,1.2,0,0,0,.122-1.041,3.287,3.287,0,0,0-.633-1.031q-.451-.517-.963-1.07a7.9,7.9,0,0,1-.9-1.174,2.974,2.974,0,0,1-.457-1.316,2.562,2.562,0,0,1,.407-1.519,2.753,2.753,0,0,1,1.354-1.253,3.176,3.176,0,0,1,1.77-.15,5.807,5.807,0,0,1,1.847.691,9.867,9.867,0,0,1,1.29.907,13.455,13.455,0,0,1,1.323,1.255l-1.312,2.074-1.123-.648.557-1.573.083.422a6.506,6.506,0,0,0-1.464-1.194,2.542,2.542,0,0,0-1.455-.4,1.209,1.209,0,0,0-1.018.629" transform="translate(-323.761 0.311)" fill="#7ec7c3"/>
    <path id="Pfad_39478" data-name="Pfad 39478" d="M614.749,50.5l.713-.8,1.749.959-.494.13,7.932-8.916-.008.59-1.246-1.679.713-.8,2.913,2.456,1.664,1.481a5.524,5.524,0,0,1,2,3.084,3.415,3.415,0,0,1-.979,2.9,3.764,3.764,0,0,1-2.6,1.35,5.147,5.147,0,0,1-3.274-1.151l.162-.182a3.4,3.4,0,0,1,.752,1.091,2.49,2.49,0,0,1,.17,1.073A5.7,5.7,0,0,1,624.7,53.3l-.965,3.615-.2-.72.981,1.55-.713.8-2.075-1.845,1.262-4.193a8.314,8.314,0,0,0,.325-1.432,1.739,1.739,0,0,0-.166-1,3.9,3.9,0,0,0-.892-1.038l-.967-.834h.488l-3.515,3.95.07-.535,1.37,1.843-.713.8Zm7.444-2.76.077-.636,1.379,1.226a4.1,4.1,0,0,0,2.371,1.189,2.438,2.438,0,0,0,2.019-.943,2.211,2.211,0,0,0,.641-1.8,3.206,3.206,0,0,0-1.186-1.883l-1.816-1.616.515-.029Z" transform="translate(-323.412 0.519)" fill="#7ec7c3"/>
    <path id="Pfad_39479" data-name="Pfad 39479" d="M633.848,69.5a4.824,4.824,0,0,1-1.156-2.259,4.2,4.2,0,0,1,.279-2.451,6.584,6.584,0,0,1,1.824-2.392,7.024,7.024,0,0,1,2.717-1.556,4.585,4.585,0,0,1,2.654.019,5.034,5.034,0,0,1,2.294,1.56,4.392,4.392,0,0,1,1.138,2.221,3.66,3.66,0,0,1-.337,2.153,6.079,6.079,0,0,1-1.523,1.938c-.132.115-.269.226-.409.331s-.307.224-.5.355l-5.057-5.778,1.051-.92,3.856,4.405-.212-.057a4.561,4.561,0,0,0,1.01-1.154,2.248,2.248,0,0,0,.337-1.291,2.19,2.19,0,0,0-.608-1.326,2.4,2.4,0,0,0-1.43-.849,3.04,3.04,0,0,0-1.672.226,6.369,6.369,0,0,0-1.74,1.118,6.159,6.159,0,0,0-1.4,1.681,3.071,3.071,0,0,0-.4,1.732,2.836,2.836,0,0,0,.752,1.644,5.078,5.078,0,0,0,1.261,1.01,8.33,8.33,0,0,0,1.807.774l-.371,1.267a8.942,8.942,0,0,1-2.4-.956,7.231,7.231,0,0,1-1.778-1.447" transform="translate(-323.18 0.787)" fill="#7ec7c3"/>
    <path id="Pfad_39480" data-name="Pfad 39480" d="M642.43,88.1a7.493,7.493,0,0,1-1.465-3.364,2.15,2.15,0,0,1,.961-2.1,2.367,2.367,0,0,1,1.724-.4,5.131,5.131,0,0,1,2.05.873l-.335.227a2.1,2.1,0,0,1-.349-1.073.871.871,0,0,1,.406-.754,1.18,1.18,0,0,1,.3-.146,4.261,4.261,0,0,1,.5-.117q.325-.062.864-.135l1.392-.186-.262.227a3.361,3.361,0,0,1,.279-1.878,3.713,3.713,0,0,1,1.328-1.49,3.567,3.567,0,0,1,3.031-.6,4.922,4.922,0,0,1,2.736,2.171,5.755,5.755,0,0,1,.994,2.362l-.2-.476,1.939,2.6-.977.689-1.287-1.281.315-.043a2.54,2.54,0,0,1-.45,1.016,3.686,3.686,0,0,1-.934.879,3.555,3.555,0,0,1-3.065.59,4.926,4.926,0,0,1-2.708-2.129,6.2,6.2,0,0,1-.887-1.92l.447.26-2.324,1.015-.072-.466,2.244,3.3a4.961,4.961,0,0,1,1.053,2.921,2.6,2.6,0,0,1-1.251,2.087,2.875,2.875,0,0,1-2.914.291A7.864,7.864,0,0,1,642.43,88.1m1.359-.7a5.794,5.794,0,0,0,1.836,1.911,1.437,1.437,0,0,0,1.573-.065,1.339,1.339,0,0,0,.647-1.174,3.263,3.263,0,0,0-.678-1.719L645.3,83.606l.4.368a2.493,2.493,0,0,0-2.434-.085,1.235,1.235,0,0,0-.518,1.295,5.756,5.756,0,0,0,1.043,2.218m6.573-4.637a2.549,2.549,0,0,0,1.569,1.174,2.432,2.432,0,0,0,1.886-.485,2.35,2.35,0,0,0,1.127-1.512,3.025,3.025,0,0,0-2.063-2.983,2.41,2.41,0,0,0-1.858.491,2.454,2.454,0,0,0-1.142,1.51,2.36,2.36,0,0,0,.48,1.805" transform="translate(-323.072 1)" fill="#7ec7c3"/>
    <path id="Pfad_39481" data-name="Pfad 39481" d="M659.759,106.111l.239-.465.456,1.815-.954.491-1.536-2.673,1.6-1.143.02.172a5.95,5.95,0,0,1-2.177-1,4.515,4.515,0,0,1-1.332-1.525,2.878,2.878,0,0,1-.238-2.144,3.581,3.581,0,0,1,3.53-2.194,2.767,2.767,0,0,1,1.487.83,7.252,7.252,0,0,1,1.235,1.78l1.131,2.2-.283-.061,1.55-.8a1.868,1.868,0,0,0,1.092-1.177,2.308,2.308,0,0,0-.291-1.559,6.006,6.006,0,0,0-.577-.9,8.376,8.376,0,0,0-.84-.923l.382.123-1.7.627-.612-1.188,2.321-1.378a19.518,19.518,0,0,1,1.557,1.763,10.568,10.568,0,0,1,1.057,1.632,4.144,4.144,0,0,1,.544,2.694,2.851,2.851,0,0,1-1.677,1.923Zm-1.191-6.52a1.725,1.725,0,0,0-.949.966,1.473,1.473,0,0,0,.123,1.146,3.072,3.072,0,0,0,1.022,1.079,7.044,7.044,0,0,0,1.673.838l-.506.124,2.234-1.151-.1.255-.984-1.909a3.071,3.071,0,0,0-1.2-1.454,1.465,1.465,0,0,0-1.313.106" transform="translate(-322.88 1.233)" fill="#7ec7c3"/>
    <path id="Pfad_39482" data-name="Pfad 39482" d="M665.988,120.281l.161-.257.228,1.714-1,.387-1.814-4.707,1-.386.99,1.442-.292-.083,12.155-4.685-.111.217-.245-1.708,1-.387,1.407,3.258Z" transform="translate(-322.778 1.452)" fill="#7ec7c3"/>
    <path id="Pfad_39483" data-name="Pfad 39483" d="M666.37,133.229a8.36,8.36,0,0,0,1.6.387,2.4,2.4,0,0,0,.787-.015.685.685,0,0,0,.377-.265,3.64,3.64,0,0,1,.338-.4,1.231,1.231,0,0,1,.564-.309,1.117,1.117,0,0,1,.986.129,1.333,1.333,0,0,1,.548.739,1.3,1.3,0,0,1,.024.6,1.059,1.059,0,0,1-.3.561,1.6,1.6,0,0,1-.712.382,4.638,4.638,0,0,1-1.8.019,8.772,8.772,0,0,1-2.729-.959Z" transform="translate(-322.746 1.721)" fill="#7ec7c3"/>
    <path id="Pfad_39484" data-name="Pfad 39484" d="M676.078,163.1l.222-.207-.221,1.735-1.067.115-.543-5.015,1.068-.115.587,1.648-.264-.175,8.118-.877-.162.2.2-1.713,1.068-.117.5,3.493Zm11.362-2.349a1.244,1.244,0,0,1,.244-.933,1.291,1.291,0,0,1,.93-.457,1.264,1.264,0,0,1,1.016.257,1.275,1.275,0,0,1-.741,2.28,1.248,1.248,0,0,1-1.018-.267,1.332,1.332,0,0,1-.431-.88" transform="translate(-322.637 2.058)" fill="#7ec7c3"/>
    <path id="Pfad_39485" data-name="Pfad 39485" d="M675.8,175.338l1.075.017.4,1.789-.339-.289,8.388.136-.371.278.455-1.776,1.074.018.092,3.081-1.969.231.105-.261a6.775,6.775,0,0,1,1.465,2.12,5.222,5.222,0,0,1,.453,2.1,3.176,3.176,0,0,1-.867,2.236,3.308,3.308,0,0,1-2.587.829l-6.381-.1.328-.216-.434,1.714-1.073-.017.08-4.943,1.073.018.378,1.688-.34-.269,5.977.1a2.409,2.409,0,0,0,1.73-.5,1.856,1.856,0,0,0,.569-1.389,3.54,3.54,0,0,0-.35-1.5,5.634,5.634,0,0,0-1.119-1.588l.363.148-7.091-.115.329-.218L676.8,180.3l-1.074-.017Z" transform="translate(-322.622 2.276)" fill="#7ec7c3"/>
    <path id="Pfad_39486" data-name="Pfad 39486" d="M682.636,201.088a1.129,1.129,0,0,0-.965.287,3.353,3.353,0,0,0-.685.976c-.2.409-.406.851-.615,1.321a7.745,7.745,0,0,1-.736,1.307,3.066,3.066,0,0,1-1.047.94,2.535,2.535,0,0,1-1.549.223,2.871,2.871,0,0,1-1.755-.823,3.736,3.736,0,0,1-.932-1.762,6.422,6.422,0,0,1-.1-2.341,11.066,11.066,0,0,1,.318-1.552,13.667,13.667,0,0,1,.575-1.643l2.816.5-.16,1.266-1.937-.02.265-.17a7.592,7.592,0,0,0-.31.931,6.918,6.918,0,0,0-.188.926,3.778,3.778,0,0,0,.032,1.2,2.156,2.156,0,0,0,.44.974,1.286,1.286,0,0,0,.869.467,1.2,1.2,0,0,0,1.007-.292,3.247,3.247,0,0,0,.706-.984q.3-.615.613-1.3a7.859,7.859,0,0,1,.734-1.286,3.005,3.005,0,0,1,1.035-.931,2.565,2.565,0,0,1,1.558-.213,2.756,2.756,0,0,1,1.682.763,3.178,3.178,0,0,1,.823,1.574,5.753,5.753,0,0,1,.078,1.97,9.643,9.643,0,0,1-.336,1.541,13.233,13.233,0,0,1-.644,1.706l-2.419-.407.162-1.286,1.665-.1-.357.24a6.51,6.51,0,0,0,.535-1.811,2.549,2.549,0,0,0-.2-1.494,1.207,1.207,0,0,0-.974-.695" transform="translate(-322.64 2.57)" fill="#7ec7c3"/>
    <path id="Pfad_39487" data-name="Pfad 39487" d="M671.81,236.475l.58-1.708.182.533-4.3-1.46.506-.17-1.209,2.178-1.017-.344,1.883-5.544,1.016.345-.2,2.048-.31-.47,11.336,3.851-.565.215,1.042-1.806,1.017.345-1.116,3.6-.692,2.033a5.6,5.6,0,0,1-1.365,2.318,3.587,3.587,0,0,1-1.914.975,4.584,4.584,0,0,1-2.235-.224,4.733,4.733,0,0,1-2.088-1.351,4.122,4.122,0,0,1-.973-2.267,6.968,6.968,0,0,1,.42-3.1m6.819,2.852.71-2.091.235.443-6.215-2.111.469-.312-.58,1.708a3.516,3.516,0,0,0-.015,2.659,2.98,2.98,0,0,0,1.856,1.561,2.721,2.721,0,0,0,2.147-.052,2.925,2.925,0,0,0,1.394-1.805" transform="translate(-322.739 2.985)" fill="#7ec7c3"/>
    <path id="Pfad_39488" data-name="Pfad 39488" d="M668.555,259.2a4.61,4.61,0,0,1-2.826,2.59,5.67,5.67,0,0,1-4.147-.575,6.909,6.909,0,0,1-2.457-1.894,4.674,4.674,0,0,1-1.02-2.49,5.292,5.292,0,0,1,.591-2.833,4.491,4.491,0,0,1,2.781-2.546,5.706,5.706,0,0,1,4.112.6,7.244,7.244,0,0,1,2.521,1.9,4.516,4.516,0,0,1,1.028,2.448,5.215,5.215,0,0,1-.581,2.793m-1.285-.738a2.47,2.47,0,0,0-.021-2.432A5.556,5.556,0,0,0,664.757,254a5.123,5.123,0,0,0-3-.67,2.389,2.389,0,0,0-1.789,1.428,2.711,2.711,0,0,0-.285,1.7,2.934,2.934,0,0,0,.85,1.517,6.776,6.776,0,0,0,1.885,1.289,5.1,5.1,0,0,0,3.024.66,2.445,2.445,0,0,0,1.824-1.456" transform="translate(-322.849 3.262)" fill="#7ec7c3"/>
    <path id="Pfad_39489" data-name="Pfad 39489" d="M656.648,274.783a1.127,1.127,0,0,0-.994-.158,3.342,3.342,0,0,0-1.039.583q-.538.424-1.126.925a7.707,7.707,0,0,1-1.229.86,3.067,3.067,0,0,1-1.35.394,2.527,2.527,0,0,1-1.494-.468,2.874,2.874,0,0,1-1.227-1.5,3.749,3.749,0,0,1-.079-1.991,6.426,6.426,0,0,1,.92-2.156,10.925,10.925,0,0,1,.958-1.262,13.693,13.693,0,0,1,1.228-1.234l2.325,1.667-.692,1.072-1.738-.854.314-.039a7.573,7.573,0,0,0-.683.7,7.019,7.019,0,0,0-.57.754,3.8,3.8,0,0,0-.488,1.1,2.145,2.145,0,0,0-.025,1.069,1.294,1.294,0,0,0,.583.8,1.208,1.208,0,0,0,1.034.172,3.278,3.278,0,0,0,1.062-.581q.538-.425,1.115-.909a7.918,7.918,0,0,1,1.218-.843,3.027,3.027,0,0,1,1.336-.392,2.561,2.561,0,0,1,1.5.483,2.754,2.754,0,0,1,1.186,1.414,3.175,3.175,0,0,1,.061,1.775,5.727,5.727,0,0,1-.781,1.81,9.734,9.734,0,0,1-.969,1.244,13.186,13.186,0,0,1-1.318,1.259l-2.007-1.412.7-1.091,1.544.633-.426.064a6.442,6.442,0,0,0,1.265-1.4,2.533,2.533,0,0,0,.467-1.434,1.206,1.206,0,0,0-.578-1.047" transform="translate(-322.98 3.489)" fill="#7ec7c3"/>
    <path id="Pfad_39490" data-name="Pfad 39490" d="M637.716,286.9a2.294,2.294,0,0,1,1.7-.958,3.168,3.168,0,0,1,2.08.859l5.421,4.38-.4.043,1.273-1.576.851.688-1.015,1.837-.1-.494,2.1,1.694-1,1.792-2.364-1.91.389,0-1.973,2.444-1.033-.914,1.935-2.4.068.367-5.2-4.2a1.949,1.949,0,0,0-1.159-.533,1.123,1.123,0,0,0-.878.476,2.907,2.907,0,0,0-.391.66,5.836,5.836,0,0,0-.307.912l-1.152-.41a6.093,6.093,0,0,1,1.161-2.76" transform="translate(-323.129 3.711)" fill="#7ec7c3"/>
    <path id="Pfad_39491" data-name="Pfad 39491" d="M629.449,296.807l.755.764-.983,1.571-.083-.488,9.316,9.422-.315-.06,1.481-.923.755.764-2.421,2.594-6.6-6.671.473-.04-1.945,1.923.189-.529.839,3.729-.287-.059,1.295-.938.756.764-3.185,3.349-.74-.75,1-1.528-.161.643-.977-4.5.4.4-5.749-1.693.458-.026-1.437.851-.741-.749,1.974-1.952,5.835,1.809-.374.142,1.888-1.867-.131.387-3.035-3.069.458.117-1.51.894-.755-.764Z" transform="translate(-323.324 3.853)" fill="#7ec7c3"/>
    <path id="Pfad_39492" data-name="Pfad 39492" d="M608.055,317.136l.5.149-1.7.783-.658-.849,2.346-2,1.417,1.362-.166.052a5.962,5.962,0,0,1,.581-2.324,4.525,4.525,0,0,1,1.254-1.588,2.884,2.884,0,0,1,2.064-.629,2.987,2.987,0,0,1,2.081,1.309,2.947,2.947,0,0,1,.724,1.76,2.757,2.757,0,0,1-.543,1.614,7.247,7.247,0,0,1-1.521,1.541l-1.953,1.515.007-.288,1.068,1.377a1.869,1.869,0,0,0,1.358.857,2.3,2.3,0,0,0,1.48-.571,6.072,6.072,0,0,0,.778-.732,8.267,8.267,0,0,0,.754-1l-.051.4-.929-1.561,1.056-.82,1.781,2.03a19.86,19.86,0,0,1-1.447,1.854,10.713,10.713,0,0,1-1.411,1.338,4.147,4.147,0,0,1-2.548,1.029,2.842,2.842,0,0,1-2.2-1.295Zm6.189-2.368a1.733,1.733,0,0,0-1.124-.756,1.474,1.474,0,0,0-1.1.33,3.1,3.1,0,0,0-.874,1.2,6.98,6.98,0,0,0-.515,1.8l-.215-.475,1.54,1.984-.267-.049,1.7-1.316a3.075,3.075,0,0,0,1.208-1.451,1.466,1.466,0,0,0-.345-1.271" transform="translate(-323.523 4.051)" fill="#7ec7c3"/>
    <path id="Pfad_39493" data-name="Pfad 39493" d="M599.574,331.282a1.129,1.129,0,0,0-.823-.58,3.347,3.347,0,0,0-1.19.067q-.67.144-1.419.335a7.766,7.766,0,0,1-1.481.231,3.05,3.05,0,0,1-1.387-.241,2.533,2.533,0,0,1-1.135-1.078,2.862,2.862,0,0,1-.44-1.887,3.737,3.737,0,0,1,.8-1.822,6.458,6.458,0,0,1,1.774-1.531,10.94,10.94,0,0,1,1.417-.712,13.872,13.872,0,0,1,1.645-.567l1.353,2.52-1.092.658-1.185-1.533.3.1a7.524,7.524,0,0,0-.923.332,7.1,7.1,0,0,0-.844.425,3.828,3.828,0,0,0-.922.769,2.137,2.137,0,0,0-.492.947,1.292,1.292,0,0,0,.172.972,1.2,1.2,0,0,0,.853.61,3.229,3.229,0,0,0,1.208-.055q.672-.144,1.4-.324a7.834,7.834,0,0,1,1.464-.221,3.009,3.009,0,0,1,1.374.237,2.56,2.56,0,0,1,1.131,1.093,2.738,2.738,0,0,1,.442,1.791,3.169,3.169,0,0,1-.725,1.621,5.75,5.75,0,0,1-1.5,1.281,9.584,9.584,0,0,1-1.417.69,13.179,13.179,0,0,1-1.737.551l-1.179-2.152,1.11-.67,1.107,1.248-.41-.131a6.529,6.529,0,0,0,1.753-.7,2.56,2.56,0,0,0,1.05-1.083,1.209,1.209,0,0,0-.059-1.2" transform="translate(-323.711 4.199)" fill="#7ec7c3"/>
    <path id="Pfad_39494" data-name="Pfad 39494" d="M577.207,333.833a2.3,2.3,0,0,1,1.948-.111,3.169,3.169,0,0,1,1.488,1.689l2.935,6.32-.377-.138,1.837-.853.461.993-1.721,1.2.132-.485,1.136,2.443-1.693,1.166-1.279-2.756.348.173-2.848,1.322-.526-1.275,2.794-1.3-.1.361-2.816-6.065a1.946,1.946,0,0,0-.805-.988,1.116,1.116,0,0,0-1,.038,2.978,2.978,0,0,0-.642.421,5.757,5.757,0,0,0-.677.683l-.854-.877a6.1,6.1,0,0,1,2.259-1.964" transform="translate(-323.929 4.33)" fill="#7ec7c3"/>
    <path id="Pfad_39495" data-name="Pfad 39495" d="M560.578,340.433a4.817,4.817,0,0,1,2.53-.2,4.2,4.2,0,0,1,2.156,1.2,6.587,6.587,0,0,1,1.505,2.6,7.019,7.019,0,0,1,.393,3.106,4.586,4.586,0,0,1-1.037,2.443A5.043,5.043,0,0,1,563.8,351.1a4.4,4.4,0,0,1-2.489.2,3.653,3.653,0,0,1-1.858-1.14,6.1,6.1,0,0,1-1.2-2.15c-.057-.167-.105-.335-.149-.506s-.088-.369-.136-.595l7.277-2.447.446,1.325-5.55,1.866.135-.173a4.541,4.541,0,0,0,.676,1.376,2.249,2.249,0,0,0,1.063.807,2.2,2.2,0,0,0,1.458-.051,2.41,2.41,0,0,0,1.333-.994,3.042,3.042,0,0,0,.436-1.632,6.38,6.38,0,0,0-.365-2.036,6.165,6.165,0,0,0-1.014-1.936,3.071,3.071,0,0,0-1.448-1.031,2.829,2.829,0,0,0-1.806.063,5.109,5.109,0,0,0-1.416.775,8.315,8.315,0,0,0-1.41,1.373l-1.026-.83a8.9,8.9,0,0,1,1.805-1.848,7.158,7.158,0,0,1,2.018-1.085" transform="translate(-324.164 4.415)" fill="#7ec7c3"/>
    <path id="Pfad_39496" data-name="Pfad 39496" d="M545.552,344.966l.221,1.05-1.622.756.167-.388,1.732,8.227-.333-.3,1.813.053.221,1.05-2.983.774-.664-1.869.274.025a8.78,8.78,0,0,1-1.45,1.816,3.626,3.626,0,0,1-1.745.906,5.092,5.092,0,0,1-1.39.085l-.525-3.181,1.208-.254.7,2.046-.306-.37a1.96,1.96,0,0,0,.3,0,2.348,2.348,0,0,0,.292-.04,2.722,2.722,0,0,0,1.343-.749,5.947,5.947,0,0,0,1.059-1.414l-.058.613-1.473-7,.328.284-2.185.046-.221-1.05Z" transform="translate(-324.392 4.478)" fill="#7ec7c3"/>
    <path id="Pfad_39497" data-name="Pfad 39497" d="M524.39,349.72l.208.222-1.715-.221-.117-1.068,5.015-.546.117,1.069-1.648.587.154-.262,1.409,12.951-.181-.164,1.714.2.115,1.068-3.509.525Z" transform="translate(-324.606 4.518)" fill="#7ec7c3"/>
    <path id="Pfad_39498" data-name="Pfad 39498" d="M511.65,346.76a8.246,8.246,0,0,0-.781,1.445,2.408,2.408,0,0,0-.187.764.683.683,0,0,0,.161.432,3.674,3.674,0,0,1,.3.429,1.233,1.233,0,0,1,.154.625,1.114,1.114,0,0,1-.376.921,1.3,1.3,0,0,1-1.446.212,1.086,1.086,0,0,1-.464-.438,1.588,1.588,0,0,1-.187-.786,4.655,4.655,0,0,1,.44-1.741,8.791,8.791,0,0,1,1.625-2.394Z" transform="translate(-324.787 4.494)" fill="#7ec7c3"/>
    <path id="Pfad_39499" data-name="Pfad 39499" d="M475.455,347.634l.23.469-1.73-.714.173-1.06,3.062.359-.034,1.964-.15-.086a5.949,5.949,0,0,1,2.1-1.154,4.538,4.538,0,0,1,2.019-.163,2.879,2.879,0,0,1,1.864,1.086,2.979,2.979,0,0,1,.457,2.415,2.942,2.942,0,0,1-.8,1.728,2.756,2.756,0,0,1-1.551.7,7.277,7.277,0,0,1-2.165-.067l-2.44-.4.216-.19-.281,1.719a1.859,1.859,0,0,0,.3,1.578,2.308,2.308,0,0,0,1.425.7,5.9,5.9,0,0,0,1.066.071,8.186,8.186,0,0,0,1.242-.125l-.325.235.512-1.744,1.32.217-.277,2.685a19.893,19.893,0,0,1-2.342.2,10.7,10.7,0,0,1-1.941-.123,4.146,4.146,0,0,1-2.488-1.167,2.847,2.847,0,0,1-.546-2.492Zm5.946,2.926a1.73,1.73,0,0,0-.212-1.338,1.471,1.471,0,0,0-.993-.583,3.072,3.072,0,0,0-1.476.178,7,7,0,0,0-1.668.846l.2-.48-.406,2.479-.148-.23,2.119.348a3.078,3.078,0,0,0,1.886-.1,1.465,1.465,0,0,0,.7-1.118" transform="translate(-325.239 4.495)" fill="#7ec7c3"/>
    <path id="Pfad_39500" data-name="Pfad 39500" d="M459.986,342.609a3.066,3.066,0,0,1,1.883,1.449,3.45,3.45,0,0,1,.1,2.737l-1.792,6.018-.121-.374,1.554.885-.306,1.03-3.433-.9,2.058-6.913a2.378,2.378,0,0,0-.015-1.76,1.823,1.823,0,0,0-1.175-.921,3.54,3.54,0,0,0-1.534-.065,5.653,5.653,0,0,0-1.831.648l.251-.346-2.023,6.8-.109-.414,1.554.885-.306,1.029-3.438-.875,2.756-9.263.174.411-1.593-.9.307-1.029,2.991.743-.3,2-.242-.178a6.783,6.783,0,0,1,2.437-.839,5.2,5.2,0,0,1,2.149.133" transform="translate(-325.533 4.423)" fill="#7ec7c3"/>
    <path id="Pfad_39501" data-name="Pfad 39501" d="M443.016,336.922l-.423.988-1.761-.315.308-.154-3.273,7.634-.1-.329,1.638.7-.439,1.025-1.8-.421.378-.213-.615,1.434a3.807,3.807,0,0,1-2.107,2.291,3.9,3.9,0,0,1-2.907-.211,6.735,6.735,0,0,1-.98-.519,8.834,8.834,0,0,1-.992-.746l.841-1.139a6.651,6.651,0,0,0,.694.541,4.438,4.438,0,0,0,.713.394,2.13,2.13,0,0,0,1.6.1,2.24,2.24,0,0,0,1.205-1.345l.687-1.6.16.4-2.794-1.2.607-1.262,2.681,1.15-.326.147,3.265-7.616.109.312-1.721-1.179.423-.988Z" transform="translate(-325.811 4.346)" fill="#7ec7c3"/>
    <path id="Pfad_39502" data-name="Pfad 39502" d="M412.838,320.583a3.559,3.559,0,0,1,1.341,1.663,4.061,4.061,0,0,1,.151,2.313,7.469,7.469,0,0,1-1.236,2.725,5.809,5.809,0,0,1-3.638,2.74,5.519,5.519,0,0,1-4.157-1.1,7.684,7.684,0,0,1-.822-.647,10,10,0,0,1-.792-.8l.46.045-2.16,3.161-.03-.314,1.238,1.385-.606.886-3.074-1.928,8.17-11.962.034.416-1.232-1.357.606-.886,2.623,1.62-.749,1.6-.138-.192a7.21,7.21,0,0,1,2.235-.057,4.223,4.223,0,0,1,1.776.687m-1.476.832a3.046,3.046,0,0,0-1.307-.476,5.99,5.99,0,0,0-1.763.048l.583-.387-4.262,6.24.057-.55a7.158,7.158,0,0,0,1.512,1.451,2.973,2.973,0,0,0,2.677.517,4.8,4.8,0,0,0,2.391-2.01,6.32,6.32,0,0,0,.947-1.979,3.149,3.149,0,0,0,.018-1.681,2.106,2.106,0,0,0-.855-1.172" transform="translate(-326.206 4.114)" fill="#7ec7c3"/>
    <path id="Pfad_39503" data-name="Pfad 39503" d="M395.215,306.977a4.805,4.805,0,0,1,1.436,2.092,4.192,4.192,0,0,1,.038,2.467,6.574,6.574,0,0,1-1.5,2.605,7.02,7.02,0,0,1-2.495,1.892,4.583,4.583,0,0,1-2.635.322,5.053,5.053,0,0,1-2.476-1.253,4.389,4.389,0,0,1-1.412-2.057,3.653,3.653,0,0,1,.058-2.178,6.1,6.1,0,0,1,1.26-2.117q.175-.2.364-.381t.448-.415l5.757,5.08-.925,1.049-4.389-3.876.217.03a4.567,4.567,0,0,0-.854,1.273,2.253,2.253,0,0,0-.168,1.323,2.19,2.19,0,0,0,.773,1.237,2.4,2.4,0,0,0,1.527.658,3.043,3.043,0,0,0,1.631-.439,6.34,6.34,0,0,0,1.581-1.333,6.131,6.131,0,0,0,1.17-1.846,3.072,3.072,0,0,0,.17-1.769,2.834,2.834,0,0,0-.957-1.534,5.1,5.1,0,0,0-1.381-.84,8.2,8.2,0,0,0-1.891-.535l.206-1.3a8.918,8.918,0,0,1,2.5.64,7.194,7.194,0,0,1,1.948,1.206" transform="translate(-326.381 3.961)" fill="#7ec7c3"/>
    <path id="Pfad_39504" data-name="Pfad 39504" d="M383.808,296.364l-.806.709-1.5-1.058.447-.014-6.3,5.541.086-.454.858,1.62-.806.709-2.14-2.218,1.3-1.5.1.264a6.783,6.783,0,0,1-2.51-.585,5.218,5.218,0,0,1-1.75-1.252,3.171,3.171,0,0,1-.862-2.238,3.3,3.3,0,0,1,1.356-2.353l4.79-4.216-.1.382-.834-1.561.806-.709,3.266,3.711-.806.71-1.415-1,.433-.029-4.486,3.949a2.415,2.415,0,0,0-.945,1.533,1.852,1.852,0,0,0,.514,1.411,3.507,3.507,0,0,0,1.265.87,5.617,5.617,0,0,0,1.9.422l-.368.135,5.323-4.685-.1.382-.8-1.486.806-.709Z" transform="translate(-326.59 3.731)" fill="#7ec7c3"/>
    <path id="Pfad_39505" data-name="Pfad 39505" d="M351.509,270.637a1.688,1.688,0,0,0,.817-.924,3.184,3.184,0,0,0,.136-1.309,11.822,11.822,0,0,0-.243-1.548q-.179-.817-.307-1.663a7.32,7.32,0,0,1-.066-1.648,3.384,3.384,0,0,1,.48-1.5,3.546,3.546,0,0,1,1.356-1.227,3.691,3.691,0,0,1,2.428-.517,4.331,4.331,0,0,1,2.164,1.037,7.869,7.869,0,0,1,1.714,2.14,10.783,10.783,0,0,1,.847,1.941,11.815,11.815,0,0,1,.486,2.167l-3.1,1.6-.6-1.06,2.019-1.575-.226.383a7.051,7.051,0,0,0-.284-1.457,6.843,6.843,0,0,0-.568-1.342,4.787,4.787,0,0,0-1.019-1.275,2.689,2.689,0,0,0-1.269-.645,1.971,1.971,0,0,0-1.367.256,1.784,1.784,0,0,0-.861.949,3.07,3.07,0,0,0-.145,1.313,12.218,12.218,0,0,0,.237,1.54q.176.808.32,1.644a6.889,6.889,0,0,1,.093,1.634,3.325,3.325,0,0,1-.463,1.491,3.457,3.457,0,0,1-1.33,1.213,3.637,3.637,0,0,1-2.273.522,3.922,3.922,0,0,1-2.022-.909,6.91,6.91,0,0,1-1.616-1.985,10.388,10.388,0,0,1-.821-1.9,11.421,11.421,0,0,1-.472-2.14l2.969-1.46.6,1.078-1.88,1.452.1-.359a6.128,6.128,0,0,0,.279,1.261,6.958,6.958,0,0,0,.54,1.23,5.017,5.017,0,0,0,.911,1.185,2.437,2.437,0,0,0,1.137.638,1.762,1.762,0,0,0,1.287-.234" transform="translate(-326.906 3.378)" fill="#7ec7c3"/>
    <path id="Pfad_39506" data-name="Pfad 39506" d="M350.643,244.3a4.449,4.449,0,0,1-.772,4.731,6.412,6.412,0,0,1-2.482,1.689,6.887,6.887,0,0,1-2.564.582,4.852,4.852,0,0,1-2.077-.416,4.681,4.681,0,0,1-1.573-1.161,5.908,5.908,0,0,1-1.039-1.675,7.6,7.6,0,0,1-.473-1.766,7.435,7.435,0,0,1-.079-1.709l2.523-.95.508,1.237-1.578.955.08-.229a3.418,3.418,0,0,0,.1.988,6.306,6.306,0,0,0,.288.912,2.843,2.843,0,0,0,1.1,1.376,3.059,3.059,0,0,0,1.716.445,5.911,5.911,0,0,0,2.153-.49,5.565,5.565,0,0,0,1.892-1.2,3.026,3.026,0,0,0,.853-1.523,2.794,2.794,0,0,0-.179-1.636,4.375,4.375,0,0,0-.825-1.26,7.144,7.144,0,0,0-1.429-1.186l.723-1.064a8.4,8.4,0,0,1,1.958,1.539,6.134,6.134,0,0,1,1.174,1.817" transform="translate(-326.984 3.128)" fill="#7ec7c3"/>
    <path id="Pfad_39507" data-name="Pfad 39507" d="M345.421,230.414l-1.033.294-.865-1.565.4.14-8.089,2.3.28-.353.072,1.812-1.033.293-.978-2.923,1.818-.79-.006.275a8.683,8.683,0,0,1-1.913-1.32,3.623,3.623,0,0,1-1.024-1.679,5.14,5.14,0,0,1-.181-1.381L336,224.77l.338,1.189-1.995.84.348-.331a2.011,2.011,0,0,0,.022.3,2.075,2.075,0,0,0,.061.289,2.706,2.706,0,0,0,.84,1.288,5.872,5.872,0,0,0,1.483.958l-.615-.014,6.879-1.954-.259.347-.2-2.177,1.033-.294Z" transform="translate(-327.071 2.917)" fill="#7ec7c3"/>
    <path id="Pfad_39508" data-name="Pfad 39508" d="M340.379,207.96a4.811,4.811,0,0,1-.211,2.529,4.207,4.207,0,0,1-1.531,1.934,6.59,6.59,0,0,1-2.813,1.068,7.045,7.045,0,0,1-3.128-.112,4.6,4.6,0,0,1-2.245-1.418,5.049,5.049,0,0,1-1.124-2.536,4.4,4.4,0,0,1,.208-2.487,3.651,3.651,0,0,1,1.423-1.65,6.088,6.088,0,0,1,2.315-.842c.174-.028.348-.051.524-.065s.379-.029.61-.038l1.243,7.576-1.38.227-.948-5.778.15.16a4.6,4.6,0,0,0-1.467.446,2.259,2.259,0,0,0-.968.92,2.193,2.193,0,0,0-.183,1.446,2.406,2.406,0,0,0,.766,1.476,3.043,3.043,0,0,0,1.541.692,6.315,6.315,0,0,0,2.068-.031,6.159,6.159,0,0,0,2.073-.689,3.067,3.067,0,0,0,1.251-1.263,2.835,2.835,0,0,0,.229-1.793,5.091,5.091,0,0,0-.537-1.522,8.222,8.222,0,0,0-1.127-1.612l.985-.88a8.929,8.929,0,0,1,1.533,2.079,7.2,7.2,0,0,1,.746,2.167" transform="translate(-327.118 2.644)" fill="#7ec7c3"/>
    <path id="Pfad_39509" data-name="Pfad 39509" d="M338.3,187.566a4.8,4.8,0,0,1-.516,2.485,4.19,4.19,0,0,1-1.752,1.735,6.578,6.578,0,0,1-2.92.72,7.031,7.031,0,0,1-3.093-.489,4.6,4.6,0,0,1-2.056-1.68,5.044,5.044,0,0,1-.81-2.653,4.4,4.4,0,0,1,.508-2.444,3.645,3.645,0,0,1,1.612-1.466,6.081,6.081,0,0,1,2.4-.556c.175-.007.352-.008.527,0s.38.019.61.035l.319,7.671-1.4.059-.243-5.849.13.176a4.553,4.553,0,0,0-1.51.265,2.255,2.255,0,0,0-1.072.794,2.2,2.2,0,0,0-.358,1.415,2.4,2.4,0,0,0,.582,1.557,3.04,3.04,0,0,0,1.446.872,6.307,6.307,0,0,0,2.057.219A6.123,6.123,0,0,0,334.9,190a3.06,3.06,0,0,0,1.394-1.1,2.832,2.832,0,0,0,.445-1.752,5.093,5.093,0,0,0-.349-1.577,8.244,8.244,0,0,0-.924-1.736l1.084-.755a8.9,8.9,0,0,1,1.269,2.25,7.149,7.149,0,0,1,.479,2.241" transform="translate(-327.145 2.376)" fill="#7ec7c3"/>
    <path id="Pfad_39510" data-name="Pfad 39510" d="M338.066,171.992,337,171.9l-.276-1.811.32.311-8.358-.7.387-.252-.572,1.741-1.07-.089.114-3.08,1.98-.1-.124.254a6.768,6.768,0,0,1-1.319-2.214,5.2,5.2,0,0,1-.311-2.13,3.175,3.175,0,0,1,1.015-2.171,3.308,3.308,0,0,1,2.637-.655l6.36.532-.341.195.547-1.683,1.07.09-.411,4.925-1.07-.089-.264-1.709.322.291-5.956-.5a2.4,2.4,0,0,0-1.76.382,1.848,1.848,0,0,0-.661,1.347,3.546,3.546,0,0,0,.249,1.515,5.648,5.648,0,0,0,1.011,1.659l-.352-.172,7.066.59-.341.2.521-1.6,1.07.089Z" transform="translate(-327.142 2.077)" fill="#7ec7c3"/>
    <path id="Pfad_39709" data-name="Pfad 39709" d="M11.742,165.611a1.177,1.177,0,0,1-.885-.464,1.29,1.29,0,0,1-.261-.908,1.276,1.276,0,0,1,.425-.909,1.25,1.25,0,0,1,.95-.258,1.17,1.17,0,0,1,.884.464,1.308,1.308,0,0,1,.26.929,1.179,1.179,0,0,1-1.373,1.147" transform="translate(-0.296 -12.184)" fill="#7ec7c3"/>
  </g>
</svg>
