<svg xmlns="http://www.w3.org/2000/svg" width="415.951" height="414.279" viewBox="0 0 415.951 414.279">
  <path id="c_service" d="M-6287.211,1431.006a11.416,11.416,0,0,1-2.212,1.614,4.932,4.932,0,0,1-2.609.608,7.071,7.071,0,0,1-1.862-.355l.38-4.376,1.681.07.194,2.414q.078.018.158.032a2.947,2.947,0,0,0,.4.046,3.719,3.719,0,0,0,2.026-.536,7.956,7.956,0,0,0,1.615-1.243l.372-8.813-2.543-.593.062-1.461,7.364.311-.06,1.461-2.062.39-.451,10.644,2.02.579-.062,1.461-4.2.018Zm27.043.9a5,5,0,0,1-2.148-2.051,8.34,8.34,0,0,1-.982-3.21c-.028-.236-.045-.476-.055-.715s-.007-.518-.007-.832l9.7-1.088a8.062,8.062,0,0,0-.733-2.406,4.2,4.2,0,0,0-1.629-1.788,3.876,3.876,0,0,0-2.425-.436,6.931,6.931,0,0,0-2.109.625,11.268,11.268,0,0,0-2.272,1.422l-1.132-1.4a12.188,12.188,0,0,1,2.938-1.94,9.816,9.816,0,0,1,3-.863,6.561,6.561,0,0,1,3.427.461,5.728,5.728,0,0,1,2.526,2.218,8.968,8.968,0,0,1,1.256,3.9,9.575,9.575,0,0,1-.368,4.251,6.312,6.312,0,0,1-2.086,2.955,6.879,6.879,0,0,1-3.531,1.355,8.663,8.663,0,0,1-.955.055A5.349,5.349,0,0,1-6260.167,1431.9Zm.222-3.357a3.084,3.084,0,0,0,1.183,1.38,2.976,2.976,0,0,0,1.956.35,3.264,3.264,0,0,0,2.061-.94,4.132,4.132,0,0,0,1.05-2.047,7.494,7.494,0,0,0,.163-1.38l-6.9.774A6.174,6.174,0,0,0-6259.946,1428.547Zm36.191,3.79a4.953,4.953,0,0,1-2.451-.813,3.636,3.636,0,0,1-1.437-2.083,3.179,3.179,0,0,1-.075-1.788,4,4,0,0,1,.7-1.354q.475-.6.976-1.145a5.025,5.025,0,0,0,.785-1.106,1.636,1.636,0,0,0,.085-1.246,1.713,1.713,0,0,0-.81-1.059,4.65,4.65,0,0,0-1.441-.5c-.556-.107-1.148-.208-1.771-.306a10.047,10.047,0,0,1-1.811-.451,4.245,4.245,0,0,1-1.552-.941,3.94,3.94,0,0,1-1.013-1.806,4.126,4.126,0,0,1,0-2.671,4.5,4.5,0,0,1,1.5-1.99,7.644,7.644,0,0,1,2.579-1.266,10.658,10.658,0,0,1,1.894-.363,19.118,19.118,0,0,1,2.057-.1l.878,3.629-1.642.476-.884-2.052a6.163,6.163,0,0,0-.833.006,5.093,5.093,0,0,0-1.067.181,3.877,3.877,0,0,0-1.284.63,2.246,2.246,0,0,0-.761,1.039,2.192,2.192,0,0,0-.006,1.368,2.171,2.171,0,0,0,.844,1.222,4.417,4.417,0,0,0,1.464.638c.568.14,1.161.267,1.775.375a15.315,15.315,0,0,1,1.793.428,4.089,4.089,0,0,1,1.52.837,3.29,3.29,0,0,1,.958,1.608,2.874,2.874,0,0,1,.052,1.665,4.094,4.094,0,0,1-.7,1.311q-.474.6-.948,1.137a4.167,4.167,0,0,0-.728,1.16,2.116,2.116,0,0,0-.02,1.415,2.352,2.352,0,0,0,.811,1.259,2.766,2.766,0,0,0,1.391.529,4.324,4.324,0,0,0,1.717-.168,4.128,4.128,0,0,0,2.329-1.537,3.132,3.132,0,0,0,.271-2.782l-4.494-15.483,4.637-1.347.409,1.406-1.852,1.047,2.973,10.242,2.042-.591.422,1.456-1.934.96.378,1.3a6.078,6.078,0,0,1,.241,2.661,4.646,4.646,0,0,1-.863,2.077,5.8,5.8,0,0,1-1.73,1.521,9.949,9.949,0,0,1-2.326.992,9.055,9.055,0,0,1-2.527.39Q-6223.494,1432.357-6223.754,1432.337Zm-95.378-2.64a8.147,8.147,0,0,1-2.914-1.129l-4.03-.622.292-1.6,2.009.012a3.641,3.641,0,0,1-.334-1.071,5.039,5.039,0,0,1,.067-1.746,4.834,4.834,0,0,1,2.416-3.5,6.7,6.7,0,0,1,4.665-.521,8.656,8.656,0,0,1,2.194.743l1-2.5-4.713-.94a6.74,6.74,0,0,1-3.818-1.832,3.537,3.537,0,0,1-.779-3.222,3.915,3.915,0,0,1,2.552-3.067,10.714,10.714,0,0,1,5.816-.078,10.223,10.223,0,0,1,4.639,1.868,2.932,2.932,0,0,1,1.07,2.958,3.223,3.223,0,0,1-1.292,2.034,6.061,6.061,0,0,1-1.889.886,2.165,2.165,0,0,1,.536.395,1.188,1.188,0,0,1,.324,1.121,1.539,1.539,0,0,1-.157.432,5.844,5.844,0,0,1-.37.59c-.171.246-.407.565-.711.954q-.376.487-.936,1.207a4.514,4.514,0,0,1,1.325,1.925,5.043,5.043,0,0,1,.135,2.715,4.875,4.875,0,0,1-2.369,3.484,5.736,5.736,0,0,1-2.882.7A9.469,9.469,0,0,1-6319.132,1429.7Zm-.824-7.947a3.316,3.316,0,0,0-1.366,2.274,3.21,3.21,0,0,0,.348,2.546,3.413,3.413,0,0,0,2.241,1.264,3.451,3.451,0,0,0,2.616-.339,3.3,3.3,0,0,0,1.335-2.253,3.356,3.356,0,0,0-.335-2.557,3.223,3.223,0,0,0-2.192-1.3,4.941,4.941,0,0,0-.962-.1A3.035,3.035,0,0,0-6319.957,1421.75ZM-6313.148,1417.885Zm-5.82-7.382a1.958,1.958,0,0,0-1.467,1.565,1.837,1.837,0,0,0,.5,1.759,4.459,4.459,0,0,0,2.3,1.023l3.984.793q1.905-.816,2.165-2.131a1.675,1.675,0,0,0-.736-1.749,7.782,7.782,0,0,0-3.132-1.16,11.953,11.953,0,0,0-2.3-.266A4.536,4.536,0,0,0-6318.968,1410.5Zm-32.805,9.851a6,6,0,0,1-2.8-1.935,5,5,0,0,1-.98-2.8,8.325,8.325,0,0,1,.58-3.308c.085-.225.179-.443.28-.663s.225-.466.37-.744l9.137,3.438a7.985,7.985,0,0,0,.44-2.474,4.185,4.185,0,0,0-.642-2.336,3.861,3.861,0,0,0-1.961-1.49,6.964,6.964,0,0,0-2.165-.4,11.3,11.3,0,0,0-2.668.236l-.37-1.761a12.085,12.085,0,0,1,3.5-.4,9.835,9.835,0,0,1,3.065.591,6.569,6.569,0,0,1,2.844,1.969,5.734,5.734,0,0,1,1.244,3.124,9,9,0,0,1-.653,4.046,9.551,9.551,0,0,1-2.261,3.618,6.254,6.254,0,0,1-3.2,1.686,6.142,6.142,0,0,1-1.153.108A7.381,7.381,0,0,1-6351.773,1420.354Zm-1.075-4.829a3.08,3.08,0,0,0,.426,1.769,3.008,3.008,0,0,0,1.583,1.2,3.278,3.278,0,0,0,2.266.1,4.146,4.146,0,0,0,1.862-1.349,7.56,7.56,0,0,0,.773-1.154l-6.5-2.446A6.163,6.163,0,0,0-6352.848,1415.525Zm153.239-12.1-2.034.492-.651-1.31,3.673-2.038,1.3,1.9a9.049,9.049,0,0,1,1.506-2.673,7.1,7.1,0,0,1,2.264-1.862,4.185,4.185,0,0,1,3.223-.306,4.708,4.708,0,0,1,2.645,2.634l3.639,7.334,2.069-.49.65,1.313-4.254,2.293-4.365-8.8a3.251,3.251,0,0,0-1.651-1.741,2.486,2.486,0,0,0-2.025.174,4.786,4.786,0,0,0-1.589,1.358,7.455,7.455,0,0,0-1.135,2.092l3.943,7.951,2.069-.49.65,1.311-4.241,2.321Zm-180.074,3.733.751-1.254,1.913.681,3.153-10.24-9.071,8.671-2.574-1.347,3.631-12.244-7.667,7.516,1.43,1.236-.752,1.256-4.953-2.743.751-1.254,1.5.434,9.756-9.236,2.58,1.546-3.3,11.609,8.892-8.26,2.583,1.546-3.667,12.738,1.179,1.089-.75,1.256Zm216.929-11.208a3.885,3.885,0,0,1-2.938-1.857l-5.11-7.022-1.957.828-.861-1.182,3.282-2.624,1.67,1.711a7.966,7.966,0,0,1,.862-2.872,6.174,6.174,0,0,1,1.775-2.114,3.932,3.932,0,0,1,2.837-.767,4.057,4.057,0,0,1,2.78,1.871,4.016,4.016,0,0,1,.911,2.427,3.775,3.775,0,0,1-.806,2.174,10.005,10.005,0,0,1-2.139,2.034l-2.523,1.836,1.219,1.674a2.528,2.528,0,0,0,1.813,1.223,3.133,3.133,0,0,0,2.039-.715,8.074,8.074,0,0,0,1.09-.963,10.794,10.794,0,0,0,.851-1.023l-1.066-1.928,1.471-1.07,2.341,2.837a27.653,27.653,0,0,1-2.049,2.464,14.851,14.851,0,0,1-1.976,1.764,5.821,5.821,0,0,1-3.357,1.3C-6162.649,1395.952-6162.7,1395.951-6162.753,1395.948ZM-6165.848,1389.184Zm-.162-.222,2.165-1.576a4.164,4.164,0,0,0,1.707-1.925,1.99,1.99,0,0,0-.419-1.744,2.353,2.353,0,0,0-1.5-1.077,2.018,2.018,0,0,0-1.518.4,4.2,4.2,0,0,0-1.24,1.6,9.39,9.39,0,0,0-.733,2.2Zm-249.807.307a1.455,1.455,0,0,1-.541-1.06,1.708,1.708,0,0,1,.492-1.184,1.593,1.593,0,0,1,1.122-.614,1.493,1.493,0,0,1,1.093.389,1.4,1.4,0,0,1,.547,1.049,1.8,1.8,0,0,1-.48,1.176,1.648,1.648,0,0,1-1.132.622q-.056,0-.111,0A1.459,1.459,0,0,1-6415.816,1389.269Zm-4.275-3.748a1.455,1.455,0,0,1-.541-1.06,1.718,1.718,0,0,1,.49-1.186,1.573,1.573,0,0,1,1.134-.6,1.5,1.5,0,0,1,1.083.38,1.451,1.451,0,0,1,.557,1.059,1.7,1.7,0,0,1-.489,1.166,1.545,1.545,0,0,1-1.125.632l-.083,0A1.507,1.507,0,0,1-6420.092,1385.521Zm9.387-.969a7.079,7.079,0,0,1-3.463-1.769,6.281,6.281,0,0,1-2.39-4.645,7.713,7.713,0,0,1,2.25-5.245,9.4,9.4,0,0,1,3.373-2.549,6.351,6.351,0,0,1,3.637-.443,7.216,7.216,0,0,1,3.512,1.793,6.119,6.119,0,0,1,2.347,4.57,7.769,7.769,0,0,1-2.274,5.186,9.869,9.869,0,0,1-3.406,2.63,6.33,6.33,0,0,1-2.561.56A5.971,5.971,0,0,1-6410.705,1384.552Zm1.039-11.866a9.288,9.288,0,0,0-2.373,2.015,6.981,6.981,0,0,0-1.957,3.74,3.339,3.339,0,0,0,1.259,2.919,3.358,3.358,0,0,0,3.2.847,7.562,7.562,0,0,0,3.572-2.544,7,7,0,0,0,1.958-3.7,3.249,3.249,0,0,0-1.236-2.862,3.662,3.662,0,0,0-2.128-.985c-.091-.008-.183-.011-.275-.011A4.14,4.14,0,0,0-6409.666,1372.686Zm-31.466-8.266,6.663-5.407a8.455,8.455,0,0,1-2.532-.809,7.117,7.117,0,0,1-2.316-1.8,4.715,4.715,0,0,1-.987-2.026,3.673,3.673,0,0,1,.213-2.147,5.2,5.2,0,0,1,1.676-2.034l6.484-5.263-.93-1.911,1.135-.922,4.264,5.253-1.137.922-1.581-1.208-6.023,4.891a3.161,3.161,0,0,0-1.378,2.026,2.556,2.556,0,0,0,.63,1.959,4.832,4.832,0,0,0,1.666,1.243,7.087,7.087,0,0,0,2.278.638l6.978-5.661-.866-1.788,1.139-.922,4.261,5.253-1.137.922-1.684-1.3-13.408,10.884.925,1.915-1.137.922Zm316-7.592-6.728-5-1.605,1.353-1.174-.875,3.985-5.36,1.176.871-.748,1.783,6.229,4.631a3.48,3.48,0,0,0,2.28.87,2.21,2.21,0,0,0,1.633-.953,4.6,4.6,0,0,0,.757-1.915,7.543,7.543,0,0,0,.039-2.333l-.064-.04c-.119-.077-.227-.151-.329-.23l-6.8-5.052-1.485,1.2-1.176-.871,3.87-5.207,1.176.873-.749,1.784,6.229,4.63a3.419,3.419,0,0,0,2.289.857,2.228,2.228,0,0,0,1.627-.94,4.7,4.7,0,0,0,.775-1.9,7.493,7.493,0,0,0,.053-2.369l-7.21-5.361-1.483,1.237-1.176-.871,3.987-5.364,1.173.873-.826,1.932,8.547,6.349,1.606-1.348,1.176.873-2.349,3.484-1.976-1.094a8.734,8.734,0,0,1-.111,3.068,7.083,7.083,0,0,1-1.172,2.689,3.966,3.966,0,0,1-1.883,1.42,3.592,3.592,0,0,1-2.267.007,9.23,9.23,0,0,1-.085,3.113,6.9,6.9,0,0,1-1.15,2.705,3.926,3.926,0,0,1-2.6,1.606,3.209,3.209,0,0,1-.5.04A5.043,5.043,0,0,1-6125.137,1356.828Zm-331.052-25.393,1.814-1.355a8.942,8.942,0,0,1-2.768-1.384,7.02,7.02,0,0,1-1.966-2.174,4.329,4.329,0,0,1-.5-3.228,4.518,4.518,0,0,1,2.489-2.741l7.276-4.046-.574-2.019,1.282-.71,3.272,5.885-1.277.713-1.348-1.464-6.783,3.773a3.279,3.279,0,0,0-1.7,1.766,2.522,2.522,0,0,0,.273,2.03,4.831,4.831,0,0,0,1.434,1.523,7.421,7.421,0,0,0,2.143,1.036l7.852-4.367-.543-1.908,1.278-.712,3.274,5.888-1.278.712-1.419-1.549-9.307,5.174.567,2.024-1.277.71Zm347.6-15.176-1.292,1.647-1.323-.625,1.621-3.873,2.2.683a9.043,9.043,0,0,1-.478-3.03,7.111,7.111,0,0,1,.624-2.867,4.165,4.165,0,0,1,2.341-2.236,4.7,4.7,0,0,1,3.707.425l7.4,3.5,1.321-1.665,1.324.625-1.917,4.438-8.885-4.2a3.235,3.235,0,0,0-2.37-.342,2.472,2.472,0,0,0-1.484,1.391,4.794,4.794,0,0,0-.406,2.052,7.408,7.408,0,0,0,.406,2.345l8.021,3.793,1.319-1.664,1.324.625-1.889,4.45Zm-368.964-15.012,18.2-6.759-.25-2.087,1.372-.508,2.393,6.443-1.372.51-1.181-1.771-16.2,6.016.275,2.106-1.37.51Zm381.481-15.77-1.029,1.865-1.407-.388.927-4.1,2.047.22a9.482,9.482,0,0,1-.9-2.554,5.753,5.753,0,0,1,.1-2.591,4.834,4.834,0,0,1,1.552-2.466,5.514,5.514,0,0,1,2.911-1.217,10.145,10.145,0,0,1,4.06.388q3.778,1.041,5.141,3.479a7.52,7.52,0,0,1,.425,5.841,11.194,11.194,0,0,1-.471,1.345q-.186.434-.412.875l4.362,1.2,1.1-1.958,1.413.388-1.129,4.815Zm10.894.138a9.275,9.275,0,0,0,1.006-2.272,4.052,4.052,0,0,0-.517-3.679,6.559,6.559,0,0,0-3.65-2.192,8.589,8.589,0,0,0-2.969-.345,4.275,4.275,0,0,0-2.173.72,2.857,2.857,0,0,0-1.134,1.619,4.164,4.164,0,0,0-.038,1.894,7.662,7.662,0,0,0,.625,1.82Zm-8.631-2Zm-384.852-9.825,12.428-2.874.013-2.128,1.427-.331,1.549,6.7-1.425.332-.934-1.882L-6476,1276l.005,2.094-1.427.332Zm-5.074,3.979a1.782,1.782,0,0,1-.725-1.108,1.77,1.77,0,0,1,.161-1.327,1.748,1.748,0,0,1,1.194-.77,1.7,1.7,0,0,1,1.422.194,1.817,1.817,0,0,1,.725,1.122,1.677,1.677,0,0,1-.179,1.3,1.754,1.754,0,0,1-1.183.77,2.475,2.475,0,0,1-.554.068A1.485,1.485,0,0,1-6483.735,1277.766Zm392.35-22.019.642-6.7,1.458.138.278,1.968,7.726.74a3.289,3.289,0,0,0,2.4-.492,2.518,2.518,0,0,0,.923-1.824,4.814,4.814,0,0,0-.314-2.069,7.434,7.434,0,0,0-1.178-2.068l-8.943-.857-.636,1.88-1.456-.137.643-6.707,1.456.14.291,2.08,10.6,1.015.679-1.988,1.458.14-.208,4.2-2.263.086a9,9,0,0,1,1.5,2.711,7.122,7.122,0,0,1,.388,2.907,4.325,4.325,0,0,1-1.42,2.943,4.507,4.507,0,0,1-3.6.847l-8.287-.794-.675,1.988Zm-386.981-4.277a6.652,6.652,0,0,1-2.529-1.394,6.428,6.428,0,0,1-1.565-2.153,8.067,8.067,0,0,1-.661-2.6,10.141,10.141,0,0,1,.11-2.489,10.025,10.025,0,0,1,.6-2.253l3.667-.2.153,1.814-2.324.564a4.67,4.67,0,0,0-.2,1.089,8.085,8.085,0,0,0,0,1.3,3.883,3.883,0,0,0,.866,2.241,4.209,4.209,0,0,0,2.047,1.283,8.067,8.067,0,0,0,3,.246,7.529,7.529,0,0,0,2.951-.79,4.124,4.124,0,0,0,1.735-1.627,3.824,3.824,0,0,0,.438-2.2,5.927,5.927,0,0,0-.556-1.974,9.844,9.844,0,0,0-1.368-2.13l1.376-1.083a11.408,11.408,0,0,1,1.912,2.8,8.363,8.363,0,0,1,.779,2.844,6.168,6.168,0,0,1-.608,3.319,6.114,6.114,0,0,1-2.337,2.508,8.753,8.753,0,0,1-3.919,1.176q-.554.046-1.069.046A8.413,8.413,0,0,1-6478.366,1251.47Zm388.212-33.351,2.247-.5a8.97,8.97,0,0,1-1.916-2.4,7.042,7.042,0,0,1-.88-2.8,4.178,4.178,0,0,1,.922-3.1,4.707,4.707,0,0,1,3.43-1.468l8.165-.631.321-2.1,1.459-.112.536,4.8-9.8.756a3.228,3.228,0,0,0-2.23.878,2.464,2.464,0,0,0-.6,1.942,4.819,4.819,0,0,0,.666,1.984,7.426,7.426,0,0,0,1.517,1.835l8.846-.682.321-2.1,1.458-.112.565,4.8-12.749.982-.307,2.073-1.458.112Zm-380.193,3.909-.325-2.1-17.219-1.345-.648,2.027-1.461-.116.186-4.831,8.552.668a8.5,8.5,0,0,1-1.279-2.328,7.146,7.146,0,0,1-.438-2.9,4.686,4.686,0,0,1,.681-2.15,3.66,3.66,0,0,1,1.632-1.409,5.143,5.143,0,0,1,2.614-.321l8.328.65.642-2.027,1.458.114-.528,6.743-1.458-.114-.313-1.965-7.738-.6a3.159,3.159,0,0,0-2.393.52,2.566,2.566,0,0,0-.894,1.855,4.864,4.864,0,0,0,.353,2.049,7.154,7.154,0,0,0,1.213,2.034l8.959.7.6-1.892,1.458.114-.526,6.743Zm386.176-36.371,2.266-.854c0-.054-.006-.109-.012-.164a3.2,3.2,0,0,0-.068-.394,3.694,3.694,0,0,0-1.077-1.8,7.871,7.871,0,0,0-1.639-1.208l-8.572,2.082.136,2.608-1.423.347-1.738-7.163,1.42-.344.944,1.87,10.354-2.512,0-2.1,1.422-.344,1.176,4.031-2.124.827a11.35,11.35,0,0,1,2.166,1.678,4.969,4.969,0,0,1,1.308,2.339,7.173,7.173,0,0,1,.172,1.889l-4.312.849Zm-382.142.453a1.567,1.567,0,0,1-1.084-.77,1.717,1.717,0,0,1-.183-1.246,1.686,1.686,0,0,1,.723-1.122,1.663,1.663,0,0,1,1.3-.171,1.56,1.56,0,0,1,1.084.77,1.752,1.752,0,0,1,.178,1.272,1.666,1.666,0,0,1-.718,1.1,1.5,1.5,0,0,1-.819.228A2.169,2.169,0,0,1-6466.313,1186.11Zm7.641-23.282.4-2.287-14.09-5.886-1.307,1.909-1.35-.564,1.871-4.844,1.171-2.8a7.527,7.527,0,0,1,3.085-3.948,4.657,4.657,0,0,1,4.166-.023,5.112,5.112,0,0,1,2.891,2.748,6.215,6.215,0,0,1,.228,3.693,3.474,3.474,0,0,1,.507-.544,3.462,3.462,0,0,1,1.31-.7,7.751,7.751,0,0,1,1.676-.257l4.688-.332,1.124-1.4,1.35.563-1.458,3.492-5.963.231a11.606,11.606,0,0,0-1.991.217,2.37,2.37,0,0,0-1.215.66,5.242,5.242,0,0,0-.943,1.611l-.459,1.153,5.768,2.408,1.527-2.231,1.35.562-2.978,7.132Zm-6.168-8.08.777-1.86a5.575,5.575,0,0,0,.479-3.583,3.32,3.32,0,0,0-2.108-2.183,3.014,3.014,0,0,0-2.609-.028,4.365,4.365,0,0,0-1.9,2.365l-1.086,2.6Zm349.034-12.944.182-1.252a11.354,11.354,0,0,0,2.236.067,3.267,3.267,0,0,0,1.044-.24.916.916,0,0,0,.429-.461,4.849,4.849,0,0,1,.338-.63,1.66,1.66,0,0,1,.667-.57,1.512,1.512,0,0,1,1.352-.106,1.815,1.815,0,0,1,.938.831,1.8,1.8,0,0,1,.2.8,1.5,1.5,0,0,1-.244.834,2.161,2.161,0,0,1-.845.71,6.346,6.346,0,0,1-2.39.531q-.248.018-.514.018A13.175,13.175,0,0,1-6115.807,1141.8Zm-330.215-12.071-6.893-4.418-1.521,1.483-1.233-.79,2.469-4.157,8.273,5.3a3.226,3.226,0,0,0,2.308.645,2.478,2.478,0,0,0,1.65-1.189,4.83,4.83,0,0,0,.665-1.984,7.5,7.5,0,0,0-.1-2.379l-7.469-4.788-1.523,1.482-1.233-.788,2.446-4.173,10.766,6.9,1.494-1.468,1.23.788-2.1,3.637-2.093-.959a8.978,8.978,0,0,1,.085,3.067,7.081,7.081,0,0,1-.984,2.762,4.178,4.178,0,0,1-2.607,1.92,3.333,3.333,0,0,1-.771.089A5.363,5.363,0,0,1-6446.022,1129.733Zm322.383-9.349a9.783,9.783,0,0,1-2.229-2.184,6.53,6.53,0,0,1-1.287-3.21,5.7,5.7,0,0,1,.682-3.29,8.942,8.942,0,0,1,2.775-3.016,9.566,9.566,0,0,1,3.88-1.772,6.246,6.246,0,0,1,3.6.357,6.867,6.867,0,0,1,2.917,2.4,5.981,5.981,0,0,1,1.267,3.158,4.974,4.974,0,0,1-.728,2.88,8.322,8.322,0,0,1-2.3,2.438c-.194.14-.394.274-.6.4s-.446.266-.723.42l-5.729-7.905a7.94,7.94,0,0,0-1.728,1.82,4.167,4.167,0,0,0-.754,2.3,3.855,3.855,0,0,0,.814,2.324,7.011,7.011,0,0,0,1.585,1.528,11.255,11.255,0,0,0,2.355,1.275l-.66,1.673A12.09,12.09,0,0,1-6123.639,1120.384Zm7.194-4.749a6.169,6.169,0,0,0,1.38-1.344,3.058,3.058,0,0,0,.617-1.71,2.971,2.971,0,0,0-.658-1.875,3.265,3.265,0,0,0-1.832-1.329,4.15,4.15,0,0,0-2.3.1,7.541,7.541,0,0,0-1.283.538Zm-308.716-10.112,1.025-1.834-7.833-7.209-1.744,1.173-1.076-.992,2.7-3.219,1.857,1.3a9,9,0,0,1,.444-3.065,7.145,7.145,0,0,1,1.448-2.551,4.335,4.335,0,0,1,2.911-1.487,4.507,4.507,0,0,1,3.383,1.5l6.124,5.639,1.738-1.178,1.077.992-4.564,4.956-1.077-.992.967-1.738-5.708-5.256a3.29,3.29,0,0,0-2.213-1.06,2.517,2.517,0,0,0-1.837.9,4.819,4.819,0,0,0-1,1.837,7.5,7.5,0,0,0-.309,2.361l6.609,6.085,1.643-1.115,1.077.99-4.562,4.956Zm282.6-8.149a8.306,8.306,0,0,1-2.429-1.671,6.157,6.157,0,0,1-1.676-2.928,6.108,6.108,0,0,1,.172-3.425,8.742,8.742,0,0,1,2.235-3.424,9.408,9.408,0,0,1,2.922-2.077,6.574,6.574,0,0,1,2.833-.562,6.386,6.386,0,0,1,2.585.637,8.006,8.006,0,0,1,2.186,1.564,10.328,10.328,0,0,1,1.52,1.973,10.108,10.108,0,0,1,.992,2.109l-2.676,2.516-1.287-1.29,1.415-1.929a4.89,4.89,0,0,0-.553-.959,8.59,8.59,0,0,0-.837-1,3.876,3.876,0,0,0-2.107-1.155,4.191,4.191,0,0,0-2.393.339,8.106,8.106,0,0,0-2.451,1.745,7.57,7.57,0,0,0-1.751,2.507,4.144,4.144,0,0,0-.274,2.363,3.8,3.8,0,0,0,1.08,1.963,5.963,5.963,0,0,0,1.7,1.153,9.784,9.784,0,0,0,2.419.744l-.354,1.717A11.41,11.41,0,0,1-6142.562,1097.374Zm-259.018-17.216a10.19,10.19,0,0,1-3.005-2.756q-2.389-3.108-2.006-5.875a7.524,7.524,0,0,1,3.183-4.917,11.226,11.226,0,0,1,1.187-.79q.408-.236.853-.45l-2.755-3.588-2.057.9-.893-1.161,3.8-3.163,11.81,15.367,1.943-.869.892,1.16-3.21,2.709-1.5-1.407a9.439,9.439,0,0,1-.819,2.581,5.733,5.733,0,0,1-1.642,2.01,4.841,4.841,0,0,1-2.722,1.033c-.092.005-.184.008-.276.008A5.658,5.658,0,0,1-6401.579,1080.158Zm-.667-11.9a4.058,4.058,0,0,0-1.8,3.251,6.541,6.541,0,0,0,1.591,3.948,8.572,8.572,0,0,0,2.16,2.064,4.306,4.306,0,0,0,2.167.739,2.888,2.888,0,0,0,1.881-.612,4.138,4.138,0,0,0,1.171-1.49,7.573,7.573,0,0,0,.6-1.826l-5.595-7.279A9.406,9.406,0,0,0-6402.246,1068.257Zm234.076,7.215.878-1.173,1.927.838,6.4-8.53-1.354-1.6.879-1.171,3.94,2.753-7.659,10.2,1.359,1.638-.878,1.169Zm13.086-11.96a1.685,1.685,0,0,1-.7-1.113,1.749,1.749,0,0,1,.411-1.349,1.718,1.718,0,0,1,1.2-.774,1.773,1.773,0,0,1,1.269.381,1.772,1.772,0,0,1,.731,1.119,1.755,1.755,0,0,1-.417,1.36,1.708,1.708,0,0,1-1.215.766c-.051,0-.1.006-.151.006A1.843,1.843,0,0,1-6155.083,1063.512Zm-35.033-1.683,2.475-13.236-1.14-1.007.7-1.285,5.642,2.865-.7,1.282-2-.575-2.326,10.941,8.191-7.7-1.587-1.2.7-1.283,5.3,2.678-.7,1.284-1.545-.271-10.181,9.056ZM-6179.054,1053.279Zm-193.012,9.4a4.711,4.711,0,0,1-2.705-2.57l-3.806-7.251-2.057.537-.679-1.295,4.2-2.391,4.565,8.7a3.246,3.246,0,0,0,1.689,1.7,2.472,2.472,0,0,0,2.021-.218,4.8,4.8,0,0,0,1.559-1.4,7.4,7.4,0,0,0,1.086-2.119l-4.124-7.855-2.058.537-.681-1.3,4.189-2.415,5.942,11.321,2.026-.539.679,1.295-3.624,2.121-1.346-1.869a8.947,8.947,0,0,1-1.441,2.708,7.108,7.108,0,0,1-2.223,1.917,4.414,4.414,0,0,1-2.07.545A4.079,4.079,0,0,1-6372.066,1062.678Zm151.649-13.9.494-1.378,2.082.241,3.588-10.032-1.758-1.152.492-1.378,4.017,1.231-.477,2.229a11.441,11.441,0,0,1,2.591-.887,4.933,4.933,0,0,1,2.671.192,7.016,7.016,0,0,1,1.676.891l-1.658,4.069-1.588-.565.531-2.364c-.045-.027-.092-.053-.14-.077a3.529,3.529,0,0,0-.368-.161,3.732,3.732,0,0,0-2.095-.09,7.89,7.89,0,0,0-1.908.707l-2.971,8.308,2.254,1.319-.494,1.38Zm-124.386.415,1.82-1.043-2.994-10.218-2.1.107-.411-1.4,3.973-1.365.917,2.064a8.688,8.688,0,0,1,1.938-2.383,7.058,7.058,0,0,1,2.554-1.44,3.974,3.974,0,0,1,2.358,0,3.6,3.6,0,0,1,1.815,1.361,9.2,9.2,0,0,1,1.941-2.431,6.9,6.9,0,0,1,2.549-1.468,3.93,3.93,0,0,1,3.047.287,4.616,4.616,0,0,1,2.082,2.986l2.358,8.042,2.1-.113.412,1.406-6.411,1.88-.412-1.406,1.671-.973-2.183-7.449a3.478,3.478,0,0,0-1.3-2.065,2.208,2.208,0,0,0-1.876-.226,4.606,4.606,0,0,0-1.756,1.075,7.565,7.565,0,0,0-1.439,1.841c.009.024.017.047.025.07.049.129.09.256.127.38l2.382,8.13,1.91-.066.411,1.4-6.227,1.826-.41-1.4,1.671-.974-2.183-7.449a3.424,3.424,0,0,0-1.31-2.062,2.225,2.225,0,0,0-1.865-.231,4.679,4.679,0,0,0-1.764,1.049,7.572,7.572,0,0,0-1.47,1.86l2.529,8.623,1.927-.1.412,1.4-6.411,1.88Zm100.844-6.09a6.539,6.539,0,0,1-3.14-1.45,5.721,5.721,0,0,1-1.766-2.86,9,9,0,0,1-.057-4.1,9.592,9.592,0,0,1,1.6-3.953,6.247,6.247,0,0,1,2.862-2.215,6.876,6.876,0,0,1,3.771-.259,5.98,5.98,0,0,1,3.09,1.425,4.974,4.974,0,0,1,1.45,2.591,8.308,8.308,0,0,1,0,3.357c-.044.233-.1.467-.16.7s-.142.5-.236.8l-9.594-1.807a8.035,8.035,0,0,0-.005,2.512,4.173,4.173,0,0,0,1.034,2.189,3.87,3.87,0,0,0,2.189,1.129,6.974,6.974,0,0,0,2.2.021,11.312,11.312,0,0,0,2.586-.692l.668,1.671a12.045,12.045,0,0,1-3.375.994,10.8,10.8,0,0,1-1.439.1A9.046,9.046,0,0,1-6243.959,1043.109Zm5.083-8.341a6.12,6.12,0,0,0,.08-1.923,3.082,3.082,0,0,0-.725-1.668,3,3,0,0,0-1.769-.909,3.265,3.265,0,0,0-2.246.295,4.167,4.167,0,0,0-1.6,1.65,7.532,7.532,0,0,0-.561,1.27Zm-36.882,5.084a14.779,14.779,0,0,1-2.864-.354,15.811,15.811,0,0,1-2.878-.933l.271-4.743,1.655.036.393,3.04a9.562,9.562,0,0,0,1.667.567,9.172,9.172,0,0,0,1.967.264,6.483,6.483,0,0,0,2.2-.309,3.67,3.67,0,0,0,1.637-1.042,2.678,2.678,0,0,0,.648-1.779,2.451,2.451,0,0,0-.515-1.67,4.237,4.237,0,0,0-1.442-1.081,16.613,16.613,0,0,0-1.971-.788q-1.068-.354-2.151-.766a9.344,9.344,0,0,1-1.979-1.025,4.5,4.5,0,0,1-1.427-1.577,4.66,4.66,0,0,1-.5-2.4,4.959,4.959,0,0,1,.966-3.03,5.371,5.371,0,0,1,2.466-1.741,9.43,9.43,0,0,1,3.45-.52,14.49,14.49,0,0,1,2.795.352,15.565,15.565,0,0,1,2.839.933l-.349,4.494-1.684-.039-.369-2.981a8.489,8.489,0,0,0-1.349-.41,9.242,9.242,0,0,0-1.819-.22,6.722,6.722,0,0,0-2.02.246,3.323,3.323,0,0,0-1.54.891,2.4,2.4,0,0,0-.616,1.671,2.3,2.3,0,0,0,.517,1.6,4.291,4.291,0,0,0,1.44,1.067,16.257,16.257,0,0,0,1.985.788q1.083.354,2.163.795a9.876,9.876,0,0,1,1.979,1.064,4.6,4.6,0,0,1,1.428,1.606,4.845,4.845,0,0,1,.5,2.442,5.028,5.028,0,0,1-1.077,3.207,5.882,5.882,0,0,1-2.72,1.816,10.583,10.583,0,0,1-3.413.531Q-6275.615,1039.854-6275.758,1039.851Zm-31.168-7.429,7.893-1.249.326,2.052-7.895,1.251Z" transform="translate(6490.519 -1019.5)" fill="#f5b093" stroke="rgba(0,0,0,0)" stroke-miterlimit="10" stroke-width="1"/>
</svg>
