<svg id="Gruppe_9297" data-name="Gruppe 9297" xmlns="http://www.w3.org/2000/svg" xmlns:xlink="http://www.w3.org/1999/xlink" width="420.09" height="420.081" viewBox="0 0 420.09 420.081">
  <defs>
    <clipPath id="clip-path">
      <rect id="Rechteck_1633" data-name="Rechteck 1633" width="420.09" height="420.081" fill="#91a031"/>
    </clipPath>
  </defs>
  <text id="U" transform="translate(30.965 145.186) rotate(-67.183)" fill="#91a031" font-size="24" font-family="Bitter-Regular, Bitter"><tspan x="0" y="0">U</tspan></text>
  <text id="n" transform="matrix(0.531, -0.847, 0.847, 0.531, 46.159, 117.161)" fill="#91a031" font-size="26" font-family="Bitter-Regular, Bitter"><tspan x="0" y="0">n</tspan></text>
  <text id="s" transform="matrix(0.647, -0.763, 0.763, 0.647, 62.475, 93.119)" fill="#91a031" font-size="26" font-family="Bitter-Regular, Bitter"><tspan x="0" y="0">s</tspan></text>
  <text id="e" transform="translate(79.306 74.528) rotate(-41.861)" fill="#91a031" font-size="26" font-family="Bitter-Regular, Bitter"><tspan x="0" y="0">e</tspan></text>
  <text id="r" transform="matrix(0.828, -0.561, 0.561, 0.828, 98.799, 55.686)" fill="#91a031" font-size="23" font-family="Bitter-Regular, Bitter"><tspan x="0" y="0">r</tspan></text>
  <text id="e-2" data-name="e" transform="matrix(0.895, -0.446, 0.446, 0.895, 119.895, 44.682)" fill="#91a031" font-size="26" font-family="Bitter-Regular, Bitter"><tspan x="0" y="0">e</tspan></text>
  <text id="_" data-name=" " transform="matrix(0.942, -0.336, 0.336, 0.942, 144.423, 33.612)" fill="#91a031" font-size="26" font-family="Bitter-Regular, Bitter"><tspan x="0" y="0"> </tspan></text>
  <g id="Gruppe_9290" data-name="Gruppe 9290">
    <g id="Gruppe_9289" data-name="Gruppe 9289" clip-path="url(#clip-path)">
      <text id="S-2" data-name="S" transform="translate(161.183 26.047) rotate(-12.506)" fill="#91a031" font-size="24" font-family="Bitter-Regular, Bitter"><tspan x="0" y="0">S</tspan></text>
      <text id="u-2" data-name="u" transform="matrix(0.998, -0.07, 0.07, 0.998, 188.842, 22.885)" fill="#91a031" font-size="26" font-family="Bitter-Regular, Bitter"><tspan x="0" y="0">u</tspan></text>
      <text id="p" transform="matrix(0.997, 0.079, -0.079, 0.997, 217.669, 19.871)" fill="#91a031" font-size="24" font-family="Bitter-Regular, Bitter"><tspan x="0" y="0">p</tspan></text>
      <text id="e-3" data-name="e" transform="matrix(0.975, 0.223, -0.223, 0.975, 245.426, 25.06)" fill="#91a031" font-size="26" font-family="Bitter-Regular, Bitter"><tspan x="0" y="0">e</tspan></text>
    </g>
  </g>
  <text id="r-2" data-name="r" transform="matrix(0.935, 0.354, -0.354, 0.935, 272.041, 30.118)" fill="#91a031" font-size="23" font-family="Bitter-Regular, Bitter"><tspan x="0" y="0">r</tspan></text>
  <text id="s-3" data-name="s" transform="translate(293.399 41.185) rotate(28.187)" fill="#91a031" font-size="26" font-family="Bitter-Regular, Bitter"><tspan x="0" y="0">s</tspan></text>
  <text id="t" transform="translate(315.132 53.862) rotate(35.396)" fill="#91a031" font-size="26" font-family="Bitter-Regular, Bitter"><tspan x="0" y="0">t</tspan></text>
  <text id="a" transform="translate(332.585 67.072) rotate(42.748)" fill="#91a031" font-size="26" font-family="Bitter-Regular, Bitter"><tspan x="0" y="0">a</tspan></text>
  <text id="r-3" data-name="r" transform="translate(353.203 84.736) rotate(50.479)" fill="#91a031" font-size="23" font-family="Bitter-Regular, Bitter"><tspan x="0" y="0">r</tspan></text>
  <text id="s-4" data-name="s" transform="translate(366.259 104.932) rotate(57.874)" fill="#91a031" font-size="26" font-family="Bitter-Regular, Bitter"><tspan x="0" y="0">s</tspan></text>
  <text id="_." data-name="." transform="matrix(0.433, 0.902, -0.902, 0.433, 378.606, 126.282)" fill="#91a031" font-size="26" font-family="Bitter-Regular, Bitter"><tspan x="0" y="0">.</tspan></text>
  <text id="_2" data-name=" " transform="translate(385.998 143.169) rotate(69.967)" fill="#91a031" font-size="26" font-family="Bitter-Regular, Bitter"><tspan x="0" y="0"> </tspan></text>
  <g id="Gruppe_9292" data-name="Gruppe 9292">
    <g id="Gruppe_9291" data-name="Gruppe 9291" clip-path="url(#clip-path)">
      <text id="S-5" data-name="S" transform="translate(393.668 159.819) rotate(77.068)" fill="#91a031" font-size="24" font-family="Bitter-Regular, Bitter"><tspan x="0" y="0">S</tspan></text>
      <text id="p-2" data-name="p" transform="translate(398.974 186.969) rotate(85.401)" fill="#91a031" font-size="24" font-family="Bitter-Regular, Bitter"><tspan x="0" y="0">p</tspan></text>
      <text id="o" transform="translate(399.276 215.287) rotate(93.763)" fill="#91a031" font-size="25" font-family="Bitter-Regular, Bitter"><tspan x="0" y="0">o</tspan></text>
      <text id="t-2" data-name="t" transform="matrix(-0.196, 0.981, -0.981, -0.196, 395.457, 242.623)" fill="#91a031" font-size="26" font-family="Bitter-Regular, Bitter"><tspan x="0" y="0">t</tspan></text>
    </g>
  </g>
  <text id="_3" data-name=" " transform="matrix(-0.301, 0.954, -0.954, -0.301, 390.278, 264.307)" fill="#91a031" font-size="26" font-family="Bitter-Regular, Bitter"><tspan x="0" y="0"> </tspan></text>
  <text id="o-2" data-name="o" transform="matrix(-0.415, 0.91, -0.91, -0.415, 385.285, 281.776)" fill="#91a031" font-size="25" font-family="Bitter-Regular, Bitter"><tspan x="0" y="0">o</tspan></text>
  <text id="n-2" data-name="n" transform="matrix(-0.547, 0.837, -0.837, -0.547, 372.128, 306.007)" fill="#91a031" font-size="26" font-family="Bitter-Regular, Bitter"><tspan x="0" y="0">n</tspan></text>
  <text id="_4" data-name="!" transform="matrix(-0.652, 0.758, -0.758, -0.652, 355.471, 329.515)" fill="#91a031" font-size="26" font-family="Bitter-Regular, Bitter"><tspan x="0" y="0">!</tspan></text>
  <text id="_5" data-name=" " transform="translate(340.858 345.31) rotate(136.729)" fill="#91a031" font-size="26" font-family="Bitter-Regular, Bitter"><tspan x="0" y="0"> </tspan></text>
  <text id="I" transform="matrix(-0.797, 0.604, -0.604, -0.797, 327.258, 357.306)" fill="#91a031" font-size="26" font-family="Bitter-Regular, Bitter"><tspan x="0" y="0">I</tspan></text>
  <text id="h" transform="translate(309.286 370.124) rotate(150.566)" fill="#91a031" font-size="26" font-family="Bitter-Regular, Bitter"><tspan x="0" y="0">h</tspan></text>
  <text id="r-4" data-name="r" transform="translate(284.503 385.16) rotate(158.656)" fill="#91a031" font-size="23" font-family="Bitter-Regular, Bitter"><tspan x="0" y="0">r</tspan></text>
  <g id="Gruppe_9294" data-name="Gruppe 9294">
    <g id="Gruppe_9293" data-name="Gruppe 9293" clip-path="url(#clip-path)">
      <text id="_6" data-name=" " transform="translate(260.881 391.269) rotate(165.147)" fill="#91a031" font-size="26" font-family="Bitter-Regular, Bitter"><tspan x="0" y="0"> </tspan></text>
      <text id="s-6" data-name="s" transform="translate(243.219 395.383) rotate(171.786)" fill="#91a031" font-size="26" font-family="Bitter-Regular, Bitter"><tspan x="0" y="0">s</tspan></text>
      <text id="e-4" data-name="e" transform="matrix(-1, 0.016, -0.016, -1, 218.262, 398.081)" fill="#91a031" font-size="26" font-family="Bitter-Regular, Bitter"><tspan x="0" y="0">e</tspan></text>
      <text id="i-2" data-name="i" transform="translate(191.296 398.317) rotate(-173.23)" fill="#91a031" font-size="25" font-family="Bitter-Regular, Bitter"><tspan x="0" y="0">i</tspan></text>
      <text id="d" transform="translate(170.591 396.26) rotate(-165.795)" fill="#91a031" font-size="24" font-family="Bitter-Regular, Bitter"><tspan x="0" y="0">d</tspan></text>
    </g>
  </g>
  <text id="_7" data-name=" " transform="translate(144.169 386.362) rotate(-158.722)" fill="#91a031" font-size="26" font-family="Bitter-Regular, Bitter"><tspan x="0" y="0"> </tspan></text>
  <text id="d-2" data-name="d" transform="translate(126.586 381.124) rotate(-151.662)" fill="#91a031" font-size="24" font-family="Bitter-Regular, Bitter"><tspan x="0" y="0">d</tspan></text>
  <text id="i-3" data-name="i" transform="translate(102.768 365.905) rotate(-144.26)" fill="#91a031" font-size="25" font-family="Bitter-Regular, Bitter"><tspan x="0" y="0">i</tspan></text>
  <text id="e-5" data-name="e" transform="translate(87.045 352.604) rotate(-137.07)" fill="#91a031" font-size="26" font-family="Bitter-Regular, Bitter"><tspan x="0" y="0">e</tspan></text>
  <text id="_8" data-name=" " transform="matrix(-0.646, -0.763, 0.763, -0.646, 68.04, 333.518)" fill="#91a031" font-size="26" font-family="Bitter-Regular, Bitter"><tspan x="0" y="0"> </tspan></text>
  <text id="B" transform="matrix(-0.545, -0.838, 0.838, -0.545, 55.88, 319.992)" fill="#91a031" font-size="25" font-family="Bitter-Regular, Bitter"><tspan x="0" y="0">B</tspan></text>
  <text id="e-6" data-name="e" transform="translate(41.755 294.589) rotate(-114.58)" fill="#91a031" font-size="26" font-family="Bitter-Regular, Bitter"><tspan x="0" y="0">e</tspan></text>
  <g id="Gruppe_9296" data-name="Gruppe 9296">
    <g id="Gruppe_9295" data-name="Gruppe 9295" clip-path="url(#clip-path)">
      <text id="s-7" data-name="s" transform="translate(31.457 269.776) rotate(-106.611)" fill="#91a031" font-size="26" font-family="Bitter-Regular, Bitter"><tspan x="0" y="0">s</tspan></text>
      <text id="t-3" data-name="t" transform="translate(25.149 245.448) rotate(-99.363)" fill="#91a031" font-size="26" font-family="Bitter-Regular, Bitter"><tspan x="0" y="0">t</tspan></text>
      <text id="e-7" data-name="e" transform="translate(22.245 223.779) rotate(-92.018)" fill="#91a031" font-size="26" font-family="Bitter-Regular, Bitter"><tspan x="0" y="0">e</tspan></text>
      <text id="n-3" data-name="n" transform="translate(22.15 197) rotate(-83.636)" fill="#91a031" font-size="26" font-family="Bitter-Regular, Bitter"><tspan x="0" y="0">n</tspan></text>
      <text id="_9" data-name="!" transform="matrix(0.242, -0.97, 0.97, 0.242, 26.432, 168.486)" fill="#91a031" font-size="26" font-family="Bitter-Regular, Bitter"><tspan x="0" y="0">!</tspan></text>
    </g>
  </g>
</svg>
