<svg xmlns="http://www.w3.org/2000/svg" width="410.045" height="409.253" viewBox="0 0 410.045 409.253">
  <path id="c_tonnen" d="M-6273.386,1427.482a3.876,3.876,0,0,1-1.53-3.122l-.665-8.656-2.1-.323-.112-1.459,4.169-.513.525,2.334a7.974,7.974,0,0,1,2.242-1.993,6.166,6.166,0,0,1,2.619-.865,3.91,3.91,0,0,1,2.819.836,4.057,4.057,0,0,1,1.384,3.049,4.018,4.018,0,0,1-.5,2.544,3.749,3.749,0,0,1-1.829,1.427,9.849,9.849,0,0,1-2.886.611l-3.11.24.158,2.063a2.543,2.543,0,0,0,.9,1.994,3.147,3.147,0,0,0,2.111.461,8.182,8.182,0,0,0,1.435-.249,10.967,10.967,0,0,0,1.26-.423l.1-2.2,1.816-.14.5,3.645a26.261,26.261,0,0,1-3.036,1.023,14.845,14.845,0,0,1-2.608.464q-.373.028-.721.028A5.142,5.142,0,0,1-6273.386,1427.482ZM-6272.474,1420.1Zm-.021-.275,2.67-.206a4.173,4.173,0,0,0,2.462-.743,1.991,1.991,0,0,0,.561-1.7,2.352,2.352,0,0,0-.712-1.705,2.01,2.01,0,0,0-1.5-.451,4.2,4.2,0,0,0-1.9.714,9.376,9.376,0,0,0-1.783,1.494Zm-36.245,7.541,0-2.264a8.977,8.977,0,0,1-2.763,1.4,7.077,7.077,0,0,1-2.917.283,4.312,4.312,0,0,1-2.891-1.521,4.5,4.5,0,0,1-.718-3.632l1.087-8.255-1.964-.743.192-1.45,6.676.88-.189,1.45-1.977.21-1.013,7.695a3.279,3.279,0,0,0,.4,2.42,2.529,2.529,0,0,0,1.792.987,4.784,4.784,0,0,0,2.077-.241,7.4,7.4,0,0,0,2.11-1.105l1.174-8.907-1.857-.7.192-1.45,6.676.88-.19,1.45-2.088.218-1.39,10.556,1.959.75-.189,1.45Zm72.92-6.536,1.791-.914a3.576,3.576,0,0,1-.789-.8,5.042,5.042,0,0,1-.745-1.582,4.846,4.846,0,0,1,.536-4.22,6.722,6.722,0,0,1,3.9-2.6,8.649,8.649,0,0,1,2.291-.349l-.257-2.678-4.62,1.332a6.766,6.766,0,0,1-4.23.127,3.546,3.546,0,0,1-2.173-2.505,3.911,3.911,0,0,1,.86-3.9,10.692,10.692,0,0,1,5.127-2.743,10.218,10.218,0,0,1,4.978-.472,2.929,2.929,0,0,1,2.311,2.134,3.228,3.228,0,0,1-.213,2.4,6.041,6.041,0,0,1-1.267,1.652,2.136,2.136,0,0,1,.655.105,1.193,1.193,0,0,1,.8.845,1.608,1.608,0,0,1,.059.458,5.745,5.745,0,0,1-.059.692c-.039.3-.1.691-.194,1.174q-.111.6-.276,1.5a4.517,4.517,0,0,1,2.062,1.1,5.067,5.067,0,0,1,1.368,2.35,4.864,4.864,0,0,1-.5,4.181,6.715,6.715,0,0,1-3.971,2.622,8.112,8.112,0,0,1-3.1.336l-3.865,1.3Zm5.253-8.3a3.474,3.474,0,0,0-2.186,1.534,3.318,3.318,0,0,0-.173,2.648,3.224,3.224,0,0,0,1.482,2.1,3.437,3.437,0,0,0,2.57.093,3.463,3.463,0,0,0,2.168-1.5,3.282,3.282,0,0,0,.151-2.614,3.346,3.346,0,0,0-1.474-2.119,2.66,2.66,0,0,0-1.33-.33A4.391,4.391,0,0,0-6230.567,1412.536Zm-3.22-10.478a7.9,7.9,0,0,0-3.256,1.57,1.953,1.953,0,0,0-.582,2.065,1.824,1.824,0,0,0,1.248,1.334,4.443,4.443,0,0,0,2.511-.148l3.9-1.125a3.206,3.206,0,0,0,.945-2.888,1.684,1.684,0,0,0-1.458-1.218,3.717,3.717,0,0,0-.646-.052A10.031,10.031,0,0,0-6233.788,1402.058Zm-124.431,13.2.549-1.564,11.146-7.818-5.639-1.981-1.2,2.038-1.613-.568,1.363-3.968,10.713,3.736-.538,1.534-11.229,7.819,5.475,1.924.946-1.8,1.589.559-1.275,3.707Zm-32.313-15.49a5.99,5.99,0,0,1-2.409-2.4,4.987,4.987,0,0,1-.467-2.932,8.257,8.257,0,0,1,1.158-3.152c.124-.205.254-.4.393-.6s.3-.419.5-.668l8.383,5a7.916,7.916,0,0,0,.872-2.359,4.165,4.165,0,0,0-.216-2.411,3.865,3.865,0,0,0-1.668-1.814,6.975,6.975,0,0,0-2.057-.779,11.162,11.162,0,0,0-2.67-.241l-.05-1.8a12.172,12.172,0,0,1,3.512.231,9.8,9.8,0,0,1,2.911,1.127,6.56,6.56,0,0,1,2.45,2.442,5.712,5.712,0,0,1,.669,3.293,8.928,8.928,0,0,1-1.36,3.867,9.565,9.565,0,0,1-2.865,3.16,6.262,6.262,0,0,1-3.448,1.093h-.065A6.9,6.9,0,0,1-6390.532,1399.766Zm-.2-4.943a3.063,3.063,0,0,0,.108,1.816,2.979,2.979,0,0,0,1.344,1.463,3.283,3.283,0,0,0,2.211.5,4.158,4.158,0,0,0,2.074-1,7.456,7.456,0,0,0,.965-1l-5.963-3.559A6.071,6.071,0,0,0-6390.732,1394.823Zm220.178-6.224,1.425-1.047,1.4,1.312a8.6,8.6,0,0,0,1.979-1.056,3.46,3.46,0,0,0,1.288-1.6,1.644,1.644,0,0,0-.228-1.614,1.545,1.545,0,0,0-1.189-.684,4.559,4.559,0,0,0-1.606.241c-.594.184-1.222.4-1.883.63a10.451,10.451,0,0,1-1.98.5,4.2,4.2,0,0,1-1.912-.151,3.454,3.454,0,0,1-1.675-1.321,3.917,3.917,0,0,1-.835-2.507,5.08,5.08,0,0,1,.865-2.573,8.778,8.778,0,0,1,2.215-2.3,14.906,14.906,0,0,1,1.833-1.143,19.213,19.213,0,0,1,2.161-.974l2.153,3.248-1.4,1.031-1.613-1.733q-.475.2-.978.471a9.861,9.861,0,0,0-1.091.682,5.173,5.173,0,0,0-1.151,1.16,2.912,2.912,0,0,0-.551,1.347,1.753,1.753,0,0,0,.355,1.3,1.641,1.641,0,0,0,1.233.722,4.474,4.474,0,0,0,1.635-.226q.891-.279,1.86-.617a10.734,10.734,0,0,1,1.958-.482,4.056,4.056,0,0,1,1.893.151,3.488,3.488,0,0,1,1.673,1.339,3.745,3.745,0,0,1,.824,2.376,4.325,4.325,0,0,1-.782,2.29,7.909,7.909,0,0,1-1.873,1.927,13.405,13.405,0,0,1-1.837,1.114,18.249,18.249,0,0,1-2.29.964ZM-6167.471,1389.108Zm26.751-26.279-6.422-5.843-1.752,1.205-1.082-.985,2.681-3.233,1.984,1.338a8,8,0,0,1,.265-2.986,6.206,6.206,0,0,1,1.313-2.429,3.93,3.93,0,0,1,2.624-1.324,4.05,4.05,0,0,1,3.1,1.272,3.986,3.986,0,0,1,1.383,2.191,3.764,3.764,0,0,1-.35,2.293,9.831,9.831,0,0,1-1.684,2.424l-2.1,2.308,1.532,1.394a2.543,2.543,0,0,0,2.021.834,3.139,3.139,0,0,0,1.854-1.114,7.854,7.854,0,0,0,.873-1.165,10.575,10.575,0,0,0,.629-1.174l-1.436-1.67,1.227-1.349,2.865,2.31a27.286,27.286,0,0,1-1.512,2.824,14.659,14.659,0,0,1-1.578,2.127,5.663,5.663,0,0,1-3.183,1.977,3.037,3.037,0,0,1-.481.038A4.154,4.154,0,0,1-6140.72,1362.829ZM-6141.864,1358.055Zm-.2-.185,1.8-1.978a4.184,4.184,0,0,0,1.282-2.231,1.991,1.991,0,0,0-.759-1.625,2.356,2.356,0,0,0-1.687-.751,2.013,2.013,0,0,0-1.406.7,4.176,4.176,0,0,0-.891,1.819,9.492,9.492,0,0,0-.273,2.308Zm-311.248-9,3.9-3.121,1.051,1.316-1.957,2.236,2.432,3.042,11.915-9.532-1.222-2.382,1.142-.914,5.037,6.3-1.144.915-2.053-1.72-11.917,9.533,2.428,3.036,2.616-1.414,1.052,1.314-3.9,3.121Zm330.139-22.488-1.48,1.532-1.259-.743,1.966-3.714,1.919.749a9.477,9.477,0,0,1-.2-2.7,5.777,5.777,0,0,1,.771-2.476,4.872,4.872,0,0,1,2.145-1.974,5.532,5.532,0,0,1,3.129-.412,10.162,10.162,0,0,1,3.816,1.437q3.376,1.989,4.054,4.7a7.54,7.54,0,0,1-1.117,5.751,11.082,11.082,0,0,1-.806,1.176q-.292.372-.625.738l3.9,2.3,1.573-1.605,1.261.746-2.347,4.352Zm10.482,2.98a9.5,9.5,0,0,0,1.564-1.93,4.049,4.049,0,0,0,.461-3.686,6.537,6.537,0,0,0-2.95-3.07,8.555,8.555,0,0,0-2.776-1.109,4.279,4.279,0,0,0-2.287.124,2.886,2.886,0,0,0-1.517,1.269,4.127,4.127,0,0,0-.527,1.821,7.56,7.56,0,0,0,.124,1.915Zm-7.81-4.192Zm-344.629-5.178a6.893,6.893,0,0,1-2.519-2.819,6.011,6.011,0,0,1-.772-3.313,5,5,0,0,1,1.157-2.736,8.318,8.318,0,0,1,2.65-2.059c.213-.109.432-.21.651-.3s.48-.194.775-.3l4.46,8.684a7.967,7.967,0,0,0,1.988-1.537,4.2,4.2,0,0,0,1.095-2.161,3.843,3.843,0,0,0-.453-2.42,6.949,6.949,0,0,0-1.334-1.751,11.351,11.351,0,0,0-2.134-1.621l.909-1.552a12.207,12.207,0,0,1,2.854,2.056,9.784,9.784,0,0,1,1.875,2.5,6.571,6.571,0,0,1,.783,3.368,5.7,5.7,0,0,1-1.176,3.148,8.951,8.951,0,0,1-3.2,2.56,9.609,9.609,0,0,1-4.106,1.161l-.206,0A6.218,6.218,0,0,1-6465.133,1319.99Zm-.07-7.118a3.067,3.067,0,0,0-.873,1.6,3,3,0,0,0,.368,1.953,3.265,3.265,0,0,0,1.611,1.593,4.129,4.129,0,0,0,2.285.254,7.485,7.485,0,0,0,1.349-.337l-3.174-6.176A6.086,6.086,0,0,0-6465.2,1312.872Zm-16.4-31.626a14.575,14.575,0,0,1-.953-2.469,5.649,5.649,0,0,1,.021-3.746,3.881,3.881,0,0,1,2.772-2.1l8.369-2.313-.087-2.124,1.411-.391,1.3,3.992-2.191.965a8,8,0,0,1,2.386,1.815,6.168,6.168,0,0,1,1.354,2.406,3.928,3.928,0,0,1-.28,2.927,4.057,4.057,0,0,1-2.729,1.943,4.023,4.023,0,0,1-2.591,0,3.778,3.778,0,0,1-1.751-1.521,9.864,9.864,0,0,1-1.153-2.717l-.833-3.007-1.995.552a2.532,2.532,0,0,0-1.784,1.266,3.144,3.144,0,0,0-.049,2.161,8.1,8.1,0,0,0,.521,1.36,10.931,10.931,0,0,0,.657,1.155l2.182-.323.483,1.759-3.48,1.191A27.651,27.651,0,0,1-6481.607,1281.246Zm7.468-4.225a4.172,4.172,0,0,0,1.2,2.272,1.994,1.994,0,0,0,1.782.225,2.361,2.361,0,0,0,1.534-1.026,2.005,2.005,0,0,0,.156-1.562,4.2,4.2,0,0,0-1.065-1.723,9.319,9.319,0,0,0-1.805-1.463l-2.516.7Zm386.877-11.431.705-3.8-8.579-1.591a2.662,2.662,0,0,0-1.731.112,1.519,1.519,0,0,0-.746,1.139,4.02,4.02,0,0,0-.041,1.046,8.1,8.1,0,0,0,.223,1.292l-1.647.256a8.317,8.317,0,0,1-.4-4.061,3.116,3.116,0,0,1,1.415-2.251,4.319,4.319,0,0,1,3.047-.319l8.958,1.666.432-2.335,1.468.272-.022,2.412,3.17.588-.042,2.8-3.663-.681-.723,3.882Zm-402.025-25.562,2.225-.381a8.721,8.721,0,0,1-1.834-2.464,7.109,7.109,0,0,1-.767-2.831,3.977,3.977,0,0,1,.58-2.287,3.588,3.588,0,0,1,1.764-1.424,9.206,9.206,0,0,1-1.884-2.481,6.875,6.875,0,0,1-.793-2.831,3.909,3.909,0,0,1,1.026-2.881,4.622,4.622,0,0,1,3.406-1.287l8.375-.31.406-2.061,1.459-.052.249,6.676-1.462.054-.532-1.859-7.761.287a3.462,3.462,0,0,0-2.319.749,2.2,2.2,0,0,0-.677,1.764,4.553,4.553,0,0,0,.61,1.966,7.568,7.568,0,0,0,1.429,1.846l.075-.008c.137-.013.271-.023.4-.028l8.464-.312.4-1.867,1.464-.055.241,6.484-1.464.055-.533-1.859-7.757.287a3.413,3.413,0,0,0-2.321.762,2.233,2.233,0,0,0-.681,1.751,4.667,4.667,0,0,0,.584,1.968,7.561,7.561,0,0,0,1.442,1.881l8.98-.331.381-1.893,1.461-.055.248,6.678-1.462.052-.563-2.024-10.638.394-.414,2.061-1.461.052Zm388.1-11.763a10.729,10.729,0,0,1-1.306-5.668,10.255,10.255,0,0,1,.845-4.927,2.933,2.933,0,0,1,2.665-1.673,3.241,3.241,0,0,1,2.266.834,6.079,6.079,0,0,1,1.263,1.656,2.143,2.143,0,0,1,.272-.605,1.186,1.186,0,0,1,1.026-.554,1.56,1.56,0,0,1,.456.06,6.588,6.588,0,0,1,.653.238c.278.116.638.28,1.086.494.369.178.826.4,1.375.661a4.534,4.534,0,0,1,1.6-1.7,5.087,5.087,0,0,1,2.626-.7,4.87,4.87,0,0,1,3.906,1.578,6.7,6.7,0,0,1,1.492,4.518,8.1,8.1,0,0,1-.484,3.082l.242,4.073-1.625.054-.414-1.966a3.541,3.541,0,0,1-.977.552,4.974,4.974,0,0,1-1.72.3,4.844,4.844,0,0,1-3.934-1.621,6.7,6.7,0,0,1-1.494-4.448,8.572,8.572,0,0,1,.26-2.3l-2.652-.452.079,4.807a6.748,6.748,0,0,1-.983,4.116,3.535,3.535,0,0,1-2.986,1.443h-.087A3.905,3.905,0,0,1-6101.183,1228.265Zm2.795-9.848a1.679,1.679,0,0,0-1.555,1.088,7.81,7.81,0,0,0-.471,3.306,7.922,7.922,0,0,0,.665,3.552,1.953,1.953,0,0,0,1.839,1.1,1.834,1.834,0,0,0,1.617-.855,4.45,4.45,0,0,0,.511-2.464l-.065-4.062a3.228,3.228,0,0,0-2.508-1.667Zm12.161.741a3.34,3.34,0,0,0-2.427.87,3.206,3.206,0,0,0-.8,2.414,3.473,3.473,0,0,0,.91,2.51,3.321,3.321,0,0,0,2.512.858,3.212,3.212,0,0,0,2.417-.881,3.411,3.411,0,0,0,.761-2.456,3.449,3.449,0,0,0-.883-2.484,3.247,3.247,0,0,0-2.4-.831Zm-387.729-25.942a1.556,1.556,0,0,1-1.123-.713,1.705,1.705,0,0,1-.25-1.235,1.708,1.708,0,0,1,.663-1.16,1.668,1.668,0,0,1,1.289-.239,1.567,1.567,0,0,1,1.124.713,1.758,1.758,0,0,1,.246,1.261,1.667,1.667,0,0,1-.661,1.134,1.538,1.538,0,0,1-.906.274A2.219,2.219,0,0,1-6473.957,1193.217Zm374.822-5.639a9.762,9.762,0,0,1-1.158-2.9,6.571,6.571,0,0,1,.124-3.456,5.74,5.74,0,0,1,1.956-2.733,8.972,8.972,0,0,1,3.759-1.635,9.577,9.577,0,0,1,4.266-.051,6.245,6.245,0,0,1,3.146,1.784,6.9,6.9,0,0,1,1.7,3.378,5.982,5.982,0,0,1-.122,3.4,4.987,4.987,0,0,1-1.829,2.339,8.312,8.312,0,0,1-3.095,1.3c-.236.049-.472.09-.71.124s-.513.062-.826.091l-2.04-9.548a7.974,7.974,0,0,0-2.32.966,4.165,4.165,0,0,0-1.619,1.8,3.859,3.859,0,0,0-.2,2.456,7.021,7.021,0,0,0,.833,2.039,11.2,11.2,0,0,0,1.639,2.119l-1.284,1.261A12.131,12.131,0,0,1-6099.134,1187.578Zm8.5-1.432a6.169,6.169,0,0,0,1.807-.669,3.069,3.069,0,0,0,1.257-1.314,2.989,2.989,0,0,0,.155-1.979,3.281,3.281,0,0,0-1.139-1.961,4.157,4.157,0,0,0-2.142-.84,7.42,7.42,0,0,0-1.389-.028Zm-375.04-28.289q-1.412-4.063-2.544-6.808a21.69,21.69,0,0,0-2.272-4.326,6.016,6.016,0,0,0-2.551-2.16,2.787,2.787,0,0,0-2.655.08,4.567,4.567,0,0,0-1.749,2.238,8.743,8.743,0,0,0-.461,1.6q-.149.769-.231,1.608l2.495,1.433-.648,1.585-4.3-1.454a27.362,27.362,0,0,1,.484-3.231,16.37,16.37,0,0,1,.831-2.762,9.651,9.651,0,0,1,1.708-2.837,4.718,4.718,0,0,1,2.346-1.471,4.6,4.6,0,0,1,2.946.306,7.768,7.768,0,0,1,3.139,2.428,20.579,20.579,0,0,1,2.552,4.411q1.123,2.534,2.422,6.009l3.5-8.584,2.1.857-4.893,11.986Zm353.837-9.892,1.35-.567,1.239,1.693,9.835-4.132-.36-2.063,1.349-.567,2.013,4.364-11.76,4.942.349,2.1-1.352.567Zm18.239-2.738a1.828,1.828,0,0,1-.906-.982,1.7,1.7,0,0,1-.042-1.314,1.757,1.757,0,0,1,1.033-.959,1.728,1.728,0,0,1,1.427-.06,1.766,1.766,0,0,1,.9.969,1.762,1.762,0,0,1,.068,1.334,1.765,1.765,0,0,1-1.047.964,2.126,2.126,0,0,1-.82.184A1.411,1.411,0,0,1-6093.6,1145.228Zm-350.689-21.407a3.269,3.269,0,0,0-.725-.79.929.929,0,0,0-.61-.145,5.137,5.137,0,0,1-.717.016,1.685,1.685,0,0,1-.824-.3,1.516,1.516,0,0,1-.756-1.124,1.805,1.805,0,0,1,.262-1.225,1.731,1.731,0,0,1,.593-.57,1.462,1.462,0,0,1,.846-.2,2.14,2.14,0,0,1,1.033.383,6.25,6.25,0,0,1,1.638,1.819,12.005,12.005,0,0,1,1.482,3.652l-1.181.459A11.455,11.455,0,0,0-6444.287,1123.821Zm316.931-4.113,7.833-9.185-11.524,3.816-1.706-2.479,8.632-10.062-.62-1.479,1.205-.827,3.649,4.963-1.206.829-1.458-1.415-7.122,8,11.855-4.114,1.78,2.3-8.395,9.627,10.1-3.648-.789-1.72,1.207-.828,3.365,4.552-1.2.831-1.186-1.019-12.713,4.342Zm-302.9-22.652a11.836,11.836,0,0,0,2.24-1.106,8.766,8.766,0,0,0,1.735-1.419,4.984,4.984,0,0,0,1.189-1.985,3.6,3.6,0,0,0,.026-2.033,3.979,3.979,0,0,0-1.187-1.842,3,3,0,0,0-2.1-.94,4.214,4.214,0,0,0-2.313.881,18.007,18.007,0,0,0-2.745,2.481l-1.262,1.352-6.887-6.943,6.983-7.494,1.6,1.526-5.078,5.453,3.827,3.911.584-.627a12.368,12.368,0,0,1,3.5-2.792,5.029,5.029,0,0,1,3.1-.531,5.5,5.5,0,0,1,2.768,1.485,6.326,6.326,0,0,1,1.893,2.971,5.622,5.622,0,0,1-.09,3.256,8.273,8.273,0,0,1-1.883,3.093,13.547,13.547,0,0,1-4.945,3.282Zm251.306-29.587.813-1.217,1.865.684,4.309-6.453a3.3,3.3,0,0,0,.707-2.35,2.527,2.527,0,0,0-1.171-1.679,4.854,4.854,0,0,0-1.971-.7,7.443,7.443,0,0,0-2.38.06l-4.988,7.472,1.354,1.452-.811,1.217-5.6-3.74.813-1.217,1.968.728,5.912-8.856-1.428-1.541.814-1.217,3.6,2.168-1,2.034a8.938,8.938,0,0,1,3.1-.034,7.082,7.082,0,0,1,2.746,1.036,4.325,4.325,0,0,1,1.919,2.642,4.511,4.511,0,0,1-.958,3.575l-4.622,6.927,1.431,1.533-.813,1.217Zm-195.233-12.367,2.108-1.645-6.812-13.657-3.478,1.735.831,2.855-1.505.751-2.231-4.469,13.439-6.7,2.231,4.471-1.508.752-1.774-2.384-3.485,1.737,6.811,13.654,2.583-.694.657,1.31-7.216,3.6Zm161.761-6.056a9.782,9.782,0,0,1-3.052-.65,6.557,6.557,0,0,1-2.808-2.02,5.747,5.747,0,0,1-1.186-3.145,8.964,8.964,0,0,1,.728-4.034,9.584,9.584,0,0,1,2.326-3.575,6.27,6.27,0,0,1,3.23-1.629,6.9,6.9,0,0,1,3.751.466,5.974,5.974,0,0,1,2.761,1.99,4.98,4.98,0,0,1,.93,2.819,8.289,8.289,0,0,1-.642,3.293c-.088.223-.184.443-.292.658s-.233.461-.383.74l-9.072-3.606a7.982,7.982,0,0,0-.486,2.464,4.209,4.209,0,0,0,.6,2.349,3.868,3.868,0,0,0,1.934,1.526,6.909,6.909,0,0,0,2.157.44,11.189,11.189,0,0,0,2.674-.186l.337,1.769a12.582,12.582,0,0,1-2.87.349Q-6212.107,1049.066-6212.421,1049.047Zm3.531-7.866a6.1,6.1,0,0,0,.443-1.873,3.036,3.036,0,0,0-.394-1.775,2.985,2.985,0,0,0-1.559-1.23,3.278,3.278,0,0,0-2.262-.142,4.138,4.138,0,0,0-1.888,1.314,7.457,7.457,0,0,0-.795,1.139Zm-130.574-.34a7.771,7.771,0,0,1-3.036-4.779,9.854,9.854,0,0,1-.284-4.3,6.153,6.153,0,0,1,1.613-3.24,7.1,7.1,0,0,1,3.4-1.888,6.292,6.292,0,0,1,5.189.609,7.716,7.716,0,0,1,3.1,4.79,9.36,9.36,0,0,1,.234,4.222,6.385,6.385,0,0,1-1.66,3.269,7.228,7.228,0,0,1-3.448,1.914,7.963,7.963,0,0,1-2.036.284A5.507,5.507,0,0,1-6339.464,1040.841Zm2.075-12.218a3.362,3.362,0,0,0-2.492,2.189,7.554,7.554,0,0,0,.12,4.381,6.98,6.98,0,0,0,1.978,3.689,3.256,3.256,0,0,0,3.064.572,3.682,3.682,0,0,0,2.006-1.218,4,4,0,0,0,.808-2.226,9.239,9.239,0,0,0-.349-3.093,6.951,6.951,0,0,0-2.012-3.707,3.154,3.154,0,0,0-2.046-.735A4.218,4.218,0,0,0-6337.39,1028.623Zm85.322,9.074.243-1.443,1.984-.139,1.288-7.653a3.3,3.3,0,0,0-.316-2.432,2.53,2.53,0,0,0-1.756-1.052,4.781,4.781,0,0,0-2.085.168,7.427,7.427,0,0,0-2.149,1.028l-1.491,8.857,1.83.768-.243,1.443-6.643-1.119.245-1.443,2.093-.141,1.77-10.5-1.933-.819.243-1.443,4.171.5-.078,2.264a8.984,8.984,0,0,1,2.811-1.3,7.105,7.105,0,0,1,2.929-.179,4.332,4.332,0,0,1,2.834,1.627,4.506,4.506,0,0,1,.588,3.653l-1.385,8.21,1.936.814-.243,1.443Zm-50.308-3.8,2.015-.583-.5-10.637-2.062-.39-.07-1.461,4.181-.391.408,2.228a9,9,0,0,1,2.472-1.866,7.085,7.085,0,0,1,2.823-.795,4.32,4.32,0,0,1,3.114.985,4.509,4.509,0,0,1,1.35,3.447l.392,8.316,2.065.385.07,1.461-6.73.318-.067-1.463,1.906-.556-.365-7.752a3.285,3.285,0,0,0-.828-2.31,2.529,2.529,0,0,0-1.938-.656,4.827,4.827,0,0,0-2,.606,7.48,7.48,0,0,0-1.881,1.464l.422,8.971,1.954.362.068,1.463-6.729.316Z" transform="translate(6490.5 -1019.5)" fill="#e10086" stroke="rgba(0,0,0,0)" stroke-miterlimit="10" stroke-width="1"/>
</svg>
