<svg xmlns="http://www.w3.org/2000/svg" width="112.496" height="96.033" viewBox="0 0 112.496 96.033">
  <g id="icon_location" transform="translate(-3.5 -1.5)">
    <path id="Pfad_39356" data-name="Pfad 39356" d="M105.021,1.5H14.475A10.975,10.975,0,0,0,3.5,12.475V86.558A10.975,10.975,0,0,0,14.475,97.533h90.545A10.975,10.975,0,0,0,116,86.558V12.475A10.975,10.975,0,0,0,105.021,1.5Zm-2.744,10.975a2.744,2.744,0,0,1,2.744,2.744v1.043a2.744,2.744,0,0,1-1.207,2.3L62.547,46a2.854,2.854,0,0,1-3.018,0l-43.9-27.438a2.744,2.744,0,0,1-1.262-2.3V15.219a2.744,2.744,0,0,1,2.854-2.744ZM17.219,86.558a2.744,2.744,0,0,1-2.744-2.744V35.633A2.8,2.8,0,0,1,15.9,33.218a2.689,2.689,0,0,1,2.8,0L58.211,58.132a5.049,5.049,0,0,0,2.908.988,5.488,5.488,0,0,0,3.018-.933l36.6-24.42a2.744,2.744,0,0,1,4.28,2.3V83.814a2.8,2.8,0,0,1-2.744,2.744Z" fill="#fff"/>
  </g>
</svg>
