<svg xmlns="http://www.w3.org/2000/svg" width="116" height="119.653" viewBox="0 0 116 119.653">
  <g id="icon_instagram" transform="translate(-0.001)">
    <g id="Gruppe_9258" data-name="Gruppe 9258" transform="translate(0.001)">
      <path id="Pfad_39459" data-name="Pfad 39459" d="M0,88.146V31.481A11.519,11.519,0,0,0,.439,30C2.69,13.556,14.938,2.664,30.953,0H84.988c17.442,2.973,30.708,16.08,30.846,34.148q.338,25.565.009,51.137a34.427,34.427,0,0,1-34.2,34.277q-23.728.191-47.461,0A34.305,34.305,0,0,1,2.241,96.975,87.481,87.481,0,0,1,0,88.146M104.94,59.8c0-8.564.052-17.128-.013-25.691A23.465,23.465,0,0,0,81.613,11.02q-23.591-.033-47.182,0A23.366,23.366,0,0,0,11.01,34.242q-.138,25.56,0,51.121A23.4,23.4,0,0,0,34.434,108.6q23.461.049,46.919,0a23.476,23.476,0,0,0,23.583-23.637c.037-8.389.007-16.778,0-25.167" transform="translate(-0.001)" fill="#fff"/>
      <path id="Pfad_39462" data-name="Pfad 39462" d="M82.027,116.393A31.159,31.159,0,0,1,50.776,85.121c.875-41.483,62.31-41.617,62.422-.7-.013,17.83-13.779,31.949-31.171,31.973m20.23-32.017c.007-12.179-7.9-19.629-20.836-19.632-26.523,1.1-25.948,39.968.538,40.869,11.314.025,20.29-9.367,20.3-21.237" transform="translate(-24.018 -25.482)" fill="#fff"/>
      <path id="Pfad_39463" data-name="Pfad 39463" d="M170.775,47.624a5.294,5.294,0,0,1-5.538,5.308c-7.027-.359-6.718-10.768.248-10.93a5.465,5.465,0,0,1,5.289,5.621" transform="translate(-75.736 -19.868)" fill="#fff"/>
    </g>
  </g>
</svg>
