<svg id="K_Red_" xmlns="http://www.w3.org/2000/svg" xmlns:xlink="http://www.w3.org/1999/xlink" width="336" height="336" viewBox="0 0 336 336">
  <defs>
    <clipPath id="clip-path">
      <rect id="Rechteck_1225" data-name="Rechteck 1225" width="304.567" height="304.567" fill="#fff"/>
    </clipPath>
  </defs>
  <path id="Pfad_39364" data-name="Pfad 39364" d="M168,0A168,168,0,1,1,0,168,168,168,0,0,1,168,0Z" fill="#e16947"/>
  <g id="Gruppe_9173" data-name="Gruppe 9173" transform="translate(15.717 15.866)">
    <g id="Gruppe_9172" data-name="Gruppe 9172" clip-path="url(#clip-path)">
      <path id="Pfad_39382" data-name="Pfad 39382" d="M27.934,33.875c1.769-1.591,3.756-2.358,5.593-.844a4.03,4.03,0,0,1,1.319,4.044,9.674,9.674,0,0,1-2.229,4.2L29.275,45.33l-.511-.422c1.189-1.67,1.169-1.87-.372-3.14L21,35.678c-1.524-1.256-1.7-1.274-3.015.1l-.513-.424,3.885-4.715A5.955,5.955,0,0,1,24.245,28.4a3.235,3.235,0,0,1,2.94.7c1.743,1.434,1.262,3.475.691,4.729ZM26,35.767c1.662-2.019,1.551-3.527.01-4.8a2.849,2.849,0,0,0-4.359.505,3.042,3.042,0,0,0-.68,1.2c-.026.256.117.5.721.995l3.6,2.962Zm3.64,4.444c1.321,1.09,1.955,1.028,2.924-.147,1.22-1.52,1.553-3.495-.355-5.066-1.89-1.557-3.774-.953-5.619,1.286l-.7.844Z" transform="translate(17.141 27.759)" fill="#fff"/>
      <path id="Pfad_39383" data-name="Pfad 39383" d="M35.176,29.988a5.405,5.405,0,0,1-1.088,4.377c-2.055,2.078-4.949,1.623-6.859-.267a6.126,6.126,0,0,1-1.854-4.04,4.827,4.827,0,0,1,1.224-3.7,3.68,3.68,0,0,1,5.076.006c.339.335.39.553.157.925-.234.335-2.156,2.615-4.075,4.694,2.316,2.257,4.565,1.874,5.736.691a3.882,3.882,0,0,0,1.06-2.762Zm-8.03,1.218c.937-.947,1.841-1.892,2.774-2.906.3-.3.3-.505.065-.739a2.184,2.184,0,0,0-3.162-.186c-.769.779-.794,2.223.323,3.832" transform="translate(24.887 24.864)" fill="#fff"/>
      <path id="Pfad_39384" data-name="Pfad 39384" d="M31.94,25.763c-.248-1.363-.359-3.039.5-3.792a1.322,1.322,0,0,1,1.821-.018,1.338,1.338,0,0,1,.2,1.377c-.137.279-.313.4-.513.39A1.282,1.282,0,0,0,32.863,24c-.466.408-.565,1.448-.079,2.794l2.871,3.269c1.034,1.181,1.218,1.207,2.689.107l.408.464-4.109,3.61-.408-.464c1.014-1.082,1.046-1.3.01-2.477l-3.249-3.7c-1.034-1.179-1.187-1.173-2.33-.42l-.347-.392a13.394,13.394,0,0,0,1.876-2.946l1.71,1.948Z" transform="translate(27.786 21.194)" fill="#fff"/>
      <path id="Pfad_39385" data-name="Pfad 39385" d="M42.282,24.5a5.405,5.405,0,0,1-1.672,4.186c-2.322,1.777-5.125.929-6.756-1.2a6.119,6.119,0,0,1-1.286-4.256,4.819,4.819,0,0,1,1.72-3.5,3.68,3.68,0,0,1,5.026.7c.287.376.309.6.028.935-.277.3-2.492,2.3-4.678,4.093,1.983,2.552,4.264,2.48,5.583,1.47a3.889,3.889,0,0,0,1.43-2.591Zm-8.117.111c1.056-.808,2.08-1.623,3.146-2.5.339-.262.365-.46.162-.723a2.179,2.179,0,0,0-3.1-.616c-.868.664-1.09,2.092-.2,3.838" transform="translate(31.936 18.677)" fill="#fff"/>
      <path id="Pfad_39386" data-name="Pfad 39386" d="M35.295,17.012a1.226,1.226,0,0,1,.313-1.7,1.189,1.189,0,0,1,1.678.361,1.218,1.218,0,0,1-.327,1.684,1.249,1.249,0,0,1-1.664-.341m6.764,12.276-.347-.513c1.163-.955,1.22-1.169.315-2.506l-2.738-4.062c-.824-1.222-.937-1.262-2.253-.66l-.319-.474A15,15,0,0,0,39,18.416l4.59,6.8c.905,1.341,1.121,1.367,2.463.634l.345.511Z" transform="translate(34.42 14.818)" fill="#fff"/>
      <path id="Pfad_39387" data-name="Pfad 39387" d="M47.718,24.757a2.427,2.427,0,0,1-.7.785c-1.278.775-2.482.394-3.457-1.211l-3.588-5.912-1.4.85-.2-.153.19-.923.935-.567-.9-1.484L39.1,14l.309-.131,1.69,2.782L43.4,15.259a.678.678,0,0,1,.361.868l-2.175,1.319,3.172,5.219c1,1.646,1.852,1.545,2.362,1.236a3.411,3.411,0,0,0,1.05-1.109l.5.416Z" transform="translate(37.65 13.61)" fill="#fff"/>
      <path id="Pfad_39388" data-name="Pfad 39388" d="M45.519,16.51l-.23-.47a6.686,6.686,0,0,1-.62-1.868,5.737,5.737,0,0,1,.426-3.3,4.843,4.843,0,0,1,1.787-2.3,2.574,2.574,0,0,1,2.045-.1.779.779,0,0,1,.472.7,1.353,1.353,0,0,1-.157.711.422.422,0,0,1-.608.218,2.973,2.973,0,0,0-2.116.053,1.372,1.372,0,0,0-.82,1.195,7.287,7.287,0,0,0,1.094,3.487l.418.856,2.52-1.23a.824.824,0,0,1,.194.939L47.615,16.52l3,6.154c.773,1.583.955,1.573,2.726.921l.26.535-5.044,2.461-.271-.555c1.308-.8,1.4-.977.715-2.387l-3.077-6.3-1.5.729-.19-.172.275-.9Z" transform="translate(43.408 8.146)" fill="#fff"/>
      <path id="Pfad_39389" data-name="Pfad 39389" d="M61.984,19.5a26.807,26.807,0,0,0-2.926,2.086l-.184-.079-.624-1.567c-.359.579-.709,1.179-1.177,1.8a3.4,3.4,0,0,1-1.478,1.23c-1.48.588-3.1.184-4.048-2.2l-1.726-4.323c-.483-1.216-.606-1.268-1.961-1.008l-.2-.509a28.439,28.439,0,0,0,3-1.654c.206.709.62,1.747,1.218,3.249l1.179,2.956c.783,1.963,1.942,2.116,2.936,1.72a3.69,3.69,0,0,0,1.959-2.011L55.9,14.052c-.5-1.258-.67-1.3-2.346-.882l-.2-.509a25.1,25.1,0,0,0,3.307-1.777l2.936,7.372c.442,1.1.68,1.187,1.535.9l.636-.2ZM48.391,10.547a1.17,1.17,0,0,1,.64-1.533,1.166,1.166,0,0,1,.84,2.171,1.173,1.173,0,0,1-1.48-.638M52.12,9.061a1.129,1.129,0,1,1,1.46.646,1.156,1.156,0,0,1-1.46-.646" transform="translate(46.763 7.318)" fill="#fff"/>
      <path id="Pfad_39390" data-name="Pfad 39390" d="M57.715,10.908c.327-1.347.907-2.922,2-3.261a1.321,1.321,0,0,1,1.668.729A1.329,1.329,0,0,1,61,9.711a.545.545,0,0,1-.626.147,1.272,1.272,0,0,0-1.1-.18c-.59.182-1.106,1.09-1.211,2.514l1.288,4.155c.468,1.5.622,1.6,2.411,1.195l.184.59-5.221,1.621-.184-.59c1.365-.575,1.482-.761,1.016-2.259L56.1,12.2c-.468-1.5-.608-1.553-1.959-1.335l-.155-.5A13.455,13.455,0,0,0,56.9,8.447l.769,2.475Z" transform="translate(52.972 7.436)" fill="#fff"/>
      <path id="Pfad_39391" data-name="Pfad 39391" d="M70.606,13.9a5.4,5.4,0,0,1-3.368,3c-2.869.553-5-1.454-5.51-4.091a6.127,6.127,0,0,1,.753-4.382,4.831,4.831,0,0,1,3.1-2.368A3.687,3.687,0,0,1,69.77,8.933c.087.47.006.678-.394.852-.382.147-3.255.943-6.015,1.573.636,3.17,2.708,4.125,4.343,3.81a3.883,3.883,0,0,0,2.435-1.682Zm-7.313-3.527c1.306-.252,2.585-.523,3.929-.83.42-.081.535-.248.472-.575a2.182,2.182,0,0,0-2.5-1.938c-1.074.206-1.912,1.385-1.9,3.342" transform="translate(60.452 5.89)" fill="#fff"/>
      <path id="Pfad_39392" data-name="Pfad 39392" d="M67.5,18.552l-.079-.612c1.466-.335,1.615-.5,1.4-2.1l-.634-4.858c-.192-1.46-.275-1.545-1.72-1.6l-.073-.565A14.98,14.98,0,0,0,69.619,7.46l1.066,8.135c.208,1.6.392,1.724,1.92,1.668l.079.614Zm-.561-14a1.224,1.224,0,0,1,1.042-1.383,1.187,1.187,0,0,1,1.339,1.072A1.218,1.218,0,0,1,68.274,5.6a1.248,1.248,0,0,1-1.337-1.048" transform="translate(65.147 3.096)" fill="#fff"/>
      <path id="Pfad_39393" data-name="Pfad 39393" d="M76.891,15.586l-.038-.618c1.393-.224,1.547-.422,1.452-2.062l-.232-3.962c-.1-1.636-.729-2.671-2.318-2.578a4.262,4.262,0,0,0-2.518,1.361l.327,5.579c.1,1.613.244,1.7,1.652,1.759l.036.616-5.149.3-.036-.616c1.6-.26,1.716-.386,1.623-1.953L71.4,8.5c-.087-1.52-.236-1.581-1.531-1.743l-.032-.545a14.375,14.375,0,0,0,3.241-1.167l.113,1.9c.452-.384.953-.771,1.524-1.209a3.663,3.663,0,0,1,1.928-.828c1.874-.109,3.138,1.127,3.273,3.429l.267,4.579c.1,1.615.22,1.7,1.6,1.763l.036.618Z" transform="translate(68.528 4.809)" fill="#fff"/>
      <path id="Pfad_39394" data-name="Pfad 39394" d="M84.9,13.587A5.4,5.4,0,0,1,80.968,15.8c-2.922-.071-4.575-2.488-4.511-5.173A6.12,6.12,0,0,1,78.127,6.5a4.827,4.827,0,0,1,3.534-1.65,3.684,3.684,0,0,1,3.477,3.7c-.012.477-.137.664-.567.749-.406.061-3.382.228-6.211.254-.055,3.231,1.765,4.606,3.429,4.648a3.879,3.879,0,0,0,2.738-1.121Zm-6.393-5c1.331.034,2.637.042,4.016.026.428.012.575-.129.582-.462a2.179,2.179,0,0,0-2.033-2.427c-1.094-.026-2.163.947-2.566,2.863" transform="translate(75.019 4.761)" fill="#fff"/>
      <path id="Pfad_39395" data-name="Pfad 39395" d="M93.323,19.062l.109-.658c1.506.053,1.747-.1,1.591-1.064s-.42-2.308-.7-3.822l-5-.812c-.547.995-1.058,1.924-1.522,2.859-.757,1.395-.584,1.664,1.149,2.112l-.107.658-5.09-.826.105-.658c1.512.03,1.864-.057,3.019-1.989L93.735,3.335l.761-.093c.8,4.27,1.648,8.983,2.486,13.31.422,2.138.693,2.4,2.2,2.788L99.071,20Zm-.26-12.923-.048-.008c-1.078,1.9-2.16,3.816-3.176,5.625l4.315.7Z" transform="translate(82.181 3.181)" fill="#fff"/>
      <path id="Pfad_39396" data-name="Pfad 39396" d="M100.212,16.407a5.666,5.666,0,0,1-4.521,1.329,4.754,4.754,0,0,1-3.352-6.005,5.717,5.717,0,0,1,3.475-3.911,6.276,6.276,0,0,1,3.808-.384,3.546,3.546,0,0,1,1.892,1.129.878.878,0,0,1,.184.81,1.166,1.166,0,0,1-1.018.792c-.113-.032-.21-.131-.37-.369a3.45,3.45,0,0,0-2.055-1.541c-1.52-.394-3.182.523-3.81,2.938-.832,3.2,1.078,4.826,2.366,5.161a3.873,3.873,0,0,0,3.136-.535Z" transform="translate(90.431 7.157)" fill="#fff"/>
      <path id="Pfad_39397" data-name="Pfad 39397" d="M102.468,22.7l.206-.582c1.347.321,1.573.25,2.084-1.209l1.3-3.723c.646-1.841.273-3-1.23-3.531a3.354,3.354,0,0,0-2.734.327l-1.87,5.337c-.5,1.436-.444,1.633.83,2.231l-.2.584L96.1,20.47l.2-.582c1.385.361,1.635.3,2.154-1.185L102.2,8c.5-1.413.489-1.539-.943-2.193l.18-.517a25.845,25.845,0,0,0,3.572.37L102.373,13.2a5.209,5.209,0,0,1,3.782-.513c1.817.638,2.694,2.229,1.751,4.921l-1.375,3.925c-.519,1.48-.41,1.67.874,2.247l-.2.582Z" transform="translate(94.293 5.193)" fill="#fff"/>
      <path id="Pfad_39398" data-name="Pfad 39398" d="M105.338,22.569a2.448,2.448,0,0,1-1.04-.113c-1.375-.594-1.761-1.8-1.016-3.523l2.746-6.35-1.508-.652.008-.256.862-.378,1,.434.689-1.593,2.041-.828.287.174-1.294,2.992,2.467,1.066a.677.677,0,0,1-.5.794l-2.334-1.008-2.425,5.609c-.765,1.769-.186,2.407.361,2.643a3.378,3.378,0,0,0,1.514.212l-.05.654Z" transform="translate(100.976 9.136)" fill="#fff"/>
      <path id="Pfad_39399" data-name="Pfad 39399" d="M112.926,22.314a5.4,5.4,0,0,1-4.5.3c-2.607-1.327-3.053-4.224-1.835-6.617a6.118,6.118,0,0,1,3.289-3,4.829,4.829,0,0,1,3.9.038,3.684,3.684,0,0,1,1.537,4.842c-.216.422-.408.539-.832.428-.392-.119-3.148-1.256-5.714-2.457-1.448,2.895-.4,4.923,1.084,5.678a3.9,3.9,0,0,0,2.958.17Zm-3.606-7.281c1.189.606,2.364,1.177,3.614,1.761.382.192.575.131.725-.164a2.182,2.182,0,0,0-.785-3.069c-.975-.5-2.36-.081-3.554,1.472" transform="translate(103.954 12.368)" fill="#fff"/>
      <path id="Pfad_39400" data-name="Pfad 39400" d="M116.791,17.674c1.222-.652,2.784-1.268,3.762-.68a1.324,1.324,0,0,1,.571,1.73,1.338,1.338,0,0,1-1.252.606c-.307-.046-.477-.176-.527-.372a1.271,1.271,0,0,0-.6-.941c-.529-.317-1.549-.1-2.683.773l-2.241,3.729c-.806,1.345-.781,1.53.715,2.593l-.317.529-4.686-2.813.317-.531c1.337.636,1.553.6,2.36-.745l2.536-4.218c.808-1.345.757-1.488-.309-2.348l.269-.448a13.531,13.531,0,0,0,3.374.89l-1.333,2.221Z" transform="translate(107.479 14.265)" fill="#fff"/>
      <path id="Pfad_39401" data-name="Pfad 39401" d="M122.594,21.845a2.532,2.532,0,0,1,.931.37,4.843,4.843,0,0,1,.931,6.78,5.912,5.912,0,0,1-8.319,1.411,8.308,8.308,0,0,1-2.352-2.718l7.647-10.776c.852-1.2.9-1.345-.262-2.342l.317-.446a19.475,19.475,0,0,0,3.291,1.318l-4.236,5.969Zm-6.013,5.145a1.921,1.921,0,0,0-.353.741,2.237,2.237,0,0,0,.957,2.31c1.607,1.141,3.612.5,5.207-1.753,1.569-2.209,1.119-4.452-.487-5.593a3.962,3.962,0,0,0-1.775-.7Z" transform="translate(111.648 13.859)" fill="#fff"/>
      <path id="Pfad_39402" data-name="Pfad 39402" d="M123.083,32.58a1.919,1.919,0,0,1-.563-1.066,2.481,2.481,0,0,1,.252-1.185c-1.139-.123-2.578-.186-3.124-.646a2.87,2.87,0,0,1-.309-4.056,2.372,2.372,0,0,1,2.99-.557,17.067,17.067,0,0,0,3.812,1.195l.275-.329c1.1-1.308,1.113-2.572.206-3.338a1.34,1.34,0,0,0-1.125-.327,3.438,3.438,0,0,0-1.557.739.657.657,0,0,1-.878-.028,1.159,1.159,0,0,1-.141-1.454c.23-.273.634-.273,1.195-.236a10.612,10.612,0,0,1,3.8,1.026,3.086,3.086,0,0,1,1.076,1.747,3.456,3.456,0,0,1-1.052,2.906l-2.851,3.38c-.689.816-.592,1.365-.283,1.625a1.793,1.793,0,0,0,.822.353l-.216.626Zm2.536-5.7c-.551-.123-1.745-.477-2.278-.618-.985-.269-1.676-.262-2.227.392a1.741,1.741,0,0,0,.107,2.488,3.416,3.416,0,0,0,2.007.571Z" transform="translate(116.416 20.876)" fill="#fff"/>
      <path id="Pfad_39403" data-name="Pfad 39403" d="M126.678,38.035l.438-.438c1.076.876,1.31.909,2.4-.182l2.79-2.792c1.377-1.379,1.545-2.587.42-3.715a3.365,3.365,0,0,0-2.605-.892l-4,4c-1.076,1.076-1.109,1.276-.22,2.37l-.436.438L121.9,33.262l.438-.438c1.092.925,1.343.975,2.455-.133l8.018-8.018c1.058-1.06,1.107-1.177.1-2.387l.386-.388a25.757,25.757,0,0,0,3.061,1.884l-5.648,5.646a5.2,5.2,0,0,1,3.63,1.177c1.363,1.361,1.462,3.178-.555,5.195l-2.94,2.94c-1.109,1.111-1.094,1.329-.184,2.405l-.438.436Z" transform="translate(119.614 21.487)" fill="#fff"/>
      <path id="Pfad_39404" data-name="Pfad 39404" d="M130.714,40.349l.475-.392c1,.991,1.256,1,2.522-.05l3.059-2.528c1.262-1.044,1.724-2.167.709-3.394a4.245,4.245,0,0,0-2.586-1.224l-4.3,3.558c-1.246,1.03-1.23,1.2-.446,2.374l-.475.392-3.289-3.976.477-.392c1.159,1.139,1.325,1.155,2.534.155l3.792-3.134c1.173-.969,1.137-1.123.5-2.265l.42-.349a14.314,14.314,0,0,0,2.857,1.926L135.5,32.261c.579.137,1.187.313,1.876.515a3.626,3.626,0,0,1,1.807,1.066c1.2,1.446.947,3.2-.832,4.664l-3.535,2.924c-1.246,1.03-1.244,1.183-.475,2.336l-.475.394Z" transform="translate(124.008 28.576)" fill="#fff"/>
      <path id="Pfad_39405" data-name="Pfad 39405" d="M139.862,35.556l.428-.3a6.664,6.664,0,0,1,1.74-.917,5.725,5.725,0,0,1,3.328-.123,4.856,4.856,0,0,1,2.564,1.387,2.575,2.575,0,0,1,.43,2,.774.774,0,0,1-.608.579,1.358,1.358,0,0,1-.729-.036.42.42,0,0,1-.313-.565,2.988,2.988,0,0,0-.4-2.08,1.378,1.378,0,0,0-1.312-.614,7.294,7.294,0,0,0-3.263,1.65l-.775.551,1.627,2.288a.821.821,0,0,1-.893.343L140.2,37.624l-5.581,3.97c-1.434,1.02-1.4,1.2-.462,2.837l-.485.345L130.416,40.2l.5-.359c1,1.157,1.193,1.224,2.471.313l5.718-4.065-.965-1.357.139-.214.935.123Z" transform="translate(127.967 33.385)" fill="#fff"/>
      <path id="Pfad_39406" data-name="Pfad 39406" d="M135.674,48.53a1.932,1.932,0,0,1-.2-1.189,2.475,2.475,0,0,1,.61-1.046c-1.046-.472-2.393-.981-2.768-1.589a2.866,2.866,0,0,1,.971-3.949,2.37,2.37,0,0,1,3.011.4,16.837,16.837,0,0,0,3.251,2.324l.363-.224c1.458-.9,1.862-2.1,1.236-3.109a1.337,1.337,0,0,0-.965-.662,3.441,3.441,0,0,0-1.71.218.664.664,0,0,1-.826-.3,1.155,1.155,0,0,1,.319-1.426c.3-.188.687-.061,1.209.147a10.579,10.579,0,0,1,3.287,2.16,3.1,3.1,0,0,1,.479,2,3.453,3.453,0,0,1-1.906,2.431l-3.762,2.324c-.909.561-.989,1.113-.775,1.456a1.777,1.777,0,0,0,.67.59l-.4.527Zm4.184-4.622c-.483-.289-1.508-1-1.971-1.3-.852-.565-1.512-.773-2.239-.323a1.741,1.741,0,0,0-.672,2.4,3.389,3.389,0,0,0,1.728,1.167Z" transform="translate(130.392 37.176)" fill="#fff"/>
      <path id="Pfad_39407" data-name="Pfad 39407" d="M138.1,53.8l.551-.279c.751,1.165.965,1.272,2.344.573l3.523-1.779c1.739-.88,2.278-1.979,1.557-3.4a3.351,3.351,0,0,0-2.2-1.658l-5.05,2.554c-1.357.687-1.452.868-.947,2.185l-.553.279-2.274-4.5.551-.281c.751,1.222.973,1.347,2.374.64L148.1,43.016c1.337-.676,1.422-.773.842-2.237l.487-.248a26.339,26.339,0,0,0,2.322,2.746l-7.132,3.6a5.214,5.214,0,0,1,3.085,2.253c.868,1.72.4,3.475-2.148,4.763l-3.715,1.878c-1.4.709-1.454.921-.925,2.227l-.551.279Z" transform="translate(132.517 39.771)" fill="#fff"/>
      <path id="Pfad_39408" data-name="Pfad 39408" d="M146.8,51.947c1.369.21,2.988.654,3.42,1.71a1.323,1.323,0,0,1-.578,1.726,1.336,1.336,0,0,1-1.367-.264c-.218-.22-.277-.426-.2-.612a1.283,1.283,0,0,0,.085-1.113c-.236-.573-1.181-1.006-2.611-.989l-4.028,1.644c-1.452.59-1.539.755-.981,2.5l-.573.232-2.064-5.06.573-.234c.687,1.312.884,1.411,2.336.818l4.555-1.858c1.454-.594,1.5-.739,1.159-2.064l.485-.2a13.439,13.439,0,0,0,2.167,2.734l-2.4.981Z" transform="translate(135.312 47.284)" fill="#fff"/>
      <path id="Pfad_39409" data-name="Pfad 39409" d="M140.7,60.249a2.416,2.416,0,0,1-.612-.848c-.479-1.419.155-2.51,1.934-3.112l6.554-2.217-.525-1.553.194-.166.858.386.351,1.036,1.644-.557,1.981.963.061.331-3.085,1.042.86,2.546a.674.674,0,0,1-.923.16l-.816-2.409-5.787,1.959c-1.823.616-1.91,1.474-1.72,2.037a3.4,3.4,0,0,0,.856,1.268l-.519.4Z" transform="translate(137.302 51.369)" fill="#fff"/>
      <path id="Pfad_39410" data-name="Pfad 39410" d="M144.165,71.589a24.543,24.543,0,0,0-1.666-3.412l1.512-.327-1.143-1.236a4.142,4.142,0,0,1-1.068-1.668,4.765,4.765,0,0,1,4.016-5.377,6.09,6.09,0,0,1,7.067,4.747,5.488,5.488,0,0,1,.079,1.591l3.279-.713c1.533-.333,1.577-.464,1.329-2.162l.559-.123a22.013,22.013,0,0,0,1.6,3.449l-13.878,3.015c-1.209.263-1.29.45-1.2,1.331l.093.757Zm7.008-5.294a2.957,2.957,0,0,0,.664-2.653c-.232-1.068-1.563-2.825-4.933-2.094-2.768.6-3.747,2.591-3.424,4.079a4,4,0,0,0,1.276,2.06Z" transform="translate(139.06 58.326)" fill="#fff"/>
      <path id="Pfad_39411" data-name="Pfad 39411" d="M145.653,74.566a5.407,5.407,0,0,1-2.79-3.544c-.38-2.9,1.757-4.907,4.422-5.254a6.119,6.119,0,0,1,4.331,1.014,4.835,4.835,0,0,1,2.173,3.243,3.683,3.683,0,0,1-3.122,4.006c-.472.061-.676-.032-.824-.444-.123-.392-.745-3.309-1.207-6.1-3.2.444-4.283,2.455-4.067,4.105a3.884,3.884,0,0,0,1.531,2.532Zm3.966-7.091c.172,1.321.367,2.615.592,3.976.055.426.214.547.545.505a2.183,2.183,0,0,0,2.086-2.383c-.141-1.086-1.268-1.993-3.223-2.1" transform="translate(140.138 64.476)" fill="#fff"/>
      <path id="Pfad_39412" data-name="Pfad 39412" d="M151.642,74.218c1.23.638,2.621,1.577,2.69,2.716a1.322,1.322,0,0,1-1.1,1.45,1.337,1.337,0,0,1-1.211-.689.552.552,0,0,1,.01-.642,1.281,1.281,0,0,0,.438-1.028c-.04-.616-.8-1.333-2.158-1.773l-4.343.264c-1.565.1-1.7.226-1.732,2.06l-.618.038-.333-5.458.618-.036c.232,1.46.384,1.619,1.95,1.522l4.913-.3c1.567-.1,1.654-.222,1.759-1.585l.523-.032a13.464,13.464,0,0,0,1.179,3.287l-2.587.158Z" transform="translate(140.594 69.397)" fill="#fff"/>
      <path id="Pfad_39413" data-name="Pfad 39413" d="M157.655,94.563c.01-1.43-.283-2-1.244-2.189a37.86,37.86,0,0,0-3.832-.4l-1.967-.145c-2.8-.206-4.781-.781-6.124-2.263a5.834,5.834,0,0,1-1.319-4.365,6.181,6.181,0,0,1,1.417-3.709c1.2-1.339,3.023-1.872,5.8-1.666l5.926.436c2.134.158,2.241-.022,2.546-1.884l.664.05-.454,6.138-.664-.048c.02-1.88-.109-2.082-2.243-2.239l-5.4-.4c-3.816-.283-6.108,1.074-6.326,4.012-.254,3.414,2.514,4.69,6.423,4.979l1.8.133a30.366,30.366,0,0,0,3.921.125c.937-.073,1.258-.553,1.5-2.2l.664.052-.416,5.639Z" transform="translate(140.459 76.902)" fill="#fff"/>
      <path id="Pfad_39414" data-name="Pfad 39414" d="M142.807,92.57l.608.111c-.107,1.4.05,1.6,1.664,1.892l3.907.7c1.617.291,2.77-.083,3.051-1.65a4.254,4.254,0,0,0-.735-2.764l-5.5-.987c-1.593-.287-1.712-.162-2.1,1.191l-.608-.107.911-5.08.608.111c-.121,1.621-.026,1.757,1.52,2.035l4.844.872c1.5.267,1.593.141,2.053-1.082l.539.1a14.24,14.24,0,0,0,.374,3.426L152.075,91c.265.531.523,1.11.818,1.765a3.656,3.656,0,0,1,.353,2.068c-.331,1.846-1.829,2.788-4.1,2.379l-4.515-.81c-1.593-.287-1.706-.186-2.09,1.145l-.608-.109Z" transform="translate(139.267 84.264)" fill="#fff"/>
      <path id="Pfad_39415" data-name="Pfad 39415" d="M141.281,95.668a2.373,2.373,0,0,1-.053-1.042c.368-1.452,1.5-2.025,3.315-1.559l6.7,1.706.4-1.591.254-.032.511.791L152.144,95l1.682.428,1.139,1.884-.127.311-3.156-.8-.664,2.6a.678.678,0,0,1-.864-.369l.628-2.465-5.918-1.508c-1.868-.474-2.407.2-2.552.775a3.37,3.37,0,0,0,.026,1.528l-.652.055Z" transform="translate(138.54 91.163)" fill="#fff"/>
      <path id="Pfad_39416" data-name="Pfad 39416" d="M141.15,103.549a5.394,5.394,0,0,1-1-4.4c.9-2.782,3.689-3.677,6.243-2.851a6.125,6.125,0,0,1,3.475,2.772,4.826,4.826,0,0,1,.575,3.859,3.68,3.68,0,0,1-4.533,2.28c-.454-.147-.6-.319-.557-.755.057-.406.745-3.307,1.526-6.027-3.083-.971-4.921.382-5.432,1.965a3.883,3.883,0,0,0,.3,2.944Zm6.617-4.7c-.41,1.266-.789,2.518-1.169,3.842-.131.41-.038.586.277.689a2.181,2.181,0,0,0,2.906-1.258c.337-1.04-.293-2.342-2.015-3.273" transform="translate(137.384 94.204)" fill="#fff"/>
      <path id="Pfad_39417" data-name="Pfad 39417" d="M146.633,106.433c.836,1.107,1.686,2.552,1.262,3.61a1.228,1.228,0,0,1-2.415-.307c0-.309.1-.5.285-.577a1.289,1.289,0,0,0,.836-.739c.232-.573-.149-1.545-1.183-2.528l-4.034-1.627c-1.456-.586-1.632-.529-2.451,1.113l-.573-.23,2.045-5.07.573.232c-.418,1.419-.347,1.627,1.106,2.213l4.565,1.841c1.452.586,1.585.511,2.268-.674l.485.2a13.355,13.355,0,0,0-.351,3.471l-2.4-.967Z" transform="translate(135.763 98.199)" fill="#fff"/>
      <path id="Pfad_39418" data-name="Pfad 39418" d="M137.488,109.9l.553.275c-.487,1.3-.444,1.531.939,2.223l3.533,1.759c1.745.872,2.946.648,3.657-.779a3.36,3.36,0,0,0,.02-2.756l-5.066-2.524c-1.363-.68-1.565-.648-2.318.543l-.553-.273,2.249-4.513.553.275c-.531,1.331-.5,1.587.907,2.286l10.152,5.062c1.341.668,1.468.68,2.3-.662l.489.244a25.664,25.664,0,0,0-.814,3.5L146.934,111a5.2,5.2,0,0,1,.034,3.816c-.858,1.726-2.55,2.4-5.1,1.123l-3.725-1.856c-1.4-.7-1.6-.614-2.338.586l-.553-.273Z" transform="translate(132.709 101.909)" fill="#fff"/>
      <path id="Pfad_39419" data-name="Pfad 39419" d="M132.926,115.287a1.936,1.936,0,0,1,.967-.719,2.449,2.449,0,0,1,1.212.069c-.055-1.147-.214-2.58.158-3.19a2.871,2.871,0,0,1,3.962-.929,2.371,2.371,0,0,1,1.008,2.869,16.871,16.871,0,0,0-.594,3.953l.365.222c1.462.89,2.714.707,3.334-.309a1.329,1.329,0,0,0,.149-1.161,3.456,3.456,0,0,0-.969-1.426.661.661,0,0,1-.109-.872,1.163,1.163,0,0,1,1.419-.363c.3.186.367.584.416,1.143a10.677,10.677,0,0,1-.432,3.915,3.093,3.093,0,0,1-1.563,1.331,3.462,3.462,0,0,1-3.035-.594l-3.776-2.3c-.915-.555-1.444-.376-1.652-.032a1.788,1.788,0,0,0-.224.87l-.652-.121Zm6.023,1.633c.036-.563.2-1.8.26-2.348.115-1.014,0-1.7-.729-2.142a1.741,1.741,0,0,0-2.443.489,3.4,3.4,0,0,0-.258,2.07Z" transform="translate(130.414 108.022)" fill="#fff"/>
      <path id="Pfad_39420" data-name="Pfad 39420" d="M133.89,113.778l.507.355c-.737,1.312-.743,1.567.545,2.465l9.238,6.419c1.327.923,1.468.846,2.421-.315l.468.325a18.541,18.541,0,0,0-1.325,3.364l-11.873-8.252c-1.288-.9-1.514-.82-2.5.347l-.509-.353Z" transform="translate(128.405 111.641)" fill="#fff"/>
      <path id="Pfad_39421" data-name="Pfad 39421" d="M129.38,119.1a2.416,2.416,0,0,1,.365-.981c.911-1.189,2.171-1.27,3.663-.125l5.49,4.214,1-1.3.248.069.155.929-.666.868,1.377,1.058.3,2.179-.24.236-2.584-1.983-1.638,2.132a.677.677,0,0,1-.648-.678l1.551-2.019-4.85-3.723c-1.528-1.171-2.288-.765-2.651-.3a3.424,3.424,0,0,0-.577,1.417l-.62-.208Z" transform="translate(126.633 114.979)" fill="#fff"/>
      <path id="Pfad_39422" data-name="Pfad 39422" d="M124.958,126.984a27,27,0,0,0,1.68-3.182l.2-.012,1.262,1.119c.061-.678.105-1.369.244-2.136a3.391,3.391,0,0,1,.771-1.763c1.058-1.191,2.685-1.557,4.606.149l3.483,3.093c.979.868,1.111.86,2.207.02l.408.363a28.73,28.73,0,0,0-1.938,2.825c-.5-.541-1.337-1.282-2.548-2.356l-2.381-2.116c-1.581-1.4-2.687-1.018-3.4-.218a3.693,3.693,0,0,0-.848,2.679l4.139,3.675c1.014.9,1.181.856,2.494-.265l.408.363a25.42,25.42,0,0,0-2.158,3.075l-5.938-5.27c-.888-.79-1.139-.757-1.773-.113l-.477.466Z" transform="translate(122.611 117.744)" fill="#fff"/>
      <path id="Pfad_39423" data-name="Pfad 39423" d="M123.806,128.2l.422.452c-.927,1.062-.917,1.314.2,2.51l2.714,2.9c1.119,1.2,2.267,1.589,3.428.5a4.247,4.247,0,0,0,1.064-2.655l-3.816-4.077c-1.1-1.181-1.272-1.153-2.393-.3l-.422-.45,3.766-3.525.422.452c-1.066,1.226-1.072,1.393,0,2.538l3.36,3.594c1.038,1.109,1.193,1.064,2.29.361l.374.4a14.392,14.392,0,0,0-1.747,2.968l-1.3-1.387c-.1.584-.242,1.2-.4,1.9a3.637,3.637,0,0,1-.953,1.866c-1.371,1.284-3.132,1.141-4.707-.543l-3.132-3.348c-1.106-1.181-1.256-1.169-2.36-.331l-.422-.452Z" transform="translate(117.939 121.236)" fill="#fff"/>
      <path id="Pfad_39424" data-name="Pfad 39424" d="M122.7,144a3.755,3.755,0,0,1,.1-1.615l1.11-.779a3.2,3.2,0,0,1-1.866-1.226c-1.583-2.021-.662-4.311.929-5.559a10.148,10.148,0,0,1,1.028-.654,1.5,1.5,0,0,0-.04-1.209c-.3-.372-.909-.464-1.751.2-.674.527-1.333,1.074-1.952,1.557-1.159.909-2.986,1.738-4.424-.1-1.48-1.89-.713-5.421,1.775-7.372,2.076-1.627,4.172-1.3,5.026-.252a1.858,1.858,0,0,1,.372,1.4,22.6,22.6,0,0,1-.529,2.526,3.155,3.155,0,0,1,2.193-.055,1.793,1.793,0,0,1,.822.624,5.093,5.093,0,0,0-.753,2.433,3.418,3.418,0,0,1,3.61,1.216,4.067,4.067,0,0,1-.915,5.73,4.73,4.73,0,0,1-2.162.939,28.1,28.1,0,0,0-2.34,2.257Zm-.913-13.268a2.559,2.559,0,0,0-.283-2.134c-.79-1.01-2.479-.927-3.861.158-1.777,1.393-1.977,3.027-1.068,4.186a1.728,1.728,0,0,0,1.9.658,6.127,6.127,0,0,0,1.987-1.165c.9-.705,1.222-1.141,1.323-1.7m5.187,5.963c-1.143-1.458-2.677-1.949-3.725-1.127-.808.664-.965,1.965.192,3.443s2.671,1.983,3.739,1.147c.824-.646.937-2-.206-3.463" transform="translate(112.92 123.744)" fill="#fff"/>
      <path id="Pfad_39425" data-name="Pfad 39425" d="M116.091,132.622a1.319,1.319,0,1,1-2.191,1.468,1.32,1.32,0,1,1,2.191-1.468m.525,3.853c.937-.226,3.1-.107,3.913,1.1.45.672.432,1.541-.174,3.323-.374,1.022-1.056,2.653-.485,3.5a1.257,1.257,0,0,0,1.912.291c1.244-.834,1.3-2.417,1.535-2.576a1.213,1.213,0,0,1,1.393.325,1.1,1.1,0,0,1,.061.991,3.62,3.62,0,0,1-6.609.939,2.534,2.534,0,0,1-.218-2.371c.275-.957,1.238-2.891.6-3.838a2.476,2.476,0,0,0-1.979-.991Z" transform="translate(111.502 129.495)" fill="#fff"/>
    </g>
  </g>
</svg>
