<svg id="K_Rose_" xmlns="http://www.w3.org/2000/svg" xmlns:xlink="http://www.w3.org/1999/xlink" width="336" height="336" viewBox="0 0 336 336">
  <defs>
    <clipPath id="clip-path">
      <rect id="Rechteck_1226" data-name="Rechteck 1226" width="303.037" height="303.037" fill="#fff"/>
    </clipPath>
  </defs>
  <path id="Pfad_39365" data-name="Pfad 39365" d="M168,0A168,168,0,1,1,0,168,168,168,0,0,1,168,0Z" fill="#c60086"/>
  <g id="Gruppe_9175" data-name="Gruppe 9175" transform="translate(16.345 16.345)">
    <g id="Gruppe_9174" data-name="Gruppe 9174" clip-path="url(#clip-path)">
      <path id="Pfad_39426" data-name="Pfad 39426" d="M17.215,59.676c.688.29,2.785,1.24,3.46,1.6L18.467,71.768l-.649-.138c.27-1.975.15-2.194-1.821-2.608L6.736,67.074c-1.969-.414-2.123-.278-2.655,1.571l-.649-.138L4.7,62.463l.647.134c-.244,1.861-.17,2.093,1.8,2.507l9.145,1.924c1.252.264,1.739.244,2.058-.122a5.254,5.254,0,0,0,.769-2.161c.268-1.273.317-2.086-.171-2.744a6.95,6.95,0,0,0-2.023-1.66Z" transform="translate(3.333 57.961)" fill="#fff"/>
      <path id="Pfad_39427" data-name="Pfad 39427" d="M14.7,53.914a5.265,5.265,0,0,1,3.856,6.57,5.125,5.125,0,0,1-6.529,3.4,5.4,5.4,0,0,1-3.887-6.629,5.135,5.135,0,0,1,6.56-3.339m-2.744,7.643c2.847.883,5.356.3,5.932-1.551.434-1.4-.248-2.876-3.343-3.836-2.641-.818-5.117-.424-5.728,1.542-.434,1.4.587,3.055,3.14,3.846" transform="translate(7.716 52.118)" fill="#fff"/>
      <path id="Pfad_39428" data-name="Pfad 39428" d="M21.365,52.05a1.935,1.935,0,0,1-.836.863,2.438,2.438,0,0,1-1.2.124c.235,1.12.619,2.5.351,3.158a2.857,2.857,0,0,1-3.743,1.545,2.361,2.361,0,0,1-1.449-2.659,16.986,16.986,0,0,0-.045-3.976l-.394-.16c-1.579-.643-2.781-.262-3.227.834a1.332,1.332,0,0,0,.039,1.165,3.434,3.434,0,0,0,1.179,1.246.658.658,0,0,1,.246.842,1.159,1.159,0,0,1-1.335.582c-.327-.134-.455-.516-.591-1.057a10.585,10.585,0,0,1-.2-3.915,3.089,3.089,0,0,1,1.323-1.557,3.446,3.446,0,0,1,3.077.1l4.077,1.656c.988.4,1.476.138,1.628-.233a1.791,1.791,0,0,0,.079-.887l.658.01Zm-6.176-.643c.053.558.089,1.8.12,2.348.047,1.015.268,1.668,1.059,1.987a1.727,1.727,0,0,0,2.318-.869,3.369,3.369,0,0,0-.077-2.076Z" transform="translate(9.762 47.364)" fill="#fff"/>
      <path id="Pfad_39429" data-name="Pfad 39429" d="M26.491,46.68a24.594,24.594,0,0,0-.859,3.674l-1.37-.694.106,1.672a4.13,4.13,0,0,1-.225,1.955,4.738,4.738,0,0,1-6.472,1.618,6.051,6.051,0,0,1-2.466-8.094,5.44,5.44,0,0,1,.938-1.275l-2.973-1.51c-1.392-.706-1.51-.633-2.385.832l-.507-.258a21.884,21.884,0,0,0,.932-3.663L23.8,47.331c1.1.556,1.277.463,1.756-.274l.406-.645Zm-8.723-.317a2.932,2.932,0,0,0-2.178,1.624c-.493.97-.572,3.16,2.486,4.713,2.511,1.271,4.514.357,5.2-.994a4,4,0,0,0,.311-2.389Z" transform="translate(9.984 39.762)" fill="#fff"/>
      <path id="Pfad_39430" data-name="Pfad 39430" d="M25.19,41.072a5.365,5.365,0,0,1-.073,4.487c-1.528,2.474-4.435,2.681-6.708,1.275a6.08,6.08,0,0,1-2.7-3.5,4.8,4.8,0,0,1,.359-3.864,3.659,3.659,0,0,1,4.922-1.132c.4.248.5.447.357.859-.152.378-1.5,3.02-2.9,5.464,2.748,1.668,4.845.8,5.715-.613a3.866,3.866,0,0,0,.41-2.915ZM17.681,44.05c.7-1.126,1.358-2.245,2.038-3.436.223-.365.177-.558-.1-.731a2.169,2.169,0,0,0-3.1.526c-.572.926-.272,2.334,1.171,3.641" transform="translate(15.022 36.74)" fill="#fff"/>
      <path id="Pfad_39431" data-name="Pfad 39431" d="M34.118,36.912a24.978,24.978,0,0,0-1.593,3.422l-1.2-.962-.239,1.656a4.128,4.128,0,0,1-.621,1.869,4.737,4.737,0,0,1-6.665.258,6.052,6.052,0,0,1-.753-8.427,5.419,5.419,0,0,1,1.179-1.055l-2.6-2.088c-1.216-.976-1.346-.926-2.505.325l-.44-.353a22.312,22.312,0,0,0,1.664-3.4L31.354,37c.958.769,1.151.716,1.774.091l.528-.544Zm-8.471-2.1a2.938,2.938,0,0,0-2.464,1.145c-.682.848-1.2,2.975,1.469,5.119,2.194,1.76,4.343,1.273,5.291.095a4,4,0,0,0,.794-2.275Z" transform="translate(18.146 27.353)" fill="#fff"/>
      <path id="Pfad_39432" data-name="Pfad 39432" d="M22.5,28.351a1.213,1.213,0,0,1-.089-1.719,1.182,1.182,0,0,1,1.705-.037,1.21,1.21,0,0,1,.069,1.705,1.236,1.236,0,0,1-1.685.051m9.356,10.333-.451-.418c.9-1.191.911-1.409-.272-2.5l-3.58-3.3c-1.076-.994-1.2-1.005-2.332-.124l-.418-.384a15.045,15.045,0,0,0,1.6-3.093l6,5.529c1.185,1.092,1.4,1.064,2.533.049l.451.418Z" transform="translate(21.462 25.496)" fill="#fff"/>
      <path id="Pfad_39433" data-name="Pfad 39433" d="M29.343,28.132c-.313-1.344-.5-3,.311-3.793A1.222,1.222,0,0,1,31.727,25.6c-.122.282-.29.414-.493.41a1.266,1.266,0,0,0-1.059.335c-.442.428-.491,1.463.055,2.778l3.012,3.109c1.084,1.122,1.269,1.141,2.677-.024l.428.442-3.911,3.785-.426-.442c.954-1.122.976-1.338-.11-2.462l-3.408-3.517c-1.084-1.122-1.236-1.106-2.336-.306l-.363-.375a13.256,13.256,0,0,0,1.723-3.016l1.792,1.853Z" transform="translate(25.052 23.237)" fill="#fff"/>
      <path id="Pfad_39434" data-name="Pfad 39434" d="M46.068,25.143a26.642,26.642,0,0,0-2.249,2.785l-.2-.028L42.6,26.569c-.189.651-.361,1.319-.645,2.038a3.372,3.372,0,0,1-1.09,1.575c-1.258.962-2.917,1.007-4.467-1.021l-2.813-3.684c-.789-1.035-.923-1.053-2.151-.442l-.331-.432a28.326,28.326,0,0,0,2.431-2.391c.388.625,1.064,1.508,2.038,2.789L37.5,27.519c1.277,1.674,2.431,1.508,3.276.863a3.684,3.684,0,0,0,1.342-2.454L38.772,21.55c-.818-1.072-.988-1.061-2.486-.217l-.329-.432a25.224,25.224,0,0,0,2.693-2.592l4.792,6.28c.718.938.968.956,1.711.447l.554-.363Z" transform="translate(30.212 17.783)" fill="#fff"/>
      <path id="Pfad_39435" data-name="Pfad 39435" d="M47.27,24.8l-.325-.522c1.108-.858,1.149-1.106.284-2.49l-2.088-3.351c-.865-1.384-1.908-1.985-3.253-1.149a4.231,4.231,0,0,0-1.549,2.387L43.28,24.39c.85,1.364,1.021,1.37,2.281.753l.325.52-4.355,2.714-.325-.52c1.275-.992,1.315-1.153.489-2.478l-2.59-4.151c-.8-1.285-.958-1.271-2.166-.8l-.29-.461a14.223,14.223,0,0,0,2.277-2.561l1,1.6c.215-.55.469-1.126.757-1.78a3.64,3.64,0,0,1,1.289-1.64c1.585-.99,3.278-.511,4.493,1.435L48.877,20.9c.852,1.366,1,1.384,2.241.777l.325.522Z" transform="translate(35.596 14.659)" fill="#fff"/>
      <path id="Pfad_39436" data-name="Pfad 39436" d="M48.184,14.865c-1.043-1.031-2.214-1.49-3.245-.954a1.543,1.543,0,0,0-.609,2.157c.491.946,1.583.992,2.734.9,1.912-.168,3.377.032,4.13,1.48.994,1.91-.278,3.826-1.957,4.7a4.757,4.757,0,0,1-2.785.542,11.247,11.247,0,0,1-1.624-2.3l.491-.39c1.1,1.191,2.677,1.916,3.937,1.262a1.651,1.651,0,0,0,.725-2.247c-.479-.921-1.35-1.11-2.651-1.047-1.567.067-3.292.085-4.13-1.532-.765-1.469-.15-3.363,1.782-4.368a5.462,5.462,0,0,1,2.054-.615,17.824,17.824,0,0,1,1.63,2.007Z" transform="translate(41.647 12.09)" fill="#fff"/>
      <path id="Pfad_39437" data-name="Pfad 39437" d="M56.639,17.219a5.381,5.381,0,0,1-2.63,3.637c-2.671,1.153-5.175-.343-6.233-2.8a6.081,6.081,0,0,1-.209-4.42,4.809,4.809,0,0,1,2.505-2.965,3.668,3.668,0,0,1,4.686,1.894c.187.434.154.654-.2.911-.341.225-2.961,1.614-5.508,2.819,1.3,2.943,3.517,3.428,5.037,2.772A3.87,3.87,0,0,0,56.1,16.913ZM48.774,15.36c1.216-.526,2.4-1.063,3.643-1.652.39-.168.465-.355.333-.658a2.168,2.168,0,0,0-2.85-1.344c-1,.43-1.561,1.754-1.126,3.655" transform="translate(45.89 10.105)" fill="#fff"/>
      <path id="Pfad_39438" data-name="Pfad 39438" d="M55.178,11.769c.278-1.352.8-2.937,1.867-3.316a1.321,1.321,0,0,1,1.689.66A1.34,1.34,0,0,1,58.4,10.46a.554.554,0,0,1-.621.168,1.267,1.267,0,0,0-1.1-.14c-.582.2-1.059,1.126-1.112,2.549l1.437,4.082c.516,1.475.676,1.569,2.442,1.1l.2.58L54.523,20.6l-.205-.58c1.337-.621,1.447-.81.926-2.283L53.62,13.121c-.518-1.475-.66-1.526-2-1.256l-.172-.491a13.328,13.328,0,0,0,2.825-2.023l.858,2.433Z" transform="translate(49.973 8.127)" fill="#fff"/>
      <path id="Pfad_39439" data-name="Pfad 39439" d="M65.349,14.753A5.371,5.371,0,0,1,62.246,18c-2.805.779-5.078-1.047-5.79-3.625a6.081,6.081,0,0,1,.4-4.406,4.813,4.813,0,0,1,2.89-2.594,3.664,3.664,0,0,1,4.38,2.519c.128.455.063.67-.321.875-.369.175-3.156,1.193-5.845,2.034.883,3.1,3.016,3.879,4.611,3.436a3.853,3.853,0,0,0,2.283-1.859Zm-7.534-2.919c1.275-.353,2.523-.723,3.834-1.135.41-.114.509-.29.42-.607a2.172,2.172,0,0,0-2.638-1.725c-1.049.292-1.786,1.528-1.616,3.467" transform="translate(54.603 7.043)" fill="#fff"/>
      <path id="Pfad_39440" data-name="Pfad 39440" d="M73.7,18.263l-.087-.656c1.453-.384,1.638-.6,1.21-1.475s-1.064-2.08-1.77-3.442l-5,.666c-.235,1.106-.455,2.139-.629,3.164-.317,1.547-.077,1.754,1.705,1.683l.087.658-5.09.676-.089-.656c1.451-.408,1.76-.591,2.306-2.766L69.564,3.152l.7-.308c1.991,3.84,4.157,8.088,6.2,11.971,1.021,1.918,1.354,2.086,2.9,2.024l.087.656ZM69.731,6.018l-.047.006c-.483,2.119-.962,4.26-1.407,6.278l4.315-.576Z" transform="translate(62.202 2.762)" fill="#fff"/>
      <path id="Pfad_39441" data-name="Pfad 39441" d="M76.851,8.136a2.533,2.533,0,0,1,.962-.27,4.819,4.819,0,0,1,4.828,4.806,5.88,5.88,0,0,1-5.73,6.139,8.293,8.293,0,0,1-3.5-.731L72.954,4.933c-.049-1.465-.1-1.607-1.62-1.7l-.02-.542a19.5,19.5,0,0,0,3.4-.944l.25,7.28Zm-1.652,7.7a1.867,1.867,0,0,0,.17.8A2.221,2.221,0,0,0,77.52,17.89c1.961-.067,3.156-1.79,3.061-4.532-.091-2.695-1.8-4.2-3.763-4.132a3.914,3.914,0,0,0-1.827.513Z" transform="translate(69.265 1.699)" fill="#fff"/>
      <path id="Pfad_39442" data-name="Pfad 39442" d="M79.725,8.112l.018-.52a6.594,6.594,0,0,1,.323-1.93,5.724,5.724,0,0,1,1.912-2.707,4.824,4.824,0,0,1,2.641-1.191,2.56,2.56,0,0,1,1.843.867.772.772,0,0,1,.091.83,1.365,1.365,0,0,1-.467.554.423.423,0,0,1-.639-.093,2.965,2.965,0,0,0-1.885-.94,1.371,1.371,0,0,0-1.275.668,7.23,7.23,0,0,0-.664,3.578l-.032.944,2.789.093a.82.82,0,0,1-.264.915L81.562,9.1,81.335,15.9c-.057,1.75.106,1.825,1.967,2.078l-.018.591L77.7,18.389l.02-.615c1.518-.093,1.687-.205,1.739-1.764l.231-6.974-1.654-.057-.087-.239.662-.664Z" transform="translate(75.471 1.714)" fill="#fff"/>
      <path id="Pfad_39443" data-name="Pfad 39443" d="M88.367,16.3a1.942,1.942,0,0,1-1.063-.556,2.437,2.437,0,0,1-.461-1.116c-1.005.544-2.22,1.307-2.927,1.238a2.856,2.856,0,0,1-2.547-3.148c.112-1.153.8-1.823,2.133-2.147A16.983,16.983,0,0,0,87.3,9.4l.041-.424c.166-1.7-.544-2.74-1.721-2.852a1.33,1.33,0,0,0-1.106.367,3.452,3.452,0,0,0-.857,1.486.658.658,0,0,1-.735.475,1.152,1.152,0,0,1-.936-1.114c.032-.353.365-.582.844-.869a10.622,10.622,0,0,1,3.694-1.3,3.082,3.082,0,0,1,1.869.822,3.443,3.443,0,0,1,.781,2.977l-.426,4.382c-.1,1.061.288,1.453.688,1.494a1.831,1.831,0,0,0,.871-.177l.177.635Zm-1.143-6.1c-.52.211-1.7.6-2.216.783-.958.335-1.522.733-1.6,1.581a1.732,1.732,0,0,0,1.5,1.975,3.37,3.37,0,0,0,1.965-.664Z" transform="translate(79.017 5.016)" fill="#fff"/>
      <path id="Pfad_39444" data-name="Pfad 39444" d="M92.715,19.839l.112-.605c1.374.11,1.585.006,1.865-1.506l.714-3.86c.353-1.906-.191-2.992-1.749-3.28a3.329,3.329,0,0,0-2.638.739l-1.025,5.531c-.276,1.488-.189,1.674,1.157,2.066l-.112.605-4.93-.913.114-.605c1.415.144,1.65.043,1.934-1.492L90.209,5.427c.272-1.465.246-1.587-1.262-2.011l.1-.536A26.082,26.082,0,0,0,92.614,2.7l-1.445,7.812a5.162,5.162,0,0,1,3.639-1.082C96.693,9.778,97.8,11.209,97.28,14l-.751,4.071c-.284,1.534-.148,1.7,1.2,2.072l-.112.605Z" transform="translate(83.635 2.623)" fill="#fff"/>
      <path id="Pfad_39445" data-name="Pfad 39445" d="M97.96,9.731c.993-.958,2.32-1.975,3.416-1.681a1.318,1.318,0,0,1,1.021,1.5,1.328,1.328,0,0,1-1.033.925.554.554,0,0,1-.605-.209,1.264,1.264,0,0,0-.832-.739c-.593-.162-1.51.329-2.356,1.476l-1.124,4.183c-.4,1.506-.327,1.676,1.4,2.285l-.16.6-5.257-1.411.16-.6c1.455.244,1.65.15,2.056-1.358l1.271-4.733c.4-1.508.313-1.63-.94-2.164l.136-.5a13.366,13.366,0,0,0,3.473-.075L97.917,9.72Z" transform="translate(89.771 7.018)" fill="#fff"/>
      <path id="Pfad_39446" data-name="Pfad 39446" d="M100.239,20.573a2.427,2.427,0,0,1-1.041-.026c-1.413-.473-1.9-1.634-1.3-3.406l2.188-6.531-1.549-.516-.014-.256.824-.447,1.031.347.55-1.638,1.956-.994.3.15-1.029,3.075,2.535.85a.674.674,0,0,1-.428.83l-2.4-.8-1.932,5.766c-.611,1.819.018,2.4.58,2.59a3.34,3.34,0,0,0,1.518.085l.006.651Z" transform="translate(94.84 6.901)" fill="#fff"/>
      <path id="Pfad_39447" data-name="Pfad 39447" d="M112.386,25.463a24.131,24.131,0,0,0-3.706-.739l.654-1.394-1.67.162a4.186,4.186,0,0,1-1.963-.16,4.744,4.744,0,0,1-1.835-6.42,6.061,6.061,0,0,1,8.017-2.736,5.446,5.446,0,0,1,1.307.9l1.411-3.024c.66-1.415.583-1.528-.911-2.358l.242-.515a22.051,22.051,0,0,0,3.7.812l-5.983,12.8c-.518,1.116-.42,1.291.333,1.749l.656.384Zm.032-8.739a2.937,2.937,0,0,0-1.7-2.125c-.986-.461-3.18-.465-4.632,2.643-1.191,2.553-.205,4.528,1.167,5.169a4.014,4.014,0,0,0,2.4.233Z" transform="translate(100.347 8.912)" fill="#fff"/>
      <path id="Pfad_39448" data-name="Pfad 39448" d="M118.864,22.049a5.264,5.264,0,0,1-7.268,2.277,5.119,5.119,0,0,1-1.839-7.122,5.39,5.39,0,0,1,7.331-2.295,5.129,5.129,0,0,1,1.776,7.14m-6.828-4.392c-1.5,2.574-1.5,5.147.179,6.125,1.264.737,2.854.406,4.487-2.391,1.394-2.389,1.565-4.891-.211-5.926-1.268-.739-3.107-.116-4.455,2.192" transform="translate(105.886 13.86)" fill="#fff"/>
      <path id="Pfad_39449" data-name="Pfad 39449" d="M129.991,26.395c-1.068-.544-1.407-.44-2.576.319-1.672,1.094-4.366,3.026-7.142,4.985l-.534-.388c.739-2.624,1.321-5.068,2-7.649-2.121,1.382-4.3,2.726-6.59,4.305l-.556-.4c.97-2.778,1.886-5.565,2.774-8.433.378-1.244.3-1.5-.516-2.306l.349-.479,3.96,2.884-.349.477c-1.289-.645-1.467-.6-1.806.473-.635,1.792-1.256,3.651-1.849,5.472l.039.03c2.044-1.323,4.187-2.779,6.592-4.394l.5.365c-.739,2.5-1.433,5.1-2.119,7.735l.037.026c1.382-1.011,3.13-2.287,4.5-3.452.972-.814.942-1.011-.177-2.09l.349-.477,3.464,2.519Z" transform="translate(111.298 15.877)" fill="#fff"/>
      <path id="Pfad_39450" data-name="Pfad 39450" d="M124.48,33.512l.412-.453c1.13.832,1.378.8,2.478-.4l2.655-2.923c1.1-1.206,1.4-2.377.223-3.444a4.257,4.257,0,0,0-2.72-.842l-3.739,4.114c-1.08,1.191-1.041,1.356-.1,2.4l-.414.453-3.8-3.454.414-.453c1.3.958,1.469.95,2.517-.205l3.294-3.621c1.019-1.122.96-1.269.175-2.3l.367-.406a14.054,14.054,0,0,0,3.085,1.494l-1.273,1.4c.589.057,1.214.144,1.922.242a3.623,3.623,0,0,1,1.93.8c1.384,1.256,1.384,3.014-.16,4.711L128.673,34c-1.082,1.193-1.059,1.34-.138,2.367l-.414.457Z" transform="translate(116.04 21.341)" fill="#fff"/>
      <path id="Pfad_39451" data-name="Pfad 39451" d="M125.045,29.966a1.326,1.326,0,1,1,1.837,1.912,1.327,1.327,0,1,1-1.837-1.912" transform="translate(121.008 28.726)" fill="#fff"/>
    </g>
  </g>
</svg>
