<svg id="K_Yellow_" xmlns="http://www.w3.org/2000/svg" xmlns:xlink="http://www.w3.org/1999/xlink" width="336" height="336" viewBox="0 0 336 336">
  <defs>
    <clipPath id="clip-path">
      <rect id="Rechteck_1224" data-name="Rechteck 1224" width="307.727" height="307.727" fill="#fff"/>
    </clipPath>
  </defs>
  <circle id="Ellipse_3" data-name="Ellipse 3" cx="168" cy="168" r="168" fill="#efbe00"/>
  <g id="Gruppe_9171" data-name="Gruppe 9171" transform="translate(14 14)">
    <g id="Gruppe_9171-2" data-name="Gruppe 9171" clip-path="url(#clip-path)">
      <path id="Pfad_39366" data-name="Pfad 39366" d="M39.555,18.194c-1.245-1-2.716-1.986-4.418-.771a2.519,2.519,0,0,0-.633,3.7c1.017,1.427,2.43,1.423,4.548,1.119,2.082-.3,4.6-.713,6.159,1.477,1.465,2.052.9,4.938-1.7,6.792a8.316,8.316,0,0,1-2.126,1.075,8.125,8.125,0,0,1-1.251.274,29.5,29.5,0,0,1-2.692-2.652l.47-.542c1.165.971,3.453,2.316,5.467.879a2.675,2.675,0,0,0,.671-4.022c-1.033-1.447-2.6-1.363-4.62-1.1-1.728.23-4.4.661-5.975-1.547C32.113,21,32.473,18.32,35,16.52a9.949,9.949,0,0,1,2.784-1.307c.581.647,1.223,1.339,2.258,2.458Z" transform="translate(32.745 15.24)" fill="#fff"/>
      <path id="Pfad_39367" data-name="Pfad 39367" d="M49.4,23.22a1.972,1.972,0,0,1-1.205.186,2.474,2.474,0,0,1-1.049-.631c-.49,1.051-1.025,2.406-1.643,2.776a2.9,2.9,0,0,1-3.98-1.035,2.4,2.4,0,0,1,.448-3.043,17.113,17.113,0,0,0,2.394-3.253l-.222-.368c-.889-1.485-2.1-1.912-3.127-1.3a1.353,1.353,0,0,0-.681.969,3.479,3.479,0,0,0,.2,1.732.667.667,0,0,1-.314.831,1.173,1.173,0,0,1-1.437-.344c-.186-.308-.052-.7.166-1.217a10.738,10.738,0,0,1,2.228-3.3,3.139,3.139,0,0,1,2.024-.452,3.49,3.49,0,0,1,2.434,1.958l2.294,3.835c.556.929,1.111,1.015,1.463.807A1.874,1.874,0,0,0,50,20.708l.526.412Zm-4.616-4.3c-.3.486-1.027,1.511-1.337,1.976-.581.853-.8,1.515-.356,2.258a1.76,1.76,0,0,0,2.414.713,3.441,3.441,0,0,0,1.205-1.732Z" transform="translate(38.763 14.778)" fill="#fff"/>
      <path id="Pfad_39368" data-name="Pfad 39368" d="M51.367,11.32a3.747,3.747,0,0,1-.422,1.577l-1.255.544a3.233,3.233,0,0,1,1.6,1.593c1.155,2.322-.224,4.4-2.052,5.311a9.8,9.8,0,0,1-1.151.438,1.511,1.511,0,0,0-.206,1.2c.214.43.8.647,1.772.166.775-.386,1.537-.793,2.246-1.147,1.333-.663,3.311-1.107,4.36,1,1.079,2.17-.4,5.507-3.261,6.928-2.386,1.187-4.392.442-5.024-.773a1.876,1.876,0,0,1-.082-1.461,23.738,23.738,0,0,1,1.037-2.392,3.2,3.2,0,0,1-2.18-.39,1.81,1.81,0,0,1-.685-.787A5.141,5.141,0,0,0,47.3,20.881a3.464,3.464,0,0,1-3.325-1.942,4.113,4.113,0,0,1,2.076-5.483,4.768,4.768,0,0,1,2.33-.488,27.94,27.94,0,0,0,2.776-1.756Zm-5.715,6.356c.833,1.677,2.25,2.476,3.455,1.876.933-.49,1.355-1.746.51-3.445s-2.238-2.508-3.463-1.9c-.947.468-1.337,1.792-.5,3.467m3.913,6.958a2.591,2.591,0,0,0-.154,2.168c.577,1.161,2.264,1.423,3.855.631,2.042-1.013,2.572-2.59,1.91-3.923a1.745,1.745,0,0,0-1.75-1.037,6.138,6.138,0,0,0-2.2.747c-1.033.514-1.441.877-1.657,1.415" transform="translate(43.627 11.232)" fill="#fff"/>
      <path id="Pfad_39369" data-name="Pfad 39369" d="M49.524,7.775c-.887.925-1.311,1.706-.937,2.588a1.6,1.6,0,0,0,1.962.813.445.445,0,0,1,.5.31,1,1,0,0,1-.595,1.245l-.022.008a2.363,2.363,0,0,1-3.017-1.331c-.667-1.569.4-3.171,1.647-4.114Z" transform="translate(47.292 7.308)" fill="#fff"/>
      <path id="Pfad_39370" data-name="Pfad 39370" d="M56.051,11.694c-.927-1.165-2.05-1.77-3.153-1.353a1.568,1.568,0,0,0-.879,2.1c.382,1.013,1.477,1.191,2.65,1.237,1.946.062,3.4.44,3.982,1.992.771,2.046-.743,3.823-2.542,4.5a4.822,4.822,0,0,1-2.873.21,11.254,11.254,0,0,1-1.357-2.518l.542-.332c.963,1.331,2.464,2.254,3.813,1.746a1.675,1.675,0,0,0,1-2.174c-.374-.989-1.229-1.281-2.548-1.375-1.585-.124-3.325-.316-3.978-2.046-.591-1.573.258-3.409,2.326-4.188a5.644,5.644,0,0,1,2.144-.37,17.7,17.7,0,0,1,1.4,2.22Z" transform="translate(50.62 9.136)" fill="#fff"/>
      <path id="Pfad_39371" data-name="Pfad 39371" d="M70.648,15.815A26.9,26.9,0,0,0,67.425,17.5l-.174-.106-.408-1.657c-.438.53-.873,1.081-1.427,1.637A3.432,3.432,0,0,1,63.762,18.4c-1.565.384-3.131-.244-3.749-2.766l-1.127-4.572c-.314-1.285-.432-1.355-1.826-1.285l-.132-.534A28.841,28.841,0,0,0,60.163,8c.106.741.376,1.838.769,3.423l.769,3.127c.51,2.076,1.651,2.39,2.7,2.132a3.728,3.728,0,0,0,2.244-1.742L65.309,9.508c-.326-1.331-.49-1.391-2.228-1.211l-.132-.534A25.554,25.554,0,0,0,66.51,6.439l1.918,7.795c.286,1.167.512,1.285,1.413,1.113l.665-.114Z" transform="translate(57.029 6.45)" fill="#fff"/>
      <path id="Pfad_39372" data-name="Pfad 39372" d="M71.53,16.239l-.09-.619c1.381-.346,1.519-.562,1.279-2.2l-.581-3.97c-.24-1.639-.969-2.624-2.56-2.392a4.309,4.309,0,0,0-2.414,1.591l.821,5.585c.236,1.617.392,1.692,1.816,1.627l.09.619-5.157.755-.09-.619c1.589-.4,1.692-.538,1.463-2.106l-.721-4.92c-.224-1.521-.376-1.569-1.7-1.621l-.08-.544a14.45,14.45,0,0,0,3.161-1.459l.28,1.9c.422-.424.893-.857,1.427-1.347a3.661,3.661,0,0,1,1.868-1c1.878-.276,3.257.857,3.6,3.163l.673,4.586c.236,1.615.37,1.691,1.768,1.633l.092.619Z" transform="translate(63.724 5.482)" fill="#fff"/>
      <path id="Pfad_39373" data-name="Pfad 39373" d="M76.223,7.952c-.55-1.383-1.455-2.288-2.628-2.208A1.571,1.571,0,0,0,72.146,7.5c.074,1.079,1.069,1.567,2.18,1.95,1.85.623,3.129,1.4,3.241,3.057.148,2.182-1.814,3.447-3.731,3.575a4.833,4.833,0,0,1-2.814-.629,11.425,11.425,0,0,1-.575-2.8l.617-.162c.536,1.553,1.71,2.871,3.149,2.772A1.674,1.674,0,0,0,75.8,13.473c-.07-1.057-.8-1.583-2.04-2.056-1.485-.575-3.1-1.259-3.223-3.1-.112-1.679,1.229-3.191,3.437-3.339a5.542,5.542,0,0,1,2.16.264,18.039,18.039,0,0,1,.7,2.528Z" transform="translate(70.571 4.968)" fill="#fff"/>
      <path id="Pfad_39374" data-name="Pfad 39374" d="M86,13.768a5.439,5.439,0,0,1-4.006,2.174c-2.951-.116-4.586-2.584-4.478-5.3a6.193,6.193,0,0,1,1.75-4.14,4.87,4.87,0,0,1,3.6-1.611,3.719,3.719,0,0,1,3.457,3.789c-.018.48-.148.667-.583.747-.41.056-3.421.178-6.282.16-.106,3.267,1.714,4.684,3.4,4.75a3.912,3.912,0,0,0,2.784-1.091ZM79.613,8.612c1.345.052,2.666.082,4.06.088.432.018.583-.122.595-.458A2.2,2.2,0,0,0,82.25,5.757c-1.1-.042-2.2.925-2.636,2.855" transform="translate(77.646 4.9)" fill="#fff"/>
      <path id="Pfad_39375" data-name="Pfad 39375" d="M82.331,17.943l.06-.621c1.521.008,1.7-.12,1.866-1.746l.49-4.928c.148-1.483.086-1.585-1.325-1.968l.056-.575a15.132,15.132,0,0,0,3.489-.595l-.821,8.251c-.162,1.627-.01,1.788,1.507,2.082l-.062.623ZM85,4.031a1.239,1.239,0,0,1,1.345-1.123,1.2,1.2,0,0,1,1.071,1.363,1.231,1.231,0,0,1-1.341,1.1A1.261,1.261,0,0,1,85,4.031" transform="translate(82.477 2.907)" fill="#fff"/>
      <path id="Pfad_39376" data-name="Pfad 39376" d="M92.13,16.885l.106-.615c1.421.1,1.619-.064,1.9-1.7l.679-3.956c.28-1.631-.1-2.794-1.692-3.067a4.293,4.293,0,0,0-2.786.765l-.955,5.563c-.276,1.609-.15,1.728,1.221,2.11l-.1.615-5.139-.881.106-.617c1.637.112,1.778.014,2.044-1.549l.841-4.9c.26-1.515.132-1.611-1.1-2.068l.092-.544a14.466,14.466,0,0,0,3.457-.406l-.324,1.894C91,7.26,91.588,7,92.248,6.694a3.692,3.692,0,0,1,2.086-.372c1.87.322,2.831,1.828,2.436,4.122l-.785,4.568c-.276,1.611-.174,1.728,1.175,2.1l-.106.617Z" transform="translate(85.512 5.651)" fill="#fff"/>
      <path id="Pfad_39377" data-name="Pfad 39377" d="M95.862,9.606l.128-.512a6.8,6.8,0,0,1,.733-1.848A5.79,5.79,0,0,1,99.2,4.968a4.866,4.866,0,0,1,2.877-.621A2.58,2.58,0,0,1,103.717,5.6a.787.787,0,0,1-.086.847,1.4,1.4,0,0,1-.583.448.427.427,0,0,1-.613-.228,3.007,3.007,0,0,0-1.673-1.331,1.391,1.391,0,0,0-1.409.392,7.355,7.355,0,0,0-1.417,3.409l-.232.931,2.75.685a.83.83,0,0,1-.46.851l-2.514-.625-1.674,6.71c-.428,1.724-.284,1.836,1.511,2.48l-.146.583-5.5-1.369.15-.607c1.527.232,1.72.156,2.1-1.381l1.714-6.876L94,10.109l-.034-.256.8-.518Z" transform="translate(91.835 4.326)" fill="#fff"/>
      <path id="Pfad_39378" data-name="Pfad 39378" d="M101.76,19.707a1.946,1.946,0,0,1-.937-.777,2.5,2.5,0,0,1-.22-1.205c-1.113.326-2.48.821-3.167.6a2.9,2.9,0,0,1-1.856-3.665,2.4,2.4,0,0,1,2.576-1.675,17.306,17.306,0,0,0,4.022-.354l.13-.412c.526-1.647.048-2.835-1.1-3.2a1.348,1.348,0,0,0-1.177.128,3.46,3.46,0,0,0-1.167,1.291.67.67,0,0,1-.831.314,1.175,1.175,0,0,1-.695-1.307c.11-.34.486-.5,1.025-.679a10.7,10.7,0,0,1,3.941-.506A3.119,3.119,0,0,1,103.99,9.48a3.5,3.5,0,0,1,.14,3.121l-1.359,4.256c-.328,1.027-.026,1.5.364,1.625a1.815,1.815,0,0,0,.9.012l.038.669Zm.17-6.3c-.56.1-1.812.228-2.368.3-1.021.128-1.665.4-1.928,1.225a1.76,1.76,0,0,0,1.063,2.28,3.437,3.437,0,0,0,2.094-.24Z" transform="translate(95.611 8.242)" fill="#fff"/>
      <path id="Pfad_39379" data-name="Pfad 39379" d="M108.327,19.665a5.711,5.711,0,0,1-4.7.739,4.8,4.8,0,0,1-2.57-6.456,5.772,5.772,0,0,1,3.992-3.463,6.356,6.356,0,0,1,3.869.114,3.578,3.578,0,0,1,1.746,1.379.883.883,0,0,1,.078.835,1.17,1.17,0,0,1-1.121.661c-.112-.044-.2-.156-.326-.416a3.484,3.484,0,0,0-1.856-1.814c-1.471-.595-3.257.108-4.2,2.446-1.253,3.095.448,4.974,1.7,5.479a3.9,3.9,0,0,0,3.211-.126Z" transform="translate(100.828 10.259)" fill="#fff"/>
      <path id="Pfad_39380" data-name="Pfad 39380" d="M110.318,26.329l.282-.556c1.307.5,1.543.458,2.25-.935l1.8-3.559c.887-1.76.669-2.975-.769-3.7a3.388,3.388,0,0,0-2.782-.034l-2.58,5.1c-.695,1.373-.663,1.577.536,2.346l-.28.556-4.548-2.3.284-.556c1.341.542,1.6.51,2.314-.9L112,11.561c.685-1.351.7-1.479-.655-2.324l.25-.492a26.349,26.349,0,0,0,3.529.843l-3.643,7.2a5.266,5.266,0,0,1,3.859-.014c1.736.879,2.406,2.588,1.1,5.163l-1.9,3.753c-.715,1.415-.629,1.617.581,2.366l-.28.558Z" transform="translate(104.412 8.761)" fill="#fff"/>
      <path id="Pfad_39381" data-name="Pfad 39381" d="M110.6,19a1.345,1.345,0,1,1,2.314,1.371A1.346,1.346,0,1,1,110.6,19" transform="translate(110.57 18.342)" fill="#fff"/>
    </g>
  </g>
</svg>
