<?xml version="1.0" encoding="utf-8"?>
<!-- Generator: Adobe Illustrator 26.5.1, SVG Export Plug-In . SVG Version: 6.00 Build 0)  -->
<svg version="1.1" id="Ebene_1" xmlns="http://www.w3.org/2000/svg" xmlns:xlink="http://www.w3.org/1999/xlink" x="0px" y="0px"
	 viewBox="0 0 453 174.6" style="enable-background:new 0 0 453 174.6;" xml:space="preserve">
<style type="text/css">
	.st0{fill:#FFFFFF;}
</style>
<path class="st0" d="M389.1,158.3c0,0,0.9-1.8,3.3-1.8c2.4,0,3.4,2.1,3.4,5c0,2.9-0.9,5.2-3.9,5.2c-2,0-2.8-0.5-2.8-0.5V158.3z
	 M388.7,154.7l-4.5,0.1v1.4l2.2,0.5v15.8l-2.1,0.5v1.4h7.5v-1.4l-2.8-0.5v-4.2c0.7,0.2,1.5,0.4,2.4,0.4c4.8,0,7.1-3.1,7.1-7.6
	c0-4.1-1.8-6.8-5.6-6.8c-1.8,0-3.2,1-4,1.7L388.7,154.7z M382.9,167l-2.2-0.5v-11.8l-4.8,0.1v1.4l2.2,0.5v7.8c0,0-1.6,2.1-3.8,2.1
	c-1.7,0-2.4-0.9-2.4-2.7v-9.2l-4.8,0.1v1.4l2.2,0.5v7.4c0,2.9,1.3,4.7,4.2,4.7c2.1,0,4.2-1.5,4.8-2.1l0.3,1.8l4.3-0.1V167z
	 M359.2,156.5c2.6,0,3.5,2.1,3.5,5c0,3.4-1,5.2-3.7,5.2c-2.6,0-3.7-2-3.7-5.1C355.4,158.2,356.6,156.5,359.2,156.5 M359.3,154.4
	c-3.9,0-6.7,2.9-6.7,7.3c0,4.7,2.4,7.1,6.3,7.1c3.9,0,6.5-3,6.5-7.5C365.5,157.2,363.3,154.4,359.3,154.4 M344.8,154.7l-4.3,0.1v1.4
	l2.2,0.5v9.7l-2.2,0.7v1.4h7.5v-1.4l-2.6-0.7v-7.8c0.6-0.8,1.8-2,3.8-2l0.4,2h1.7l0.1-3.8c0,0-1-0.4-2.4-0.4c-1.8,0-3.3,1.4-4,2.2
	L344.8,154.7z M336.4,161.7l2-0.5v-1.6l-6.8,0.1v1.4l2.2,0.5v4.3c0,0-1.8,0.7-3.7,0.7c-3.4,0-5.8-2.2-5.8-6.9c0-4.8,2-7.5,5.5-7.5
	c2,0,3.5,0.5,3.5,0.5l0.8,2.9h1.7l0.1-4.3c0,0-3-1.3-5.9-1.3c-5.4,0-8.8,3.8-8.8,9.8c0,5.9,3.1,9,8.4,9c3.9,0,6.7-1.6,6.7-1.6V161.7
	z M303.8,158v-5.6h5.6l0.7,2.4h1.7v-4.5h-8l-5,0.1v1.4l2.2,0.5v14.1l-2.2,0.5v1.6H312v-4.7h-1.7l-0.5,2.6h-6v-6.4h6V158H303.8z
	 M270.3,151.8l2,0.5l4.4,16.2h2.6l3.5-11.9l0.8-3l0.8,2.8l3.1,12.1h2.9l4.6-16.2l2.1-0.5v-1.6l-7.1,0.1v1.4l2.4,0.5l-3.2,12.2
	l-4.2-14.2l-2.5,0.1l-4.3,13.8l-2.8-11.9l2.3-0.5v-1.6l-7.3,0.1V151.8z M260.4,158v-5.6h5.6l0.7,2.4h1.7v-4.5h-8l-5,0.1v1.4l2.2,0.5
	v14.1l-2.2,0.5v1.6h13.2v-4.7H267l-0.5,2.6h-6v-6.4h6V158H260.4z M242.6,158.6v-6.3h2.8c1.9,0,3.3,1.3,3.3,3c0,2.1-1.5,3.3-4.1,3.3
	H242.6z M239.8,166.5l-2.2,0.5v1.6h7.2V167l-2.2-0.5v-5.9h1.2c1.7,0,2.3,0.5,3.5,3.1l2.2,4.8h3.9V167l-1.9-0.4l-2.1-4.2
	c-0.7-1.3-1.2-2-1.6-2.4c2.3-0.8,3.4-2.6,3.4-5.1c0-2.9-2.2-4.7-5.9-4.7h-2.9l-5,0.1v1.4l2.2,0.5V166.5z M223.7,154.7l-4.3,0.1v1.4
	l2.2,0.5v9.7l-2.2,0.7v1.4h7.5v-1.4l-2.6-0.7v-7.8c0.6-0.8,1.8-2,3.8-2l0.4,2h1.7l0.1-3.8c0,0-1-0.4-2.4-0.4c-1.8,0-3.3,1.4-4,2.2
	L223.7,154.7z M208.1,160.1c0.2-2,1.3-3.6,3.4-3.6c2.1,0,2.9,1.6,2.9,3.6H208.1z M217,162c0-0.1,0.1-0.8,0.1-1.4
	c0-3.9-1.7-6.2-5.5-6.2c-3.8,0-6.4,3.1-6.4,7.3c0,4.3,2.1,7.1,6.3,7.1c3.1,0,5.6-2.2,5.6-2.2l-0.9-1.4c0,0-1.8,1.4-4.4,1.4
	c-2.3,0-3.8-1.8-3.8-4.7H217z M198.7,164.8c0,0-1.2,2-3.4,2c-2.4,0-3.3-2.1-3.3-5c0-2.9,0.9-5.2,3.9-5.2c1.8,0,2.8,0.5,2.8,0.5
	V164.8z M203.5,167l-2.2-0.5v-18.1l-4.8,0.1v1.4l2.2,0.5v4.3c-0.7-0.2-1.5-0.4-2.5-0.4c-4.7,0-6.9,3.1-6.9,7.6
	c0,4.1,1.7,6.8,5.5,6.8c2,0,3.4-1,4.1-1.8l0.2,1.5l4.5-0.1V167z M446.4,123.2l-4.3,0.1v1.4l2.2,0.5v9.7l-2.2,0.7v1.4h7.5v-1.4
	L447,135v-7.8c0.6-0.8,1.8-2,3.8-2l0.4,2h1.7l0.1-3.8c0,0-1-0.4-2.4-0.4c-1.8,0-3.3,1.4-4,2.2L446.4,123.2z M440.4,135.6l-2.2-0.5
	v-11.8l-4.8,0.1v1.4l2.2,0.5v7.8c0,0-1.6,2.1-3.8,2.1c-1.7,0-2.4-0.9-2.4-2.7v-9.2l-4.8,0.1v1.4l2.2,0.5v7.4c0,2.9,1.3,4.7,4.2,4.7
	c2.1,0,4.2-1.5,4.8-2.1l0.3,1.8l4.3-0.1V135.6z M423.2,123.4h-3.8v-3.8l-2.6,0.5v3.3l-2.6,0.3v1.7h2.6v8.3c0,2.9,1.4,3.8,3,3.8
	c1.3,0,2.5-0.4,3.7-1.3l-0.7-1.4c-0.7,0.4-1.4,0.7-2,0.7c-0.7,0-1.3-0.4-1.3-1.6v-8.4h3.8V123.4z M401.6,123.2l-4.3,0.1v1.4l2.2,0.5
	v9.7l-2.2,0.7v1.4h6.5v-1.4l-1.7-0.7v-7.7c0,0,1.6-2.1,3.8-2.1c1.7,0,2.4,0.9,2.4,2.8v7.1l-1.7,0.7v1.4h6.3v-1.4l-2-0.7v-7.3
	c0-2.9-1.3-4.7-4.2-4.7c-2.2,0-4.2,1.6-4.9,2.1L401.6,123.2z M386,128.6c0.2-2,1.3-3.6,3.4-3.6c2.1,0,2.9,1.6,2.9,3.6H386z
	 M395,130.6c0-0.1,0.1-0.8,0.1-1.4c0-3.9-1.7-6.2-5.5-6.2c-3.8,0-6.4,3.1-6.4,7.3c0,4.3,2.1,7.1,6.3,7.1c3.1,0,5.6-2.2,5.6-2.2
	l-0.9-1.4c0,0-1.8,1.4-4.4,1.4c-2.3,0-3.8-1.8-3.8-4.7H395z M375.2,137.1c2.1,0,3.4,0.4,3.4,2.1c0,1.7-1.3,2.5-3.9,2.5
	c-2.5,0-4.1-0.4-4.1-2.2c0-1.6,1.7-2.4,1.7-2.4H375.2z M374.1,124.8c2,0,2.9,1.2,2.9,3.1c0,2.2-0.9,3.1-3,3.1c-2,0-2.9-1.3-2.9-3.1
	C371.1,125.9,372,124.8,374.1,124.8 M381.5,124.8v-1.4l-4.6,0.1c0,0-0.9-0.5-2.6-0.5c-3.4,0-5.8,1.7-5.8,5.1c0,3.1,2,4.1,2,4.1
	s-1.4,2.1-1.4,3c0,1.4,1.6,1.5,1.6,1.5s-2.8,0.9-2.8,3.3c0,2.9,2.6,3.8,6.3,3.8c4.6,0,6.8-1.8,6.8-4.7c0-2.5-1.8-3.8-5.2-3.8h-4.1
	l0.1-2.5c0,0,0.8,0.2,2,0.2c3.4,0,5.8-1.6,5.8-5.1c0-1.7-0.7-2.6-0.7-2.6L381.5,124.8z M359.8,130.1h-5.4l2.8-7.9L359.8,130.1z
	 M350.1,135.1l-2.1,0.5v1.6h7.2v-1.6l-2.5-0.5l1-2.9h6.8l1,2.9l-2.4,0.5v1.6h7.6v-1.6l-2.2-0.5l-5.8-16.3l-2.6,0.1L350.1,135.1z
	 M347.5,128.3h-6.8v2.2h6.8V128.3z M327.7,128.6c0.2-2,1.3-3.6,3.4-3.6s2.9,1.6,2.9,3.6H327.7z M336.7,130.6c0-0.1,0.1-0.8,0.1-1.4
	c0-3.9-1.7-6.2-5.5-6.2c-3.8,0-6.4,3.1-6.4,7.3c0,4.3,2.1,7.1,6.3,7.1c3.1,0,5.6-2.2,5.6-2.2l-0.9-1.4c0,0-1.8,1.4-4.4,1.4
	c-2.3,0-3.8-1.8-3.8-4.7H336.7z M314.6,132.9h-1.8v3.9c0,0,1.7,0.6,4.1,0.6c3.1,0,5.8-1.5,5.8-4.5c0-4.5-7.3-3.4-7.3-6.2
	c0-1.3,1-1.8,2.3-1.8c1.3,0,2.1,0.3,2.1,0.3l0.4,2h1.7l0.1-3.5c0,0-2.4-0.8-4.5-0.8c-2.7,0-4.8,1.4-4.8,4.1c0,4.8,7.3,3.5,7.3,6.3
	c0,1.6-1.4,2.1-3,2.1c-1.4,0-2.2-0.2-2.2-0.2L314.6,132.9z M310.9,135.6l-2.2-0.5v-11.8l-4.8,0.1v1.4l2.2,0.5v7.8
	c0,0-1.6,2.1-3.8,2.1c-1.7,0-2.4-0.9-2.4-2.7v-9.2l-4.8,0.1v1.4l2.2,0.5v7.4c0,2.9,1.3,4.7,4.2,4.7c2.1,0,4.2-1.5,4.8-2.1l0.3,1.8
	l4.3-0.1V135.6z M287.2,125.1c2.6,0,3.5,2.1,3.5,5c0,3.4-1,5.2-3.7,5.2c-2.6,0-3.7-2-3.7-5.1C283.4,126.8,284.6,125.1,287.2,125.1
	 M287.3,123c-3.9,0-6.7,2.9-6.7,7.3c0,4.7,2.4,7.1,6.3,7.1c3.9,0,6.5-3,6.5-7.5C293.5,125.7,291.2,123,287.3,123 M268.1,117
	l-4.8,0.1v1.4l2.2,0.5v16l-2.2,0.7v1.4h6.5v-1.4l-1.7-0.7v-7.7c0,0,1.7-2.1,3.9-2.1c1.7,0,2.3,0.9,2.3,2.8v7.1l-1.7,0.6v1.4h6.3
	v-1.4l-2-0.7v-7.3c0-2.9-1.3-4.7-4.2-4.7c-1.9,0-3.8,1.2-4.6,1.9V117z M250.5,123.2l-4.3,0.1v1.4l2.2,0.5v9.7l-2.2,0.7v1.4h6.5v-1.4
	L251,135v-7.7c0,0,1.6-2.1,3.8-2.1c1.7,0,2.4,0.9,2.4,2.8v7.1l-1.7,0.7v1.4h6.3v-1.4l-2-0.7v-7.3c0-2.9-1.3-4.7-4.2-4.7
	c-2.2,0-4.2,1.6-4.9,2.1L250.5,123.2z M236.8,137.1h7.2v-1.6l-2.2-0.5v-14.1l2.2-0.5v-1.6l-7.2,0.1v1.4l2.2,0.5V135l-2.2,0.5V137.1z
	 M219.3,128.6c0.2-2,1.3-3.6,3.4-3.6c2.1,0,2.9,1.6,2.9,3.6H219.3z M228.2,130.6c0-0.1,0.1-0.8,0.1-1.4c0-3.9-1.7-6.2-5.5-6.2
	c-3.8,0-6.4,3.1-6.4,7.3c0,4.3,2.1,7.1,6.3,7.1c3.1,0,5.6-2.2,5.6-2.2l-0.9-1.4c0,0-1.8,1.4-4.4,1.4c-2.3,0-3.8-1.8-3.8-4.7H228.2z
	 M214.5,135.7l-2-0.7v-11.8l-4.8,0.1v1.4l2.2,0.5v9.7l-2.2,0.7v1.4h6.8V135.7z M209.4,118.9c0,1.2,0.7,1.8,1.7,1.8
	c0.8,0,1.7-0.7,1.7-1.8c0-1.3-0.7-1.8-1.7-1.8C210.2,117.1,209.4,117.7,209.4,118.9 M193.7,135v-14.1h3.1c3.3,0,5.4,2.1,5.4,6.9
	c0,5-2.2,7.2-5.5,7.2H193.7z M190.9,135l-2.2,0.5v1.6h7.9c5.2,0,8.6-3.7,8.6-9.4c0-5.8-3.1-8.9-8.3-8.9h-3.3l-5,0.1v1.4l2.2,0.5V135
	z M247.9,27.4h21.5V96h-21.5V27.4z M247.9,19.2h21.5V0h-21.5V19.2z M353.7,96h21.5V57.2c0-9.5,4.7-14.2,11.1-14.2
	c8,0,10.6,5.9,10.6,12.9v40h21.5V48.5c0-15.3-10.3-22.6-22.6-22.6c-8.5,0-15.6,3.1-20.7,10h-0.3v-8.6h-21.1V96z M157.2,67.1h-10.3
	c-6.3,0-10.8,1.8-10.8,7.4c0,4.4,2.9,7.4,9.5,7.4c8,0,11.6-4.4,11.6-11V67.1z M178.7,96h-12.3h-9.2v-6.6c-5.7,6.7-13.4,8-19.9,8
	c-13.2,0-22.7-7.2-22.7-20.1c0-16.2,16.9-22.2,30.8-22.2h11.9v-5.3c0-5.6-3.8-8.6-10.7-8.6c-6.9,0-10.2,3.3-10.2,6.9v2h-19.2v-2.5
	c0-14.9,14.9-21.6,30.5-21.6c15.8,0,31,6.3,31,23.6V96z M321.5,67.1h-10.3c-6.3,0-10.8,1.8-10.8,7.4c0,4.4,2.9,7.4,9.5,7.4
	c8,0,11.6-4.4,11.6-11V67.1z M343,96h-12.3h-9.2v-6.6c-5.7,6.7-13.4,8-19.9,8c-13.2,0-22.7-7.2-22.7-20.1c0-16.2,17-22.2,30.8-22.2
	h11.9v-5.3c0-5.6-3.8-8.6-10.7-8.6c-6.9,0-10.2,3.3-10.2,6.9v2h-19.2v-2.5c0-14.9,14.9-21.6,30.5-21.6c15.8,0,31,6.3,31,23.6V96z
	 M0,96h21.5V56.3c0-9.4,5.7-13.3,10.6-13.3c8.7,0,10.4,6.8,10.4,12.9v40H64V56.7C64,48.5,67.9,43,74.6,43c8.3,0,10.3,6.4,10.3,12.8
	V96h21.5V47.6c0-15.5-11.5-21.6-22.4-21.6c-9.4,0-16.8,3.7-22,10.7h-0.3C57.9,28.9,50.2,25.9,42,25.9c-8.6,0-15.6,3.3-20.7,10.4H21
	v-9H0V96z M189.9,96h21.5V60.2c0-11.9,9.3-15.6,18.3-15.6c2,0,5.9,0.3,9.1,0.8V26.9c-2.1-0.5-4.8-0.7-6.8-0.7
	c-8.5,0-17.2,5.9-20.9,12.5H211V27.4h-21.1V96z"/>
</svg>
